<svg xmlns="http://www.w3.org/2000/svg" xmlns:xlink="http://www.w3.org/1999/xlink" version="1.1" width="256" height="256" viewBox="0 0 256 256" xml:space="preserve">
<desc>Created with Fabric.js 1.7.22</desc>
<defs>
</defs>
<g transform="translate(128 128) scale(0.72 0.72)" style="">
	<g style="stroke: none; stroke-width: 0; stroke-dasharray: none; stroke-linecap: butt; stroke-linejoin: miter; stroke-miterlimit: 10; fill: none; fill-rule: nonzero; opacity: 1;" transform="translate(-175.05 -175.05000000000004) scale(3.89 3.89)" >
	<path d="M 45 22.823 c -20.323 -9.81 -40.707 6.235 -36.587 30.62 C 12.801 74.233 26.495 91.716 45 88.647 c 18.505 3.068 32.199 -14.415 36.587 -35.205 C 85.707 29.058 65.323 13.012 45 22.823 z" style="stroke: none; stroke-width: 1; stroke-dasharray: none; stroke-linecap: butt; stroke-linejoin: miter; stroke-miterlimit: 10; fill: rgb(255,83,104); fill-rule: nonzero; opacity: 1;" transform=" matrix(1 0 0 1 0 0) " stroke-linecap="round" />
	<path d="M 56.185 19.737 c 2.26 -1.705 4.005 -4.037 5.233 -6.812 c 0.029 -0.065 0.06 -0.127 0.088 -0.192 c 0.378 -0.878 0.703 -1.8 0.98 -2.759 c 0.013 -0.045 0.028 -0.089 0.041 -0.134 c 0.017 -0.059 0.031 -0.12 0.047 -0.18 c 0.125 -0.457 0.238 -0.923 0.34 -1.396 c 0.105 -0.482 0.201 -0.969 0.282 -1.466 c 0.005 -0.032 0.012 -0.064 0.017 -0.096 c 0.088 -0.552 0.157 -1.115 0.217 -1.684 c 0.134 -1.29 0.199 -2.619 0.184 -3.982 C 51.069 0.335 44.864 10.259 45 22.823" style="stroke: none; stroke-width: 1; stroke-dasharray: none; stroke-linecap: butt; stroke-linejoin: miter; stroke-miterlimit: 10; fill: rgb(130,212,101); fill-rule: nonzero; opacity: 1;" transform=" matrix(1 0 0 1 0 0) " stroke-linecap="round" />
	<path d="M 40.769 90.002 c -17.596 0.002 -29.497 -18.17 -33.334 -36.353 C 5.364 41.396 9.218 30.283 17.739 23.883 c 7.662 -5.755 17.82 -6.553 27.261 -2.166 c 9.439 -4.386 19.598 -3.588 27.261 2.166 c 8.521 6.4 12.376 17.513 10.313 29.726 C 78.729 71.826 66.823 90 49.229 90.002 c -1.376 0 -2.785 -0.111 -4.229 -0.343 C 43.557 89.891 42.144 90.002 40.769 90.002 z M 32.77 20.92 c -5.003 0 -9.797 1.533 -13.829 4.562 c -7.911 5.943 -11.478 16.333 -9.542 27.794 c 3.951 18.715 16.72 37.483 35.437 34.384 c 0.108 -0.018 0.219 -0.018 0.327 0 c 18.715 3.103 31.487 -15.671 35.445 -34.424 c 1.929 -11.422 -1.638 -21.812 -9.549 -27.754 c -7.172 -5.386 -16.75 -6.043 -25.625 -1.759 c -0.274 0.133 -0.595 0.133 -0.869 0 C 40.681 21.848 36.662 20.92 32.77 20.92 z" style="stroke: none; stroke-width: 1; stroke-dasharray: none; stroke-linecap: butt; stroke-linejoin: miter; stroke-miterlimit: 10; fill: rgb(0,0,0); fill-rule: nonzero; opacity: 1;" transform=" matrix(1 0 0 1 0 0) " stroke-linecap="round" />
	<path d="M 45 23.823 c -0.547 0 -0.994 -0.44 -1 -0.989 c -0.084 -7.778 2.189 -14.279 6.402 -18.306 c 3.383 -3.234 7.976 -4.79 13.267 -4.489 c 0.525 0.029 0.938 0.461 0.944 0.988 c 0.015 1.37 -0.049 2.748 -0.19 4.097 C 64.363 5.708 64.291 6.29 64.2 6.86 c 0 0.001 -0.018 0.099 -0.018 0.1 c -0.084 0.515 -0.184 1.02 -0.293 1.518 c -0.105 0.488 -0.223 0.972 -0.352 1.446 l -0.049 0.187 c -0.003 0.011 -0.027 0.089 -0.03 0.1 c -0.305 1.052 -0.648 2.02 -1.034 2.918 l -0.065 0.143 c -1.361 3.07 -3.226 5.494 -5.572 7.264 c -0.442 0.332 -1.068 0.243 -1.4 -0.196 c -0.333 -0.441 -0.245 -1.068 0.195 -1.401 c 2.071 -1.563 3.726 -3.722 4.921 -6.419 c 0.003 -0.008 0.044 -0.097 0.048 -0.104 c 0.39 -0.9 0.705 -1.788 0.974 -2.719 l 1.002 0.143 l -0.963 -0.27 l 0.047 -0.18 c 0.119 -0.434 0.227 -0.882 0.325 -1.337 c 0.103 -0.466 0.194 -0.936 0.272 -1.415 c 0.001 -0.006 0.02 -0.108 0.021 -0.114 c 0.081 -0.512 0.147 -1.058 0.204 -1.607 c 0.101 -0.96 0.159 -1.936 0.177 -2.913 c -4.33 -0.048 -8.013 1.281 -10.827 3.97 c -3.807 3.64 -5.862 9.62 -5.784 16.839 c 0.006 0.552 -0.437 1.005 -0.989 1.011 C 45.007 23.823 45.003 23.823 45 23.823 z" style="stroke: none; stroke-width: 1; stroke-dasharray: none; stroke-linecap: butt; stroke-linejoin: miter; stroke-miterlimit: 10; fill: rgb(0,0,0); fill-rule: nonzero; opacity: 1;" transform=" matrix(1 0 0 1 0 0) " stroke-linecap="round" />
	<path d="M 45 23.823 c -0.003 0 -0.007 0 -0.011 0 c -0.552 -0.006 -0.995 -0.458 -0.989 -1.011 c 0.092 -8.541 -2.818 -15.305 -7.985 -18.558 c -0.467 -0.294 -0.608 -0.912 -0.313 -1.379 c 0.293 -0.468 0.911 -0.608 1.379 -0.313 C 42.849 6.193 46.1 13.582 46 22.833 C 45.994 23.382 45.547 23.823 45 23.823 z" style="stroke: none; stroke-width: 1; stroke-dasharray: none; stroke-linecap: butt; stroke-linejoin: miter; stroke-miterlimit: 10; fill: rgb(0,0,0); fill-rule: nonzero; opacity: 1;" transform=" matrix(1 0 0 1 0 0) " stroke-linecap="round" />
	<path d="M 27.557 74.338 c -0.264 0 -0.527 -0.104 -0.723 -0.31 c -1.175 -1.23 -2.292 -2.624 -3.32 -4.141 c -0.31 -0.457 -0.19 -1.079 0.268 -1.389 c 0.456 -0.31 1.079 -0.19 1.389 0.268 c 0.965 1.426 2.012 2.731 3.11 3.882 c 0.381 0.399 0.367 1.032 -0.033 1.414 C 28.054 74.246 27.806 74.338 27.557 74.338 z" style="stroke: none; stroke-width: 1; stroke-dasharray: none; stroke-linecap: butt; stroke-linejoin: miter; stroke-miterlimit: 10; fill: rgb(0,0,0); fill-rule: nonzero; opacity: 1;" transform=" matrix(1 0 0 1 0 0) " stroke-linecap="round" />
	<path d="M 20.106 62.078 c -0.402 0 -0.782 -0.244 -0.934 -0.643 c -0.915 -2.396 -1.658 -4.928 -2.206 -7.524 c -2.408 -14.248 5.763 -23.658 15.076 -25.61 c 0.541 -0.114 1.071 0.233 1.184 0.773 c 0.113 0.541 -0.233 1.07 -0.773 1.184 C 24.074 32.015 16.74 40.575 18.93 53.538 c 0.52 2.455 1.232 4.886 2.11 7.183 c 0.197 0.517 -0.061 1.095 -0.577 1.292 C 20.345 62.057 20.224 62.078 20.106 62.078 z" style="stroke: none; stroke-width: 1; stroke-dasharray: none; stroke-linecap: butt; stroke-linejoin: miter; stroke-miterlimit: 10; fill: rgb(0,0,0); fill-rule: nonzero; opacity: 1;" transform=" matrix(1 0 0 1 0 0) " stroke-linecap="round" />
</g>
</g>
</svg>