<svg xmlns="http://www.w3.org/2000/svg" xmlns:xlink="http://www.w3.org/1999/xlink" version="1.1" width="256" height="256" viewBox="0 0 256 256" xml:space="preserve">
<desc>Created with Fabric.js 1.7.22</desc>
<defs>
</defs>
<g transform="translate(128 128) scale(0.72 0.72)" style="">
	<g style="stroke: none; stroke-width: 0; stroke-dasharray: none; stroke-linecap: butt; stroke-linejoin: miter; stroke-miterlimit: 10; fill: none; fill-rule: nonzero; opacity: 1;" transform="translate(-175.05 -175.05000000000004) scale(3.89 3.89)" >
	<path d="M 45.325 82.695 c -2.71 2.732 -6.077 4.767 -9.962 5.711 C 22.821 91.454 9.84 82.337 6.795 69.796 c -4.55 -18.744 1.75 -30.216 8.073 -43.174 c 0.593 -1.216 1.703 -2.1 3.018 -2.419 l 3.56 -0.864 c 1.314 -0.319 2.706 -0.041 3.79 0.767 c 7.104 5.295 13.951 10.123 19.225 17.392 L 45.325 82.695 z" style="stroke: none; stroke-width: 1; stroke-dasharray: none; stroke-linecap: butt; stroke-linejoin: miter; stroke-miterlimit: 10; fill: rgb(130,212,101); fill-rule: nonzero; opacity: 1;" transform=" matrix(1 0 0 1 0 0) " stroke-linecap="round" />
	<path d="M 30.38 90.003 c -4.616 0 -9.243 -1.437 -13.418 -4.224 c -5.548 -3.702 -9.608 -9.442 -11.139 -15.746 c -4.423 -18.218 1.252 -29.789 7.26 -42.04 l 0.886 -1.809 c 0.725 -1.484 2.066 -2.56 3.681 -2.952 l 3.56 -0.864 c 1.614 -0.393 3.299 -0.051 4.624 0.936 l 1.508 1.121 c 6.654 4.942 12.94 9.609 17.93 16.486 c 0.324 0.447 0.225 1.072 -0.222 1.397 c -0.447 0.324 -1.073 0.224 -1.397 -0.222 c -4.81 -6.628 -10.975 -11.207 -17.503 -16.055 l -1.511 -1.123 c -0.845 -0.63 -1.923 -0.848 -2.957 -0.597 l -3.56 0.864 c -1.034 0.251 -1.893 0.939 -2.355 1.886 l -0.888 1.813 C 8.781 41.307 3.515 52.045 7.767 69.56 c 1.414 5.823 5.17 11.128 10.306 14.556 c 5.286 3.527 11.342 4.708 17.054 3.319 c 3.524 -0.856 6.805 -2.739 9.489 -5.444 c 0.388 -0.394 1.021 -0.395 1.414 -0.006 c 0.392 0.389 0.395 1.022 0.005 1.414 c -2.943 2.968 -6.552 5.035 -10.435 5.979 C 33.878 89.796 32.13 90.003 30.38 90.003 z" style="stroke: none; stroke-width: 1; stroke-dasharray: none; stroke-linecap: butt; stroke-linejoin: miter; stroke-miterlimit: 10; fill: rgb(0,0,0); fill-rule: nonzero; opacity: 1;" transform=" matrix(1 0 0 1 0 0) " stroke-linecap="round" />
	<path d="M 15.733 72.59 c -0.338 0 -0.668 -0.172 -0.856 -0.482 c -0.997 -1.648 -1.728 -3.412 -2.172 -5.243 c -2.615 -10.768 -0.235 -18.37 2.725 -24.98 c 0.226 -0.504 0.818 -0.728 1.321 -0.504 c 0.504 0.226 0.729 0.817 0.504 1.321 c -3.253 7.264 -4.942 14.073 -2.607 23.691 c 0.396 1.632 1.049 3.206 1.94 4.679 c 0.286 0.473 0.135 1.087 -0.338 1.373 C 16.088 72.543 15.909 72.59 15.733 72.59 z" style="stroke: none; stroke-width: 1; stroke-dasharray: none; stroke-linecap: butt; stroke-linejoin: miter; stroke-miterlimit: 10; fill: rgb(0,0,0); fill-rule: nonzero; opacity: 1;" transform=" matrix(1 0 0 1 0 0) " stroke-linecap="round" />
	<path d="M 25.359 80.443 c -0.108 0 -0.218 -0.018 -0.325 -0.055 c -2.004 -0.689 -3.888 -1.731 -5.6 -3.097 c -0.432 -0.344 -0.502 -0.974 -0.158 -1.405 c 0.346 -0.431 0.975 -0.502 1.405 -0.157 c 1.533 1.223 3.216 2.154 5.003 2.769 c 0.522 0.18 0.8 0.748 0.621 1.27 C 26.162 80.183 25.774 80.443 25.359 80.443 z" style="stroke: none; stroke-width: 1; stroke-dasharray: none; stroke-linecap: butt; stroke-linejoin: miter; stroke-miterlimit: 10; fill: rgb(0,0,0); fill-rule: nonzero; opacity: 1;" transform=" matrix(1 0 0 1 0 0) " stroke-linecap="round" />
	<path d="M 22.651 18.353 c 0.267 -0.14 0.524 -0.288 0.773 -0.444 c 2.896 -1.811 4.593 -4.67 5.208 -8.081 c 0.009 -0.051 0.021 -0.101 0.03 -0.152 c 0.117 -0.689 0.189 -1.401 0.22 -2.129 c 0.001 -0.034 0.005 -0.068 0.006 -0.102 C 28.89 7.4 28.889 7.354 28.89 7.309 c 0.01 -0.346 0.01 -0.697 0.001 -1.05 c -0.009 -0.36 -0.025 -0.723 -0.053 -1.09 c -0.002 -0.024 -0.002 -0.047 -0.004 -0.071 c -0.032 -0.407 -0.081 -0.819 -0.137 -1.234 c -0.127 -0.94 -0.31 -1.895 -0.556 -2.861 c -9.034 1.665 -11.731 9.786 -9.467 18.69 c 0.282 -0.052 0.558 -0.11 0.828 -0.175 c 0.688 -0.164 1.331 -0.372 1.94 -0.613 c 0.347 -0.137 0.686 -0.283 1.008 -0.443 C 22.519 18.427 22.583 18.389 22.651 18.353 z" style="stroke: none; stroke-width: 1; stroke-dasharray: none; stroke-linecap: butt; stroke-linejoin: miter; stroke-miterlimit: 10; fill: rgb(130,212,101); fill-rule: nonzero; opacity: 1;" transform=" matrix(1 0 0 1 0 0) " stroke-linecap="round" />
	<path d="M 18.674 20.693 c -0.449 0 -0.854 -0.304 -0.968 -0.753 c -1.42 -5.585 -0.914 -10.672 1.426 -14.323 c 1.886 -2.945 4.94 -4.88 8.829 -5.597 c 0.518 -0.096 1.02 0.227 1.15 0.737 c 0.249 0.982 0.444 1.982 0.578 2.973 c 0.059 0.432 0.108 0.862 0.142 1.288 c 0.034 0.46 0.051 0.84 0.06 1.219 c 0.009 0.37 0.01 0.739 -0.001 1.103 l -0.003 0.149 c 0 0.001 -0.006 0.101 -0.006 0.102 c -0.034 0.782 -0.112 1.54 -0.233 2.254 c -0.001 0.01 -0.02 0.104 -0.021 0.113 c -0.703 3.891 -2.661 6.917 -5.672 8.8 c -0.27 0.168 -0.549 0.33 -0.838 0.482 c -0.001 0 -0.001 0 -0.002 0.001 l -0.462 -0.887 l 0.396 0.923 L 22.9 19.354 c -0.35 0.175 -0.715 0.332 -1.09 0.48 c -0.68 0.269 -1.378 0.489 -2.075 0.656 c -0.287 0.068 -0.58 0.131 -0.88 0.186 C 18.794 20.687 18.734 20.693 18.674 20.693 z M 27.392 2.188 c -2.915 0.728 -5.125 2.242 -6.577 4.508 c -1.911 2.981 -2.395 7.148 -1.392 11.813 c 0.559 -0.141 1.101 -0.315 1.651 -0.533 c 0.32 -0.127 0.632 -0.26 0.929 -0.408 c 0.007 -0.004 0.162 -0.088 0.182 -0.099 l 0 0 c 0.245 -0.128 0.48 -0.264 0.708 -0.406 c 2.52 -1.576 4.165 -4.138 4.755 -7.411 l 1.013 0.026 l -0.986 -0.167 c 0.107 -0.631 0.177 -1.306 0.207 -2.005 l 0.006 -0.103 l 1.001 -0.092 l -0.999 -0.03 c 0.01 -0.328 0.009 -0.661 0.001 -0.996 c -0.008 -0.344 -0.023 -0.689 -0.05 -1.039 c -0.035 -0.457 -0.081 -0.851 -0.134 -1.247 C 27.626 3.396 27.52 2.79 27.392 2.188 z M 22.65 18.353 h 0.01 H 22.65 z" style="stroke: none; stroke-width: 1; stroke-dasharray: none; stroke-linecap: butt; stroke-linejoin: miter; stroke-miterlimit: 10; fill: rgb(0,0,0); fill-rule: nonzero; opacity: 1;" transform=" matrix(1 0 0 1 0 0) " stroke-linecap="round" />
	<path d="M 72.827 25.503 C 79.941 37.766 86.92 48.67 84.124 67.044 c -1.969 12.945 -14.387 23.721 -27.3 21.555 c -12.729 -2.135 -21.073 -15.625 -18.935 -28.353 c 3.195 -19.022 13.504 -27.087 24.416 -36.51 c 1.024 -0.884 2.393 -1.26 3.726 -1.036 l 3.613 0.607 C 70.979 23.53 72.149 24.333 72.827 25.503 z" style="stroke: none; stroke-width: 1; stroke-dasharray: none; stroke-linecap: butt; stroke-linejoin: miter; stroke-miterlimit: 10; fill: rgb(130,212,101); fill-rule: nonzero; opacity: 1;" transform=" matrix(1 0 0 1 0 0) " stroke-linecap="round" />
	<path d="M 70.149 33.973 c 5.463 9.418 10.822 17.791 8.676 31.901 c -1.512 9.941 -11.048 18.216 -20.965 16.553 c -9.775 -1.64 -16.183 -11.999 -14.541 -21.774 c 2.454 -14.608 10.37 -20.801 18.75 -28.038 c 0.786 -0.679 1.837 -0.968 2.862 -0.796 l 2.775 0.466 C 68.729 32.458 69.628 33.074 70.149 33.973 z" style="stroke: none; stroke-width: 1; stroke-dasharray: none; stroke-linecap: butt; stroke-linejoin: miter; stroke-miterlimit: 10; fill: rgb(255,240,130); fill-rule: nonzero; opacity: 1;" transform=" matrix(1 0 0 1 0 0) " stroke-linecap="round" />
	<path d="M 19.66 24.771 c -0.455 0 -0.866 -0.312 -0.973 -0.774 c -1.386 -5.991 -4.556 -10.225 -8.699 -11.614 c -0.523 -0.176 -0.805 -0.743 -0.63 -1.267 c 0.177 -0.523 0.741 -0.803 1.267 -0.63 c 4.816 1.616 8.464 6.376 10.01 13.06 c 0.125 0.538 -0.211 1.075 -0.748 1.2 C 19.811 24.763 19.735 24.771 19.66 24.771 z" style="stroke: none; stroke-width: 1; stroke-dasharray: none; stroke-linecap: butt; stroke-linejoin: miter; stroke-miterlimit: 10; fill: rgb(0,0,0); fill-rule: nonzero; opacity: 1;" transform=" matrix(1 0 0 1 0 0) " stroke-linecap="round" />
	<path d="M 60.159 89.876 c -1.171 0 -2.34 -0.097 -3.5 -0.291 c -6.354 -1.066 -11.935 -4.846 -15.715 -10.645 c -3.643 -5.588 -5.116 -12.462 -4.041 -18.861 c 3.106 -18.488 12.877 -26.89 23.223 -35.787 l 1.526 -1.314 c 1.248 -1.08 2.902 -1.541 4.546 -1.266 l 3.613 0.607 c 1.638 0.275 3.053 1.252 3.882 2.681 l 0 0 l 0.946 1.627 c 6.788 11.653 13.198 22.66 10.474 40.566 c -1.065 7.002 -5.221 13.732 -11.117 18.003 C 69.756 88.266 64.948 89.876 60.159 89.876 z M 65.267 23.635 c -0.845 0 -1.662 0.299 -2.308 0.857 l -1.529 1.317 c -10.5 9.029 -19.568 16.827 -22.554 34.602 c -0.993 5.909 0.372 12.265 3.744 17.436 c 3.471 5.325 8.575 8.792 14.37 9.765 c 5.376 0.9 10.994 -0.532 15.833 -4.036 c 5.471 -3.963 9.327 -10.199 10.314 -16.683 c 2.618 -17.208 -3.621 -27.919 -10.226 -39.259 l -0.948 -1.63 c -0.529 -0.912 -1.434 -1.536 -2.483 -1.712 l -3.613 -0.607 C 65.667 23.652 65.465 23.635 65.267 23.635 z" style="stroke: none; stroke-width: 1; stroke-dasharray: none; stroke-linecap: butt; stroke-linejoin: miter; stroke-miterlimit: 10; fill: rgb(0,0,0); fill-rule: nonzero; opacity: 1;" transform=" matrix(1 0 0 1 0 0) " stroke-linecap="round" />
	<path d="M 69.071 68.23 c -0.834 4.962 -5.336 7.141 -10.298 6.308 c -4.962 -0.834 -8.505 -4.364 -7.671 -9.326 c 0.834 -4.962 5.728 -9.476 10.69 -8.643 S 69.905 63.268 69.071 68.23 z" style="stroke: none; stroke-width: 1; stroke-dasharray: none; stroke-linecap: butt; stroke-linejoin: miter; stroke-miterlimit: 10; fill: rgb(200,110,55); fill-rule: nonzero; opacity: 1;" transform=" matrix(1 0 0 1 0 0) " stroke-linecap="round" />
	<path d="M 60.822 75.714 c -0.715 0 -1.455 -0.062 -2.215 -0.189 c -2.715 -0.456 -5.057 -1.68 -6.596 -3.444 c -1.688 -1.935 -2.344 -4.368 -1.895 -7.035 c 0.884 -5.256 6.133 -10.419 11.842 -9.463 c 5.706 0.959 8.983 7.556 8.1 12.814 l 0 0 C 69.299 72.907 65.631 75.714 60.822 75.714 z M 60.588 57.468 c -4.112 0 -7.842 3.998 -8.499 7.91 c -0.793 4.718 2.869 7.505 6.851 8.174 c 3.974 0.667 8.353 -0.769 9.146 -5.488 l 0 0 c 0.712 -4.238 -1.955 -9.752 -6.46 -10.509 C 61.278 57.496 60.932 57.468 60.588 57.468 z M 69.072 68.23 h 0.01 H 69.072 z" style="stroke: none; stroke-width: 1; stroke-dasharray: none; stroke-linecap: butt; stroke-linejoin: miter; stroke-miterlimit: 10; fill: rgb(0,0,0); fill-rule: nonzero; opacity: 1;" transform=" matrix(1 0 0 1 0 0) " stroke-linecap="round" />
	<path d="M 60.422 83.639 c -0.912 0 -1.824 -0.075 -2.727 -0.227 c -4.945 -0.829 -9.286 -3.768 -12.225 -8.277 c -2.829 -4.339 -3.973 -9.678 -3.138 -14.648 c 2.399 -14.281 9.934 -20.761 17.911 -27.62 l 1.172 -1.009 c 1.013 -0.875 2.358 -1.247 3.68 -1.025 l 2.775 0.466 c 1.325 0.223 2.472 1.014 3.143 2.172 l 0 0 l 0.726 1.247 c 5.234 8.986 10.178 17.473 8.073 31.306 c -0.826 5.437 -4.052 10.662 -8.629 13.978 C 67.887 82.388 64.148 83.639 60.422 83.639 z M 64.344 32.77 c -0.595 0 -1.169 0.21 -1.623 0.602 l -1.174 1.011 c -8.03 6.905 -14.965 12.868 -17.243 26.436 c -0.753 4.481 0.282 9.301 2.84 13.225 c 2.631 4.034 6.495 6.661 10.88 7.396 c 4.067 0.682 8.32 -0.404 11.985 -3.058 c 4.153 -3.008 7.079 -7.74 7.827 -12.658 c 1.999 -13.135 -2.554 -20.95 -7.825 -29.998 l -0.727 -1.25 c -0.372 -0.641 -1.008 -1.08 -1.744 -1.203 l -2.775 -0.466 C 64.625 32.782 64.483 32.77 64.344 32.77 z" style="stroke: none; stroke-width: 1; stroke-dasharray: none; stroke-linecap: butt; stroke-linejoin: miter; stroke-miterlimit: 10; fill: rgb(0,0,0); fill-rule: nonzero; opacity: 1;" transform=" matrix(1 0 0 1 0 0) " stroke-linecap="round" />
</g>
</g>
</svg>