<svg xmlns="http://www.w3.org/2000/svg" xmlns:xlink="http://www.w3.org/1999/xlink" version="1.1" width="256" height="256" viewBox="0 0 256 256" xml:space="preserve">
<desc>Created with Fabric.js 1.7.22</desc>
<defs>
</defs>
<g transform="translate(128 128) scale(0.72 0.72)" style="">
	<g style="stroke: none; stroke-width: 0; stroke-dasharray: none; stroke-linecap: butt; stroke-linejoin: miter; stroke-miterlimit: 10; fill: none; fill-rule: nonzero; opacity: 1;" transform="translate(-175.05 -175.05000000000004) scale(3.89 3.89)" >
	<path d="M 87.071 25.381 C 86.37 18.293 86.393 13.496 89 8.89 c -4.55 0.117 -8.093 1.748 -11.124 4.324 l 0.847 5.69 c -0.591 6.446 -5.008 14.745 -9.871 19.11 l 9.942 11.989 l 2.666 2.71 l 2.638 2.285 c 0.684 -1.278 1.291 -2.585 1.834 -3.909 l 0.002 0 l 0 -0.003 C 89.291 42.896 89.915 33.927 87.071 25.381 z" style="stroke: none; stroke-width: 1; stroke-dasharray: none; stroke-linecap: butt; stroke-linejoin: miter; stroke-miterlimit: 10; fill: rgb(255,207,93); fill-rule: nonzero; opacity: 1;" transform=" matrix(1 0 0 1 0 0) " stroke-linecap="round" />
	<path d="M 42.535 49.436 c -1.622 0.213 -3.275 0.361 -4.954 0.438 c -12.694 0.585 -24.275 -2.959 -32.38 -9.054 c -0.92 -0.692 -2.227 -0.462 -2.846 0.508 l -1.042 1.635 c -0.345 0.541 -0.415 1.221 -0.164 1.812 c 3.283 7.727 9.482 14.167 17.41 18.383 c -3.867 -0.484 -7.533 -1.385 -10.889 -2.686 c -1.173 -0.454 -2.48 0.175 -2.842 1.379 l -0.61 2.029 c -0.202 0.672 -0.074 1.408 0.365 1.954 C 15.018 78.821 34.302 84.49 53.307 79.056 l -8.593 -12.013 l 27.878 -3.876 L 42.535 49.436 z" style="stroke: none; stroke-width: 1; stroke-dasharray: none; stroke-linecap: butt; stroke-linejoin: miter; stroke-miterlimit: 10; fill: rgb(255,207,93); fill-rule: nonzero; opacity: 1;" transform=" matrix(1 0 0 1 0 0) " stroke-linecap="round" />
	<path d="M 84.096 55.999 c -0.159 0 -0.32 -0.038 -0.471 -0.118 c -0.487 -0.261 -0.671 -0.866 -0.41 -1.354 c 4.969 -9.292 6.001 -19.532 2.906 -28.83 c -0.023 -0.071 -0.039 -0.144 -0.046 -0.217 c -0.651 -6.588 -0.639 -11.205 1.242 -15.469 c -3.267 0.389 -6.096 1.671 -8.795 3.965 c -0.421 0.359 -1.054 0.306 -1.409 -0.114 c -0.357 -0.42 -0.307 -1.052 0.114 -1.409 c 3.478 -2.956 7.319 -4.448 11.746 -4.562 c 0.008 0 0.017 0 0.025 0 c 0.351 0 0.676 0.184 0.857 0.485 c 0.186 0.309 0.19 0.693 0.013 1.007 c -2.417 4.271 -2.513 8.678 -1.814 15.79 c 3.226 9.797 2.135 20.551 -3.076 30.298 C 84.8 55.808 84.454 55.999 84.096 55.999 z" style="stroke: none; stroke-width: 1; stroke-dasharray: none; stroke-linecap: butt; stroke-linejoin: miter; stroke-miterlimit: 10; fill: rgb(0,0,0); fill-rule: nonzero; opacity: 1;" transform=" matrix(1 0 0 1 0 0) " stroke-linecap="round" />
	<path d="M 38.924 82.084 c -13.955 0 -27.057 -5.588 -35.12 -15.623 c -0.64 -0.797 -0.843 -1.869 -0.542 -2.869 l 0.61 -2.028 c 0.252 -0.837 0.846 -1.536 1.629 -1.919 c 0.789 -0.385 1.712 -0.421 2.532 -0.104 c 9.511 3.686 21.034 4.033 32.447 0.979 c 0.536 -0.146 1.082 0.175 1.225 0.707 c 0.143 0.534 -0.174 1.082 -0.707 1.225 c -11.82 3.164 -23.783 2.791 -33.687 -1.046 c -0.308 -0.12 -0.638 -0.106 -0.932 0.036 C 6.09 61.583 5.88 61.83 5.786 62.14 l -0.61 2.028 c -0.111 0.368 -0.041 0.757 0.187 1.041 c 10.362 12.897 29.522 18.077 47.67 12.886 c 0.527 -0.146 1.084 0.155 1.236 0.688 c 0.151 0.53 -0.156 1.084 -0.687 1.236 C 48.711 81.411 43.766 82.084 38.924 82.084 z" style="stroke: none; stroke-width: 1; stroke-dasharray: none; stroke-linecap: butt; stroke-linejoin: miter; stroke-miterlimit: 10; fill: rgb(0,0,0); fill-rule: nonzero; opacity: 1;" transform=" matrix(1 0 0 1 0 0) " stroke-linecap="round" />
	<path d="M 18.578 64.168 c -0.158 0 -0.318 -0.037 -0.468 -0.117 C 9.901 59.691 3.551 52.984 0.23 45.166 c -0.377 -0.887 -0.287 -1.912 0.242 -2.741 l 1.041 -1.634 c 0.442 -0.694 1.159 -1.176 1.967 -1.323 c 0.812 -0.149 1.659 0.053 2.322 0.552 c 8.214 6.178 19.78 9.414 31.733 8.855 c 1.63 -0.076 3.269 -0.221 4.87 -0.431 c 0.548 -0.073 1.05 0.313 1.122 0.861 c 0.072 0.547 -0.314 1.05 -0.861 1.121 c -1.657 0.218 -3.352 0.368 -5.038 0.446 c -12.413 0.575 -24.447 -2.801 -33.027 -9.254 c -0.222 -0.167 -0.49 -0.232 -0.764 -0.183 c -0.266 0.048 -0.492 0.201 -0.638 0.429 L 2.158 43.5 c -0.174 0.273 -0.207 0.603 -0.087 0.883 c 3.143 7.398 9.172 13.756 16.977 17.901 c 0.488 0.259 0.673 0.864 0.414 1.352 C 19.282 63.975 18.936 64.168 18.578 64.168 z" style="stroke: none; stroke-width: 1; stroke-dasharray: none; stroke-linecap: butt; stroke-linejoin: miter; stroke-miterlimit: 10; fill: rgb(0,0,0); fill-rule: nonzero; opacity: 1;" transform=" matrix(1 0 0 1 0 0) " stroke-linecap="round" />
	<path d="M 68.851 39.015 c -0.273 0 -0.547 -0.112 -0.744 -0.332 c -0.369 -0.411 -0.335 -1.043 0.076 -1.412 c 6.304 -5.657 11.708 -18.112 8.809 -23.589 c -0.259 -0.488 -0.072 -1.093 0.416 -1.352 c 0.49 -0.259 1.093 -0.072 1.352 0.416 c 3.425 6.47 -2.218 19.711 -9.24 26.013 C 69.328 38.93 69.09 39.015 68.851 39.015 z" style="stroke: none; stroke-width: 1; stroke-dasharray: none; stroke-linecap: butt; stroke-linejoin: miter; stroke-miterlimit: 10; fill: rgb(0,0,0); fill-rule: nonzero; opacity: 1;" transform=" matrix(1 0 0 1 0 0) " stroke-linecap="round" />
	<path d="M 56.788 38.994 c -0.436 0 -0.836 -0.287 -0.961 -0.727 c -1.596 -5.614 -0.829 -10.665 2.104 -13.86 c 0.375 -0.407 1.008 -0.433 1.412 -0.061 c 0.407 0.374 0.435 1.006 0.061 1.413 c -2.451 2.671 -3.054 7.03 -1.652 11.96 c 0.151 0.531 -0.157 1.084 -0.688 1.235 C 56.971 38.981 56.879 38.994 56.788 38.994 z" style="stroke: none; stroke-width: 1; stroke-dasharray: none; stroke-linecap: butt; stroke-linejoin: miter; stroke-miterlimit: 10; fill: rgb(0,0,0); fill-rule: nonzero; opacity: 1;" transform=" matrix(1 0 0 1 0 0) " stroke-linecap="round" />
	<path d="M 41.39 64.933 c 3.187 11.691 15.248 18.586 26.94 15.399 c 11.691 -3.187 18.586 -15.248 15.399 -26.94 c -1.646 -6.037 -5.657 -10.794 -10.762 -13.546 c -4.782 -2.577 -10.523 -3.394 -16.178 -1.853 C 46.248 40.867 39.606 50.954 40.737 61.48 C 40.861 62.629 41.077 63.783 41.39 64.933 z" style="stroke: none; stroke-width: 1; stroke-dasharray: none; stroke-linecap: butt; stroke-linejoin: miter; stroke-miterlimit: 10; fill: rgb(255,152,59); fill-rule: nonzero; opacity: 1;" transform=" matrix(1 0 0 1 0 0) " stroke-linecap="round" />
	<path d="M 53.4 29.319 c -0.21 -0.042 -0.418 -0.076 -0.625 -0.102 c -2.405 -0.299 -4.619 0.517 -6.484 2.12 c -0.028 0.024 -0.056 0.046 -0.084 0.07 c -0.373 0.327 -0.731 0.687 -1.074 1.074 c -0.016 0.018 -0.033 0.035 -0.049 0.054 c -0.021 0.024 -0.041 0.05 -0.062 0.074 c -0.161 0.186 -0.317 0.379 -0.471 0.578 c -0.156 0.202 -0.31 0.409 -0.459 0.624 c -0.01 0.014 -0.02 0.027 -0.029 0.041 c -0.164 0.239 -0.322 0.487 -0.477 0.74 c -0.351 0.574 -0.677 1.183 -0.974 1.824 c 5.72 3.125 10.839 -0.141 13.576 -6.057 c -0.179 -0.098 -0.357 -0.189 -0.534 -0.274 c -0.452 -0.217 -0.9 -0.39 -1.343 -0.53 c -0.253 -0.08 -0.504 -0.151 -0.753 -0.207 C 53.505 29.337 53.453 29.329 53.4 29.319 z" style="stroke: none; stroke-width: 1; stroke-dasharray: none; stroke-linecap: butt; stroke-linejoin: miter; stroke-miterlimit: 10; fill: rgb(130,212,101); fill-rule: nonzero; opacity: 1;" transform=" matrix(1 0 0 1 0 0) " stroke-linecap="round" />
	<path d="M 62.522 82.114 c -3.941 0 -7.833 -1.024 -11.348 -3.033 c -5.32 -3.041 -9.138 -7.973 -10.749 -13.885 l 0 0 c -0.322 -1.183 -0.552 -2.397 -0.682 -3.608 c -1.208 -11.251 5.85 -21.579 16.783 -24.559 c 5.703 -1.555 11.712 -0.866 16.916 1.937 c 5.586 3.011 9.582 8.041 11.252 14.164 c 3.326 12.205 -3.896 24.841 -16.101 28.167 C 66.586 81.844 64.548 82.114 62.522 82.114 z M 42.355 64.671 c 1.471 5.396 4.956 9.897 9.812 12.673 c 4.857 2.776 10.505 3.496 15.9 2.023 c 11.141 -3.036 17.733 -14.57 14.697 -25.712 c -1.524 -5.589 -5.172 -10.18 -10.271 -12.929 c -4.75 -2.56 -10.235 -3.188 -15.441 -1.769 c -9.98 2.721 -16.423 12.147 -15.32 22.416 C 41.851 62.48 42.061 63.59 42.355 64.671 L 42.355 64.671 z" style="stroke: none; stroke-width: 1; stroke-dasharray: none; stroke-linecap: butt; stroke-linejoin: miter; stroke-miterlimit: 10; fill: rgb(0,0,0); fill-rule: nonzero; opacity: 1;" transform=" matrix(1 0 0 1 0 0) " stroke-linecap="round" />
	<path d="M 53.643 28.347 c 0.012 0.002 0.116 0.022 0.128 0.025 c 0.28 0.062 0.56 0.141 0.84 0.229 c 0.516 0.163 0.999 0.353 1.477 0.583 c 0.192 0.093 0.386 0.192 0.58 0.298 c 0.462 0.252 0.649 0.819 0.428 1.297 c -1.75 3.785 -4.365 6.414 -7.364 7.404 c -0.886 0.292 -1.797 0.438 -2.72 0.438 c -1.614 0 -3.265 -0.445 -4.878 -1.327 c -0.462 -0.252 -0.649 -0.82 -0.428 -1.297 c 0.307 -0.663 0.652 -1.311 1.028 -1.926 c 0.165 -0.27 0.333 -0.533 0.507 -0.787 c 0.19 -0.273 0.354 -0.494 0.521 -0.71 c 0.163 -0.211 0.331 -0.418 0.502 -0.618 c 0.004 -0.005 0.072 -0.084 0.076 -0.089 c 0.421 -0.474 0.812 -0.865 1.207 -1.211 c 0.001 -0.001 0.084 -0.07 0.085 -0.071 c 2.171 -1.867 4.681 -2.685 7.266 -2.36 C 53.132 28.254 53.409 28.299 53.643 28.347 z M 45.881 33.145 c -0.142 0.166 -0.396 0.468 -0.538 0.653 c -0.147 0.19 -0.291 0.383 -0.429 0.583 c -0.182 0.263 -0.33 0.496 -0.475 0.733 c -0.168 0.275 -0.33 0.558 -0.483 0.847 c 1.767 0.76 3.495 0.868 5.148 0.323 c 2.241 -0.74 4.256 -2.666 5.742 -5.468 c -0.271 -0.115 -0.547 -0.216 -0.836 -0.308 c -0.225 -0.07 -0.447 -0.135 -0.669 -0.184 c -0.001 0 -0.141 -0.026 -0.142 -0.026 c -0.184 -0.038 -0.367 -0.066 -0.549 -0.089 c -2.008 -0.25 -3.982 0.403 -5.709 1.886 C 46.534 32.451 46.203 32.782 45.881 33.145 z" style="stroke: none; stroke-width: 1; stroke-dasharray: none; stroke-linecap: butt; stroke-linejoin: miter; stroke-miterlimit: 10; fill: rgb(0,0,0); fill-rule: nonzero; opacity: 1;" transform=" matrix(1 0 0 1 0 0) " stroke-linecap="round" />
	<path d="M 78.404 59.313 c -0.527 0 -0.969 -0.413 -0.998 -0.946 c -0.056 -1.041 -0.226 -2.089 -0.505 -3.114 c -1.372 -5.034 -5.353 -9.027 -10.387 -10.422 c -0.532 -0.147 -0.845 -0.699 -0.697 -1.231 c 0.148 -0.533 0.705 -0.842 1.23 -0.697 c 5.712 1.582 10.227 6.113 11.783 11.825 c 0.316 1.161 0.509 2.35 0.573 3.532 c 0.029 0.551 -0.394 1.022 -0.945 1.053 C 78.44 59.313 78.423 59.313 78.404 59.313 z" style="stroke: none; stroke-width: 1; stroke-dasharray: none; stroke-linecap: butt; stroke-linejoin: miter; stroke-miterlimit: 10; fill: rgb(0,0,0); fill-rule: nonzero; opacity: 1;" transform=" matrix(1 0 0 1 0 0) " stroke-linecap="round" />
	<path d="M 76.63 67.491 c -0.155 0 -0.313 -0.036 -0.462 -0.113 c -0.489 -0.256 -0.679 -0.859 -0.424 -1.35 c 0.579 -1.11 1.017 -2.291 1.3 -3.508 c 0.124 -0.539 0.661 -0.88 1.2 -0.747 c 0.538 0.125 0.872 0.662 0.747 1.2 c -0.32 1.381 -0.816 2.72 -1.474 3.98 C 77.339 67.296 76.991 67.491 76.63 67.491 z" style="stroke: none; stroke-width: 1; stroke-dasharray: none; stroke-linecap: butt; stroke-linejoin: miter; stroke-miterlimit: 10; fill: rgb(0,0,0); fill-rule: nonzero; opacity: 1;" transform=" matrix(1 0 0 1 0 0) " stroke-linecap="round" />
</g>
</g>
</svg>