<svg xmlns="http://www.w3.org/2000/svg" xmlns:xlink="http://www.w3.org/1999/xlink" version="1.1" width="256" height="256" viewBox="0 0 256 256" xml:space="preserve">
<desc>Created with Fabric.js 1.7.22</desc>
<defs>
</defs>
<g transform="translate(128 128) scale(0.72 0.72)" style="">
	<g style="stroke: none; stroke-width: 0; stroke-dasharray: none; stroke-linecap: butt; stroke-linejoin: miter; stroke-miterlimit: 10; fill: none; fill-rule: nonzero; opacity: 1;" transform="translate(-175.05 -175.05000000000004) scale(3.89 3.89)" >
	<path d="M 4.219 63.88 c -0.202 0.672 -0.074 1.408 0.365 1.954 c 10.844 13.497 31.247 19.089 50.962 12.53 c 24.441 -8.132 38.556 -31.853 31.526 -52.983 C 86.37 18.293 86.393 13.496 89 8.89 c -4.55 0.117 -8.093 1.748 -11.124 4.324 c 5.962 17.918 -9.019 39.036 -33.46 47.168 c -13.178 4.384 -26.41 4.095 -36.744 0.09 c -1.173 -0.454 -2.48 0.175 -2.842 1.379 L 4.219 63.88 z" style="stroke: none; stroke-width: 1; stroke-dasharray: none; stroke-linecap: butt; stroke-linejoin: miter; stroke-miterlimit: 10; fill: rgb(255,207,93); fill-rule: nonzero; opacity: 1;" transform=" matrix(1 0 0 1 0 0) " stroke-linecap="round" />
	<path d="M 78.771 16.656 c 0.796 17.261 -17.646 32.133 -41.19 33.219 c -12.694 0.585 -24.275 -2.959 -32.38 -9.054 c -0.92 -0.692 -2.227 -0.462 -2.846 0.508 l -1.042 1.635 c -0.345 0.541 -0.415 1.221 -0.164 1.812 c 3.285 7.733 9.491 14.177 17.428 18.393 C 53.418 72.579 83.749 45 78.771 16.656 z" style="stroke: none; stroke-width: 1; stroke-dasharray: none; stroke-linecap: butt; stroke-linejoin: miter; stroke-miterlimit: 10; fill: rgb(255,207,93); fill-rule: nonzero; opacity: 1;" transform=" matrix(1 0 0 1 0 0) " stroke-linecap="round" />
	<path d="M 79.183 21.157 c -4.011 14.39 -23.484 21.79 -43.113 16.319 c -10.583 -2.95 -19.136 -8.991 -24.144 -16.187 c -0.568 -0.817 -1.704 -0.981 -2.474 -0.352 l -1.297 1.061 c -0.429 0.351 -0.671 0.891 -0.625 1.443 c 0.83 9.882 6.779 19.261 16.009 25.36 C 48.167 59.002 76.477 46.859 79.183 21.157 z" style="stroke: none; stroke-width: 1; stroke-dasharray: none; stroke-linecap: butt; stroke-linejoin: miter; stroke-miterlimit: 10; fill: rgb(255,207,93); fill-rule: nonzero; opacity: 1;" transform=" matrix(1 0 0 1 0 0) " stroke-linecap="round" />
	<path d="M 38.734 82.122 c -13.871 0.001 -26.795 -5.536 -34.93 -15.661 c -0.64 -0.797 -0.843 -1.869 -0.542 -2.869 l 0.61 -2.028 c 0.252 -0.837 0.846 -1.536 1.629 -1.919 c 0.789 -0.385 1.712 -0.421 2.532 -0.104 c 10.495 4.066 23.64 4.027 36.066 -0.107 c 11.621 -3.866 21.434 -10.807 27.632 -19.543 c 6.131 -8.642 7.976 -18.003 5.195 -26.359 c -0.128 -0.387 -0.009 -0.813 0.302 -1.078 c 3.478 -2.956 7.319 -4.448 11.746 -4.562 c 0.008 0 0.017 0 0.025 0 c 0.351 0 0.676 0.184 0.857 0.485 c 0.186 0.309 0.19 0.693 0.013 1.007 c -2.417 4.271 -2.513 8.678 -1.814 15.79 c 3.447 10.469 1.998 21.86 -4.086 32.085 C 77.892 67.472 67.91 75.304 55.861 79.313 C 50.169 81.207 44.373 82.122 38.734 82.122 z M 6.883 61.324 c -0.173 0 -0.344 0.039 -0.505 0.117 C 6.09 61.583 5.88 61.83 5.786 62.14 l -0.61 2.028 l 0 0 c -0.111 0.368 -0.041 0.757 0.187 1.041 c 10.92 13.592 30.96 18.499 49.867 12.206 c 11.593 -3.856 21.189 -11.379 27.02 -21.18 c 5.804 -9.754 7.179 -20.599 3.871 -30.538 c -0.023 -0.071 -0.039 -0.144 -0.046 -0.217 c -0.651 -6.588 -0.639 -11.205 1.242 -15.469 c -3.061 0.364 -5.738 1.513 -8.284 3.544 c 2.68 8.805 0.679 18.539 -5.672 27.491 c -6.442 9.081 -16.61 16.285 -28.631 20.285 c -12.86 4.277 -26.499 4.307 -37.421 0.074 C 7.171 61.35 7.026 61.324 6.883 61.324 z M 4.219 63.88 h 0.01 H 4.219 z" style="stroke: none; stroke-width: 1; stroke-dasharray: none; stroke-linecap: butt; stroke-linejoin: miter; stroke-miterlimit: 10; fill: rgb(0,0,0); fill-rule: nonzero; opacity: 1;" transform=" matrix(1 0 0 1 0 0) " stroke-linecap="round" />
	<path d="M 67.335 60.324 c -0.28 0 -0.559 -0.117 -0.756 -0.346 c -0.361 -0.418 -0.316 -1.049 0.102 -1.41 c 4.165 -3.604 7.72 -8.001 10.565 -13.067 c 0.271 -0.482 0.88 -0.653 1.362 -0.382 c 0.481 0.271 0.652 0.88 0.382 1.362 c -2.96 5.269 -6.661 9.844 -11.001 13.6 C 67.8 60.244 67.567 60.324 67.335 60.324 z" style="stroke: none; stroke-width: 1; stroke-dasharray: none; stroke-linecap: butt; stroke-linejoin: miter; stroke-miterlimit: 10; fill: rgb(0,0,0); fill-rule: nonzero; opacity: 1;" transform=" matrix(1 0 0 1 0 0) " stroke-linecap="round" />
	<path d="M 56.297 67.518 c -0.373 0 -0.73 -0.209 -0.902 -0.566 c -0.239 -0.498 -0.029 -1.096 0.468 -1.335 c 1.503 -0.722 2.962 -1.511 4.337 -2.344 c 0.474 -0.283 1.087 -0.134 1.374 0.337 c 0.286 0.473 0.135 1.088 -0.337 1.374 c -1.431 0.866 -2.947 1.686 -4.507 2.436 C 56.59 67.487 56.441 67.518 56.297 67.518 z" style="stroke: none; stroke-width: 1; stroke-dasharray: none; stroke-linecap: butt; stroke-linejoin: miter; stroke-miterlimit: 10; fill: rgb(0,0,0); fill-rule: nonzero; opacity: 1;" transform=" matrix(1 0 0 1 0 0) " stroke-linecap="round" />
	<path d="M 18.578 64.168 c -0.158 0 -0.318 -0.037 -0.468 -0.117 C 9.901 59.691 3.551 52.984 0.23 45.166 c -0.377 -0.887 -0.287 -1.912 0.242 -2.741 l 1.041 -1.634 c 0.442 -0.694 1.159 -1.176 1.967 -1.323 c 0.812 -0.149 1.659 0.053 2.322 0.552 c 8.214 6.178 19.78 9.414 31.733 8.855 c 22.956 -1.059 41.007 -15.492 40.237 -32.174 c -0.025 -0.552 0.401 -1.02 0.953 -1.045 c 0.548 -0.026 1.02 0.401 1.045 0.953 c 0.82 17.784 -18.086 33.155 -42.143 34.264 c -12.405 0.575 -24.446 -2.801 -33.026 -9.254 c -0.222 -0.167 -0.49 -0.232 -0.764 -0.183 c -0.266 0.048 -0.492 0.201 -0.638 0.429 L 2.158 43.5 c -0.174 0.273 -0.207 0.603 -0.087 0.883 c 3.143 7.398 9.172 13.756 16.977 17.901 c 0.488 0.259 0.673 0.864 0.414 1.352 C 19.282 63.975 18.936 64.168 18.578 64.168 z" style="stroke: none; stroke-width: 1; stroke-dasharray: none; stroke-linecap: butt; stroke-linejoin: miter; stroke-miterlimit: 10; fill: rgb(0,0,0); fill-rule: nonzero; opacity: 1;" transform=" matrix(1 0 0 1 0 0) " stroke-linecap="round" />
	<path d="M 23.537 49.801 c -0.189 0 -0.38 -0.054 -0.55 -0.166 c -9.455 -6.247 -15.606 -16.008 -16.454 -26.11 c -0.073 -0.874 0.296 -1.734 0.987 -2.3 l 1.298 -1.062 c 0.58 -0.474 1.338 -0.686 2.078 -0.583 c 0.744 0.104 1.418 0.519 1.85 1.138 c 5.059 7.269 13.658 13.025 23.592 15.794 c 9.283 2.588 18.799 2.346 26.79 -0.683 c 7.879 -2.985 13.238 -8.291 15.092 -14.941 c 0.147 -0.532 0.698 -0.842 1.231 -0.695 c 0.532 0.148 0.843 0.7 0.694 1.232 c -2.028 7.277 -7.82 13.057 -16.308 16.274 c -8.386 3.179 -18.344 3.441 -28.036 0.74 c -10.374 -2.892 -19.376 -8.935 -24.697 -16.579 c -0.115 -0.166 -0.288 -0.272 -0.484 -0.3 c -0.196 -0.029 -0.384 0.026 -0.536 0.151 l -1.298 1.061 c -0.181 0.148 -0.279 0.368 -0.261 0.585 c 0.797 9.497 6.615 18.697 15.563 24.609 c 0.461 0.304 0.587 0.925 0.283 1.386 C 24.18 49.644 23.861 49.801 23.537 49.801 z" style="stroke: none; stroke-width: 1; stroke-dasharray: none; stroke-linecap: butt; stroke-linejoin: miter; stroke-miterlimit: 10; fill: rgb(0,0,0); fill-rule: nonzero; opacity: 1;" transform=" matrix(1 0 0 1 0 0) " stroke-linecap="round" />
</g>
</g>
</svg>