<svg xmlns="http://www.w3.org/2000/svg" xmlns:xlink="http://www.w3.org/1999/xlink" version="1.1" width="256" height="256" viewBox="0 0 256 256" xml:space="preserve">
<desc>Created with Fabric.js 1.7.22</desc>
<defs>
</defs>
<g transform="translate(128 128) scale(0.72 0.72)" style="">
	<g style="stroke: none; stroke-width: 0; stroke-dasharray: none; stroke-linecap: butt; stroke-linejoin: miter; stroke-miterlimit: 10; fill: none; fill-rule: nonzero; opacity: 1;" transform="translate(-175.05 -175.05000000000004) scale(3.89 3.89)" >
	<path d="M 55.312 57.169 c -9.774 -4.718 -19.578 2.999 -17.597 14.727 c 2.111 9.999 8.697 18.408 17.597 16.932 c 8.9 1.475 15.486 -6.933 17.597 -16.932 C 74.89 60.168 65.086 52.451 55.312 57.169 z" style="stroke: none; stroke-width: 1; stroke-dasharray: none; stroke-linecap: butt; stroke-linejoin: miter; stroke-miterlimit: 10; fill: rgb(255,83,104); fill-rule: nonzero; opacity: 1;" transform=" matrix(1 0 0 1 0 0) " stroke-linecap="round" />
	<path d="M 44.356 56.928 c -1.827 -3.558 -5.486 -6.115 -10.402 -6.438 c -6.178 -8.924 -18.512 -7.043 -22.57 4.138 c -3.093 9.74 -1.508 20.303 6.963 23.406 c 5.918 4.784 13.872 2.637 20.276 -2.75" style="stroke: none; stroke-width: 1; stroke-dasharray: none; stroke-linecap: butt; stroke-linejoin: miter; stroke-miterlimit: 10; fill: rgb(255,83,104); fill-rule: nonzero; opacity: 1;" transform=" matrix(1 0 0 1 0 0) " stroke-linecap="round" />
	<path d="M 68.455 16.578 c -0.39 0.074 -0.778 0.131 -1.163 0.173 c -4.475 0.496 -8.567 -1.073 -11.993 -4.096 c -0.051 -0.045 -0.104 -0.087 -0.155 -0.133 c -0.684 -0.617 -1.341 -1.294 -1.969 -2.021 c -0.03 -0.034 -0.06 -0.066 -0.09 -0.101 c -0.038 -0.045 -0.075 -0.093 -0.113 -0.139 c -0.294 -0.35 -0.58 -0.713 -0.86 -1.085 c -0.286 -0.38 -0.566 -0.768 -0.837 -1.17 c -0.018 -0.026 -0.036 -0.051 -0.054 -0.077 c -0.299 -0.448 -0.587 -0.913 -0.867 -1.387 c -0.637 -1.076 -1.229 -2.214 -1.764 -3.413 c 10.702 -5.665 20.131 0.527 25.07 11.583 c -0.334 0.177 -0.668 0.343 -1 0.497 c -0.845 0.393 -1.681 0.703 -2.507 0.952 c -0.471 0.142 -0.94 0.269 -1.404 0.365 C 68.651 16.546 68.553 16.559 68.455 16.578 z" style="stroke: none; stroke-width: 1; stroke-dasharray: none; stroke-linecap: butt; stroke-linejoin: miter; stroke-miterlimit: 10; fill: rgb(130,212,101); fill-rule: nonzero; opacity: 1;" transform=" matrix(1 0 0 1 0 0) " stroke-linecap="round" />
	<path d="M 53.268 90 c -8.745 0 -14.642 -8.943 -16.532 -17.898 c -1.033 -6.109 0.896 -11.641 5.153 -14.839 c 3.782 -2.84 8.769 -3.276 13.422 -1.196 c 4.654 -2.079 9.643 -1.645 13.423 1.196 c 4.257 3.197 6.186 8.729 5.16 14.799 c -2.042 9.674 -8.716 19.295 -18.583 17.778 C 54.614 89.948 53.933 90 53.268 90 z M 49.43 56.774 c -2.296 0 -4.493 0.702 -6.34 2.089 c -3.647 2.738 -5.288 7.548 -4.389 12.866 c 1.847 8.746 7.789 17.548 16.447 16.112 c 0.107 -0.018 0.219 -0.018 0.326 0 c 8.675 1.435 14.601 -7.368 16.455 -16.152 c 0.891 -5.278 -0.75 -10.088 -4.396 -12.826 c -3.29 -2.472 -7.695 -2.768 -11.788 -0.793 c -0.273 0.133 -0.596 0.133 -0.869 0 C 53.082 57.204 51.226 56.774 49.43 56.774 z" style="stroke: none; stroke-width: 1; stroke-dasharray: none; stroke-linecap: butt; stroke-linejoin: miter; stroke-miterlimit: 10; fill: rgb(0,0,0); fill-rule: nonzero; opacity: 1;" transform=" matrix(1 0 0 1 0 0) " stroke-linecap="round" />
	<path d="M 25.903 81.676 c -2.951 0 -5.708 -0.911 -8.055 -2.762 C 8.514 75.372 7.451 63.71 10.431 54.325 c 2.113 -5.825 6.518 -9.687 11.798 -10.37 c 4.694 -0.608 9.244 1.472 12.269 5.575 c 4.807 0.456 8.707 2.967 10.748 6.941 c 0.252 0.491 0.059 1.095 -0.433 1.347 c -0.492 0.253 -1.094 0.059 -1.347 -0.433 c -1.779 -3.464 -5.27 -5.614 -9.577 -5.897 c -0.305 -0.021 -0.583 -0.178 -0.757 -0.429 c -2.585 -3.735 -6.563 -5.646 -10.647 -5.121 c -4.523 0.585 -8.322 3.962 -10.161 9.03 c -2.704 8.52 -1.875 19.107 6.367 22.125 c 0.104 0.038 0.2 0.093 0.285 0.162 c 5.919 4.784 13.698 1.725 19.004 -2.737 c 0.423 -0.354 1.054 -0.3 1.409 0.122 c 0.355 0.423 0.301 1.054 -0.122 1.409 C 34.84 79.773 30.168 81.676 25.903 81.676 z" style="stroke: none; stroke-width: 1; stroke-dasharray: none; stroke-linecap: butt; stroke-linejoin: miter; stroke-miterlimit: 10; fill: rgb(0,0,0); fill-rule: nonzero; opacity: 1;" transform=" matrix(1 0 0 1 0 0) " stroke-linecap="round" />
	<path d="M 33.954 51.49 c -0.124 0 -0.249 -0.022 -0.371 -0.071 c -0.513 -0.205 -0.763 -0.787 -0.558 -1.3 c 5.905 -14.766 18.305 -25.965 40.208 -36.311 c 0.499 -0.235 1.096 -0.021 1.331 0.477 c 0.235 0.5 0.022 1.096 -0.478 1.332 C 52.678 25.73 40.586 36.6 34.883 50.861 C 34.726 51.252 34.351 51.49 33.954 51.49 z" style="stroke: none; stroke-width: 1; stroke-dasharray: none; stroke-linecap: butt; stroke-linejoin: miter; stroke-miterlimit: 10; fill: rgb(0,0,0); fill-rule: nonzero; opacity: 1;" transform=" matrix(1 0 0 1 0 0) " stroke-linecap="round" />
	<path d="M 65.677 17.841 c -3.945 0 -7.73 -1.515 -11.04 -4.437 l -0.16 -0.136 c -0.7 -0.632 -1.393 -1.342 -2.058 -2.114 l -0.097 -0.109 c -0.006 -0.006 -0.069 -0.084 -0.075 -0.09 c -0.346 -0.415 -0.643 -0.791 -0.934 -1.178 c -0.297 -0.394 -0.588 -0.796 -0.868 -1.214 c -0.364 -0.541 -0.662 -1.022 -0.951 -1.513 c -0.664 -1.12 -1.275 -2.302 -1.817 -3.513 c -0.215 -0.481 -0.021 -1.046 0.445 -1.292 c 4.53 -2.397 9.183 -2.884 13.454 -1.413 c 5.32 1.834 9.935 6.618 12.997 13.473 c 0.215 0.48 0.02 1.045 -0.445 1.292 c -0.35 0.185 -0.698 0.358 -1.045 0.52 c -0.85 0.394 -1.737 0.731 -2.641 1.003 c -0.5 0.15 -0.997 0.284 -1.488 0.387 l -0.31 0.055 c -0.002 0 -0.003 0 -0.005 0.001 c -0.416 0.078 -0.828 0.139 -1.238 0.184 C 66.824 17.809 66.249 17.841 65.677 17.841 z M 68.455 16.578 h 0.01 H 68.455 z M 53.807 9.701 c 0.659 0.762 1.371 1.505 2.007 2.078 c 0.005 0.004 0.138 0.116 0.142 0.12 c 3.363 2.968 7.246 4.303 11.226 3.858 c 0.36 -0.04 0.724 -0.093 1.089 -0.162 l 0.276 -0.048 c 0.436 -0.091 0.876 -0.211 1.32 -0.344 c 0.823 -0.248 1.601 -0.543 2.373 -0.901 c 0.035 -0.016 0.07 -0.033 0.105 -0.049 c -2.821 -5.876 -6.852 -9.954 -11.421 -11.529 C 57.398 1.506 53.694 1.8 49.906 3.587 c 0.405 0.839 0.844 1.658 1.31 2.444 c 0.272 0.459 0.548 0.908 0.838 1.34 c 0.313 0.464 0.583 0.837 0.858 1.203 c 0.27 0.359 0.545 0.708 0.827 1.045 C 53.743 9.623 53.803 9.696 53.807 9.701 z" style="stroke: none; stroke-width: 1; stroke-dasharray: none; stroke-linecap: butt; stroke-linejoin: miter; stroke-miterlimit: 10; fill: rgb(0,0,0); fill-rule: nonzero; opacity: 1;" transform=" matrix(1 0 0 1 0 0) " stroke-linecap="round" />
	<path d="M 55.311 58.17 c -0.536 0 -0.98 -0.425 -0.998 -0.965 c -0.6 -16.948 8.07 -39.297 25.314 -47.335 c 0.504 -0.236 1.096 -0.016 1.329 0.484 c 0.233 0.501 0.017 1.095 -0.483 1.329 c -16.466 7.674 -24.738 29.146 -24.162 45.452 c 0.02 0.552 -0.412 1.015 -0.964 1.034 C 55.335 58.17 55.323 58.17 55.311 58.17 z" style="stroke: none; stroke-width: 1; stroke-dasharray: none; stroke-linecap: butt; stroke-linejoin: miter; stroke-miterlimit: 10; fill: rgb(0,0,0); fill-rule: nonzero; opacity: 1;" transform=" matrix(1 0 0 1 0 0) " stroke-linecap="round" />
	<path d="M 45.619 75.176 c -0.403 0 -0.782 -0.245 -0.935 -0.644 c -0.358 -0.94 -0.648 -1.928 -0.86 -2.938 c -0.866 -5.119 1.735 -9.483 6.178 -10.415 c 0.538 -0.112 1.07 0.232 1.184 0.773 c 0.113 0.54 -0.232 1.07 -0.773 1.184 c -2.874 0.604 -5.386 3.574 -4.624 8.085 c 0.184 0.868 0.444 1.756 0.765 2.598 c 0.196 0.516 -0.063 1.094 -0.578 1.291 C 45.858 75.155 45.737 75.176 45.619 75.176 z" style="stroke: none; stroke-width: 1; stroke-dasharray: none; stroke-linecap: butt; stroke-linejoin: miter; stroke-miterlimit: 10; fill: rgb(0,0,0); fill-rule: nonzero; opacity: 1;" transform=" matrix(1 0 0 1 0 0) " stroke-linecap="round" />
	<path d="M 16.857 61.464 c -0.053 0 -0.106 -0.004 -0.16 -0.013 c -0.545 -0.087 -0.917 -0.6 -0.829 -1.146 c 0.159 -0.991 0.402 -1.991 0.723 -2.974 c 1.811 -4.867 6.247 -7.345 10.558 -5.931 c 0.525 0.172 0.811 0.737 0.639 1.262 c -0.172 0.524 -0.735 0.815 -1.262 0.639 c -2.789 -0.913 -6.451 0.401 -8.047 4.69 c -0.275 0.845 -0.494 1.743 -0.636 2.631 C 17.764 61.113 17.339 61.464 16.857 61.464 z" style="stroke: none; stroke-width: 1; stroke-dasharray: none; stroke-linecap: butt; stroke-linejoin: miter; stroke-miterlimit: 10; fill: rgb(0,0,0); fill-rule: nonzero; opacity: 1;" transform=" matrix(1 0 0 1 0 0) " stroke-linecap="round" />
</g>
</g>
</svg>