<svg xmlns="http://www.w3.org/2000/svg" xmlns:xlink="http://www.w3.org/1999/xlink" version="1.1" width="256" height="256" viewBox="0 0 256 256" xml:space="preserve">
<desc>Created with Fabric.js 1.7.22</desc>
<defs>
</defs>
<g transform="translate(128 128) scale(0.72 0.72)" style="">
	<g style="stroke: none; stroke-width: 0; stroke-dasharray: none; stroke-linecap: butt; stroke-linejoin: miter; stroke-miterlimit: 10; fill: none; fill-rule: nonzero; opacity: 1;" transform="translate(-175.05 -175.05000000000004) scale(3.89 3.89)" >
	<path d="M 45 89 c 27.367 0 33.02 -23.056 36.522 -32.129 c -3.332 2.951 -6.544 5.298 -9.608 6.887 c 0.265 -1.991 0.411 -4.105 0.411 -6.363 c 0 -5.903 -1.162 -10.834 -2.945 -15.083 c 1.305 -5.352 1.72 -11.252 0.928 -17.895 c -1.518 4.049 -3.211 7.515 -5.107 10.313 c -6.975 -10.228 -16.26 -16.154 -14.075 -25.072 c -3.415 2.732 -5.779 6.581 -7.09 11.549 C 44.396 13.72 42.535 7.061 39.063 1 v 0.918 c 2.387 9.037 -7.389 19.539 -14.584 32.347 c -1.768 -2.714 -3.354 -6.028 -4.787 -9.851 c -0.788 6.606 -0.382 12.476 0.905 17.803 c -1.925 4.752 -3.196 9.797 -3.196 15.175 c 0 2.197 0.138 4.259 0.389 6.203 c -2.975 -1.584 -6.088 -3.869 -9.312 -6.726 C 11.859 65.631 20.178 89 45 89" style="stroke: none; stroke-width: 1; stroke-dasharray: none; stroke-linecap: butt; stroke-linejoin: miter; stroke-miterlimit: 10; fill: rgb(255,83,104); fill-rule: nonzero; opacity: 1;" transform=" matrix(1 0 0 1 0 0) " stroke-linecap="round" />
	<path d="M 45 90 C 20.128 90 11.499 67.527 7.815 57.932 l -0.27 -0.701 c -0.166 -0.431 -0.016 -0.919 0.363 -1.182 c 0.378 -0.265 0.888 -0.233 1.233 0.073 c 2.62 2.321 5.117 4.21 7.446 5.634 c -0.124 -1.428 -0.186 -2.888 -0.186 -4.362 c 0 -4.941 1.031 -9.934 3.149 -15.252 c -1.329 -5.668 -1.607 -11.509 -0.852 -17.844 c 0.055 -0.458 0.416 -0.819 0.874 -0.874 c 0.463 -0.061 0.894 0.21 1.056 0.642 c 1.187 3.168 2.468 5.934 3.818 8.245 c 1.69 -2.898 3.476 -5.66 5.211 -8.344 c 5.407 -8.364 10.077 -15.588 8.438 -21.791 c -0.022 -0.083 -0.033 -0.169 -0.033 -0.255 V 1 c 0 -0.453 0.305 -0.85 0.743 -0.966 c 0.437 -0.119 0.9 0.076 1.125 0.469 c 2.855 4.982 4.506 10.065 4.996 15.415 c 1.396 -2.833 3.261 -5.191 5.575 -7.042 c 0.335 -0.269 0.801 -0.293 1.163 -0.062 c 0.361 0.23 0.535 0.665 0.434 1.081 c -1.409 5.748 2.454 10.254 7.346 15.957 c 1.812 2.114 3.836 4.473 5.723 7.086 c 1.501 -2.446 2.912 -5.424 4.206 -8.873 c 0.161 -0.433 0.591 -0.701 1.057 -0.642 c 0.458 0.055 0.818 0.417 0.873 0.875 c 0.759 6.369 0.474 12.239 -0.873 17.931 c 1.949 4.755 2.896 9.72 2.896 15.165 c 0 1.538 -0.067 3.059 -0.202 4.542 c 2.408 -1.441 5.002 -3.391 7.736 -5.813 c 0.346 -0.306 0.855 -0.337 1.233 -0.073 c 0.379 0.263 0.528 0.751 0.362 1.182 c -0.302 0.783 -0.621 1.673 -0.969 2.643 C 77.712 70.402 70.686 90 45 90 z M 10.826 60.143 C 14.928 70.328 23.732 88 45 88 c 23.613 0 30.614 -17.722 34.299 -27.955 c -2.437 1.935 -4.757 3.477 -6.926 4.6 c -0.33 0.173 -0.729 0.144 -1.035 -0.069 c -0.305 -0.215 -0.466 -0.581 -0.416 -0.95 c 0.267 -2.001 0.402 -4.098 0.402 -6.231 c 0 -5.291 -0.937 -10.098 -2.866 -14.696 c -0.083 -0.197 -0.101 -0.416 -0.05 -0.624 c 1.053 -4.317 1.467 -8.744 1.249 -13.435 c -1.14 2.542 -2.354 4.769 -3.629 6.651 c -0.186 0.274 -0.495 0.438 -0.826 0.439 c -0.001 0 -0.002 0 -0.002 0 c -0.331 0 -0.64 -0.164 -0.826 -0.437 c -2.058 -3.017 -4.29 -5.621 -6.45 -8.139 c -4.322 -5.04 -8.141 -9.492 -8.126 -14.892 c -2.207 2.403 -3.816 5.487 -4.795 9.2 c -0.131 0.495 -0.615 0.81 -1.119 0.733 c -0.506 -0.078 -0.871 -0.525 -0.847 -1.036 c 0.256 -5.332 -0.614 -10.353 -2.649 -15.229 c -0.466 5.841 -4.51 12.097 -9.05 19.12 c -2.009 3.108 -4.086 6.322 -5.987 9.705 c -0.171 0.305 -0.49 0.498 -0.839 0.51 c -0.351 0.02 -0.68 -0.161 -0.871 -0.454 c -1.15 -1.766 -2.254 -3.831 -3.299 -6.167 c -0.215 4.654 0.191 9.05 1.228 13.339 c 0.049 0.203 0.033 0.417 -0.045 0.61 c -2.101 5.187 -3.123 10.029 -3.123 14.799 c 0 2.075 0.128 4.119 0.38 6.075 c 0.048 0.371 -0.115 0.737 -0.423 0.95 c -0.309 0.213 -0.709 0.234 -1.039 0.061 C 15.275 63.39 13.101 61.938 10.826 60.143 z" style="stroke: none; stroke-width: 1; stroke-dasharray: none; stroke-linecap: butt; stroke-linejoin: miter; stroke-miterlimit: 10; fill: rgb(0,0,0); fill-rule: nonzero; opacity: 1;" transform=" matrix(1 0 0 1 0 0) " stroke-linecap="round" />
	<path d="M 55.733 72.632 c -0.329 0 -0.65 -0.162 -0.842 -0.458 c -1.705 -2.647 -3.289 -4.153 -4.821 -5.61 c -2.003 -1.903 -3.786 -3.6 -5.127 -7.21 c -1.589 4.046 -3.445 5.884 -5.534 7.953 c -1.352 1.339 -2.749 2.723 -4.331 4.911 c -0.323 0.447 -0.948 0.549 -1.396 0.225 c -0.447 -0.323 -0.548 -0.949 -0.225 -1.396 c 1.678 -2.321 3.201 -3.829 4.544 -5.16 c 2.45 -2.427 4.385 -4.344 6.037 -10.127 c 0.125 -0.438 0.55 -0.709 0.985 -0.726 c 0.455 0.011 0.846 0.328 0.95 0.771 c 1.244 5.289 3.111 7.063 5.475 9.31 c 1.542 1.466 3.29 3.128 5.125 5.976 c 0.299 0.465 0.165 1.084 -0.299 1.383 C 56.106 72.58 55.919 72.632 55.733 72.632 z" style="stroke: none; stroke-width: 1; stroke-dasharray: none; stroke-linecap: butt; stroke-linejoin: miter; stroke-miterlimit: 10; fill: rgb(0,0,0); fill-rule: nonzero; opacity: 1;" transform=" matrix(1 0 0 1 0 0) " stroke-linecap="round" />
	<path d="M 50.367 40.56 c -0.328 0 -0.65 -0.162 -0.842 -0.458 c -0.82 -1.273 -1.59 -2.005 -2.335 -2.713 c -0.802 -0.763 -1.576 -1.499 -2.219 -2.735 c -0.717 1.418 -1.525 2.218 -2.415 3.1 c -0.661 0.655 -1.345 1.332 -2.112 2.393 c -0.324 0.447 -0.948 0.548 -1.396 0.225 c -0.447 -0.324 -0.548 -0.949 -0.225 -1.396 c 0.863 -1.194 1.64 -1.963 2.326 -2.643 c 1.219 -1.207 2.1 -2.079 2.89 -4.845 c 0.125 -0.437 0.55 -0.761 0.985 -0.725 c 0.455 0.011 0.846 0.327 0.95 0.771 c 0.588 2.499 1.43 3.3 2.595 4.408 c 0.792 0.752 1.688 1.605 2.639 3.079 c 0.299 0.464 0.165 1.083 -0.299 1.382 C 50.74 40.508 50.553 40.56 50.367 40.56 z" style="stroke: none; stroke-width: 1; stroke-dasharray: none; stroke-linecap: butt; stroke-linejoin: miter; stroke-miterlimit: 10; fill: rgb(0,0,0); fill-rule: nonzero; opacity: 1;" transform=" matrix(1 0 0 1 0 0) " stroke-linecap="round" />
</g>
</g>
</svg>