<svg xmlns="http://www.w3.org/2000/svg" xmlns:xlink="http://www.w3.org/1999/xlink" version="1.1" width="256" height="256" viewBox="0 0 256 256" xml:space="preserve">
<desc>Created with Fabric.js 1.7.22</desc>
<defs>
</defs>
<g transform="translate(128 128) scale(0.72 0.72)" style="">
	<g style="stroke: none; stroke-width: 0; stroke-dasharray: none; stroke-linecap: butt; stroke-linejoin: miter; stroke-miterlimit: 10; fill: none; fill-rule: nonzero; opacity: 1;" transform="translate(-175.05 -175.05000000000004) scale(3.89 3.89)" >
	<path d="M 47.254 15.551 L 47.254 15.551 c 2.154 -1.095 4.784 -0.483 6.233 1.45 l 0.696 0.928 c 0.855 1.141 2.16 1.86 3.581 1.974 l 0.718 0.058 c 2.06 0.166 3.804 1.588 4.379 3.574 l 0.888 3.063 c 0.316 1.089 0.994 2.038 1.922 2.688 l 2.031 1.424 c 1.376 0.965 2.172 2.56 2.116 4.24 l -0.151 4.491 c -0.032 0.945 0.207 1.88 0.688 2.695 l 2.047 3.468 c 0.761 1.289 0.901 2.852 0.381 4.255 l -1.557 4.204 c -0.316 0.852 -0.392 1.775 -0.22 2.668 l 0.88 4.567 c 0.295 1.53 -0.145 3.11 -1.187 4.268 l -2.232 2.479 c -0.683 0.759 -1.116 1.71 -1.24 2.723 l -0.485 3.966 c -0.226 1.844 -1.46 3.408 -3.201 4.057 l -1.463 0.545 c -1.196 0.446 -2.175 1.334 -2.734 2.481 l -0.956 1.96 c -0.995 2.04 -3.244 3.148 -5.468 2.693 l -0.14 -0.029 c -1.512 -0.309 -3.083 0.101 -4.251 1.111 l -0.276 0.239 c -1.868 1.616 -4.639 1.616 -6.508 0 l -0.276 -0.239 c -1.168 -1.01 -2.738 -1.42 -4.251 -1.111 l -0.14 0.029 c -2.224 0.455 -4.473 -0.653 -5.468 -2.693 l -0.956 -1.96 c -0.559 -1.147 -1.538 -2.036 -2.734 -2.481 l -1.463 -0.545 c -1.741 -0.648 -2.975 -2.213 -3.201 -4.057 l -0.485 -3.966 c -0.124 -1.014 -0.557 -1.964 -1.24 -2.723 l -2.232 -2.479 c -1.043 -1.158 -1.482 -2.738 -1.187 -4.268 l 0.88 -4.567 c 0.172 -0.893 0.096 -1.815 -0.22 -2.668 l -1.557 -4.204 c -0.52 -1.403 -0.38 -2.966 0.381 -4.255 l 2.047 -3.468 c 0.481 -0.815 0.719 -1.75 0.688 -2.695 l -0.151 -4.491 c -0.056 -1.68 0.739 -3.275 2.116 -4.24 l 2.031 -1.424 c 0.928 -0.651 1.607 -1.599 1.922 -2.688 l 0.888 -3.063 c 0.575 -1.985 2.319 -3.408 4.379 -3.574 l 0.718 -0.058 c 1.421 -0.114 2.726 -0.833 3.581 -1.974 l 0.696 -0.928 c 1.45 -1.933 4.079 -2.545 6.233 -1.45 l 0 0 C 44.162 16.271 45.838 16.271 47.254 15.551 z" style="stroke: none; stroke-width: 1; stroke-dasharray: none; stroke-linecap: butt; stroke-linejoin: miter; stroke-miterlimit: 10; fill: rgb(130,212,101); fill-rule: nonzero; opacity: 1;" transform=" matrix(1 0 0 1 0 0) " stroke-linecap="round" />
	<path d="M 45 89.995 c -1.397 0 -2.794 -0.482 -3.908 -1.446 l -0.276 -0.239 c -0.926 -0.801 -2.194 -1.129 -3.395 -0.887 l -0.143 0.029 c -2.672 0.549 -5.37 -0.784 -6.565 -3.236 l -0.956 -1.96 c -0.449 -0.921 -1.225 -1.625 -2.185 -1.982 l -1.463 -0.545 c -2.099 -0.782 -3.572 -2.649 -3.844 -4.873 L 21.78 70.89 c -0.1 -0.814 -0.442 -1.566 -0.991 -2.175 l -2.232 -2.48 c -1.245 -1.383 -1.778 -3.299 -1.426 -5.126 l 0.88 -4.569 c 0.137 -0.712 0.077 -1.449 -0.176 -2.131 l -1.557 -4.204 c -0.627 -1.694 -0.46 -3.556 0.458 -5.111 l 2.047 -3.468 c 0.385 -0.652 0.575 -1.397 0.549 -2.153 l -0.15 -4.491 c -0.068 -2.025 0.881 -3.929 2.541 -5.092 l 2.031 -1.424 c 0.739 -0.518 1.285 -1.281 1.536 -2.148 l 0.888 -3.063 c 0.687 -2.37 2.8 -4.095 5.259 -4.292 l 0.718 -0.058 c 1.135 -0.091 2.178 -0.667 2.861 -1.577 l 0.696 -0.928 c 1.743 -2.327 4.892 -3.061 7.486 -1.742 c 1.128 0.573 2.475 0.573 3.602 0 l 0 0 c 2.594 -1.318 5.743 -0.586 7.486 1.742 l 0.696 0.927 c 0.684 0.911 1.726 1.486 2.861 1.578 l 0.719 0.058 c 2.459 0.197 4.573 1.922 5.259 4.292 l 0.888 3.063 c 0.25 0.866 0.796 1.629 1.535 2.148 l 2.031 1.424 c 1.659 1.164 2.609 3.067 2.54 5.092 l -0.15 4.491 c -0.025 0.755 0.165 1.5 0.55 2.154 l 2.047 3.468 c 0.917 1.554 1.084 3.417 0.457 5.111 l -1.557 4.205 c -0.252 0.681 -0.313 1.418 -0.175 2.13 l 0.88 4.568 c 0.352 1.827 -0.182 3.744 -1.427 5.127 l -2.232 2.48 c -0.549 0.61 -0.892 1.362 -0.991 2.175 l -0.485 3.966 c -0.272 2.223 -1.744 4.09 -3.843 4.873 l -1.464 0.545 c -0.959 0.357 -1.735 1.061 -2.183 1.982 l -0.957 1.96 c -1.194 2.451 -3.893 3.782 -6.566 3.235 l -0.139 -0.027 c -1.198 -0.247 -2.471 0.084 -3.397 0.886 l -0.276 0.239 C 47.794 89.513 46.398 89.995 45 89.995 z M 38.203 85.343 c 1.424 0 2.83 0.511 3.921 1.454 l 0.276 0.239 c 1.482 1.282 3.718 1.28 5.199 0 l 0.276 -0.239 c 1.393 -1.205 3.301 -1.704 5.105 -1.334 l 0.139 0.027 c 1.772 0.363 3.575 -0.521 4.369 -2.152 l 0.957 -1.96 c 0.674 -1.384 1.84 -2.442 3.284 -2.98 l 1.463 -0.545 c 1.396 -0.52 2.375 -1.762 2.557 -3.24 l 0.485 -3.966 c 0.149 -1.223 0.664 -2.354 1.489 -3.271 l 2.232 -2.48 c 0.828 -0.92 1.183 -2.195 0.949 -3.41 l -0.881 -4.568 c -0.206 -1.071 -0.114 -2.18 0.265 -3.203 l 1.557 -4.206 c 0.417 -1.126 0.306 -2.365 -0.305 -3.399 l -2.047 -3.468 c -0.579 -0.982 -0.864 -2.102 -0.825 -3.238 l 0.15 -4.49 c 0.045 -1.347 -0.587 -2.613 -1.691 -3.387 l -2.031 -1.424 c -1.111 -0.78 -1.931 -1.926 -2.309 -3.229 L 61.9 23.813 c -0.456 -1.576 -1.862 -2.724 -3.497 -2.855 L 57.684 20.9 c -1.706 -0.137 -3.274 -1.001 -4.3 -2.371 l -0.696 -0.927 c -1.16 -1.548 -3.252 -2.036 -4.98 -1.159 c -1.695 0.861 -3.719 0.861 -5.415 0 c -1.724 -0.878 -3.819 -0.39 -4.98 1.158 l -0.696 0.928 c -1.026 1.37 -2.595 2.234 -4.301 2.371 l -0.718 0.058 c -1.636 0.132 -3.042 1.279 -3.498 2.855 l -0.888 3.063 c -0.377 1.303 -1.197 2.45 -2.309 3.229 l -2.03 1.424 c -1.104 0.774 -1.736 2.04 -1.69 3.387 l 0.15 4.491 c 0.038 1.138 -0.248 2.257 -0.826 3.237 l -2.047 3.468 c -0.61 1.034 -0.721 2.274 -0.304 3.399 l 1.557 4.205 c 0.379 1.025 0.47 2.133 0.264 3.204 l -0.88 4.568 c -0.234 1.215 0.121 2.49 0.949 3.41 l 2.232 2.48 c 0.825 0.916 1.34 2.047 1.49 3.271 l 0.485 3.966 c 0.181 1.479 1.161 2.72 2.557 3.24 l 1.463 0.545 c 1.443 0.537 2.609 1.596 3.284 2.98 l 0.956 1.96 c 0.795 1.631 2.593 2.519 4.368 2.153 l 0.143 -0.029 C 37.412 85.382 37.808 85.343 38.203 85.343 z" style="stroke: none; stroke-width: 1; stroke-dasharray: none; stroke-linecap: butt; stroke-linejoin: miter; stroke-miterlimit: 10; fill: rgb(0,0,0); fill-rule: nonzero; opacity: 1;" transform=" matrix(1 0 0 1 0 0) " stroke-linecap="round" />
	<path d="M 48.627 82.818 c -0.146 0 -0.297 -0.032 -0.438 -0.102 c -0.496 -0.242 -0.702 -0.841 -0.46 -1.337 c 0.676 -1.385 1.842 -2.443 3.285 -2.98 l 1.463 -0.545 c 1.396 -0.52 2.375 -1.762 2.557 -3.24 l 0.485 -3.966 c 0.149 -1.225 0.664 -2.356 1.489 -3.271 l 2.232 -2.48 c 0.827 -0.92 1.182 -2.195 0.948 -3.41 l -0.88 -4.568 c -0.206 -1.071 -0.114 -2.18 0.265 -3.203 l 1.557 -4.206 c 0.416 -1.125 0.306 -2.365 -0.305 -3.399 l -2.047 -3.468 c -0.579 -0.98 -0.864 -2.1 -0.825 -3.238 l 0.15 -4.49 c 0.045 -1.347 -0.587 -2.613 -1.691 -3.387 l -2.031 -1.424 c -1.11 -0.779 -1.931 -1.926 -2.309 -3.229 l -0.888 -3.063 c -0.153 -0.53 0.152 -1.085 0.683 -1.239 c 0.534 -0.153 1.086 0.152 1.239 0.682 l 0.888 3.063 c 0.251 0.867 0.796 1.63 1.535 2.148 l 2.031 1.424 c 1.659 1.164 2.609 3.067 2.54 5.092 l -0.15 4.491 c -0.025 0.757 0.164 1.501 0.55 2.153 l 2.047 3.469 c 0.917 1.556 1.084 3.418 0.457 5.111 l -1.557 4.205 c -0.252 0.681 -0.313 1.418 -0.175 2.13 l 0.879 4.569 c 0.352 1.825 -0.182 3.743 -1.426 5.126 l -2.232 2.48 c -0.549 0.609 -0.892 1.361 -0.991 2.175 l -0.485 3.966 c -0.272 2.223 -1.744 4.09 -3.843 4.873 l -1.464 0.545 c -0.959 0.356 -1.735 1.061 -2.185 1.982 C 49.354 82.611 48.998 82.818 48.627 82.818 z" style="stroke: none; stroke-width: 1; stroke-dasharray: none; stroke-linecap: butt; stroke-linejoin: miter; stroke-miterlimit: 10; fill: rgb(0,0,0); fill-rule: nonzero; opacity: 1;" transform=" matrix(1 0 0 1 0 0) " stroke-linecap="round" />
	<path d="M 41.372 82.818 c -0.371 0 -0.727 -0.206 -0.9 -0.562 c -0.449 -0.921 -1.225 -1.625 -2.184 -1.982 l -1.463 -0.545 c -2.098 -0.782 -3.571 -2.649 -3.844 -4.872 l -0.485 -3.967 c -0.1 -0.814 -0.442 -1.566 -0.991 -2.175 l -2.232 -2.48 c -1.244 -1.383 -1.778 -3.299 -1.426 -5.126 l 0.879 -4.569 c 0.137 -0.713 0.077 -1.449 -0.175 -2.13 l -1.557 -4.206 c -0.627 -1.693 -0.46 -3.556 0.458 -5.11 l 2.047 -3.468 c 0.385 -0.652 0.575 -1.397 0.549 -2.153 l -0.151 -4.491 c -0.067 -2.026 0.882 -3.929 2.541 -5.092 l 2.031 -1.424 c 0.739 -0.518 1.285 -1.281 1.536 -2.148 l 0.888 -3.063 c 0.154 -0.531 0.711 -0.835 1.239 -0.682 c 0.53 0.154 0.836 0.709 0.682 1.239 l -0.888 3.063 c -0.377 1.303 -1.197 2.449 -2.308 3.229 l -2.031 1.424 c -1.104 0.774 -1.736 2.04 -1.691 3.388 l 0.151 4.49 c 0.038 1.137 -0.248 2.256 -0.826 3.237 l -2.047 3.469 c -0.61 1.034 -0.721 2.273 -0.304 3.399 l 1.556 4.206 c 0.379 1.023 0.47 2.13 0.264 3.203 l -0.879 4.568 c -0.234 1.215 0.121 2.49 0.949 3.41 l 2.232 2.48 c 0.825 0.917 1.34 2.047 1.489 3.271 l 0.485 3.966 c 0.181 1.478 1.161 2.72 2.557 3.24 l 1.463 0.545 c 1.443 0.538 2.609 1.596 3.284 2.98 c 0.242 0.496 0.036 1.096 -0.46 1.337 C 41.669 82.785 41.519 82.818 41.372 82.818 z" style="stroke: none; stroke-width: 1; stroke-dasharray: none; stroke-linecap: butt; stroke-linejoin: miter; stroke-miterlimit: 10; fill: rgb(0,0,0); fill-rule: nonzero; opacity: 1;" transform=" matrix(1 0 0 1 0 0) " stroke-linecap="round" />
	<path d="M 44.999 17.101 c -0.003 0 -0.007 0 -0.011 0 c -0.552 -0.006 -0.995 -0.459 -0.989 -1.011 c 0.071 -6.566 -2.156 -11.76 -6.109 -14.249 c -0.467 -0.294 -0.608 -0.912 -0.314 -1.379 c 0.293 -0.468 0.912 -0.607 1.379 -0.314 c 4.555 2.868 7.122 8.686 7.044 15.963 C 45.993 16.661 45.546 17.101 44.999 17.101 z" style="stroke: none; stroke-width: 1; stroke-dasharray: none; stroke-linecap: butt; stroke-linejoin: miter; stroke-miterlimit: 10; fill: rgb(0,0,0); fill-rule: nonzero; opacity: 1;" transform=" matrix(1 0 0 1 0 0) " stroke-linecap="round" />
</g>
</g>
</svg>