<svg xmlns="http://www.w3.org/2000/svg" xmlns:xlink="http://www.w3.org/1999/xlink" version="1.1" width="256" height="256" viewBox="0 0 256 256" xml:space="preserve">
<desc>Created with Fabric.js 1.7.22</desc>
<defs>
</defs>
<g transform="translate(128 128) scale(0.72 0.72)" style="">
	<g style="stroke: none; stroke-width: 0; stroke-dasharray: none; stroke-linecap: butt; stroke-linejoin: miter; stroke-miterlimit: 10; fill: none; fill-rule: nonzero; opacity: 1;" transform="translate(-175.05 -175.05000000000004) scale(3.89 3.89)" >
	<path d="M 30.13 23.988 c 1.363 -1.028 2.415 -2.434 3.156 -4.108 c 0.017 -0.039 0.036 -0.077 0.053 -0.116 c 0.228 -0.529 0.424 -1.086 0.591 -1.664 c 0.008 -0.027 0.017 -0.054 0.025 -0.081 c 0.01 -0.036 0.018 -0.073 0.028 -0.108 c 0.076 -0.275 0.143 -0.557 0.205 -0.842 c 0.063 -0.29 0.121 -0.584 0.17 -0.884 c 0.003 -0.02 0.007 -0.038 0.01 -0.058 c 0.053 -0.333 0.095 -0.672 0.131 -1.015 c 0.081 -0.778 0.12 -1.579 0.111 -2.401 c -7.564 -0.423 -11.306 5.561 -11.224 13.137" style="stroke: none; stroke-width: 1; stroke-dasharray: none; stroke-linecap: butt; stroke-linejoin: miter; stroke-miterlimit: 10; fill: rgb(130,212,101); fill-rule: nonzero; opacity: 1;" transform=" matrix(1 0 0 1 0 0) " stroke-linecap="round" />
	<path d="M 45.72 42.029 c 0.916 -13.398 -10.726 -21.784 -22.335 -16.18 C 11.13 19.933 -1.162 29.608 1.323 44.313 C 3.969 56.85 12.227 67.392 23.385 65.542 c 0.477 0.079 0.949 0.136 1.416 0.17" style="stroke: none; stroke-width: 1; stroke-dasharray: none; stroke-linecap: butt; stroke-linejoin: miter; stroke-miterlimit: 10; fill: rgb(255,83,104); fill-rule: nonzero; opacity: 1;" transform=" matrix(1 0 0 1 0 0) " stroke-linecap="round" />
	<path d="M 23.732 42.886 c 0.049 -0.197 0.105 -0.39 0.166 -0.578 c 0.72 -2.187 2.32 -3.758 4.455 -4.708 c 0.032 -0.014 0.062 -0.03 0.095 -0.044 c 0.432 -0.187 0.887 -0.349 1.359 -0.486 c 0.022 -0.006 0.044 -0.014 0.066 -0.02 c 0.029 -0.008 0.059 -0.015 0.089 -0.023 c 0.225 -0.062 0.455 -0.118 0.688 -0.169 c 0.237 -0.052 0.477 -0.1 0.722 -0.141 c 0.016 -0.003 0.031 -0.006 0.047 -0.009 c 0.272 -0.044 0.549 -0.079 0.83 -0.109 c 0.636 -0.068 1.291 -0.101 1.963 -0.095 c 0.361 6.183 -4.524 9.253 -10.718 9.201 c -0.011 -0.193 -0.017 -0.383 -0.019 -0.571 c -0.003 -0.477 0.03 -0.931 0.09 -1.369 c 0.034 -0.249 0.075 -0.495 0.129 -0.731 C 23.705 42.984 23.72 42.936 23.732 42.886 z" style="stroke: none; stroke-width: 1; stroke-dasharray: none; stroke-linecap: butt; stroke-linejoin: miter; stroke-miterlimit: 10; fill: rgb(130,212,101); fill-rule: nonzero; opacity: 1;" transform=" matrix(1 0 0 1 0 0) " stroke-linecap="round" />
	<path d="M 50.67 42.642 c 0.639 -1.324 1.418 -2.568 2.318 -3.713 c 1.174 -1.493 1.794 -3.342 1.756 -5.241 c -0.02 -1.022 0.071 -2.072 0.292 -3.142 c 1.254 -6.071 6.443 -10.684 12.622 -11.187 c 8.32 -0.678 15.282 5.874 15.282 14.051 c 0 0.08 -0.001 0.16 -0.002 0.24 c -0.034 1.952 0.63 3.83 1.828 5.371 c 3.003 3.864 4.633 8.848 4.149 14.222 c -0.879 9.761 -8.867 17.568 -18.645 18.243 c -1.886 0.13 -3.721 0.001 -5.473 -0.356" style="stroke: none; stroke-width: 1; stroke-dasharray: none; stroke-linecap: butt; stroke-linejoin: miter; stroke-miterlimit: 10; fill: rgb(255,240,130); fill-rule: nonzero; opacity: 1;" transform=" matrix(1 0 0 1 0 0) " stroke-linecap="round" />
	<path d="M 65.43 18.994 c -0.239 -0.059 -0.471 -0.128 -0.699 -0.203 c -2.645 -0.878 -4.54 -2.818 -5.685 -5.404 c -0.017 -0.039 -0.036 -0.076 -0.053 -0.115 c -0.226 -0.524 -0.419 -1.074 -0.584 -1.646 c -0.008 -0.027 -0.017 -0.053 -0.024 -0.08 c -0.01 -0.035 -0.018 -0.072 -0.028 -0.107 c -0.075 -0.273 -0.142 -0.551 -0.203 -0.833 c -0.062 -0.287 -0.12 -0.578 -0.168 -0.874 c -0.003 -0.019 -0.007 -0.038 -0.01 -0.057 c -0.053 -0.329 -0.094 -0.665 -0.129 -1.004 c -0.08 -0.77 -0.119 -1.562 -0.11 -2.375 c 7.483 -0.419 11.184 5.501 11.103 12.996 c -0.234 0.013 -0.464 0.02 -0.69 0.021 c -0.577 0.002 -1.127 -0.039 -1.656 -0.113 c -0.302 -0.042 -0.598 -0.092 -0.884 -0.158 C 65.548 19.027 65.49 19.009 65.43 18.994 z" style="stroke: none; stroke-width: 1; stroke-dasharray: none; stroke-linecap: butt; stroke-linejoin: miter; stroke-miterlimit: 10; fill: rgb(130,212,101); fill-rule: nonzero; opacity: 1;" transform=" matrix(1 0 0 1 0 0) " stroke-linecap="round" />
	<circle cx="45.649" cy="62.879000000000005" r="20.849" style="stroke: none; stroke-width: 1; stroke-dasharray: none; stroke-linecap: butt; stroke-linejoin: miter; stroke-miterlimit: 10; fill: rgb(255,152,59); fill-rule: nonzero; opacity: 1;" transform="  matrix(1 0 0 1 0 0) "/>
	<path d="M 20.823 66.763 C 9.996 66.764 2.687 55.65 0.339 44.524 c -1.277 -7.555 1.105 -14.399 6.364 -18.35 c 4.694 -3.527 10.897 -4.048 16.678 -1.426 c 5.558 -2.526 11.386 -2.177 16.053 0.981 c 5.027 3.4 7.749 9.521 7.281 16.374 c -0.038 0.551 -0.511 0.959 -1.066 0.929 c -0.551 -0.038 -0.967 -0.515 -0.929 -1.066 c 0.419 -6.133 -1.975 -11.584 -6.406 -14.58 c -4.184 -2.83 -9.468 -3.06 -14.498 -0.633 c -0.274 0.133 -0.595 0.133 -0.869 0 c -5.216 -2.518 -10.84 -2.136 -15.043 1.021 c -4.65 3.493 -6.744 9.615 -5.601 16.378 c 2.341 11.091 9.887 22.237 20.915 20.411 c 0.108 -0.018 0.219 -0.018 0.327 0 c 0.447 0.074 0.889 0.127 1.326 0.159 c 0.551 0.04 0.964 0.52 0.924 1.07 c -0.041 0.55 -0.519 0.961 -1.071 0.924 c -0.44 -0.032 -0.892 -0.084 -1.343 -0.154 C 22.509 66.698 21.655 66.763 20.823 66.763 z" style="stroke: none; stroke-width: 1; stroke-dasharray: none; stroke-linecap: butt; stroke-linejoin: miter; stroke-miterlimit: 10; fill: rgb(0,0,0); fill-rule: nonzero; opacity: 1;" transform=" matrix(1 0 0 1 0 0) " stroke-linecap="round" />
	<path d="M 32.415 19.376 c 0.209 -0.485 0.422 -1.102 0.579 -1.646 c 0.091 -0.338 0.155 -0.603 0.213 -0.87 c 0.059 -0.273 0.114 -0.55 0.16 -0.833 c 0.06 -0.371 0.099 -0.692 0.133 -1.017 c 0.045 -0.433 0.076 -0.873 0.093 -1.315 c -2.352 0.053 -4.315 0.818 -5.847 2.282 c -2.216 2.119 -3.411 5.621 -3.365 9.863 c 0.006 0.552 -0.437 1.005 -0.989 1.011 c -0.003 0 -0.007 0 -0.011 0 c -0.547 0 -0.994 -0.44 -1 -0.989 c -0.052 -4.802 1.363 -8.825 3.983 -11.33 c 2.121 -2.028 4.991 -3.001 8.297 -2.817 c 0.526 0.029 0.939 0.461 0.944 0.988 c 0.009 0.843 -0.03 1.689 -0.116 2.516 c -0.038 0.362 -0.082 0.719 -0.138 1.069 c -0.062 0.378 -0.124 0.689 -0.19 0.996 c -0.066 0.303 -0.138 0.601 -0.218 0.893 c -0.001 0.004 -0.031 0.117 -0.032 0.121 c -0.205 0.707 -0.418 1.307 -0.659 1.865 c -0.004 0.011 -0.041 0.09 -0.045 0.1 c -0.843 1.903 -2.009 3.418 -3.479 4.527 c -0.442 0.333 -1.068 0.244 -1.401 -0.196 c -0.333 -0.441 -0.245 -1.068 0.196 -1.401 C 30.719 22.292 31.723 20.94 32.415 19.376 z" style="stroke: none; stroke-width: 1; stroke-dasharray: none; stroke-linecap: butt; stroke-linejoin: miter; stroke-miterlimit: 10; fill: rgb(0,0,0); fill-rule: nonzero; opacity: 1;" transform=" matrix(1 0 0 1 0 0) " stroke-linecap="round" />
	<path d="M 23.381 26.852 c -0.003 0 -0.007 0 -0.011 0 c -0.552 -0.006 -0.995 -0.459 -0.989 -1.011 c 0.054 -5.009 -1.633 -8.964 -4.63 -10.851 c -0.467 -0.294 -0.608 -0.912 -0.313 -1.379 c 0.294 -0.468 0.911 -0.608 1.379 -0.313 c 3.598 2.266 5.626 6.846 5.564 12.565 C 24.376 26.412 23.929 26.852 23.381 26.852 z" style="stroke: none; stroke-width: 1; stroke-dasharray: none; stroke-linecap: butt; stroke-linejoin: miter; stroke-miterlimit: 10; fill: rgb(0,0,0); fill-rule: nonzero; opacity: 1;" transform=" matrix(1 0 0 1 0 0) " stroke-linecap="round" />
	<path d="M 12.863 57.316 c -0.264 0 -0.527 -0.104 -0.723 -0.31 c -0.722 -0.756 -1.409 -1.613 -2.043 -2.548 c -0.31 -0.457 -0.19 -1.079 0.267 -1.39 c 0.458 -0.309 1.079 -0.19 1.389 0.267 c 0.572 0.844 1.189 1.613 1.834 2.29 c 0.381 0.399 0.367 1.032 -0.033 1.414 C 13.359 57.224 13.111 57.316 12.863 57.316 z" style="stroke: none; stroke-width: 1; stroke-dasharray: none; stroke-linecap: butt; stroke-linejoin: miter; stroke-miterlimit: 10; fill: rgb(0,0,0); fill-rule: nonzero; opacity: 1;" transform=" matrix(1 0 0 1 0 0) " stroke-linecap="round" />
	<path d="M 8.369 49.923 c -0.402 0 -0.782 -0.245 -0.934 -0.644 c -0.559 -1.463 -1.013 -3.01 -1.348 -4.597 c -1.497 -8.855 3.597 -14.698 9.399 -15.914 c 0.54 -0.115 1.07 0.233 1.184 0.773 c 0.114 0.541 -0.233 1.07 -0.773 1.184 c -4.866 1.021 -9.123 6.014 -7.844 13.584 c 0.307 1.445 0.73 2.89 1.252 4.258 c 0.197 0.516 -0.062 1.094 -0.577 1.291 C 8.608 49.903 8.487 49.923 8.369 49.923 z" style="stroke: none; stroke-width: 1; stroke-dasharray: none; stroke-linecap: butt; stroke-linejoin: miter; stroke-miterlimit: 10; fill: rgb(0,0,0); fill-rule: nonzero; opacity: 1;" transform=" matrix(1 0 0 1 0 0) " stroke-linecap="round" />
	<path d="M 29.803 50.326 c -0.233 0 -0.468 -0.081 -0.658 -0.247 c -3.653 -3.196 -7.625 -4.444 -10.899 -3.43 c -0.528 0.167 -1.087 -0.131 -1.252 -0.658 c -0.164 -0.527 0.131 -1.088 0.659 -1.252 c 3.95 -1.227 8.62 0.171 12.808 3.834 c 0.416 0.364 0.458 0.995 0.095 1.411 C 30.359 50.211 30.082 50.326 29.803 50.326 z" style="stroke: none; stroke-width: 1; stroke-dasharray: none; stroke-linecap: butt; stroke-linejoin: miter; stroke-miterlimit: 10; fill: rgb(0,0,0); fill-rule: nonzero; opacity: 1;" transform=" matrix(1 0 0 1 0 0) " stroke-linecap="round" />
	<path d="M 45.629 84.723 c -5.029 0 -10.08 -1.722 -14.191 -5.24 c -4.434 -3.794 -7.125 -9.09 -7.577 -14.908 c -0.452 -5.819 1.389 -11.466 5.183 -15.9 c 7.833 -9.154 21.653 -10.228 30.808 -2.395 l 0 0 c 9.153 7.835 10.227 21.655 2.394 30.809 C 57.93 82.132 51.797 84.723 45.629 84.723 z M 45.659 43.041 c -5.604 0 -11.175 2.354 -15.096 6.936 c -3.448 4.028 -5.12 9.158 -4.709 14.444 s 2.856 10.095 6.884 13.543 c 8.315 7.116 20.87 6.141 27.988 -2.175 c 7.117 -8.316 6.141 -20.872 -2.175 -27.988 l 0 0 C 54.817 44.605 50.226 43.041 45.659 43.041 z" style="stroke: none; stroke-width: 1; stroke-dasharray: none; stroke-linecap: butt; stroke-linejoin: miter; stroke-miterlimit: 10; fill: rgb(0,0,0); fill-rule: nonzero; opacity: 1;" transform=" matrix(1 0 0 1 0 0) " stroke-linecap="round" />
	<path d="M 23.646 46.71 c -0.055 0 -0.109 0 -0.164 -0.001 c -0.527 -0.004 -0.96 -0.416 -0.99 -0.941 c -0.012 -0.211 -0.019 -0.419 -0.02 -0.624 c -0.003 -0.501 0.03 -1.009 0.099 -1.51 c 0.038 -0.278 0.084 -0.552 0.145 -0.816 c 0.003 -0.013 0.028 -0.112 0.032 -0.125 l 0.982 0.199 l -0.971 -0.24 c 0.055 -0.222 0.118 -0.439 0.188 -0.65 c 0.779 -2.364 2.508 -4.2 4.998 -5.309 c 0.003 -0.001 0.1 -0.046 0.104 -0.048 c 0.461 -0.2 0.958 -0.378 1.478 -0.529 l 0.144 -0.041 C 29.933 36 30.18 35.94 30.43 35.884 c 0.255 -0.056 0.512 -0.107 0.775 -0.151 c 0.339 -0.056 0.635 -0.093 0.935 -0.125 c 0.681 -0.072 1.379 -0.112 2.076 -0.101 c 0.527 0.004 0.96 0.416 0.991 0.942 c 0.161 2.755 -0.647 5.149 -2.336 6.925 C 30.821 45.528 27.55 46.71 23.646 46.71 z M 24.699 43.131 c -0.003 0.014 -0.02 0.076 -0.021 0.083 c -0.06 0.255 -0.095 0.472 -0.125 0.692 c -0.036 0.264 -0.06 0.523 -0.072 0.784 c 2.973 -0.147 5.413 -1.089 6.941 -2.694 c 1.121 -1.178 1.723 -2.677 1.798 -4.467 c -0.292 0.015 -0.581 0.038 -0.868 0.068 c -0.262 0.028 -0.521 0.06 -0.774 0.102 c -0.273 0.046 -0.497 0.09 -0.717 0.139 c -0.214 0.047 -0.427 0.099 -0.635 0.156 l -0.397 -0.927 l 0.266 0.964 c -0.451 0.131 -0.868 0.28 -1.253 0.447 c -2.075 0.926 -3.391 2.308 -3.997 4.148 C 24.79 42.79 24.742 42.959 24.699 43.131 L 24.699 43.131 z" style="stroke: none; stroke-width: 1; stroke-dasharray: none; stroke-linecap: butt; stroke-linejoin: miter; stroke-miterlimit: 10; fill: rgb(0,0,0); fill-rule: nonzero; opacity: 1;" transform=" matrix(1 0 0 1 0 0) " stroke-linecap="round" />
	<path d="M 38.478 77.15 c -0.161 0 -0.323 -0.039 -0.475 -0.12 c -0.994 -0.537 -1.939 -1.188 -2.81 -1.933 c -4.287 -3.669 -6.352 -9.406 -5.388 -14.972 c 0.094 -0.544 0.614 -0.907 1.156 -0.815 c 0.544 0.095 0.909 0.612 0.815 1.156 c -0.844 4.873 0.963 9.897 4.718 13.11 c 0.763 0.653 1.591 1.223 2.461 1.693 c 0.486 0.263 0.667 0.87 0.404 1.356 C 39.177 76.96 38.833 77.15 38.478 77.15 z" style="stroke: none; stroke-width: 1; stroke-dasharray: none; stroke-linecap: butt; stroke-linejoin: miter; stroke-miterlimit: 10; fill: rgb(0,0,0); fill-rule: nonzero; opacity: 1;" transform=" matrix(1 0 0 1 0 0) " stroke-linecap="round" />
	<path d="M 45.639 78.959 c -1.145 0 -2.288 -0.122 -3.406 -0.364 c -0.54 -0.117 -0.883 -0.649 -0.766 -1.19 c 0.118 -0.539 0.65 -0.883 1.189 -0.766 c 1.157 0.251 2.346 0.355 3.529 0.309 c 0.562 -0.042 1.018 0.408 1.038 0.96 c 0.021 0.553 -0.408 1.017 -0.96 1.038 C 46.054 78.954 45.847 78.959 45.639 78.959 z" style="stroke: none; stroke-width: 1; stroke-dasharray: none; stroke-linecap: butt; stroke-linejoin: miter; stroke-miterlimit: 10; fill: rgb(0,0,0); fill-rule: nonzero; opacity: 1;" transform=" matrix(1 0 0 1 0 0) " stroke-linecap="round" />
	<path d="M 68.843 72.543 c -1.434 0 -2.856 -0.142 -4.246 -0.426 c -0.541 -0.11 -0.89 -0.638 -0.779 -1.18 c 0.11 -0.541 0.642 -0.89 1.18 -0.779 c 1.695 0.345 3.448 0.459 5.205 0.338 c 9.268 -0.64 16.886 -8.092 17.718 -17.336 c 0.439 -4.882 -0.961 -9.683 -3.943 -13.519 c -1.353 -1.739 -2.076 -3.871 -2.039 -6.003 l 0.002 -0.223 c 0 -3.648 -1.539 -7.16 -4.223 -9.634 c -2.722 -2.508 -6.267 -3.722 -9.979 -3.421 c -5.735 0.467 -10.556 4.742 -11.724 10.394 c -0.199 0.962 -0.29 1.945 -0.272 2.92 c 0.042 2.121 -0.657 4.209 -1.97 5.878 c -0.861 1.094 -1.603 2.281 -2.204 3.529 c -0.238 0.499 -0.833 0.708 -1.335 0.467 c -0.497 -0.24 -0.706 -0.838 -0.466 -1.335 c 0.664 -1.378 1.483 -2.69 2.433 -3.897 c 1.028 -1.307 1.575 -2.942 1.542 -4.603 c -0.021 -1.125 0.084 -2.256 0.313 -3.364 c 1.347 -6.516 6.907 -11.443 13.521 -11.982 c 4.28 -0.349 8.36 1.053 11.497 3.944 c 3.093 2.852 4.868 6.899 4.868 11.104 l -0.002 0.252 c -0.029 1.682 0.545 3.366 1.617 4.746 c 3.294 4.236 4.841 9.537 4.357 14.926 c -0.92 10.212 -9.334 18.446 -19.573 19.153 C 69.84 72.526 69.341 72.543 68.843 72.543 z" style="stroke: none; stroke-width: 1; stroke-dasharray: none; stroke-linecap: butt; stroke-linejoin: miter; stroke-miterlimit: 10; fill: rgb(0,0,0); fill-rule: nonzero; opacity: 1;" transform=" matrix(1 0 0 1 0 0) " stroke-linecap="round" />
	<path d="M 79.188 60.814 c -0.208 0 -0.418 -0.064 -0.598 -0.199 c -0.442 -0.331 -0.533 -0.957 -0.202 -1.4 c 0.587 -0.785 1.093 -1.638 1.504 -2.534 c 2.034 -4.429 1.575 -9.675 -1.196 -13.692 c -0.313 -0.455 -0.199 -1.077 0.255 -1.391 c 0.455 -0.314 1.077 -0.2 1.392 0.255 c 3.17 4.594 3.695 10.595 1.368 15.662 c -0.471 1.025 -1.049 2 -1.721 2.898 C 79.793 60.676 79.492 60.814 79.188 60.814 z" style="stroke: none; stroke-width: 1; stroke-dasharray: none; stroke-linecap: butt; stroke-linejoin: miter; stroke-miterlimit: 10; fill: rgb(0,0,0); fill-rule: nonzero; opacity: 1;" transform=" matrix(1 0 0 1 0 0) " stroke-linecap="round" />
	<path d="M 72.99 65.631 c -0.392 0 -0.764 -0.231 -0.924 -0.616 c -0.212 -0.511 0.03 -1.096 0.54 -1.308 c 1.079 -0.448 2.1 -1.031 3.033 -1.734 c 0.441 -0.333 1.069 -0.242 1.4 0.197 c 0.332 0.441 0.244 1.068 -0.197 1.4 c -1.067 0.804 -2.235 1.472 -3.469 1.985 C 73.248 65.607 73.118 65.631 72.99 65.631 z" style="stroke: none; stroke-width: 1; stroke-dasharray: none; stroke-linecap: butt; stroke-linejoin: miter; stroke-miterlimit: 10; fill: rgb(0,0,0); fill-rule: nonzero; opacity: 1;" transform=" matrix(1 0 0 1 0 0) " stroke-linecap="round" />
	<path d="M 68.112 20.315 c -0.585 0 -1.176 -0.042 -1.758 -0.123 c -0.33 -0.046 -0.655 -0.101 -0.97 -0.173 l -0.147 -0.038 l 0.192 -0.983 l -0.242 0.97 c -0.264 -0.066 -0.521 -0.141 -0.772 -0.225 c -2.8 -0.929 -4.974 -2.986 -6.285 -5.949 c -0.002 -0.003 -0.057 -0.122 -0.058 -0.125 c -0.237 -0.554 -0.448 -1.147 -0.626 -1.763 L 57.4 11.742 c -0.089 -0.328 -0.16 -0.624 -0.225 -0.923 c -0.065 -0.301 -0.127 -0.608 -0.178 -0.921 c -0.066 -0.409 -0.11 -0.764 -0.147 -1.122 c -0.085 -0.814 -0.124 -1.652 -0.115 -2.489 c 0.006 -0.526 0.419 -0.959 0.944 -0.988 c 3.262 -0.184 6.115 0.781 8.216 2.789 c 2.594 2.481 3.995 6.464 3.944 11.217 c -0.006 0.526 -0.418 0.958 -0.943 0.988 C 68.628 20.307 68.366 20.315 68.112 20.315 z M 59.32 11.179 c 0.173 0.596 0.386 1.224 0.591 1.702 l 0.053 0.113 c 1.072 2.424 2.831 4.104 5.082 4.851 c 0.204 0.068 0.412 0.129 0.625 0.182 c 0.008 0.002 0.088 0.023 0.096 0.025 c 0.324 0.077 0.591 0.121 0.863 0.159 c 0.404 0.056 0.798 0.089 1.197 0.1 c -0.134 -3.756 -1.296 -6.848 -3.314 -8.777 c -1.511 -1.444 -3.448 -2.2 -5.766 -2.255 c 0.017 0.434 0.048 0.865 0.092 1.288 c 0.034 0.323 0.072 0.64 0.122 0.951 c 0.056 0.333 0.109 0.606 0.169 0.877 C 59.187 10.663 59.251 10.923 59.32 11.179 z" style="stroke: none; stroke-width: 1; stroke-dasharray: none; stroke-linecap: butt; stroke-linejoin: miter; stroke-miterlimit: 10; fill: rgb(0,0,0); fill-rule: nonzero; opacity: 1;" transform=" matrix(1 0 0 1 0 0) " stroke-linecap="round" />
	<path d="M 68.842 20.315 c -0.548 0 -0.994 -0.44 -1 -0.989 c -0.063 -5.662 1.945 -10.196 5.508 -12.44 c 0.47 -0.294 1.086 -0.153 1.38 0.313 c 0.294 0.467 0.153 1.085 -0.313 1.379 c -2.962 1.864 -4.629 5.774 -4.575 10.725 c 0.006 0.552 -0.437 1.004 -0.989 1.011 C 68.849 20.315 68.846 20.315 68.842 20.315 z" style="stroke: none; stroke-width: 1; stroke-dasharray: none; stroke-linecap: butt; stroke-linejoin: miter; stroke-miterlimit: 10; fill: rgb(0,0,0); fill-rule: nonzero; opacity: 1;" transform=" matrix(1 0 0 1 0 0) " stroke-linecap="round" />
</g>
</g>
</svg>