<svg xmlns="http://www.w3.org/2000/svg" xmlns:xlink="http://www.w3.org/1999/xlink" version="1.1" width="256" height="256" viewBox="0 0 256 256" xml:space="preserve">
<desc>Created with Fabric.js 1.7.22</desc>
<defs>
</defs>
<g transform="translate(128 128) scale(0.72 0.72)" style="">
	<g style="stroke: none; stroke-width: 0; stroke-dasharray: none; stroke-linecap: butt; stroke-linejoin: miter; stroke-miterlimit: 10; fill: none; fill-rule: nonzero; opacity: 1;" transform="translate(-175.05 -175.05000000000004) scale(3.89 3.89)" >
	<path d="M 71.797 40.168 c 3.701 0.006 7.517 -0.526 11.444 -1.602 c -1.42 -4.868 -4.512 -8.287 -10.101 -9.543 c 4.453 -3.603 5.709 -8.039 4.824 -13.031 c -9.299 1.805 -16.754 5.984 -22.353 12.452 l 0.123 0.526 L 71.797 40.168 z" style="stroke: none; stroke-width: 1; stroke-dasharray: none; stroke-linecap: butt; stroke-linejoin: miter; stroke-miterlimit: 10; fill: rgb(130,212,101); fill-rule: nonzero; opacity: 1;" transform=" matrix(1 0 0 1 0 0) " stroke-linecap="round" />
	<path d="M 71.856 40.169 c 0 -6.598 -5.349 -11.947 -11.947 -11.947 c -1.8 0 -3.501 0.409 -5.031 1.122 c 0.044 -0.415 0.068 -0.837 0.068 -1.264 c 0 -6.598 -5.349 -11.947 -11.947 -11.947 S 31.052 21.482 31.052 28.08 c 0 0.731 0.076 1.444 0.202 2.139 c -1.893 -1.26 -4.164 -1.997 -6.609 -1.997 c -6.598 0 -11.947 5.349 -11.947 11.947 c 0 3.401 1.428 6.463 3.709 8.639 c -4.114 1.887 -6.977 6.032 -6.977 10.854 c 0 2.826 0.987 5.419 2.628 7.465 c -3.196 2.144 -5.3 5.789 -5.3 9.927 C 6.757 83.651 12.106 89 18.704 89 c 6.425 0 11.65 -5.075 11.921 -11.433 c 2.029 1.591 4.58 2.548 7.358 2.548 c 5.838 0 10.69 -4.19 11.732 -9.725 c 1.581 0.772 3.351 1.218 5.229 1.218 c 6.598 0 11.947 -5.349 11.947 -11.947 c 0 -3.157 -1.233 -6.019 -3.233 -8.155 C 68.418 49.932 71.856 45.455 71.856 40.169 z M 33.041 57.096 c 0.054 0.043 0.111 0.083 0.166 0.124 c -0.041 0.018 -0.081 0.04 -0.122 0.059 C 33.073 57.217 33.054 57.158 33.041 57.096 z" style="stroke: none; stroke-width: 1; stroke-dasharray: none; stroke-linecap: butt; stroke-linejoin: miter; stroke-miterlimit: 10; fill: rgb(123,93,255); fill-rule: nonzero; opacity: 1;" transform=" matrix(1 0 0 1 0 0) " stroke-linecap="round" />
	<path d="M 63.673 52.507 c -0.417 0 -0.807 -0.263 -0.947 -0.681 c -0.177 -0.522 0.104 -1.09 0.628 -1.267 c 4.452 -1.503 7.443 -5.672 7.443 -10.375 c 0 -6.036 -4.911 -10.947 -10.947 -10.947 c -5.423 0 -10.083 4.042 -10.839 9.402 c -0.077 0.546 -0.581 0.932 -1.13 0.851 c -0.547 -0.077 -0.928 -0.583 -0.851 -1.13 c 0.895 -6.341 6.405 -11.123 12.819 -11.123 c 7.139 0 12.947 5.808 12.947 12.947 c 0 5.562 -3.538 10.492 -8.805 12.269 C 63.887 52.49 63.778 52.507 63.673 52.507 z" style="stroke: none; stroke-width: 1; stroke-dasharray: none; stroke-linecap: butt; stroke-linejoin: miter; stroke-miterlimit: 10; fill: rgb(0,0,0); fill-rule: nonzero; opacity: 1;" transform=" matrix(1 0 0 1 0 0) " stroke-linecap="round" />
	<path d="M 16.653 49.797 c -0.25 0 -0.5 -0.093 -0.693 -0.279 c -2.562 -2.465 -3.973 -5.779 -3.973 -9.333 c 0 -7.139 5.808 -12.947 12.947 -12.947 c 5.636 0 10.588 3.601 12.321 8.959 c 0.17 0.525 -0.119 1.089 -0.644 1.259 c -0.527 0.168 -1.089 -0.119 -1.259 -0.644 c -1.465 -4.531 -5.652 -7.575 -10.418 -7.575 c -6.036 0 -10.947 4.911 -10.947 10.947 c 0 3.005 1.193 5.808 3.36 7.892 c 0.398 0.383 0.41 1.016 0.027 1.414 C 17.177 49.694 16.915 49.797 16.653 49.797 z" style="stroke: none; stroke-width: 1; stroke-dasharray: none; stroke-linecap: butt; stroke-linejoin: miter; stroke-miterlimit: 10; fill: rgb(0,0,0); fill-rule: nonzero; opacity: 1;" transform=" matrix(1 0 0 1 0 0) " stroke-linecap="round" />
	<path d="M 40.421 60.661 c -7.139 0 -12.947 -5.809 -12.947 -12.947 s 5.808 -12.947 12.947 -12.947 c 7.139 0 12.947 5.808 12.947 12.947 S 47.561 60.661 40.421 60.661 z M 40.421 36.767 c -6.036 0 -10.947 4.911 -10.947 10.947 s 4.911 10.947 10.947 10.947 c 6.036 0 10.947 -4.911 10.947 -10.947 S 46.457 36.767 40.421 36.767 z" style="stroke: none; stroke-width: 1; stroke-dasharray: none; stroke-linecap: butt; stroke-linejoin: miter; stroke-miterlimit: 10; fill: rgb(0,0,0); fill-rule: nonzero; opacity: 1;" transform=" matrix(1 0 0 1 0 0) " stroke-linecap="round" />
	<path d="M 11.997 68.168 c -0.295 0 -0.588 -0.13 -0.785 -0.38 c -1.82 -2.303 -2.782 -5.076 -2.782 -8.018 c 0 -7.139 5.808 -12.947 12.947 -12.947 c 2.949 0 5.727 0.966 8.033 2.792 c 0.433 0.343 0.506 0.973 0.163 1.405 c -0.343 0.434 -0.971 0.505 -1.405 0.163 c -1.949 -1.544 -4.297 -2.36 -6.79 -2.36 c -6.036 0 -10.947 4.911 -10.947 10.947 c 0 2.488 0.813 4.832 2.351 6.778 c 0.342 0.434 0.269 1.062 -0.165 1.404 C 12.433 68.097 12.214 68.168 11.997 68.168 z" style="stroke: none; stroke-width: 1; stroke-dasharray: none; stroke-linecap: butt; stroke-linejoin: miter; stroke-miterlimit: 10; fill: rgb(0,0,0); fill-rule: nonzero; opacity: 1;" transform=" matrix(1 0 0 1 0 0) " stroke-linecap="round" />
	<path d="M 18.707 90 C 11.568 90 5.76 84.191 5.76 77.052 s 5.808 -12.946 12.947 -12.946 c 2.911 0 5.66 0.943 7.95 2.727 c 0.436 0.34 0.514 0.968 0.175 1.403 c -0.339 0.437 -0.967 0.516 -1.403 0.175 c -1.936 -1.508 -4.26 -2.305 -6.721 -2.305 c -6.036 0 -10.947 4.91 -10.947 10.946 C 7.76 83.089 12.671 88 18.707 88 c 5.964 0 10.77 -4.667 10.942 -10.626 c 0.016 -0.552 0.492 -0.967 1.028 -0.971 c 0.552 0.017 0.987 0.477 0.971 1.029 C 31.445 84.479 25.76 90 18.707 90 z" style="stroke: none; stroke-width: 1; stroke-dasharray: none; stroke-linecap: butt; stroke-linejoin: miter; stroke-miterlimit: 10; fill: rgb(0,0,0); fill-rule: nonzero; opacity: 1;" transform=" matrix(1 0 0 1 0 0) " stroke-linecap="round" />
	<path d="M 54.944 30.292 c -0.188 0 -0.38 -0.053 -0.549 -0.165 c -0.461 -0.304 -0.589 -0.924 -0.285 -1.385 c 5.414 -8.223 6.397 -17.194 3.009 -27.427 c -0.174 -0.524 0.11 -1.09 0.635 -1.264 c 0.522 -0.175 1.091 0.11 1.264 0.635 c 3.544 10.702 2.455 20.511 -3.237 29.155 C 55.588 30.133 55.269 30.292 54.944 30.292 z" style="stroke: none; stroke-width: 1; stroke-dasharray: none; stroke-linecap: butt; stroke-linejoin: miter; stroke-miterlimit: 10; fill: rgb(0,0,0); fill-rule: nonzero; opacity: 1;" transform=" matrix(1 0 0 1 0 0) " stroke-linecap="round" />
	<path d="M 71.861 41.168 c -0.566 0.004 -1.065 -0.426 -1.064 -1.002 c 0.001 -0.551 0.448 -0.998 1 -0.998 c 0.02 0.003 0.043 0 0.064 0 c 3.263 0 6.656 -0.437 10.101 -1.301 c -1.531 -4.269 -4.498 -6.848 -9.042 -7.869 c -0.375 -0.084 -0.668 -0.375 -0.755 -0.748 c -0.088 -0.373 0.047 -0.764 0.345 -1.005 c 3.621 -2.93 5.138 -6.557 4.618 -11.062 c -8.359 1.814 -15.224 5.689 -20.427 11.533 l 0.006 0.025 c 0.126 0.538 -0.208 1.076 -0.746 1.202 c -0.538 0.126 -1.076 -0.208 -1.201 -0.746 l -0.123 -0.526 c -0.073 -0.312 0.008 -0.64 0.218 -0.882 c 5.749 -6.644 13.46 -10.943 22.918 -12.779 c 0.262 -0.053 0.535 0.005 0.757 0.157 c 0.221 0.152 0.371 0.386 0.418 0.65 c 0.895 5.046 -0.38 9.321 -3.788 12.734 c 4.567 1.548 7.604 4.815 9.04 9.735 c 0.075 0.257 0.044 0.534 -0.087 0.768 c -0.131 0.234 -0.351 0.406 -0.608 0.477 C 79.539 40.618 75.622 41.168 71.861 41.168 z" style="stroke: none; stroke-width: 1; stroke-dasharray: none; stroke-linecap: butt; stroke-linejoin: miter; stroke-miterlimit: 10; fill: rgb(0,0,0); fill-rule: nonzero; opacity: 1;" transform=" matrix(1 0 0 1 0 0) " stroke-linecap="round" />
	<path d="M 31.181 31.013 c -0.487 0 -0.914 -0.356 -0.988 -0.853 c -0.094 -0.632 -0.142 -1.279 -0.142 -1.922 c 0 -7.139 5.808 -12.947 12.947 -12.947 s 12.947 5.808 12.947 12.947 c 0 0.382 -0.017 0.76 -0.049 1.134 c -0.046 0.551 -0.531 0.961 -1.08 0.912 c -0.551 -0.047 -0.959 -0.531 -0.912 -1.081 c 0.026 -0.318 0.041 -0.64 0.041 -0.965 c 0 -6.036 -4.911 -10.947 -10.947 -10.947 c -6.036 0 -10.947 4.911 -10.947 10.947 c 0 0.544 0.041 1.092 0.121 1.627 c 0.082 0.546 -0.295 1.055 -0.842 1.137 C 31.28 31.009 31.231 31.013 31.181 31.013 z" style="stroke: none; stroke-width: 1; stroke-dasharray: none; stroke-linecap: butt; stroke-linejoin: miter; stroke-miterlimit: 10; fill: rgb(0,0,0); fill-rule: nonzero; opacity: 1;" transform=" matrix(1 0 0 1 0 0) " stroke-linecap="round" />
	<path d="M 54.945 72.608 c -2.001 0 -3.92 -0.444 -5.704 -1.321 c -0.495 -0.243 -0.699 -0.843 -0.456 -1.339 c 0.243 -0.495 0.839 -0.7 1.339 -0.456 c 1.507 0.74 3.129 1.116 4.821 1.116 c 6.036 0 10.947 -4.911 10.947 -10.947 s -4.911 -10.947 -10.947 -10.947 c -0.796 0 -1.591 0.086 -2.362 0.256 c -0.541 0.115 -1.073 -0.223 -1.191 -0.762 c -0.119 -0.539 0.223 -1.073 0.762 -1.191 c 0.913 -0.201 1.853 -0.303 2.792 -0.303 c 7.139 0 12.947 5.809 12.947 12.947 S 62.084 72.608 54.945 72.608 z" style="stroke: none; stroke-width: 1; stroke-dasharray: none; stroke-linecap: butt; stroke-linejoin: miter; stroke-miterlimit: 10; fill: rgb(0,0,0); fill-rule: nonzero; opacity: 1;" transform=" matrix(1 0 0 1 0 0) " stroke-linecap="round" />
	<path d="M 37.983 80.917 c -7.139 0 -12.947 -5.809 -12.947 -12.947 c 0 -5.059 2.975 -9.684 7.58 -11.786 c 0.5 -0.226 1.095 -0.008 1.325 0.495 c 0.229 0.502 0.008 1.096 -0.495 1.325 c -3.894 1.776 -6.41 5.688 -6.41 9.966 c 0 6.036 4.911 10.947 10.947 10.947 s 10.947 -4.911 10.947 -10.947 c 0 -3.375 -1.521 -6.51 -4.175 -8.601 c -0.434 -0.342 -0.508 -0.971 -0.166 -1.404 c 0.342 -0.434 0.97 -0.507 1.404 -0.166 c 3.137 2.474 4.937 6.181 4.937 10.172 C 50.931 75.108 45.123 80.917 37.983 80.917 z" style="stroke: none; stroke-width: 1; stroke-dasharray: none; stroke-linecap: butt; stroke-linejoin: miter; stroke-miterlimit: 10; fill: rgb(0,0,0); fill-rule: nonzero; opacity: 1;" transform=" matrix(1 0 0 1 0 0) " stroke-linecap="round" />
</g>
</g>
</svg>