<svg xmlns="http://www.w3.org/2000/svg" xmlns:xlink="http://www.w3.org/1999/xlink" version="1.1" width="256" height="256" viewBox="0 0 256 256" xml:space="preserve">
<desc>Created with Fabric.js 1.7.22</desc>
<defs>
</defs>
<g transform="translate(128 128) scale(0.72 0.72)" style="">
	<g style="stroke: none; stroke-width: 0; stroke-dasharray: none; stroke-linecap: butt; stroke-linejoin: miter; stroke-miterlimit: 10; fill: none; fill-rule: nonzero; opacity: 1;" transform="translate(-175.05 -175.05000000000004) scale(3.89 3.89)" >
	<circle cx="59.003" cy="60.363" r="28.633" style="stroke: none; stroke-width: 1; stroke-dasharray: none; stroke-linecap: butt; stroke-linejoin: miter; stroke-miterlimit: 10; fill: rgb(200,110,55); fill-rule: nonzero; opacity: 1;" transform="  matrix(1 0 0 1 0 0) "/>
	<path d="M 46.904 86.327 C 43.231 88.035 39.212 89 35 89 h 0 C 17.582 89 3.461 72.504 3.461 55.085 V 34.915 C 3.461 17.496 17.582 1 35 1 h 0 c 16.694 0 30.359 15.153 31.466 31.748 L 46.904 86.327 z" style="stroke: none; stroke-width: 1; stroke-dasharray: none; stroke-linecap: butt; stroke-linejoin: miter; stroke-miterlimit: 10; fill: rgb(200,110,55); fill-rule: nonzero; opacity: 1;" transform=" matrix(1 0 0 1 0 0) " stroke-linecap="round" />
	<circle cx="59" cy="60.37" r="22" style="stroke: none; stroke-width: 1; stroke-dasharray: none; stroke-linecap: butt; stroke-linejoin: miter; stroke-miterlimit: 10; fill: rgb(130,212,101); fill-rule: nonzero; opacity: 1;" transform="  matrix(1 0 0 1 0 0) "/>
	<path d="M 61.428 46.454 L 61.428 46.454 c 2.062 -2.284 5.851 -0.715 5.694 2.358 v 0 c -0.099 1.936 1.498 3.532 3.433 3.433 h 0 c 3.074 -0.157 4.643 3.632 2.358 5.694 l 0 0 c -1.439 1.299 -1.439 3.556 0 4.855 l 0 0 c 2.284 2.062 0.715 5.851 -2.358 5.694 h 0 c -1.936 -0.099 -3.532 1.498 -3.433 3.433 v 0 c 0.157 3.074 -3.632 4.643 -5.694 2.358 l 0 0 c -1.299 -1.439 -3.556 -1.439 -4.855 0 l 0 0 c -2.062 2.284 -5.851 0.715 -5.694 -2.358 v 0 c 0.099 -1.936 -1.498 -3.532 -3.433 -3.433 h 0 c -3.074 0.157 -4.643 -3.632 -2.358 -5.694 l 0 0 c 1.439 -1.299 1.439 -3.556 0 -4.855 l 0 0 c -2.284 -2.062 -0.715 -5.851 2.358 -5.694 h 0 c 1.936 0.099 3.532 -1.498 3.433 -3.433 v 0 c -0.157 -3.074 3.632 -4.643 5.694 -2.358 l 0 0 C 57.871 47.892 60.129 47.892 61.428 46.454 z" style="stroke: none; stroke-width: 1; stroke-dasharray: none; stroke-linecap: butt; stroke-linejoin: miter; stroke-miterlimit: 10; fill: rgb(160,231,135); fill-rule: nonzero; opacity: 1;" transform=" matrix(1 0 0 1 0 0) " stroke-linecap="round" />
	<circle cx="59.004999999999995" cy="60.364999999999995" r="4.455" style="stroke: none; stroke-width: 1; stroke-dasharray: none; stroke-linecap: butt; stroke-linejoin: miter; stroke-miterlimit: 10; fill: rgb(230,255,221); fill-rule: nonzero; opacity: 1;" transform="  matrix(1 0 0 1 0 0) "/>
	<path d="M 35 90 C 17.667 90 2.461 73.685 2.461 55.085 v -20.17 C 2.461 16.315 17.667 0 35 0 c 16.415 0 31.281 14.966 32.464 32.682 c 0.036 0.551 -0.381 1.027 -0.932 1.064 c -0.548 0.053 -1.027 -0.38 -1.064 -0.931 C 64.354 16.111 50.4 2 35 2 C 18.732 2 4.461 17.381 4.461 34.915 v 20.17 C 4.461 72.619 18.732 88 35 88 c 3.939 0 7.802 -0.868 11.482 -2.58 c 0.502 -0.233 1.096 -0.016 1.328 0.484 c 0.233 0.501 0.017 1.096 -0.484 1.328 C 43.379 89.069 39.232 90 35 90 z" style="stroke: none; stroke-width: 1; stroke-dasharray: none; stroke-linecap: butt; stroke-linejoin: miter; stroke-miterlimit: 10; fill: rgb(0,0,0); fill-rule: nonzero; opacity: 1;" transform=" matrix(1 0 0 1 0 0) " stroke-linecap="round" />
	<path d="M 59 90 c -16.34 0 -29.633 -13.294 -29.633 -29.634 c 0 -16.339 13.293 -29.633 29.633 -29.633 s 29.634 13.293 29.634 29.633 C 88.634 76.706 75.34 90 59 90 z M 59 32.733 c -15.237 0 -27.633 12.396 -27.633 27.633 C 31.367 75.604 43.763 88 59 88 c 15.237 0 27.634 -12.396 27.634 -27.634 C 86.634 45.129 74.237 32.733 59 32.733 z" style="stroke: none; stroke-width: 1; stroke-dasharray: none; stroke-linecap: butt; stroke-linejoin: miter; stroke-miterlimit: 10; fill: rgb(0,0,0); fill-rule: nonzero; opacity: 1;" transform=" matrix(1 0 0 1 0 0) " stroke-linecap="round" />
	<path d="M 62.783 70.5 c -0.392 0 -0.765 -0.232 -0.924 -0.617 l -0.66 -1.594 c -0.211 -0.511 0.031 -1.096 0.541 -1.307 c 0.509 -0.211 1.096 0.03 1.307 0.541 l 0.66 1.594 c 0.211 0.511 -0.031 1.096 -0.541 1.307 C 63.041 70.476 62.911 70.5 62.783 70.5 z" style="stroke: none; stroke-width: 1; stroke-dasharray: none; stroke-linecap: butt; stroke-linejoin: miter; stroke-miterlimit: 10; fill: rgb(0,0,0); fill-rule: nonzero; opacity: 1;" transform=" matrix(1 0 0 1 0 0) " stroke-linecap="round" />
	<path d="M 55.877 53.827 c -0.392 0 -0.765 -0.232 -0.924 -0.617 l -0.66 -1.594 c -0.211 -0.511 0.031 -1.096 0.541 -1.307 c 0.508 -0.21 1.096 0.03 1.307 0.541 l 0.66 1.594 c 0.211 0.511 -0.031 1.096 -0.541 1.307 C 56.135 53.803 56.005 53.827 55.877 53.827 z" style="stroke: none; stroke-width: 1; stroke-dasharray: none; stroke-linecap: butt; stroke-linejoin: miter; stroke-miterlimit: 10; fill: rgb(0,0,0); fill-rule: nonzero; opacity: 1;" transform=" matrix(1 0 0 1 0 0) " stroke-linecap="round" />
	<path d="M 66.54 58.244 c -0.392 0 -0.765 -0.232 -0.924 -0.617 c -0.211 -0.511 0.031 -1.096 0.541 -1.307 l 1.594 -0.66 c 0.508 -0.209 1.096 0.031 1.307 0.541 c 0.211 0.511 -0.031 1.096 -0.541 1.307 l -1.594 0.66 C 66.798 58.22 66.668 58.244 66.54 58.244 z" style="stroke: none; stroke-width: 1; stroke-dasharray: none; stroke-linecap: butt; stroke-linejoin: miter; stroke-miterlimit: 10; fill: rgb(0,0,0); fill-rule: nonzero; opacity: 1;" transform=" matrix(1 0 0 1 0 0) " stroke-linecap="round" />
	<path d="M 49.866 65.149 c -0.392 0 -0.765 -0.232 -0.924 -0.617 c -0.211 -0.511 0.031 -1.096 0.541 -1.307 l 1.594 -0.66 c 0.507 -0.21 1.096 0.031 1.307 0.541 c 0.211 0.511 -0.031 1.096 -0.541 1.307 l -1.594 0.66 C 50.124 65.125 49.994 65.149 49.866 65.149 z" style="stroke: none; stroke-width: 1; stroke-dasharray: none; stroke-linecap: butt; stroke-linejoin: miter; stroke-miterlimit: 10; fill: rgb(0,0,0); fill-rule: nonzero; opacity: 1;" transform=" matrix(1 0 0 1 0 0) " stroke-linecap="round" />
	<path d="M 55.217 70.5 c -0.128 0 -0.258 -0.024 -0.383 -0.076 c -0.51 -0.211 -0.752 -0.796 -0.541 -1.307 l 0.66 -1.594 c 0.211 -0.511 0.799 -0.752 1.307 -0.541 c 0.51 0.211 0.752 0.796 0.541 1.307 l -0.66 1.594 C 55.981 70.268 55.608 70.5 55.217 70.5 z" style="stroke: none; stroke-width: 1; stroke-dasharray: none; stroke-linecap: butt; stroke-linejoin: miter; stroke-miterlimit: 10; fill: rgb(0,0,0); fill-rule: nonzero; opacity: 1;" transform=" matrix(1 0 0 1 0 0) " stroke-linecap="round" />
	<path d="M 62.123 53.827 c -0.128 0 -0.258 -0.024 -0.383 -0.076 c -0.51 -0.211 -0.752 -0.796 -0.541 -1.307 l 0.66 -1.594 c 0.211 -0.511 0.8 -0.752 1.307 -0.541 c 0.51 0.211 0.752 0.796 0.541 1.307 l -0.66 1.594 C 62.888 53.595 62.515 53.827 62.123 53.827 z" style="stroke: none; stroke-width: 1; stroke-dasharray: none; stroke-linecap: butt; stroke-linejoin: miter; stroke-miterlimit: 10; fill: rgb(0,0,0); fill-rule: nonzero; opacity: 1;" transform=" matrix(1 0 0 1 0 0) " stroke-linecap="round" />
	<path d="M 68.134 65.149 c -0.128 0 -0.258 -0.024 -0.383 -0.076 l -1.594 -0.66 c -0.51 -0.211 -0.752 -0.796 -0.541 -1.307 c 0.212 -0.511 0.798 -0.751 1.307 -0.541 l 1.594 0.66 c 0.51 0.211 0.752 0.796 0.541 1.307 C 68.898 64.917 68.525 65.149 68.134 65.149 z" style="stroke: none; stroke-width: 1; stroke-dasharray: none; stroke-linecap: butt; stroke-linejoin: miter; stroke-miterlimit: 10; fill: rgb(0,0,0); fill-rule: nonzero; opacity: 1;" transform=" matrix(1 0 0 1 0 0) " stroke-linecap="round" />
	<path d="M 51.46 58.244 c -0.128 0 -0.258 -0.024 -0.383 -0.076 l -1.594 -0.66 c -0.51 -0.211 -0.752 -0.796 -0.541 -1.307 c 0.211 -0.51 0.8 -0.75 1.307 -0.541 l 1.594 0.66 c 0.51 0.211 0.752 0.796 0.541 1.307 C 52.225 58.012 51.852 58.244 51.46 58.244 z" style="stroke: none; stroke-width: 1; stroke-dasharray: none; stroke-linecap: butt; stroke-linejoin: miter; stroke-miterlimit: 10; fill: rgb(0,0,0); fill-rule: nonzero; opacity: 1;" transform=" matrix(1 0 0 1 0 0) " stroke-linecap="round" />
	<path d="M 54.165 76.366 c -0.553 0 -1.113 -0.108 -1.654 -0.332 c -1.691 -0.701 -2.724 -2.335 -2.631 -4.164 c 0.033 -0.649 -0.201 -1.261 -0.661 -1.721 c -0.461 -0.46 -1.081 -0.694 -1.723 -0.662 c -1.813 0.088 -3.462 -0.938 -4.163 -2.631 c -0.701 -1.691 -0.276 -3.577 1.083 -4.805 c 0.483 -0.437 0.749 -1.034 0.749 -1.686 c 0 -0.65 -0.266 -1.248 -0.749 -1.685 c -1.359 -1.228 -1.785 -3.113 -1.083 -4.805 c 0.701 -1.692 2.356 -2.721 4.163 -2.631 c 0.657 0.028 1.262 -0.202 1.723 -0.662 c 0.46 -0.46 0.694 -1.071 0.661 -1.721 c -0.093 -1.828 0.939 -3.462 2.631 -4.163 c 1.692 -0.7 3.576 -0.275 4.804 1.084 c 0.873 0.965 2.498 0.965 3.371 0 c 1.227 -1.359 3.112 -1.784 4.804 -1.084 c 1.691 0.701 2.724 2.335 2.631 4.163 c -0.033 0.649 0.201 1.261 0.661 1.721 c 0.462 0.46 1.074 0.69 1.723 0.662 c 1.813 -0.088 3.462 0.938 4.163 2.631 c 0.7 1.691 0.275 3.577 -1.084 4.805 c -0.482 0.437 -0.749 1.034 -0.749 1.685 c 0 0.651 0.267 1.249 0.749 1.686 c 1.359 1.228 1.784 3.113 1.084 4.805 c -0.701 1.692 -2.354 2.73 -4.163 2.631 c -0.664 -0.032 -1.261 0.202 -1.723 0.662 c -0.46 0.46 -0.694 1.071 -0.661 1.721 c 0.093 1.829 -0.939 3.463 -2.631 4.164 c -1.692 0.699 -3.576 0.274 -4.804 -1.085 c -0.873 -0.965 -2.498 -0.965 -3.371 0 C 56.48 75.874 55.341 76.366 54.165 76.366 z M 47.61 67.484 c 1.13 0 2.221 0.449 3.022 1.251 c 0.853 0.853 1.307 2.032 1.245 3.236 c -0.061 1.181 0.683 1.918 1.398 2.215 c 0.715 0.296 1.763 0.299 2.554 -0.577 C 56.639 72.714 57.794 72.2 59 72.2 s 2.361 0.514 3.17 1.409 c 0.791 0.876 1.84 0.873 2.554 0.577 c 0.716 -0.297 1.459 -1.034 1.398 -2.215 c -0.062 -1.204 0.393 -2.384 1.245 -3.236 c 0.854 -0.854 2.034 -1.297 3.238 -1.246 c 1.166 0.069 1.917 -0.683 2.214 -1.398 c 0.296 -0.716 0.301 -1.763 -0.576 -2.555 c -0.896 -0.809 -1.409 -1.964 -1.409 -3.17 c 0 -1.205 0.514 -2.36 1.409 -3.169 c 0.877 -0.792 0.872 -1.839 0.576 -2.555 c -0.297 -0.716 -1.024 -1.48 -2.214 -1.398 c -1.215 0.054 -2.386 -0.394 -3.238 -1.246 s -1.307 -2.032 -1.245 -3.236 c 0.061 -1.181 -0.683 -1.918 -1.398 -2.214 c -0.712 -0.296 -1.761 -0.302 -2.554 0.576 l 0 0 c -0.809 0.896 -1.964 1.409 -3.17 1.409 s -2.361 -0.514 -3.17 -1.409 c -0.792 -0.878 -1.842 -0.872 -2.554 -0.576 c -0.716 0.296 -1.459 1.033 -1.398 2.214 c 0.062 1.204 -0.393 2.384 -1.245 3.236 c -0.854 0.853 -2.04 1.29 -3.238 1.246 c -1.168 -0.081 -1.917 0.683 -2.213 1.398 c -0.297 0.716 -0.301 1.763 0.576 2.555 c 0.895 0.809 1.409 1.964 1.409 3.169 c 0 1.206 -0.514 2.361 -1.409 3.17 c -0.877 0.792 -0.873 1.839 -0.576 2.555 c 0.296 0.716 1.018 1.466 2.213 1.398 C 47.467 67.486 47.539 67.484 47.61 67.484 z M 61.428 46.454 h 0.01 H 61.428 z" style="stroke: none; stroke-width: 1; stroke-dasharray: none; stroke-linecap: butt; stroke-linejoin: miter; stroke-miterlimit: 10; fill: rgb(0,0,0); fill-rule: nonzero; opacity: 1;" transform=" matrix(1 0 0 1 0 0) " stroke-linecap="round" />
	<path d="M 59 65.821 c -3.008 0 -5.455 -2.447 -5.455 -5.455 s 2.447 -5.454 5.455 -5.454 s 5.455 2.446 5.455 5.454 S 62.008 65.821 59 65.821 z M 59 56.912 c -1.905 0 -3.455 1.55 -3.455 3.454 c 0 1.905 1.55 3.455 3.455 3.455 s 3.455 -1.55 3.455 -3.455 C 62.455 58.462 60.905 56.912 59 56.912 z" style="stroke: none; stroke-width: 1; stroke-dasharray: none; stroke-linecap: butt; stroke-linejoin: miter; stroke-miterlimit: 10; fill: rgb(0,0,0); fill-rule: nonzero; opacity: 1;" transform=" matrix(1 0 0 1 0 0) " stroke-linecap="round" />
	<path d="M 59 83.366 c -12.683 0 -23 -10.317 -23 -23 c 0 -12.682 10.317 -23 23 -23 s 23 10.318 23 23 C 82 73.049 71.683 83.366 59 83.366 z M 59 39.367 c -11.579 0 -21 9.42 -21 21 s 9.421 21 21 21 s 21 -9.421 21 -21 S 70.579 39.367 59 39.367 z" style="stroke: none; stroke-width: 1; stroke-dasharray: none; stroke-linecap: butt; stroke-linejoin: miter; stroke-miterlimit: 10; fill: rgb(0,0,0); fill-rule: nonzero; opacity: 1;" transform=" matrix(1 0 0 1 0 0) " stroke-linecap="round" />
	<path d="M 13.654 61.368 c -0.422 0 -0.814 -0.269 -0.951 -0.692 c -0.88 -2.719 -1.327 -5.506 -1.327 -8.284 V 37.421 c 0 -6.477 2.485 -13.048 6.819 -18.029 c 0.362 -0.418 0.994 -0.461 1.411 -0.098 c 0.417 0.362 0.461 0.994 0.098 1.411 c -4.021 4.623 -6.328 10.715 -6.328 16.716 v 14.971 c 0 2.569 0.414 5.149 1.229 7.669 c 0.17 0.525 -0.118 1.089 -0.643 1.259 C 13.859 61.353 13.756 61.368 13.654 61.368 z" style="stroke: none; stroke-width: 1; stroke-dasharray: none; stroke-linecap: butt; stroke-linejoin: miter; stroke-miterlimit: 10; fill: rgb(0,0,0); fill-rule: nonzero; opacity: 1;" transform=" matrix(1 0 0 1 0 0) " stroke-linecap="round" />
	<path d="M 23.687 74.982 c -0.193 0 -0.387 -0.056 -0.559 -0.172 c -2.198 -1.486 -4.179 -3.354 -5.886 -5.55 c -0.339 -0.436 -0.26 -1.063 0.176 -1.402 c 0.435 -0.341 1.063 -0.262 1.403 0.176 c 1.578 2.029 3.403 3.752 5.427 5.12 c 0.458 0.309 0.578 0.931 0.269 1.389 C 24.323 74.828 24.007 74.982 23.687 74.982 z" style="stroke: none; stroke-width: 1; stroke-dasharray: none; stroke-linecap: butt; stroke-linejoin: miter; stroke-miterlimit: 10; fill: rgb(0,0,0); fill-rule: nonzero; opacity: 1;" transform=" matrix(1 0 0 1 0 0) " stroke-linecap="round" />
</g>
</g>
</svg>