<svg xmlns="http://www.w3.org/2000/svg" xmlns:xlink="http://www.w3.org/1999/xlink" version="1.1" width="256" height="256" viewBox="0 0 256 256" xml:space="preserve">
<desc>Created with Fabric.js 1.7.22</desc>
<defs>
</defs>
<g transform="translate(128 128) scale(0.72 0.72)" style="">
	<g style="stroke: none; stroke-width: 0; stroke-dasharray: none; stroke-linecap: butt; stroke-linejoin: miter; stroke-miterlimit: 10; fill: none; fill-rule: nonzero; opacity: 1;" transform="translate(-175.05 -175.05000000000004) scale(3.89 3.89)" >
	<path d="M 81.843 35.578 c 1.711 12.148 -4.192 27.154 -16.451 38.707 c -17.32 16.323 -40.766 19.574 -52.369 7.262 c -0.482 -0.512 -0.937 -1.043 -1.363 -1.591 c -4.885 -6.283 -4.976 -15.012 -0.712 -21.733 c 1.762 -2.776 3.473 -5.744 5.096 -8.871 c 1.613 -3.108 3.049 -6.197 4.301 -9.219 c 5.253 -12.679 16.396 -22.109 29.793 -24.546 C 66.704 12.49 79.98 18.345 81.843 35.578 z" style="stroke: none; stroke-width: 1; stroke-dasharray: none; stroke-linecap: butt; stroke-linejoin: miter; stroke-miterlimit: 10; fill: rgb(255,240,130); fill-rule: nonzero; opacity: 1;" transform=" matrix(1 0 0 1 0 0) " stroke-linecap="round" />
	<path d="M 31.953 89.985 c -7.749 0 -14.734 -2.525 -19.658 -7.751 c -0.497 -0.528 -0.976 -1.087 -1.424 -1.663 C 5.836 74.096 5.528 64.9 10.104 57.688 c 1.775 -2.797 3.475 -5.757 5.052 -8.796 c 1.572 -3.028 3.006 -6.104 4.265 -9.141 c 5.497 -13.268 16.913 -22.669 30.538 -25.148 c 0.542 -0.092 1.064 0.262 1.162 0.805 c 0.1 0.544 -0.261 1.064 -0.805 1.163 C 37.364 18.928 26.505 27.88 21.269 40.517 c -1.28 3.089 -2.739 6.217 -4.337 9.297 c -1.604 3.09 -3.333 6.1 -5.139 8.946 c -4.125 6.5 -3.861 14.771 0.657 20.582 c 0.409 0.527 0.847 1.037 1.301 1.52 c 11.205 11.889 34.063 8.613 50.956 -7.305 c 11.694 -11.022 17.882 -25.521 16.146 -37.84 c -0.077 -0.547 0.304 -1.053 0.851 -1.13 c 0.561 -0.077 1.053 0.304 1.13 0.851 c 1.825 12.951 -4.595 28.115 -16.756 39.575 C 55.668 84.824 43.03 89.984 31.953 89.985 z" style="stroke: none; stroke-width: 1; stroke-dasharray: none; stroke-linecap: butt; stroke-linejoin: miter; stroke-miterlimit: 10; fill: rgb(0,0,0); fill-rule: nonzero; opacity: 1;" transform=" matrix(1 0 0 1 0 0) " stroke-linecap="round" />
	<path d="M 55.663 59.781 c 16.409 -9.846 23.464 -28.237 15.759 -41.078 c -0.073 -0.122 -0.155 -0.237 -0.23 -0.357 c 3.498 1.431 6.427 3.779 8.362 7.003 c 5.809 9.681 0.49 23.547 -11.881 30.97 c -4.473 2.684 -9.254 4.152 -13.812 4.483 C 54.465 60.475 55.067 60.138 55.663 59.781 z" style="stroke: none; stroke-width: 1; stroke-dasharray: none; stroke-linecap: butt; stroke-linejoin: miter; stroke-miterlimit: 10; fill: rgb(130,212,101); fill-rule: nonzero; opacity: 1;" transform=" matrix(1 0 0 1 0 0) " stroke-linecap="round" />
	<path d="M 44.438 26.601 c 6.834 -9.995 18.715 -13.763 26.537 -8.415 c 0.074 0.051 0.144 0.107 0.217 0.159 c -0.773 -2.263 -2.146 -4.201 -4.11 -5.544 c -5.897 -4.032 -14.855 -1.192 -20.007 6.344 c -1.863 2.725 -2.969 5.69 -3.349 8.556 C 43.954 27.332 44.189 26.965 44.438 26.601 z" style="stroke: none; stroke-width: 1; stroke-dasharray: none; stroke-linecap: butt; stroke-linejoin: miter; stroke-miterlimit: 10; fill: rgb(130,212,101); fill-rule: nonzero; opacity: 1;" transform=" matrix(1 0 0 1 0 0) " stroke-linecap="round" />
	<path d="M 53.86 61.801 c -0.441 0 -0.834 -0.291 -0.959 -0.72 c -0.132 -0.452 0.069 -0.936 0.485 -1.161 c 0.59 -0.318 1.179 -0.648 1.761 -0.997 c 0 -0.001 0.001 -0.001 0.001 -0.001 c 7.746 -4.648 13.606 -11.366 16.503 -18.916 c 2.864 -7.465 2.477 -14.849 -1.087 -20.789 l -0.22 -0.341 c -0.231 -0.368 -0.197 -0.843 0.083 -1.175 c 0.279 -0.332 0.74 -0.445 1.144 -0.282 c 3.808 1.558 6.865 4.121 8.84 7.415 c 2.972 4.951 3.311 11.061 0.953 17.204 c -2.323 6.057 -7.003 11.433 -13.177 15.138 c -4.45 2.67 -9.379 4.269 -14.254 4.623 C 53.909 61.8 53.885 61.801 53.86 61.801 z M 73.577 20.687 c 2.646 5.982 2.645 12.99 -0.058 20.035 c -2.728 7.113 -7.932 13.514 -14.8 18.275 c 2.906 -0.739 5.763 -1.931 8.438 -3.537 c 5.793 -3.476 10.175 -8.497 12.339 -14.139 c 2.132 -5.556 1.847 -11.046 -0.801 -15.458 C 77.448 23.783 75.706 22.028 73.577 20.687 z" style="stroke: none; stroke-width: 1; stroke-dasharray: none; stroke-linecap: butt; stroke-linejoin: miter; stroke-miterlimit: 10; fill: rgb(0,0,0); fill-rule: nonzero; opacity: 1;" transform=" matrix(1 0 0 1 0 0) " stroke-linecap="round" />
	<path d="M 71.191 19.346 c -0.209 0 -0.42 -0.065 -0.6 -0.2 c -0.442 -0.332 -0.53 -0.959 -0.199 -1.401 c 3.941 -5.249 4.904 -10.479 3.03 -16.46 c -0.165 -0.527 0.128 -1.088 0.655 -1.253 c 0.529 -0.167 1.088 0.128 1.253 0.655 c 2.054 6.557 0.962 12.53 -3.339 18.259 C 71.796 19.208 71.495 19.346 71.191 19.346 z" style="stroke: none; stroke-width: 1; stroke-dasharray: none; stroke-linecap: butt; stroke-linejoin: miter; stroke-miterlimit: 10; fill: rgb(0,0,0); fill-rule: nonzero; opacity: 1;" transform=" matrix(1 0 0 1 0 0) " stroke-linecap="round" />
	<path d="M 43.726 28.702 c -0.112 0 -0.226 -0.019 -0.337 -0.058 c -0.444 -0.159 -0.717 -0.606 -0.655 -1.074 c 0.414 -3.123 1.629 -6.232 3.515 -8.989 c 2.617 -3.828 6.256 -6.634 10.247 -7.899 c 4.077 -1.294 8.037 -0.834 11.15 1.293 c 2.071 1.416 3.624 3.507 4.493 6.047 c 0.141 0.411 -0.001 0.866 -0.349 1.125 c -0.349 0.261 -0.825 0.265 -1.179 0.012 l -0.2 -0.148 c -3.525 -2.409 -8.06 -2.911 -12.773 -1.418 c -4.8 1.522 -9.194 4.922 -12.374 9.572 h 0 c -0.24 0.351 -0.466 0.705 -0.687 1.062 C 44.39 28.529 44.064 28.702 43.726 28.702 z M 60.956 11.965 c -1.244 0 -2.54 0.207 -3.856 0.624 c -3.567 1.131 -6.833 3.66 -9.2 7.121 c -0.68 0.995 -1.264 2.038 -1.744 3.112 c 3.083 -3.374 6.844 -5.856 10.877 -7.135 c 4.186 -1.328 8.274 -1.24 11.796 0.21 c -0.643 -0.894 -1.42 -1.66 -2.312 -2.27 C 64.905 12.524 63.001 11.965 60.956 11.965 z" style="stroke: none; stroke-width: 1; stroke-dasharray: none; stroke-linecap: butt; stroke-linejoin: miter; stroke-miterlimit: 10; fill: rgb(0,0,0); fill-rule: nonzero; opacity: 1;" transform=" matrix(1 0 0 1 0 0) " stroke-linecap="round" />
	<path d="M 32.427 81.202 c -0.113 0 -0.224 -0.001 -0.337 -0.002 c -0.552 -0.007 -0.995 -0.459 -0.989 -1.012 c 0.006 -0.548 0.453 -0.989 1 -0.989 c 0.101 -0.004 0.207 0.002 0.31 0.002 c 8.503 0 18.027 -4.203 25.543 -11.286 c 0.401 -0.38 1.035 -0.36 1.414 0.042 c 0.379 0.402 0.36 1.035 -0.042 1.414 C 51.336 76.903 41.551 81.202 32.427 81.202 z" style="stroke: none; stroke-width: 1; stroke-dasharray: none; stroke-linecap: butt; stroke-linejoin: miter; stroke-miterlimit: 10; fill: rgb(0,0,0); fill-rule: nonzero; opacity: 1;" transform=" matrix(1 0 0 1 0 0) " stroke-linecap="round" />
	<path d="M 22.845 79.183 c -0.144 0 -0.29 -0.031 -0.429 -0.097 c -2.134 -1.014 -4.017 -2.379 -5.599 -4.058 c -0.379 -0.401 -0.36 -1.035 0.042 -1.414 c 0.402 -0.38 1.035 -0.36 1.414 0.042 c 1.41 1.497 3.093 2.716 5.001 3.622 c 0.499 0.237 0.711 0.834 0.474 1.333 C 23.577 78.972 23.218 79.183 22.845 79.183 z" style="stroke: none; stroke-width: 1; stroke-dasharray: none; stroke-linecap: butt; stroke-linejoin: miter; stroke-miterlimit: 10; fill: rgb(0,0,0); fill-rule: nonzero; opacity: 1;" transform=" matrix(1 0 0 1 0 0) " stroke-linecap="round" />
</g>
</g>
</svg>