<svg xmlns="http://www.w3.org/2000/svg" xmlns:xlink="http://www.w3.org/1999/xlink" version="1.1" width="256" height="256" viewBox="0 0 256 256" xml:space="preserve">
<desc>Created with Fabric.js 1.7.22</desc>
<defs>
</defs>
<g transform="translate(128 128) scale(0.72 0.72)" style="">
	<g style="stroke: none; stroke-width: 0; stroke-dasharray: none; stroke-linecap: butt; stroke-linejoin: miter; stroke-miterlimit: 10; fill: none; fill-rule: nonzero; opacity: 1;" transform="translate(-175.05 -175.05000000000004) scale(3.89 3.89)" >
	<path d="M 43.735 84.09 c -4.436 2.489 -9.888 3.635 -15.781 3.635 c -14.885 0 -26.951 -7.315 -26.951 -25.086 S 13.069 30.46 27.953 30.46 c 10.215 0 19.103 6.786 23.674 16.787" style="stroke: none; stroke-width: 1; stroke-dasharray: none; stroke-linecap: butt; stroke-linejoin: miter; stroke-miterlimit: 10; fill: rgb(255,240,130); fill-rule: nonzero; opacity: 1;" transform=" matrix(1 0 0 1 0 0) " stroke-linecap="round" />
	<path d="M 88.801 51.538 c 1.159 8.227 -2.839 18.389 -11.141 26.213 c -11.729 11.054 -27.607 13.256 -35.465 4.918 c -0.327 -0.347 -0.634 -0.706 -0.923 -1.077 c -3.308 -4.255 -3.37 -10.166 -0.482 -14.717 c 1.193 -1.88 2.352 -3.89 3.451 -6.008 c 1.092 -2.105 2.065 -4.197 2.913 -6.243 C 50.712 46.037 58.258 39.651 67.33 38 l 14.258 1.112 L 88.801 51.538 z" style="stroke: none; stroke-width: 1; stroke-dasharray: none; stroke-linecap: butt; stroke-linejoin: miter; stroke-miterlimit: 10; fill: rgb(255,207,93); fill-rule: nonzero; opacity: 1;" transform=" matrix(1 0 0 1 0 0) " stroke-linecap="round" />
	<path d="M 71.072 67.928 c 11.112 -6.668 15.89 -19.122 10.672 -27.818 c -0.05 -0.083 -0.105 -0.16 -0.156 -0.242 c 2.369 0.969 4.352 2.559 5.663 4.743 c 3.934 6.556 0.332 15.946 -8.046 20.973 c -3.029 1.818 -6.267 2.812 -9.353 3.036 C 70.261 68.398 70.668 68.17 71.072 67.928 z" style="stroke: none; stroke-width: 1; stroke-dasharray: none; stroke-linecap: butt; stroke-linejoin: miter; stroke-miterlimit: 10; fill: rgb(130,212,101); fill-rule: nonzero; opacity: 1;" transform=" matrix(1 0 0 1 0 0) " stroke-linecap="round" />
	<path d="M 63.47 45.459 c 4.628 -6.769 12.674 -9.32 17.971 -5.699 c 0.05 0.034 0.097 0.072 0.147 0.108 c -0.523 -1.533 -1.453 -2.845 -2.784 -3.754 c -3.994 -2.73 -10.06 -0.807 -13.549 4.296 c -1.262 1.845 -2.011 3.853 -2.268 5.794 C 63.143 45.954 63.302 45.705 63.47 45.459 z" style="stroke: none; stroke-width: 1; stroke-dasharray: none; stroke-linecap: butt; stroke-linejoin: miter; stroke-miterlimit: 10; fill: rgb(130,212,101); fill-rule: nonzero; opacity: 1;" transform=" matrix(1 0 0 1 0 0) " stroke-linecap="round" />
	<path d="M 27.953 30.46 c 5.427 0 10.478 1.917 14.707 5.211 c 0.965 -4.492 3.854 -8.923 7.711 -13.324 c -4.921 -0.296 -9.151 0.708 -12.522 3.331 c 0.423 -3.891 1.805 -7.519 4.064 -10.905 c -3.173 0.252 -6.278 1.212 -9.318 2.85 c -0.227 -4.7 -2.161 -9.938 -4.641 -15.348 c -2.48 5.41 -4.415 10.648 -4.641 15.348 c -3.04 -1.638 -6.145 -2.598 -9.318 -2.85 c 2.259 3.387 3.641 7.014 4.064 10.905 c -3.371 -2.622 -7.601 -3.627 -12.522 -3.331 c 3.857 4.401 6.745 8.832 7.711 13.324 C 17.476 32.377 22.527 30.46 27.953 30.46 z" style="stroke: none; stroke-width: 1; stroke-dasharray: none; stroke-linecap: butt; stroke-linejoin: miter; stroke-miterlimit: 10; fill: rgb(130,212,101); fill-rule: nonzero; opacity: 1;" transform=" matrix(1 0 0 1 0 0) " stroke-linecap="round" />
	<path d="M 54.989 88.729 c -5.487 0 -10.203 -1.854 -13.521 -5.376 c -0.345 -0.365 -0.677 -0.752 -0.985 -1.149 c -3.492 -4.491 -3.708 -10.868 -0.536 -15.866 c 1.2 -1.892 2.346 -3.888 3.408 -5.932 c 1.06 -2.041 2.027 -4.116 2.876 -6.165 c 3.764 -9.086 11.585 -15.526 20.921 -17.224 c 0.545 -0.096 1.063 0.261 1.162 0.805 c 0.1 0.543 -0.261 1.064 -0.805 1.163 c -8.664 1.577 -15.927 7.567 -19.431 16.022 c -0.871 2.101 -1.862 4.228 -2.948 6.321 c -1.088 2.096 -2.264 4.142 -3.494 6.082 c -2.721 4.289 -2.549 9.741 0.427 13.568 c 0.27 0.348 0.559 0.686 0.86 1.005 c 3.573 3.792 9.049 5.392 15.416 4.51 c 6.495 -0.9 13.113 -4.263 18.636 -9.468 c 7.845 -7.393 11.997 -17.106 10.836 -25.345 c -0.077 -0.547 0.304 -1.053 0.851 -1.13 c 0.56 -0.082 1.053 0.305 1.13 0.851 c 1.25 8.873 -3.136 19.249 -11.446 27.08 c -5.822 5.488 -12.83 9.037 -19.732 9.994 C 57.374 88.643 56.164 88.728 54.989 88.729 z" style="stroke: none; stroke-width: 1; stroke-dasharray: none; stroke-linecap: butt; stroke-linejoin: miter; stroke-miterlimit: 10; fill: rgb(0,0,0); fill-rule: nonzero; opacity: 1;" transform=" matrix(1 0 0 1 0 0) " stroke-linecap="round" />
	<path d="M 69.85 69.619 c -0.44 0 -0.834 -0.291 -0.959 -0.72 c -0.132 -0.453 0.07 -0.936 0.485 -1.16 c 0.395 -0.214 0.79 -0.435 1.181 -0.669 l 0 0 c 10.622 -6.374 15.255 -18.237 10.33 -26.446 l -0.147 -0.228 c -0.229 -0.368 -0.195 -0.842 0.085 -1.174 c 0.277 -0.331 0.74 -0.446 1.143 -0.28 c 2.643 1.081 4.766 2.863 6.141 5.154 c 4.211 7.018 0.447 17.042 -8.388 22.345 c -3.056 1.834 -6.444 2.932 -9.796 3.176 C 69.899 69.618 69.875 69.619 69.85 69.619 z M 83.9 42.334 c 2.835 7.902 -0.85 17.727 -9.072 24.215 c 1.326 -0.469 2.624 -1.079 3.863 -1.823 c 7.89 -4.735 11.346 -13.528 7.703 -19.601 C 85.751 44.054 84.908 43.114 83.9 42.334 z" style="stroke: none; stroke-width: 1; stroke-dasharray: none; stroke-linecap: butt; stroke-linejoin: miter; stroke-miterlimit: 10; fill: rgb(0,0,0); fill-rule: nonzero; opacity: 1;" transform=" matrix(1 0 0 1 0 0) " stroke-linecap="round" />
	<path d="M 81.587 40.867 c -0.209 0 -0.42 -0.065 -0.6 -0.2 c -0.441 -0.332 -0.53 -0.958 -0.199 -1.4 c 2.601 -3.464 3.238 -6.913 2.003 -10.856 c -0.165 -0.527 0.128 -1.088 0.655 -1.253 c 0.529 -0.166 1.088 0.128 1.253 0.655 c 1.425 4.548 0.669 8.687 -2.311 12.655 C 82.192 40.73 81.891 40.867 81.587 40.867 z" style="stroke: none; stroke-width: 1; stroke-dasharray: none; stroke-linecap: butt; stroke-linejoin: miter; stroke-miterlimit: 10; fill: rgb(0,0,0); fill-rule: nonzero; opacity: 1;" transform=" matrix(1 0 0 1 0 0) " stroke-linecap="round" />
	<path d="M 62.988 47.204 c -0.112 0 -0.225 -0.019 -0.335 -0.058 c -0.444 -0.158 -0.719 -0.605 -0.656 -1.073 c 0.286 -2.165 1.128 -4.319 2.433 -6.228 c 3.795 -5.55 10.498 -7.593 14.939 -4.557 c 1.461 0.998 2.555 2.471 3.165 4.257 c 0.141 0.41 0 0.864 -0.347 1.123 c -0.348 0.261 -0.821 0.266 -1.177 0.017 c -0.008 -0.005 -0.085 -0.062 -0.093 -0.068 c -4.876 -3.336 -12.313 -0.895 -16.622 5.406 c 0 0.001 0 0.002 -0.001 0.002 c -0.159 0.232 -0.31 0.468 -0.455 0.704 C 63.653 47.031 63.327 47.204 62.988 47.204 z M 74.647 35.869 c -3.014 0 -6.347 1.86 -8.566 5.105 c -0.045 0.067 -0.09 0.134 -0.135 0.201 c 3.929 -3.413 8.851 -4.808 13.019 -3.651 c -0.226 -0.214 -0.468 -0.41 -0.725 -0.585 C 77.179 36.213 75.942 35.869 74.647 35.869 z" style="stroke: none; stroke-width: 1; stroke-dasharray: none; stroke-linecap: butt; stroke-linejoin: miter; stroke-miterlimit: 10; fill: rgb(0,0,0); fill-rule: nonzero; opacity: 1;" transform=" matrix(1 0 0 1 0 0) " stroke-linecap="round" />
	<path d="M 55.336 82.757 c -0.077 0 -0.154 0 -0.231 -0.001 c -0.552 -0.007 -0.995 -0.459 -0.988 -1.012 c 0.007 -0.552 0.458 -1.009 1.012 -0.988 c 5.727 0.076 12.185 -2.757 17.275 -7.553 c 0.4 -0.38 1.035 -0.36 1.413 0.042 c 0.379 0.401 0.36 1.034 -0.042 1.413 C 68.303 79.814 61.596 82.757 55.336 82.757 z" style="stroke: none; stroke-width: 1; stroke-dasharray: none; stroke-linecap: butt; stroke-linejoin: miter; stroke-miterlimit: 10; fill: rgb(0,0,0); fill-rule: nonzero; opacity: 1;" transform=" matrix(1 0 0 1 0 0) " stroke-linecap="round" />
	<path d="M 42.66 36.671 c -0.219 0 -0.437 -0.072 -0.615 -0.211 c -4.199 -3.271 -9.072 -5 -14.092 -5 c -5.021 0 -9.894 1.729 -14.093 5 c -0.272 0.211 -0.634 0.268 -0.956 0.151 c -0.323 -0.118 -0.563 -0.394 -0.636 -0.73 c -0.83 -3.863 -3.278 -8.074 -7.485 -12.874 c -0.251 -0.287 -0.318 -0.692 -0.171 -1.044 c 0.147 -0.352 0.482 -0.59 0.863 -0.613 c 4.36 -0.264 8.129 0.488 11.235 2.235 c -0.611 -2.867 -1.8 -5.636 -3.548 -8.257 c -0.212 -0.318 -0.224 -0.73 -0.03 -1.061 c 0.193 -0.33 0.544 -0.519 0.941 -0.491 c 2.811 0.223 5.619 0.991 8.367 2.287 c 0.578 -4.918 2.73 -10.117 4.604 -14.204 c 0.163 -0.355 0.518 -0.583 0.909 -0.583 l 0 0 c 0.391 0 0.746 0.228 0.909 0.583 c 1.873 4.088 4.026 9.286 4.604 14.204 c 2.747 -1.295 5.555 -2.063 8.366 -2.287 c 0.382 -0.026 0.748 0.161 0.941 0.491 c 0.194 0.331 0.182 0.743 -0.03 1.061 c -1.748 2.621 -2.937 5.39 -3.548 8.257 c 3.106 -1.747 6.871 -2.499 11.235 -2.235 c 0.381 0.023 0.715 0.261 0.862 0.613 c 0.147 0.352 0.081 0.757 -0.171 1.044 c -4.207 4.799 -6.655 9.011 -7.485 12.874 c -0.072 0.336 -0.312 0.612 -0.636 0.73 C 42.891 36.651 42.775 36.671 42.66 36.671 z M 7.654 23.301 c 3.142 3.843 5.181 7.366 6.189 10.69 c 4.27 -2.969 9.119 -4.531 14.111 -4.531 s 9.84 1.561 14.111 4.531 c 1.007 -3.324 3.047 -6.847 6.189 -10.69 c -3.939 0.074 -7.156 1.118 -9.79 3.166 c -0.319 0.247 -0.752 0.278 -1.102 0.084 c -0.351 -0.195 -0.55 -0.582 -0.507 -0.981 c 0.36 -3.307 1.404 -6.506 3.11 -9.536 c -2.318 0.421 -4.629 1.248 -6.896 2.469 c -0.302 0.163 -0.667 0.159 -0.966 -0.01 c -0.299 -0.169 -0.491 -0.479 -0.507 -0.822 c -0.205 -4.254 -1.912 -8.961 -3.642 -12.947 c -1.731 3.986 -3.437 8.692 -3.642 12.947 c -0.017 0.343 -0.208 0.653 -0.507 0.822 c -0.299 0.169 -0.664 0.174 -0.966 0.01 c -2.267 -1.221 -4.578 -2.047 -6.896 -2.469 c 1.706 3.03 2.75 6.229 3.11 9.536 c 0.043 0.399 -0.156 0.786 -0.507 0.981 c -0.351 0.195 -0.784 0.164 -1.102 -0.084 C 14.81 24.418 11.592 23.375 7.654 23.301 z" style="stroke: none; stroke-width: 1; stroke-dasharray: none; stroke-linecap: butt; stroke-linejoin: miter; stroke-miterlimit: 10; fill: rgb(0,0,0); fill-rule: nonzero; opacity: 1;" transform=" matrix(1 0 0 1 0 0) " stroke-linecap="round" />
	<path d="M 27.953 88.725 c -17.502 0 -27.951 -9.752 -27.951 -26.087 c 0 -18.295 12.539 -33.179 27.951 -33.179 c 10.267 0 19.686 6.656 24.583 17.371 c 0.229 0.503 0.009 1.096 -0.493 1.325 c -0.505 0.229 -1.097 0.007 -1.325 -0.493 C 46.15 37.668 37.428 31.46 27.953 31.46 c -14.31 0 -25.951 13.987 -25.951 31.179 c 0 15.308 9.459 24.087 25.951 24.087 c 5.997 0 11.142 -1.181 15.292 -3.508 c 0.483 -0.27 1.092 -0.099 1.361 0.383 c 0.27 0.481 0.099 1.091 -0.383 1.361 C 39.772 87.459 34.297 88.725 27.953 88.725 z" style="stroke: none; stroke-width: 1; stroke-dasharray: none; stroke-linecap: butt; stroke-linejoin: miter; stroke-miterlimit: 10; fill: rgb(0,0,0); fill-rule: nonzero; opacity: 1;" transform=" matrix(1 0 0 1 0 0) " stroke-linecap="round" />
	<path d="M 37.645 63.712 c -0.198 0 -0.397 -0.059 -0.572 -0.181 c -9.495 -6.64 -17.776 -14.208 -24.614 -22.492 c -0.352 -0.426 -0.291 -1.056 0.134 -1.408 c 0.427 -0.351 1.057 -0.29 1.408 0.134 c 6.723 8.145 14.871 15.589 24.218 22.127 c 0.453 0.316 0.563 0.939 0.246 1.393 C 38.271 63.564 37.961 63.712 37.645 63.712 z" style="stroke: none; stroke-width: 1; stroke-dasharray: none; stroke-linecap: butt; stroke-linejoin: miter; stroke-miterlimit: 10; fill: rgb(0,0,0); fill-rule: nonzero; opacity: 1;" transform=" matrix(1 0 0 1 0 0) " stroke-linecap="round" />
	<path d="M 36.194 81.95 c -0.154 0 -0.311 -0.036 -0.458 -0.111 c -1.862 -0.962 -3.699 -1.987 -5.461 -3.048 c -0.473 -0.284 -0.626 -0.898 -0.341 -1.372 c 0.285 -0.473 0.898 -0.628 1.372 -0.341 c 1.725 1.037 3.524 2.042 5.347 2.983 c 0.491 0.254 0.683 0.857 0.43 1.348 C 36.906 81.753 36.556 81.95 36.194 81.95 z" style="stroke: none; stroke-width: 1; stroke-dasharray: none; stroke-linecap: butt; stroke-linejoin: miter; stroke-miterlimit: 10; fill: rgb(0,0,0); fill-rule: nonzero; opacity: 1;" transform=" matrix(1 0 0 1 0 0) " stroke-linecap="round" />
	<path d="M 23.997 74.423 c -0.205 0 -0.412 -0.063 -0.589 -0.192 c -6.975 -5.102 -13.177 -11.207 -18.433 -18.147 c -0.333 -0.44 -0.247 -1.067 0.193 -1.4 c 0.44 -0.334 1.068 -0.247 1.401 0.193 c 5.138 6.784 11.201 12.752 18.019 17.738 c 0.446 0.326 0.543 0.952 0.217 1.398 C 24.609 74.282 24.305 74.423 23.997 74.423 z" style="stroke: none; stroke-width: 1; stroke-dasharray: none; stroke-linecap: butt; stroke-linejoin: miter; stroke-miterlimit: 10; fill: rgb(0,0,0); fill-rule: nonzero; opacity: 1;" transform=" matrix(1 0 0 1 0 0) " stroke-linecap="round" />
	<path d="M 5.773 71.544 c -0.35 0 -0.689 -0.184 -0.873 -0.51 c -0.271 -0.481 -0.1 -1.091 0.381 -1.361 c 1.874 -1.056 3.715 -2.14 5.468 -3.223 c 0.47 -0.292 1.085 -0.146 1.376 0.325 c 0.29 0.47 0.144 1.086 -0.326 1.376 c -1.777 1.098 -3.64 2.195 -5.539 3.264 C 6.107 71.503 5.939 71.544 5.773 71.544 z" style="stroke: none; stroke-width: 1; stroke-dasharray: none; stroke-linecap: butt; stroke-linejoin: miter; stroke-miterlimit: 10; fill: rgb(0,0,0); fill-rule: nonzero; opacity: 1;" transform=" matrix(1 0 0 1 0 0) " stroke-linecap="round" />
	<path d="M 18.262 63.712 c -0.315 0 -0.626 -0.148 -0.82 -0.427 c -0.317 -0.453 -0.207 -1.076 0.246 -1.393 c 9.347 -6.538 17.495 -13.982 24.218 -22.127 c 0.352 -0.424 0.982 -0.486 1.408 -0.134 c 0.426 0.352 0.486 0.981 0.134 1.408 c -6.838 8.284 -15.118 15.851 -24.613 22.492 C 18.659 63.653 18.459 63.712 18.262 63.712 z" style="stroke: none; stroke-width: 1; stroke-dasharray: none; stroke-linecap: butt; stroke-linejoin: miter; stroke-miterlimit: 10; fill: rgb(0,0,0); fill-rule: nonzero; opacity: 1;" transform=" matrix(1 0 0 1 0 0) " stroke-linecap="round" />
	<path d="M 19.713 81.95 c -0.362 0 -0.712 -0.197 -0.89 -0.541 c -0.253 -0.49 -0.061 -1.094 0.43 -1.348 c 1.824 -0.941 3.622 -1.946 5.347 -2.983 c 0.475 -0.287 1.087 -0.132 1.372 0.341 c 0.285 0.474 0.132 1.088 -0.341 1.372 c -1.762 1.06 -3.599 2.086 -5.461 3.048 C 20.024 81.914 19.867 81.95 19.713 81.95 z" style="stroke: none; stroke-width: 1; stroke-dasharray: none; stroke-linecap: butt; stroke-linejoin: miter; stroke-miterlimit: 10; fill: rgb(0,0,0); fill-rule: nonzero; opacity: 1;" transform=" matrix(1 0 0 1 0 0) " stroke-linecap="round" />
	<path d="M 31.91 74.423 c -0.308 0 -0.612 -0.142 -0.808 -0.409 c -0.326 -0.446 -0.229 -1.072 0.217 -1.397 c 0.945 -0.692 1.885 -1.409 2.794 -2.132 c 0.432 -0.344 1.06 -0.273 1.405 0.16 c 0.344 0.432 0.272 1.061 -0.16 1.404 c -0.93 0.74 -1.892 1.474 -2.859 2.181 C 32.321 74.361 32.114 74.423 31.91 74.423 z" style="stroke: none; stroke-width: 1; stroke-dasharray: none; stroke-linecap: butt; stroke-linejoin: miter; stroke-miterlimit: 10; fill: rgb(0,0,0); fill-rule: nonzero; opacity: 1;" transform=" matrix(1 0 0 1 0 0) " stroke-linecap="round" />
</g>
</g>
</svg>