<svg xmlns="http://www.w3.org/2000/svg" xmlns:xlink="http://www.w3.org/1999/xlink" version="1.1" width="256" height="256" viewBox="0 0 256 256" xml:space="preserve">
<desc>Created with Fabric.js 1.7.22</desc>
<defs>
</defs>
<g transform="translate(128 128) scale(0.72 0.72)" style="">
	<g style="stroke: none; stroke-width: 0; stroke-dasharray: none; stroke-linecap: butt; stroke-linejoin: miter; stroke-miterlimit: 10; fill: none; fill-rule: nonzero; opacity: 1;" transform="translate(-175.05 -175.05000000000004) scale(3.89 3.89)" >
	<path d="M 79.941 28.884 c -0.296 1.769 -0.723 3.494 -1.27 5.165" style="stroke: none; stroke-width: 1; stroke-dasharray: none; stroke-linecap: butt; stroke-linejoin: miter; stroke-miterlimit: 10; fill: rgb(255,207,93); fill-rule: nonzero; opacity: 1;" transform=" matrix(1 0 0 1 0 0) " stroke-linecap="round" />
	<path d="M 62.714 23 c 0 9.783 -7.931 17.713 -17.714 17.713 S 27.286 32.783 27.286 23 H 1 c 0 24.301 19.699 44 44 44 s 44 -19.699 44 -44 H 62.714 z" style="stroke: none; stroke-width: 1; stroke-dasharray: none; stroke-linecap: butt; stroke-linejoin: miter; stroke-miterlimit: 10; fill: rgb(255,207,93); fill-rule: nonzero; opacity: 1;" transform=" matrix(1 0 0 1 0 0) " stroke-linecap="round" />
	<path d="M 62.713 23 c 0 9.783 -7.931 17.713 -17.713 17.713 S 27.287 32.783 27.287 23 H 9.573 c 0 19.566 15.861 35.427 35.427 35.427 S 80.427 42.566 80.427 23 H 62.713 z" style="stroke: none; stroke-width: 1; stroke-dasharray: none; stroke-linecap: butt; stroke-linejoin: miter; stroke-miterlimit: 10; fill: rgb(255,240,130); fill-rule: nonzero; opacity: 1;" transform=" matrix(1 0 0 1 0 0) " stroke-linecap="round" />
	<path d="M 78.67 35.049 c -0.104 0 -0.208 -0.016 -0.312 -0.05 c -0.525 -0.172 -0.811 -0.737 -0.639 -1.262 c 0.535 -1.631 0.95 -3.319 1.234 -5.018 c 0.091 -0.545 0.607 -0.916 1.151 -0.821 c 0.545 0.091 0.912 0.606 0.821 1.151 c -0.301 1.798 -0.74 3.585 -1.307 5.311 C 79.481 34.781 79.091 35.049 78.67 35.049 z" style="stroke: none; stroke-width: 1; stroke-dasharray: none; stroke-linecap: butt; stroke-linejoin: miter; stroke-miterlimit: 10; fill: rgb(0,0,0); fill-rule: nonzero; opacity: 1;" transform=" matrix(1 0 0 1 0 0) " stroke-linecap="round" />
	<path d="M 45 59.427 C 24.914 59.427 8.573 43.086 8.573 23 c 0 -0.552 0.448 -1 1 -1 s 1 0.448 1 1 c 0 18.983 15.444 34.427 34.427 34.427 c 12.652 0 24.26 -6.917 30.292 -18.052 c 0.263 -0.485 0.87 -0.667 1.355 -0.403 s 0.666 0.87 0.402 1.355 C 70.668 52.108 58.388 59.427 45 59.427 z" style="stroke: none; stroke-width: 1; stroke-dasharray: none; stroke-linecap: butt; stroke-linejoin: miter; stroke-miterlimit: 10; fill: rgb(0,0,0); fill-rule: nonzero; opacity: 1;" transform=" matrix(1 0 0 1 0 0) " stroke-linecap="round" />
	<path d="M 45 68 C 20.187 68 0 47.813 0 23 c 0 -0.552 0.448 -1 1 -1 h 26.287 c 0.552 0 1 0.448 1 1 c 0 9.216 7.498 16.713 16.713 16.713 S 61.714 32.216 61.714 23 c 0 -0.552 0.447 -1 1 -1 H 89 c 0.553 0 1 0.448 1 1 C 90 47.813 69.813 68 45 68 z M 2.011 24 C 2.545 47.25 21.624 66 45 66 s 42.455 -18.75 42.988 -42 H 63.688 C 63.166 33.855 54.983 41.713 45 41.713 c -9.983 0 -18.165 -7.858 -18.687 -17.713 H 2.011 z" style="stroke: none; stroke-width: 1; stroke-dasharray: none; stroke-linecap: butt; stroke-linejoin: miter; stroke-miterlimit: 10; fill: rgb(0,0,0); fill-rule: nonzero; opacity: 1;" transform=" matrix(1 0 0 1 0 0) " stroke-linecap="round" />
</g>
</g>
</svg>