<svg xmlns="http://www.w3.org/2000/svg" xmlns:xlink="http://www.w3.org/1999/xlink" version="1.1" width="256" height="256" viewBox="0 0 256 256" xml:space="preserve">
<desc>Created with Fabric.js 1.7.22</desc>
<defs>
</defs>
<g transform="translate(128 128) scale(0.72 0.72)" style="">
	<g style="stroke: none; stroke-width: 0; stroke-dasharray: none; stroke-linecap: butt; stroke-linejoin: miter; stroke-miterlimit: 10; fill: none; fill-rule: nonzero; opacity: 1;" transform="translate(-175.05 -175.05000000000004) scale(3.89 3.89)" >
	<path d="M 56.575 35.749 C 52.555 21.56 42.82 11.552 31.449 11.552 c -14.965 0 -27.097 17.337 -27.097 38.724 S 16.484 89 31.449 89 c 4.613 0 8.958 -1.648 12.76 -4.554 L 56.575 35.749 z" style="stroke: none; stroke-width: 1; stroke-dasharray: none; stroke-linecap: butt; stroke-linejoin: miter; stroke-miterlimit: 10; fill: rgb(198,0,121); fill-rule: nonzero; opacity: 1;" transform=" matrix(1 0 0 1 0 0) " stroke-linecap="round" />
	<circle cx="59.046" cy="62.356" r="26.606" style="stroke: none; stroke-width: 1; stroke-dasharray: none; stroke-linecap: butt; stroke-linejoin: miter; stroke-miterlimit: 10; fill: rgb(247,72,178); fill-rule: nonzero; opacity: 1;" transform="  matrix(1 0 0 1 0 0) "/>
	<circle cx="59.04" cy="62.36" r="20.5" style="stroke: none; stroke-width: 1; stroke-dasharray: none; stroke-linecap: butt; stroke-linejoin: miter; stroke-miterlimit: 10; fill: rgb(255,207,93); fill-rule: nonzero; opacity: 1;" transform="  matrix(1 0 0 1 0 0) "/>
	<path d="M 31.449 90 C 15.957 90 3.352 72.18 3.352 50.276 c 0 -21.904 12.604 -39.725 28.097 -39.725 c 11.558 0 21.798 9.784 26.088 24.925 c 0.15 0.531 -0.158 1.084 -0.689 1.234 c -0.527 0.151 -1.083 -0.157 -1.234 -0.689 c -4.04 -14.257 -13.525 -23.47 -24.164 -23.47 c -14.39 0 -26.097 16.923 -26.097 37.725 C 5.352 71.077 17.059 88 31.449 88 c 4.229 0 8.431 -1.504 12.153 -4.349 c 0.44 -0.333 1.067 -0.252 1.402 0.188 c 0.335 0.439 0.251 1.066 -0.187 1.402 C 40.743 88.354 36.121 90 31.449 90 z" style="stroke: none; stroke-width: 1; stroke-dasharray: none; stroke-linecap: butt; stroke-linejoin: miter; stroke-miterlimit: 10; fill: rgb(0,0,0); fill-rule: nonzero; opacity: 1;" transform=" matrix(1 0 0 1 0 0) " stroke-linecap="round" />
	<path d="M 59.042 78.791 c -0.553 0 -1 -0.447 -1 -1 v -2.692 c 0 -0.553 0.447 -1 1 -1 s 1 0.447 1 1 v 2.692 C 60.042 78.344 59.595 78.791 59.042 78.791 z" style="stroke: none; stroke-width: 1; stroke-dasharray: none; stroke-linecap: butt; stroke-linejoin: miter; stroke-miterlimit: 10; fill: rgb(0,0,0); fill-rule: nonzero; opacity: 1;" transform=" matrix(1 0 0 1 0 0) " stroke-linecap="round" />
	<path d="M 59.042 50.614 c -0.553 0 -1 -0.447 -1 -1 v -2.693 c 0 -0.553 0.447 -1 1 -1 s 1 0.447 1 1 v 2.693 C 60.042 50.167 59.595 50.614 59.042 50.614 z" style="stroke: none; stroke-width: 1; stroke-dasharray: none; stroke-linecap: butt; stroke-linejoin: miter; stroke-miterlimit: 10; fill: rgb(0,0,0); fill-rule: nonzero; opacity: 1;" transform=" matrix(1 0 0 1 0 0) " stroke-linecap="round" />
	<path d="M 74.478 63.356 h -2.693 c -0.553 0 -1 -0.447 -1 -1 s 0.447 -1 1 -1 h 2.693 c 0.553 0 1 0.447 1 1 S 75.03 63.356 74.478 63.356 z" style="stroke: none; stroke-width: 1; stroke-dasharray: none; stroke-linecap: butt; stroke-linejoin: miter; stroke-miterlimit: 10; fill: rgb(0,0,0); fill-rule: nonzero; opacity: 1;" transform=" matrix(1 0 0 1 0 0) " stroke-linecap="round" />
	<path d="M 46.3 63.356 h -2.693 c -0.552 0 -1 -0.447 -1 -1 s 0.448 -1 1 -1 H 46.3 c 0.553 0 1 0.447 1 1 S 46.853 63.356 46.3 63.356 z" style="stroke: none; stroke-width: 1; stroke-dasharray: none; stroke-linecap: butt; stroke-linejoin: miter; stroke-miterlimit: 10; fill: rgb(0,0,0); fill-rule: nonzero; opacity: 1;" transform=" matrix(1 0 0 1 0 0) " stroke-linecap="round" />
	<path d="M 48.128 74.271 c -0.256 0 -0.512 -0.098 -0.707 -0.293 c -0.391 -0.391 -0.391 -1.023 0 -1.414 l 1.904 -1.904 c 0.391 -0.391 1.023 -0.391 1.414 0 s 0.391 1.023 0 1.414 l -1.904 1.904 C 48.64 74.173 48.384 74.271 48.128 74.271 z" style="stroke: none; stroke-width: 1; stroke-dasharray: none; stroke-linecap: butt; stroke-linejoin: miter; stroke-miterlimit: 10; fill: rgb(0,0,0); fill-rule: nonzero; opacity: 1;" transform=" matrix(1 0 0 1 0 0) " stroke-linecap="round" />
	<path d="M 68.052 54.346 c -0.256 0 -0.512 -0.098 -0.707 -0.293 c -0.391 -0.391 -0.391 -1.023 0 -1.414 l 1.904 -1.904 c 0.391 -0.391 1.023 -0.391 1.414 0 s 0.391 1.023 0 1.414 l -1.904 1.904 C 68.563 54.248 68.308 54.346 68.052 54.346 z" style="stroke: none; stroke-width: 1; stroke-dasharray: none; stroke-linecap: butt; stroke-linejoin: miter; stroke-miterlimit: 10; fill: rgb(0,0,0); fill-rule: nonzero; opacity: 1;" transform=" matrix(1 0 0 1 0 0) " stroke-linecap="round" />
	<path d="M 69.956 74.271 c -0.256 0 -0.512 -0.098 -0.707 -0.293 l -1.904 -1.904 c -0.391 -0.391 -0.391 -1.023 0 -1.414 s 1.023 -0.391 1.414 0 l 1.904 1.904 c 0.391 0.391 0.391 1.023 0 1.414 C 70.468 74.173 70.212 74.271 69.956 74.271 z" style="stroke: none; stroke-width: 1; stroke-dasharray: none; stroke-linecap: butt; stroke-linejoin: miter; stroke-miterlimit: 10; fill: rgb(0,0,0); fill-rule: nonzero; opacity: 1;" transform=" matrix(1 0 0 1 0 0) " stroke-linecap="round" />
	<path d="M 50.032 54.346 c -0.256 0 -0.512 -0.098 -0.707 -0.293 l -1.904 -1.904 c -0.391 -0.391 -0.391 -1.023 0 -1.414 s 1.023 -0.391 1.414 0 l 1.904 1.904 c 0.391 0.391 0.391 1.023 0 1.414 C 50.544 54.248 50.288 54.346 50.032 54.346 z" style="stroke: none; stroke-width: 1; stroke-dasharray: none; stroke-linecap: butt; stroke-linejoin: miter; stroke-miterlimit: 10; fill: rgb(0,0,0); fill-rule: nonzero; opacity: 1;" transform=" matrix(1 0 0 1 0 0) " stroke-linecap="round" />
	<path d="M 59.042 89.962 c -15.222 0 -27.606 -12.384 -27.606 -27.605 c 0 -15.223 12.384 -27.606 27.606 -27.606 c 15.223 0 27.606 12.384 27.606 27.606 C 86.648 77.578 74.265 89.962 59.042 89.962 z M 59.042 36.75 c -14.119 0 -25.606 11.487 -25.606 25.606 s 11.487 25.605 25.606 25.605 s 25.606 -11.486 25.606 -25.605 S 73.161 36.75 59.042 36.75 z" style="stroke: none; stroke-width: 1; stroke-dasharray: none; stroke-linecap: butt; stroke-linejoin: miter; stroke-miterlimit: 10; fill: rgb(0,0,0); fill-rule: nonzero; opacity: 1;" transform=" matrix(1 0 0 1 0 0) " stroke-linecap="round" />
	<path d="M 59.042 83.856 c -11.855 0 -21.5 -9.645 -21.5 -21.5 s 9.645 -21.5 21.5 -21.5 s 21.5 9.645 21.5 21.5 S 70.897 83.856 59.042 83.856 z M 59.042 42.856 c -10.752 0 -19.5 8.748 -19.5 19.5 c 0 10.752 8.748 19.5 19.5 19.5 s 19.5 -8.748 19.5 -19.5 C 78.542 51.604 69.794 42.856 59.042 42.856 z" style="stroke: none; stroke-width: 1; stroke-dasharray: none; stroke-linecap: butt; stroke-linejoin: miter; stroke-miterlimit: 10; fill: rgb(0,0,0); fill-rule: nonzero; opacity: 1;" transform=" matrix(1 0 0 1 0 0) " stroke-linecap="round" />
	<path d="M 66.435 66.418 c -0.128 0 -0.258 -0.024 -0.383 -0.076 l -1.29 -0.534 c -0.51 -0.211 -0.752 -0.796 -0.541 -1.307 s 0.8 -0.752 1.307 -0.541 l 1.29 0.534 c 0.51 0.211 0.752 0.796 0.541 1.307 C 67.199 66.186 66.826 66.418 66.435 66.418 z" style="stroke: none; stroke-width: 1; stroke-dasharray: none; stroke-linecap: butt; stroke-linejoin: miter; stroke-miterlimit: 10; fill: rgb(0,0,0); fill-rule: nonzero; opacity: 1;" transform=" matrix(1 0 0 1 0 0) " stroke-linecap="round" />
	<path d="M 52.939 60.828 c -0.128 0 -0.258 -0.024 -0.383 -0.076 l -1.289 -0.534 c -0.51 -0.212 -0.752 -0.797 -0.541 -1.307 c 0.211 -0.511 0.8 -0.752 1.307 -0.541 l 1.289 0.534 c 0.51 0.212 0.752 0.797 0.541 1.307 C 53.704 60.596 53.331 60.828 52.939 60.828 z" style="stroke: none; stroke-width: 1; stroke-dasharray: none; stroke-linecap: butt; stroke-linejoin: miter; stroke-miterlimit: 10; fill: rgb(0,0,0); fill-rule: nonzero; opacity: 1;" transform=" matrix(1 0 0 1 0 0) " stroke-linecap="round" />
	<path d="M 61.569 57.254 c -0.128 0 -0.258 -0.024 -0.383 -0.076 c -0.51 -0.211 -0.752 -0.796 -0.541 -1.307 l 0.534 -1.29 c 0.211 -0.511 0.799 -0.75 1.307 -0.541 c 0.51 0.211 0.752 0.796 0.541 1.307 l -0.534 1.29 C 62.334 57.021 61.961 57.254 61.569 57.254 z" style="stroke: none; stroke-width: 1; stroke-dasharray: none; stroke-linecap: butt; stroke-linejoin: miter; stroke-miterlimit: 10; fill: rgb(0,0,0); fill-rule: nonzero; opacity: 1;" transform=" matrix(1 0 0 1 0 0) " stroke-linecap="round" />
	<path d="M 55.98 70.748 c -0.128 0 -0.258 -0.024 -0.383 -0.076 c -0.51 -0.211 -0.752 -0.796 -0.541 -1.307 l 0.534 -1.29 c 0.211 -0.51 0.8 -0.751 1.307 -0.541 c 0.51 0.211 0.752 0.796 0.541 1.307 l -0.534 1.29 C 56.745 70.516 56.372 70.748 55.98 70.748 z" style="stroke: none; stroke-width: 1; stroke-dasharray: none; stroke-linecap: butt; stroke-linejoin: miter; stroke-miterlimit: 10; fill: rgb(0,0,0); fill-rule: nonzero; opacity: 1;" transform=" matrix(1 0 0 1 0 0) " stroke-linecap="round" />
	<path d="M 62.104 70.748 c -0.392 0 -0.765 -0.232 -0.924 -0.617 l -0.534 -1.29 c -0.211 -0.511 0.031 -1.096 0.541 -1.307 c 0.509 -0.209 1.096 0.031 1.307 0.541 l 0.534 1.29 c 0.211 0.511 -0.031 1.096 -0.541 1.307 C 62.361 70.724 62.231 70.748 62.104 70.748 z" style="stroke: none; stroke-width: 1; stroke-dasharray: none; stroke-linecap: butt; stroke-linejoin: miter; stroke-miterlimit: 10; fill: rgb(0,0,0); fill-rule: nonzero; opacity: 1;" transform=" matrix(1 0 0 1 0 0) " stroke-linecap="round" />
	<path d="M 56.515 57.254 c -0.392 0 -0.765 -0.232 -0.924 -0.617 l -0.534 -1.29 c -0.211 -0.511 0.031 -1.096 0.541 -1.307 c 0.508 -0.209 1.096 0.031 1.307 0.541 l 0.534 1.29 c 0.211 0.511 -0.031 1.096 -0.541 1.307 C 56.772 57.229 56.643 57.254 56.515 57.254 z" style="stroke: none; stroke-width: 1; stroke-dasharray: none; stroke-linecap: butt; stroke-linejoin: miter; stroke-miterlimit: 10; fill: rgb(0,0,0); fill-rule: nonzero; opacity: 1;" transform=" matrix(1 0 0 1 0 0) " stroke-linecap="round" />
	<path d="M 65.145 60.828 c -0.392 0 -0.765 -0.232 -0.924 -0.617 c -0.211 -0.511 0.031 -1.096 0.541 -1.307 l 1.29 -0.534 c 0.508 -0.21 1.096 0.03 1.307 0.541 s -0.031 1.096 -0.541 1.307 l -1.29 0.534 C 65.402 60.804 65.272 60.828 65.145 60.828 z" style="stroke: none; stroke-width: 1; stroke-dasharray: none; stroke-linecap: butt; stroke-linejoin: miter; stroke-miterlimit: 10; fill: rgb(0,0,0); fill-rule: nonzero; opacity: 1;" transform=" matrix(1 0 0 1 0 0) " stroke-linecap="round" />
	<path d="M 51.65 66.418 c -0.392 0 -0.765 -0.232 -0.924 -0.617 c -0.211 -0.51 0.031 -1.095 0.541 -1.307 l 1.289 -0.534 c 0.509 -0.21 1.096 0.03 1.307 0.541 c 0.211 0.51 -0.031 1.095 -0.541 1.307 l -1.289 0.534 C 51.908 66.394 51.778 66.418 51.65 66.418 z" style="stroke: none; stroke-width: 1; stroke-dasharray: none; stroke-linecap: butt; stroke-linejoin: miter; stroke-miterlimit: 10; fill: rgb(0,0,0); fill-rule: nonzero; opacity: 1;" transform=" matrix(1 0 0 1 0 0) " stroke-linecap="round" />
	<path d="M 64.949 77.616 c -0.392 0 -0.765 -0.232 -0.924 -0.617 l -1.031 -2.488 c -0.212 -0.51 0.031 -1.095 0.541 -1.307 c 0.508 -0.21 1.096 0.03 1.307 0.541 l 1.031 2.488 c 0.212 0.51 -0.031 1.095 -0.541 1.307 C 65.207 77.592 65.077 77.616 64.949 77.616 z" style="stroke: none; stroke-width: 1; stroke-dasharray: none; stroke-linecap: butt; stroke-linejoin: miter; stroke-miterlimit: 10; fill: rgb(0,0,0); fill-rule: nonzero; opacity: 1;" transform=" matrix(1 0 0 1 0 0) " stroke-linecap="round" />
	<path d="M 54.166 51.584 c -0.392 0 -0.765 -0.232 -0.924 -0.617 l -1.031 -2.488 c -0.212 -0.51 0.031 -1.095 0.541 -1.307 c 0.508 -0.21 1.096 0.03 1.307 0.541 l 1.031 2.488 c 0.212 0.51 -0.031 1.095 -0.541 1.307 C 54.424 51.56 54.294 51.584 54.166 51.584 z" style="stroke: none; stroke-width: 1; stroke-dasharray: none; stroke-linecap: butt; stroke-linejoin: miter; stroke-miterlimit: 10; fill: rgb(0,0,0); fill-rule: nonzero; opacity: 1;" transform=" matrix(1 0 0 1 0 0) " stroke-linecap="round" />
	<path d="M 70.814 58.479 c -0.393 0 -0.765 -0.232 -0.924 -0.617 c -0.211 -0.511 0.031 -1.096 0.541 -1.307 l 2.488 -1.03 c 0.509 -0.209 1.096 0.031 1.307 0.541 c 0.211 0.511 -0.031 1.096 -0.541 1.307 l -2.488 1.03 C 71.072 58.455 70.942 58.479 70.814 58.479 z" style="stroke: none; stroke-width: 1; stroke-dasharray: none; stroke-linecap: butt; stroke-linejoin: miter; stroke-miterlimit: 10; fill: rgb(0,0,0); fill-rule: nonzero; opacity: 1;" transform=" matrix(1 0 0 1 0 0) " stroke-linecap="round" />
	<path d="M 44.782 69.263 c -0.393 0 -0.765 -0.232 -0.924 -0.617 c -0.211 -0.511 0.031 -1.096 0.541 -1.307 l 2.488 -1.03 c 0.508 -0.209 1.096 0.031 1.307 0.541 c 0.211 0.511 -0.031 1.096 -0.541 1.307 l -2.488 1.03 C 45.039 69.238 44.91 69.263 44.782 69.263 z" style="stroke: none; stroke-width: 1; stroke-dasharray: none; stroke-linecap: butt; stroke-linejoin: miter; stroke-miterlimit: 10; fill: rgb(0,0,0); fill-rule: nonzero; opacity: 1;" transform=" matrix(1 0 0 1 0 0) " stroke-linecap="round" />
	<path d="M 53.135 77.616 c -0.128 0 -0.258 -0.024 -0.383 -0.076 c -0.51 -0.212 -0.753 -0.797 -0.541 -1.307 l 1.031 -2.488 c 0.211 -0.511 0.799 -0.751 1.307 -0.541 c 0.51 0.212 0.753 0.797 0.541 1.307 l -1.031 2.488 C 53.899 77.384 53.526 77.616 53.135 77.616 z" style="stroke: none; stroke-width: 1; stroke-dasharray: none; stroke-linecap: butt; stroke-linejoin: miter; stroke-miterlimit: 10; fill: rgb(0,0,0); fill-rule: nonzero; opacity: 1;" transform=" matrix(1 0 0 1 0 0) " stroke-linecap="round" />
	<path d="M 63.918 51.584 c -0.128 0 -0.258 -0.024 -0.383 -0.076 c -0.51 -0.212 -0.753 -0.797 -0.541 -1.307 l 1.031 -2.488 c 0.211 -0.511 0.799 -0.751 1.307 -0.541 c 0.51 0.212 0.753 0.797 0.541 1.307 l -1.031 2.488 C 64.683 51.352 64.31 51.584 63.918 51.584 z" style="stroke: none; stroke-width: 1; stroke-dasharray: none; stroke-linecap: butt; stroke-linejoin: miter; stroke-miterlimit: 10; fill: rgb(0,0,0); fill-rule: nonzero; opacity: 1;" transform=" matrix(1 0 0 1 0 0) " stroke-linecap="round" />
	<path d="M 73.303 69.263 c -0.128 0 -0.258 -0.024 -0.383 -0.076 l -2.488 -1.03 c -0.51 -0.211 -0.752 -0.796 -0.541 -1.307 c 0.211 -0.51 0.799 -0.751 1.307 -0.541 l 2.488 1.03 c 0.51 0.211 0.752 0.796 0.541 1.307 C 74.067 69.03 73.694 69.263 73.303 69.263 z" style="stroke: none; stroke-width: 1; stroke-dasharray: none; stroke-linecap: butt; stroke-linejoin: miter; stroke-miterlimit: 10; fill: rgb(0,0,0); fill-rule: nonzero; opacity: 1;" transform=" matrix(1 0 0 1 0 0) " stroke-linecap="round" />
	<path d="M 47.27 58.479 c -0.128 0 -0.258 -0.024 -0.383 -0.076 l -2.488 -1.03 c -0.51 -0.211 -0.752 -0.796 -0.541 -1.307 c 0.211 -0.51 0.795 -0.752 1.307 -0.541 l 2.488 1.03 c 0.51 0.211 0.752 0.796 0.541 1.307 C 48.034 58.247 47.661 58.479 47.27 58.479 z" style="stroke: none; stroke-width: 1; stroke-dasharray: none; stroke-linecap: butt; stroke-linejoin: miter; stroke-miterlimit: 10; fill: rgb(0,0,0); fill-rule: nonzero; opacity: 1;" transform=" matrix(1 0 0 1 0 0) " stroke-linecap="round" />
	<path d="M 32.435 12.552 c -0.491 0 -0.919 -0.362 -0.989 -0.862 c -0.626 -4.498 -2.588 -7.993 -5.526 -9.843 c -0.467 -0.294 -0.608 -0.912 -0.313 -1.379 C 25.899 0 26.517 -0.14 26.985 0.154 c 3.446 2.169 5.733 6.168 6.441 11.26 c 0.076 0.547 -0.305 1.052 -0.853 1.128 C 32.527 12.549 32.48 12.552 32.435 12.552 z" style="stroke: none; stroke-width: 1; stroke-dasharray: none; stroke-linecap: butt; stroke-linejoin: miter; stroke-miterlimit: 10; fill: rgb(0,0,0); fill-rule: nonzero; opacity: 1;" transform=" matrix(1 0 0 1 0 0) " stroke-linecap="round" />
	<path d="M 12.831 52.047 c -0.552 0 -1 -0.447 -1 -1 c 0 -7.61 1.987 -14.783 5.595 -20.199 c 0.306 -0.46 0.926 -0.584 1.387 -0.277 c 0.459 0.306 0.584 0.927 0.277 1.387 c -3.392 5.09 -5.259 11.87 -5.259 19.089 C 13.831 51.6 13.383 52.047 12.831 52.047 z" style="stroke: none; stroke-width: 1; stroke-dasharray: none; stroke-linecap: butt; stroke-linejoin: miter; stroke-miterlimit: 10; fill: rgb(0,0,0); fill-rule: nonzero; opacity: 1;" transform=" matrix(1 0 0 1 0 0) " stroke-linecap="round" />
	<path d="M 15.38 66.113 c -0.399 0 -0.777 -0.24 -0.931 -0.635 c -1.712 -4.364 -2.618 -9.354 -2.618 -14.432 c 0 -0.553 0.448 -1 1 -1 s 1 0.447 1 1 c 0 4.829 0.857 9.567 2.479 13.701 c 0.202 0.514 -0.052 1.095 -0.566 1.296 C 15.625 66.091 15.501 66.113 15.38 66.113 z" style="stroke: none; stroke-width: 1; stroke-dasharray: none; stroke-linecap: butt; stroke-linejoin: miter; stroke-miterlimit: 10; fill: rgb(0,0,0); fill-rule: nonzero; opacity: 1;" transform=" matrix(1 0 0 1 0 0) " stroke-linecap="round" />
	<path d="M 25.741 78.55 c -0.146 0 -0.293 -0.031 -0.433 -0.099 c -2.218 -1.066 -4.269 -2.693 -6.095 -4.834 c -0.358 -0.421 -0.309 -1.052 0.112 -1.41 c 0.42 -0.359 1.051 -0.309 1.41 0.111 c 1.645 1.929 3.475 3.386 5.44 4.33 c 0.498 0.239 0.708 0.837 0.468 1.335 C 26.47 78.341 26.113 78.55 25.741 78.55 z" style="stroke: none; stroke-width: 1; stroke-dasharray: none; stroke-linecap: butt; stroke-linejoin: miter; stroke-miterlimit: 10; fill: rgb(0,0,0); fill-rule: nonzero; opacity: 1;" transform=" matrix(1 0 0 1 0 0) " stroke-linecap="round" />
</g>
</g>
</svg>