<svg xmlns="http://www.w3.org/2000/svg" xmlns:xlink="http://www.w3.org/1999/xlink" version="1.1" width="256" height="256" viewBox="0 0 256 256" xml:space="preserve">
<desc>Created with Fabric.js 1.7.22</desc>
<defs>
</defs>
<g transform="translate(128 128) scale(0.72 0.72)" style="">
	<g style="stroke: none; stroke-width: 0; stroke-dasharray: none; stroke-linecap: butt; stroke-linejoin: miter; stroke-miterlimit: 10; fill: none; fill-rule: nonzero; opacity: 1;" transform="translate(-175.05 -175.05000000000004) scale(3.89 3.89)" >
	<path d="M 42.071 24.234 c 4.473 0 8.637 1.58 12.123 4.296 c 0.796 -3.703 3.177 -7.355 6.356 -10.983 c -4.056 -0.244 -7.544 0.584 -10.322 2.745 c 0.349 -3.207 1.488 -6.198 3.35 -8.989 c -2.615 0.207 -5.175 0.999 -7.681 2.349 C 45.71 9.778 44.116 5.46 42.071 1 c -2.044 4.459 -3.639 8.777 -3.826 12.651 c -2.506 -1.35 -5.065 -2.142 -7.681 -2.349 c 1.862 2.792 3.001 5.782 3.35 8.989 c -2.779 -2.162 -6.266 -2.99 -10.322 -2.745 c 3.179 3.628 5.56 7.28 6.356 10.983 C 33.435 25.814 37.598 24.234 42.071 24.234 z" style="stroke: none; stroke-width: 1; stroke-dasharray: none; stroke-linecap: butt; stroke-linejoin: miter; stroke-miterlimit: 10; fill: rgb(130,212,101); fill-rule: nonzero; opacity: 1;" transform=" matrix(1 0 0 1 0 0) " stroke-linecap="round" />
	<path d="M 62.774 59.602 c 0.977 -2.505 1.513 -5.441 1.513 -8.843 c 0 -14.649 -9.946 -26.525 -22.216 -26.525 S 19.855 36.109 19.855 50.759 c 0 3.662 0.622 6.786 1.746 9.411 l 5.174 7.54 l 27.432 0.914 L 62.774 59.602 z" style="stroke: none; stroke-width: 1; stroke-dasharray: none; stroke-linecap: butt; stroke-linejoin: miter; stroke-miterlimit: 10; fill: rgb(255,240,130); fill-rule: nonzero; opacity: 1;" transform=" matrix(1 0 0 1 0 0) " stroke-linecap="round" />
	<path d="M 10.102 71.015 c -0.239 0.469 -0.244 1.029 0.008 1.492 c 6.198 11.42 20.515 18.284 35.953 16.083 c 19.138 -2.729 32.741 -18.354 30.381 -34.899 c 0.432 -5.328 1.092 -8.867 3.634 -11.919 c -3.375 -0.524 -6.211 0.206 -8.794 1.702 c 2.001 14.03 -11.892 27.617 -31.031 30.346 c -10.319 1.471 -20.051 -0.516 -27.145 -4.858 c -0.805 -0.493 -1.855 -0.203 -2.284 0.638 L 10.102 71.015 z" style="stroke: none; stroke-width: 1; stroke-dasharray: none; stroke-linecap: butt; stroke-linejoin: miter; stroke-miterlimit: 10; fill: rgb(255,207,93); fill-rule: nonzero; opacity: 1;" transform=" matrix(1 0 0 1 0 0) " stroke-linecap="round" />
	<path d="M 71.484 46.135 c -1.726 12.853 -17.337 21.363 -34.869 19.009 c -9.452 -1.269 -17.529 -5.439 -22.697 -11.026 c -0.586 -0.634 -1.583 -0.64 -2.169 -0.006 l -0.988 1.068 c -0.327 0.353 -0.47 0.846 -0.364 1.316 c 1.389 6.151 5.108 11.741 10.405 15.918 l 13.28 6.943 l 31.593 -9.986 l 7.288 -17.118 L 71.484 46.135 z" style="stroke: none; stroke-width: 1; stroke-dasharray: none; stroke-linecap: butt; stroke-linejoin: miter; stroke-miterlimit: 10; fill: rgb(255,207,93); fill-rule: nonzero; opacity: 1;" transform=" matrix(1 0 0 1 0 0) " stroke-linecap="round" />
	<path d="M 40.303 90 c -13.286 0.001 -25.324 -6.426 -31.072 -17.016 c -0.406 -0.746 -0.413 -1.652 -0.02 -2.424 l 0.723 -1.416 c 0.329 -0.646 0.917 -1.129 1.614 -1.325 c 0.701 -0.197 1.459 -0.092 2.082 0.288 c 7.156 4.381 16.808 6.101 26.483 4.723 c 18.562 -2.647 32.101 -15.753 30.181 -29.215 c -0.058 -0.404 0.136 -0.802 0.489 -1.006 c 3.016 -1.747 6.106 -2.344 9.448 -1.825 c 0.356 0.055 0.655 0.298 0.782 0.635 c 0.127 0.337 0.063 0.717 -0.167 0.994 c -2.312 2.774 -2.964 5.973 -3.396 11.249 c 2.354 17.023 -11.637 33.123 -31.246 35.92 C 44.221 89.863 42.248 90 40.303 90 z M 12.261 69.72 c -0.07 0 -0.128 0.012 -0.17 0.023 c -0.095 0.027 -0.271 0.103 -0.376 0.31 l -0.723 1.416 c 0 0 0 0 0 0.001 c -0.094 0.183 -0.095 0.393 -0.004 0.56 C 17.18 83.439 31.219 89.697 45.921 87.6 c 18.561 -2.646 31.81 -17.796 29.532 -33.769 c -0.01 -0.073 -0.013 -0.147 -0.007 -0.222 c 0.389 -4.787 0.988 -8.147 2.79 -11.005 c -2.048 -0.057 -3.952 0.41 -5.877 1.417 c 1.536 14.307 -12.622 28.029 -31.965 30.788 c -10.128 1.443 -20.264 -0.379 -27.808 -4.997 C 12.469 69.742 12.355 69.72 12.261 69.72 z M 10.102 71.015 h 0.01 H 10.102 z" style="stroke: none; stroke-width: 1; stroke-dasharray: none; stroke-linecap: butt; stroke-linejoin: miter; stroke-miterlimit: 10; fill: rgb(0,0,0); fill-rule: nonzero; opacity: 1;" transform=" matrix(1 0 0 1 0 0) " stroke-linecap="round" />
	<path d="M 57.321 77.11 c -0.342 0 -0.676 -0.176 -0.862 -0.491 c -0.28 -0.476 -0.123 -1.089 0.353 -1.37 c 3.533 -2.087 6.726 -4.838 9.488 -8.177 c 0.354 -0.426 0.983 -0.484 1.408 -0.133 c 0.426 0.353 0.484 0.982 0.133 1.408 c -2.91 3.517 -6.278 6.418 -10.012 8.624 C 57.669 77.065 57.494 77.11 57.321 77.11 z" style="stroke: none; stroke-width: 1; stroke-dasharray: none; stroke-linecap: butt; stroke-linejoin: miter; stroke-miterlimit: 10; fill: rgb(0,0,0); fill-rule: nonzero; opacity: 1;" transform=" matrix(1 0 0 1 0 0) " stroke-linecap="round" />
	<path d="M 48.203 80.943 c -0.438 0 -0.842 -0.291 -0.964 -0.735 c -0.146 -0.533 0.168 -1.083 0.7 -1.229 c 1.191 -0.326 2.367 -0.71 3.493 -1.141 c 0.518 -0.196 1.094 0.06 1.291 0.576 c 0.197 0.517 -0.061 1.094 -0.576 1.291 c -1.187 0.454 -2.425 0.858 -3.679 1.203 C 48.38 80.931 48.291 80.943 48.203 80.943 z" style="stroke: none; stroke-width: 1; stroke-dasharray: none; stroke-linecap: butt; stroke-linejoin: miter; stroke-miterlimit: 10; fill: rgb(0,0,0); fill-rule: nonzero; opacity: 1;" transform=" matrix(1 0 0 1 0 0) " stroke-linecap="round" />
	<path d="M 20.801 73.414 c -0.217 0 -0.435 -0.07 -0.619 -0.215 c -5.522 -4.354 -9.343 -10.208 -10.761 -16.482 c -0.178 -0.785 0.049 -1.614 0.606 -2.217 l 0.988 -1.067 c 0.936 -1.011 2.701 -1.008 3.637 0.007 c 5.199 5.621 13.253 9.526 22.096 10.714 c 8.268 1.112 16.349 -0.198 22.75 -3.688 c 6.299 -3.434 10.203 -8.57 10.994 -14.462 c 0.073 -0.547 0.577 -0.929 1.124 -0.858 c 0.548 0.074 0.932 0.577 0.858 1.124 c -0.878 6.54 -5.146 12.205 -12.019 15.952 c -6.77 3.691 -15.285 5.082 -23.974 3.915 c -9.296 -1.249 -17.788 -5.382 -23.298 -11.339 c -0.126 -0.137 -0.277 -0.157 -0.356 -0.157 c -0.077 0 -0.223 0.02 -0.345 0.151 l -0.988 1.068 c -0.107 0.116 -0.155 0.275 -0.123 0.416 c 1.317 5.829 4.885 11.282 10.048 15.353 c 0.434 0.342 0.508 0.971 0.166 1.404 C 21.389 73.283 21.096 73.414 20.801 73.414 z" style="stroke: none; stroke-width: 1; stroke-dasharray: none; stroke-linecap: butt; stroke-linejoin: miter; stroke-miterlimit: 10; fill: rgb(0,0,0); fill-rule: nonzero; opacity: 1;" transform=" matrix(1 0 0 1 0 0) " stroke-linecap="round" />
	<path d="M 54.194 29.529 c -0.22 0 -0.437 -0.072 -0.614 -0.211 c -3.431 -2.672 -7.41 -4.085 -11.509 -4.085 s -8.078 1.413 -11.508 4.085 c -0.271 0.211 -0.633 0.27 -0.957 0.151 c -0.323 -0.118 -0.563 -0.393 -0.636 -0.73 c -0.678 -3.155 -2.684 -6.601 -6.13 -10.534 c -0.251 -0.287 -0.318 -0.692 -0.171 -1.044 s 0.482 -0.59 0.863 -0.613 c 3.47 -0.207 6.493 0.355 9.015 1.678 c -0.521 -2.208 -1.463 -4.343 -2.815 -6.37 c -0.212 -0.318 -0.224 -0.73 -0.03 -1.061 c 0.193 -0.33 0.552 -0.52 0.941 -0.491 c 2.264 0.18 4.524 0.784 6.738 1.799 c 0.52 -4.006 2.261 -8.205 3.781 -11.52 C 41.325 0.229 41.68 0 42.071 0 s 0.746 0.228 0.909 0.583 c 1.52 3.315 3.261 7.514 3.78 11.52 c 2.214 -1.015 4.475 -1.619 6.738 -1.799 c 0.383 -0.026 0.747 0.16 0.941 0.491 c 0.194 0.33 0.183 0.742 -0.03 1.061 c -1.352 2.027 -2.294 4.162 -2.814 6.37 c 2.521 -1.323 5.536 -1.888 9.016 -1.678 c 0.381 0.023 0.715 0.261 0.862 0.613 c 0.147 0.352 0.081 0.757 -0.171 1.044 c -3.447 3.933 -5.452 7.378 -6.131 10.534 c -0.072 0.337 -0.312 0.612 -0.636 0.73 C 54.425 29.509 54.309 29.529 54.194 29.529 z M 25.716 18.519 c 2.397 2.983 3.988 5.737 4.821 8.346 c 3.501 -2.38 7.46 -3.631 11.535 -3.631 s 8.033 1.25 11.534 3.631 c 0.833 -2.609 2.425 -5.363 4.821 -8.346 c -3.035 0.119 -5.53 0.964 -7.584 2.562 c -0.317 0.246 -0.751 0.28 -1.102 0.084 c -0.351 -0.195 -0.55 -0.582 -0.507 -0.981 c 0.286 -2.63 1.092 -5.177 2.403 -7.598 c -1.77 0.362 -3.534 1.013 -5.266 1.946 c -0.304 0.163 -0.668 0.16 -0.966 -0.01 c -0.299 -0.169 -0.491 -0.479 -0.507 -0.822 c -0.162 -3.348 -1.463 -7.048 -2.827 -10.237 c -1.364 3.188 -2.665 6.889 -2.827 10.237 c -0.017 0.343 -0.208 0.653 -0.507 0.822 c -0.298 0.169 -0.664 0.172 -0.966 0.01 c -1.732 -0.933 -3.496 -1.584 -5.266 -1.946 c 1.311 2.419 2.117 4.967 2.403 7.597 c 0.043 0.399 -0.156 0.786 -0.507 0.981 c -0.351 0.195 -0.784 0.163 -1.101 -0.084 C 31.246 19.483 28.751 18.637 25.716 18.519 z" style="stroke: none; stroke-width: 1; stroke-dasharray: none; stroke-linecap: butt; stroke-linejoin: miter; stroke-miterlimit: 10; fill: rgb(0,0,0); fill-rule: nonzero; opacity: 1;" transform=" matrix(1 0 0 1 0 0) " stroke-linecap="round" />
	<path d="M 21.601 61.171 c -0.388 0 -0.757 -0.228 -0.92 -0.606 c -1.212 -2.831 -1.826 -6.13 -1.826 -9.806 c 0 -15.178 10.414 -27.525 23.216 -27.525 s 23.217 12.348 23.217 27.525 c 0 3.417 -0.532 6.515 -1.582 9.207 c -0.201 0.516 -0.783 0.77 -1.295 0.568 c -0.515 -0.2 -0.769 -0.78 -0.568 -1.295 c 0.959 -2.46 1.445 -5.313 1.445 -8.48 c 0 -14.075 -9.517 -25.525 -21.217 -25.525 c -11.699 0 -21.216 11.451 -21.216 25.525 c 0 3.403 0.56 6.437 1.665 9.018 c 0.217 0.508 -0.018 1.096 -0.526 1.312 C 21.866 61.145 21.733 61.171 21.601 61.171 z" style="stroke: none; stroke-width: 1; stroke-dasharray: none; stroke-linecap: butt; stroke-linejoin: miter; stroke-miterlimit: 10; fill: rgb(0,0,0); fill-rule: nonzero; opacity: 1;" transform=" matrix(1 0 0 1 0 0) " stroke-linecap="round" />
	<path d="M 58.915 57.453 c -0.17 0 -0.342 -0.043 -0.5 -0.135 c -1.056 -0.611 -2.096 -1.232 -3.121 -1.864 c -0.47 -0.29 -0.615 -0.906 -0.326 -1.377 c 0.29 -0.47 0.905 -0.615 1.377 -0.326 c 1.008 0.622 2.032 1.235 3.072 1.837 c 0.478 0.276 0.642 0.888 0.364 1.366 C 59.596 57.274 59.261 57.453 58.915 57.453 z" style="stroke: none; stroke-width: 1; stroke-dasharray: none; stroke-linecap: butt; stroke-linejoin: miter; stroke-miterlimit: 10; fill: rgb(0,0,0); fill-rule: nonzero; opacity: 1;" transform=" matrix(1 0 0 1 0 0) " stroke-linecap="round" />
	<path d="M 50.06 51.819 c -0.198 0 -0.397 -0.059 -0.572 -0.181 c -7.839 -5.482 -14.677 -11.731 -20.324 -18.573 c -0.352 -0.426 -0.292 -1.056 0.134 -1.408 c 0.427 -0.351 1.056 -0.291 1.408 0.134 C 36.239 38.495 42.943 44.621 50.635 50 c 0.452 0.316 0.562 0.939 0.246 1.393 C 50.686 51.671 50.376 51.819 50.06 51.819 z" style="stroke: none; stroke-width: 1; stroke-dasharray: none; stroke-linecap: butt; stroke-linejoin: miter; stroke-miterlimit: 10; fill: rgb(0,0,0); fill-rule: nonzero; opacity: 1;" transform=" matrix(1 0 0 1 0 0) " stroke-linecap="round" />
	<path d="M 38.81 60.648 c -0.205 0 -0.411 -0.062 -0.589 -0.192 c -5.762 -4.214 -10.887 -9.259 -15.231 -14.993 c -0.333 -0.44 -0.247 -1.068 0.193 -1.401 c 0.44 -0.334 1.067 -0.247 1.401 0.193 c 4.227 5.581 9.211 10.488 14.817 14.586 c 0.446 0.326 0.543 0.952 0.217 1.397 C 39.422 60.507 39.118 60.648 38.81 60.648 z" style="stroke: none; stroke-width: 1; stroke-dasharray: none; stroke-linecap: butt; stroke-linejoin: miter; stroke-miterlimit: 10; fill: rgb(0,0,0); fill-rule: nonzero; opacity: 1;" transform=" matrix(1 0 0 1 0 0) " stroke-linecap="round" />
	<path d="M 25.228 57.453 c -0.345 0 -0.681 -0.179 -0.867 -0.499 c -0.276 -0.479 -0.113 -1.09 0.365 -1.366 c 1.04 -0.602 2.064 -1.215 3.073 -1.837 c 0.471 -0.29 1.086 -0.144 1.376 0.327 c 0.29 0.47 0.144 1.086 -0.326 1.376 c -1.025 0.632 -2.065 1.253 -3.121 1.864 C 25.57 57.41 25.398 57.453 25.228 57.453 z" style="stroke: none; stroke-width: 1; stroke-dasharray: none; stroke-linecap: butt; stroke-linejoin: miter; stroke-miterlimit: 10; fill: rgb(0,0,0); fill-rule: nonzero; opacity: 1;" transform=" matrix(1 0 0 1 0 0) " stroke-linecap="round" />
	<path d="M 34.082 51.819 c -0.315 0 -0.626 -0.148 -0.82 -0.427 c -0.317 -0.453 -0.207 -1.076 0.246 -1.393 c 7.691 -5.379 14.396 -11.505 19.928 -18.207 c 0.353 -0.425 0.98 -0.488 1.408 -0.134 c 0.426 0.351 0.486 0.981 0.135 1.408 c -5.646 6.841 -12.485 13.09 -20.324 18.573 C 34.48 51.761 34.28 51.819 34.082 51.819 z" style="stroke: none; stroke-width: 1; stroke-dasharray: none; stroke-linecap: butt; stroke-linejoin: miter; stroke-miterlimit: 10; fill: rgb(0,0,0); fill-rule: nonzero; opacity: 1;" transform=" matrix(1 0 0 1 0 0) " stroke-linecap="round" />
	<path d="M 45.333 60.648 c -0.309 0 -0.612 -0.142 -0.808 -0.41 c -0.326 -0.445 -0.229 -1.071 0.217 -1.397 c 5.606 -4.099 10.59 -9.006 14.817 -14.586 c 0.332 -0.44 0.958 -0.528 1.4 -0.194 c 0.44 0.333 0.527 0.961 0.193 1.401 c -4.343 5.735 -9.468 10.78 -15.23 14.994 C 45.744 60.586 45.538 60.648 45.333 60.648 z" style="stroke: none; stroke-width: 1; stroke-dasharray: none; stroke-linecap: butt; stroke-linejoin: miter; stroke-miterlimit: 10; fill: rgb(0,0,0); fill-rule: nonzero; opacity: 1;" transform=" matrix(1 0 0 1 0 0) " stroke-linecap="round" />
</g>
</g>
</svg>