<svg xmlns="http://www.w3.org/2000/svg" xmlns:xlink="http://www.w3.org/1999/xlink" version="1.1" width="256" height="256" viewBox="0 0 256 256" xml:space="preserve">
<desc>Created with Fabric.js 1.7.22</desc>
<defs>
</defs>
<g transform="translate(128 128) scale(0.72 0.72)" style="">
	<g style="stroke: none; stroke-width: 0; stroke-dasharray: none; stroke-linecap: butt; stroke-linejoin: miter; stroke-miterlimit: 10; fill: none; fill-rule: nonzero; opacity: 1;" transform="translate(-175.05 -175.05000000000004) scale(3.89 3.89)" >
	<path d="M 45 30.026 c 5.589 0 10.79 1.974 15.146 5.367 c 0.994 -4.626 3.969 -9.189 7.941 -13.721 c -5.068 -0.305 -9.424 0.729 -12.896 3.43 c 0.436 -4.007 1.859 -7.743 4.185 -11.231 c -3.268 0.259 -6.465 1.248 -9.596 2.935 C 49.546 11.966 47.554 6.571 45 1 c -2.554 5.571 -4.546 10.966 -4.78 15.806 c -3.131 -1.686 -6.328 -2.676 -9.596 -2.935 c 2.326 3.488 3.749 7.223 4.185 11.231 c -3.471 -2.701 -7.828 -3.735 -12.896 -3.43 c 3.972 4.532 6.947 9.096 7.941 13.721 C 34.21 32 39.411 30.026 45 30.026 z" style="stroke: none; stroke-width: 1; stroke-dasharray: none; stroke-linecap: butt; stroke-linejoin: miter; stroke-miterlimit: 10; fill: rgb(130,212,101); fill-rule: nonzero; opacity: 1;" transform=" matrix(1 0 0 1 0 0) " stroke-linecap="round" />
	<path d="M 60.146 36.393 c -0.22 0 -0.437 -0.072 -0.614 -0.211 c -4.33 -3.374 -9.354 -5.156 -14.531 -5.156 c -5.176 0 -10.201 1.783 -14.531 5.156 c -0.271 0.211 -0.633 0.268 -0.957 0.151 c -0.323 -0.118 -0.563 -0.394 -0.636 -0.73 c -0.856 -3.984 -3.38 -8.325 -7.715 -13.272 c -0.251 -0.287 -0.318 -0.692 -0.171 -1.044 s 0.482 -0.59 0.863 -0.613 c 4.513 -0.271 8.407 0.512 11.611 2.331 c -0.626 -2.98 -1.857 -5.857 -3.672 -8.579 c -0.212 -0.318 -0.224 -0.73 -0.03 -1.061 c 0.193 -0.33 0.556 -0.525 0.941 -0.491 c 2.906 0.231 5.807 1.027 8.644 2.37 c 0.588 -5.073 2.81 -10.442 4.744 -14.661 C 44.254 0.228 44.609 0 45 0 l 0 0 c 0.391 0 0.746 0.228 0.909 0.583 c 1.935 4.22 4.156 9.589 4.744 14.66 c 2.836 -1.343 5.737 -2.139 8.644 -2.37 c 0.381 -0.026 0.747 0.161 0.941 0.491 c 0.194 0.331 0.183 0.743 -0.03 1.061 c -1.815 2.721 -3.046 5.598 -3.672 8.579 c 3.203 -1.819 7.096 -2.606 11.61 -2.331 c 0.382 0.023 0.716 0.261 0.863 0.613 s 0.081 0.757 -0.171 1.044 c -4.336 4.946 -6.859 9.288 -7.716 13.272 c -0.072 0.336 -0.313 0.612 -0.636 0.73 C 60.376 36.373 60.261 36.393 60.146 36.393 z M 24.031 22.622 c 3.269 3.989 5.384 7.643 6.421 11.088 c 4.401 -3.07 9.401 -4.685 14.548 -4.685 s 10.147 1.615 14.548 4.684 c 1.037 -3.446 3.153 -7.099 6.421 -11.088 c -4.093 0.066 -7.433 1.144 -10.164 3.269 c -0.317 0.247 -0.75 0.279 -1.102 0.084 c -0.351 -0.196 -0.551 -0.582 -0.507 -0.981 c 0.373 -3.423 1.458 -6.732 3.23 -9.864 c -2.412 0.431 -4.816 1.288 -7.172 2.557 c -0.303 0.163 -0.666 0.16 -0.967 -0.01 c -0.299 -0.169 -0.49 -0.479 -0.507 -0.822 C 48.569 12.448 46.793 7.569 45 3.448 c -1.793 4.12 -3.568 8.998 -3.781 13.406 c -0.017 0.343 -0.208 0.653 -0.507 0.822 c -0.298 0.169 -0.664 0.172 -0.966 0.01 c -2.356 -1.269 -4.761 -2.125 -7.173 -2.557 c 1.773 3.132 2.858 6.441 3.23 9.864 c 0.043 0.399 -0.156 0.786 -0.507 0.981 c -0.35 0.195 -0.785 0.163 -1.101 -0.084 C 31.463 23.766 28.123 22.689 24.031 22.622 z" style="stroke: none; stroke-width: 1; stroke-dasharray: none; stroke-linecap: butt; stroke-linejoin: miter; stroke-miterlimit: 10; fill: rgb(0,0,0); fill-rule: nonzero; opacity: 1;" transform=" matrix(1 0 0 1 0 0) " stroke-linecap="round" />
	<path d="M 72.755 63.165 C 72.755 81.467 60.329 89 45 89 s -27.755 -7.533 -27.755 -25.835 S 29.671 30.026 45 30.026 S 72.755 44.863 72.755 63.165 z" style="stroke: none; stroke-width: 1; stroke-dasharray: none; stroke-linecap: butt; stroke-linejoin: miter; stroke-miterlimit: 10; fill: rgb(255,240,130); fill-rule: nonzero; opacity: 1;" transform=" matrix(1 0 0 1 0 0) " stroke-linecap="round" />
	<path d="M 45 90 c -18.006 0 -28.755 -10.032 -28.755 -26.835 c 0 -18.824 12.899 -34.139 28.755 -34.139 c 15.855 0 28.755 15.315 28.755 34.139 C 73.755 79.968 63.006 90 45 90 z M 45 31.026 c -14.753 0 -26.755 14.417 -26.755 32.139 C 18.245 78.948 27.997 88 45 88 s 26.755 -9.052 26.755 -24.835 C 71.755 45.443 59.753 31.026 45 31.026 z" style="stroke: none; stroke-width: 1; stroke-dasharray: none; stroke-linecap: butt; stroke-linejoin: miter; stroke-miterlimit: 10; fill: rgb(0,0,0); fill-rule: nonzero; opacity: 1;" transform=" matrix(1 0 0 1 0 0) " stroke-linecap="round" />
	<path d="M 67.843 72.306 c -0.166 0 -0.334 -0.041 -0.489 -0.128 c -1.931 -1.086 -3.85 -2.216 -5.703 -3.36 c -0.47 -0.29 -0.615 -0.906 -0.325 -1.376 s 0.906 -0.616 1.376 -0.325 c 1.83 1.129 3.725 2.246 5.633 3.317 c 0.481 0.271 0.652 0.881 0.382 1.362 C 68.532 72.122 68.192 72.306 67.843 72.306 z" style="stroke: none; stroke-width: 1; stroke-dasharray: none; stroke-linecap: butt; stroke-linejoin: miter; stroke-miterlimit: 10; fill: rgb(0,0,0); fill-rule: nonzero; opacity: 1;" transform=" matrix(1 0 0 1 0 0) " stroke-linecap="round" />
	<path d="M 54.981 64.241 c -0.198 0 -0.397 -0.059 -0.572 -0.181 c -9.776 -6.838 -18.302 -14.629 -25.342 -23.159 c -0.352 -0.426 -0.292 -1.056 0.134 -1.408 c 0.427 -0.351 1.057 -0.291 1.408 0.134 c 6.925 8.39 15.319 16.059 24.947 22.793 c 0.452 0.316 0.563 0.939 0.246 1.393 C 55.607 64.093 55.297 64.241 54.981 64.241 z" style="stroke: none; stroke-width: 1; stroke-dasharray: none; stroke-linecap: butt; stroke-linejoin: miter; stroke-miterlimit: 10; fill: rgb(0,0,0); fill-rule: nonzero; opacity: 1;" transform=" matrix(1 0 0 1 0 0) " stroke-linecap="round" />
	<path d="M 53.486 83.023 c -0.154 0 -0.312 -0.036 -0.458 -0.111 c -1.916 -0.99 -3.808 -2.046 -5.622 -3.138 c -0.473 -0.284 -0.626 -0.898 -0.341 -1.372 c 0.284 -0.474 0.899 -0.628 1.372 -0.341 c 1.777 1.069 3.631 2.104 5.509 3.073 c 0.49 0.254 0.683 0.857 0.43 1.348 C 54.198 82.826 53.849 83.023 53.486 83.023 z" style="stroke: none; stroke-width: 1; stroke-dasharray: none; stroke-linecap: butt; stroke-linejoin: miter; stroke-miterlimit: 10; fill: rgb(0,0,0); fill-rule: nonzero; opacity: 1;" transform=" matrix(1 0 0 1 0 0) " stroke-linecap="round" />
	<path d="M 40.925 75.271 c -0.205 0 -0.411 -0.063 -0.589 -0.192 c -7.181 -5.252 -13.565 -11.537 -18.977 -18.683 c -0.333 -0.44 -0.247 -1.067 0.194 -1.4 c 0.439 -0.335 1.067 -0.246 1.401 0.193 c 5.293 6.989 11.539 13.139 18.563 18.274 c 0.446 0.326 0.543 0.952 0.217 1.397 C 41.538 75.13 41.233 75.271 40.925 75.271 z" style="stroke: none; stroke-width: 1; stroke-dasharray: none; stroke-linecap: butt; stroke-linejoin: miter; stroke-miterlimit: 10; fill: rgb(0,0,0); fill-rule: nonzero; opacity: 1;" transform=" matrix(1 0 0 1 0 0) " stroke-linecap="round" />
	<path d="M 22.158 72.306 c -0.35 0 -0.689 -0.184 -0.873 -0.51 c -0.271 -0.481 -0.1 -1.092 0.381 -1.362 c 1.902 -1.068 3.797 -2.185 5.633 -3.317 c 0.47 -0.292 1.086 -0.144 1.376 0.325 c 0.29 0.471 0.144 1.086 -0.326 1.376 c -1.859 1.147 -3.778 2.277 -5.703 3.36 C 22.492 72.265 22.324 72.306 22.158 72.306 z" style="stroke: none; stroke-width: 1; stroke-dasharray: none; stroke-linecap: butt; stroke-linejoin: miter; stroke-miterlimit: 10; fill: rgb(0,0,0); fill-rule: nonzero; opacity: 1;" transform=" matrix(1 0 0 1 0 0) " stroke-linecap="round" />
	<path d="M 35.019 64.241 c -0.315 0 -0.626 -0.148 -0.82 -0.427 c -0.317 -0.452 -0.207 -1.076 0.246 -1.393 c 9.628 -6.734 18.021 -14.403 24.946 -22.793 c 0.353 -0.426 0.98 -0.488 1.408 -0.134 c 0.426 0.352 0.486 0.981 0.135 1.408 c -7.04 8.529 -15.566 16.321 -25.342 23.159 C 35.417 64.183 35.217 64.241 35.019 64.241 z" style="stroke: none; stroke-width: 1; stroke-dasharray: none; stroke-linecap: butt; stroke-linejoin: miter; stroke-miterlimit: 10; fill: rgb(0,0,0); fill-rule: nonzero; opacity: 1;" transform=" matrix(1 0 0 1 0 0) " stroke-linecap="round" />
	<path d="M 36.514 83.023 c -0.362 0 -0.712 -0.197 -0.89 -0.541 c -0.253 -0.491 -0.061 -1.094 0.43 -1.348 c 1.876 -0.969 3.729 -2.003 5.508 -3.073 c 0.473 -0.287 1.087 -0.132 1.373 0.341 c 0.285 0.474 0.132 1.088 -0.341 1.372 c -1.816 1.094 -3.708 2.148 -5.622 3.138 C 36.825 82.987 36.668 83.023 36.514 83.023 z" style="stroke: none; stroke-width: 1; stroke-dasharray: none; stroke-linecap: butt; stroke-linejoin: miter; stroke-miterlimit: 10; fill: rgb(0,0,0); fill-rule: nonzero; opacity: 1;" transform=" matrix(1 0 0 1 0 0) " stroke-linecap="round" />
	<path d="M 49.075 75.271 c -0.309 0 -0.612 -0.142 -0.809 -0.41 c -0.325 -0.445 -0.229 -1.071 0.218 -1.397 c 7.021 -5.135 13.267 -11.283 18.563 -18.274 c 0.332 -0.439 0.959 -0.528 1.4 -0.193 c 0.44 0.333 0.527 0.961 0.193 1.4 C 63.227 63.543 56.842 69.83 49.663 75.08 C 49.486 75.209 49.28 75.271 49.075 75.271 z" style="stroke: none; stroke-width: 1; stroke-dasharray: none; stroke-linecap: butt; stroke-linejoin: miter; stroke-miterlimit: 10; fill: rgb(0,0,0); fill-rule: nonzero; opacity: 1;" transform=" matrix(1 0 0 1 0 0) " stroke-linecap="round" />
</g>
</g>
</svg>