<svg xmlns="http://www.w3.org/2000/svg" xmlns:xlink="http://www.w3.org/1999/xlink" version="1.1" width="256" height="256" viewBox="0 0 256 256" xml:space="preserve">
<desc>Created with Fabric.js 1.7.22</desc>
<defs>
</defs>
<g transform="translate(128 128) scale(0.72 0.72)" style="">
	<g style="stroke: none; stroke-width: 0; stroke-dasharray: none; stroke-linecap: butt; stroke-linejoin: miter; stroke-miterlimit: 10; fill: none; fill-rule: nonzero; opacity: 1;" transform="translate(-175.05 -175.05000000000004) scale(3.89 3.89)" >
	<path d="M 76.92 37.23 C 76.92 54.859 62.629 89 45 89 S 13.08 54.859 13.08 37.23 S 27.371 15.235 45 15.235 S 76.92 19.601 76.92 37.23 z" style="stroke: none; stroke-width: 1; stroke-dasharray: none; stroke-linecap: butt; stroke-linejoin: miter; stroke-miterlimit: 10; fill: rgb(255,83,104); fill-rule: nonzero; opacity: 1;" transform=" matrix(1 0 0 1 0 0) " stroke-linecap="round" />
	<path d="M 45 90 c -18.688 0 -32.92 -35.17 -32.92 -52.77 c 0 -20.611 18.788 -22.995 32.92 -22.995 c 14.132 0 32.92 2.384 32.92 22.995 C 77.92 54.83 63.688 90 45 90 z M 45 16.235 c -21.095 0 -30.92 6.671 -30.92 20.995 C 14.08 54.386 28.079 88 45 88 c 16.921 0 30.92 -33.614 30.92 -50.77 C 75.92 22.906 66.095 16.235 45 16.235 z" style="stroke: none; stroke-width: 1; stroke-dasharray: none; stroke-linecap: butt; stroke-linejoin: miter; stroke-miterlimit: 10; fill: rgb(0,0,0); fill-rule: nonzero; opacity: 1;" transform=" matrix(1 0 0 1 0 0) " stroke-linecap="round" />
	<path d="M 60.002 21.432 c 2.417 -0.347 4.476 -1.297 5.805 -2.71 C 60.218 16.129 52.952 15.235 45 15.235 s -15.218 0.894 -20.807 3.487 c 1.328 1.413 3.388 2.363 5.805 2.71 c -1.173 2.592 -1.411 5.218 -0.593 7.264 c 2.796 1.118 6.672 0.264 10.066 -2.255 c 0.61 4.201 2.752 7.564 5.529 8.754 c 2.777 -1.19 4.919 -4.553 5.529 -8.754 c 3.394 2.52 7.27 3.373 10.066 2.255 C 61.413 26.65 61.175 24.024 60.002 21.432 z" style="stroke: none; stroke-width: 1; stroke-dasharray: none; stroke-linecap: butt; stroke-linejoin: miter; stroke-miterlimit: 10; fill: rgb(130,212,101); fill-rule: nonzero; opacity: 1;" transform=" matrix(1 0 0 1 0 0) " stroke-linecap="round" />
	<path d="M 45 36.195 c -0.134 0 -0.268 -0.027 -0.394 -0.081 c -2.76 -1.183 -4.915 -4.179 -5.831 -7.999 c -3.339 2.035 -6.965 2.619 -9.741 1.51 c -0.254 -0.102 -0.455 -0.303 -0.557 -0.558 c -0.793 -1.984 -0.738 -4.391 0.14 -6.88 c -2.117 -0.501 -3.917 -1.467 -5.152 -2.78 c -0.22 -0.234 -0.314 -0.56 -0.253 -0.875 c 0.061 -0.315 0.27 -0.582 0.561 -0.717 c 5.191 -2.409 12.135 -3.58 21.228 -3.58 c 9.093 0 16.036 1.171 21.228 3.58 c 0.291 0.135 0.5 0.402 0.561 0.718 c 0.062 0.315 -0.033 0.641 -0.253 0.875 c -1.235 1.313 -3.035 2.279 -5.152 2.78 c 0.879 2.489 0.934 4.896 0.141 6.88 c -0.102 0.254 -0.303 0.456 -0.558 0.558 c -2.774 1.108 -6.402 0.524 -9.74 -1.51 c -0.917 3.821 -3.072 6.816 -5.832 7.999 C 45.268 36.168 45.134 36.195 45 36.195 z M 39.471 25.441 c 0.13 0 0.26 0.025 0.384 0.077 c 0.325 0.135 0.555 0.431 0.606 0.78 c 0.521 3.592 2.281 6.588 4.539 7.79 c 2.258 -1.202 4.018 -4.198 4.54 -7.79 c 0.05 -0.349 0.28 -0.645 0.605 -0.78 c 0.325 -0.134 0.697 -0.09 0.979 0.121 c 2.899 2.152 6.246 3.018 8.687 2.274 c 0.521 -1.706 0.267 -3.887 -0.721 -6.068 c -0.13 -0.286 -0.117 -0.617 0.034 -0.893 c 0.151 -0.275 0.424 -0.464 0.734 -0.509 c 1.572 -0.226 2.966 -0.725 4.057 -1.44 C 59.161 17.142 52.949 16.235 45 16.235 c -7.949 0 -14.16 0.907 -18.916 2.768 c 1.091 0.715 2.484 1.214 4.056 1.44 c 0.312 0.044 0.583 0.233 0.735 0.509 c 0.151 0.276 0.164 0.607 0.034 0.893 c -0.987 2.181 -1.241 4.363 -0.72 6.068 c 2.435 0.743 5.786 -0.122 8.686 -2.274 C 39.05 25.508 39.26 25.441 39.471 25.441 z M 60.595 28.696 h 0.01 H 60.595 z" style="stroke: none; stroke-width: 1; stroke-dasharray: none; stroke-linecap: butt; stroke-linejoin: miter; stroke-miterlimit: 10; fill: rgb(0,0,0); fill-rule: nonzero; opacity: 1;" transform=" matrix(1 0 0 1 0 0) " stroke-linecap="round" />
	<path d="M 44.69 16.277 c -0.491 0 -0.919 -0.362 -0.989 -0.862 c -0.861 -6.19 -3.575 -11.009 -7.64 -13.569 c -0.467 -0.294 -0.608 -0.912 -0.313 -1.379 C 36.042 0 36.659 -0.14 37.127 0.154 c 4.573 2.879 7.611 8.201 8.555 14.986 c 0.076 0.547 -0.305 1.052 -0.853 1.128 C 44.783 16.274 44.736 16.277 44.69 16.277 z" style="stroke: none; stroke-width: 1; stroke-dasharray: none; stroke-linecap: butt; stroke-linejoin: miter; stroke-miterlimit: 10; fill: rgb(0,0,0); fill-rule: nonzero; opacity: 1;" transform=" matrix(1 0 0 1 0 0) " stroke-linecap="round" />
	<path d="M 45 49.159 c -0.552 0 -1 -0.447 -1 -1 v -3.018 c 0 -0.552 0.448 -1 1 -1 s 1 0.448 1 1 v 3.018 C 46 48.712 45.552 49.159 45 49.159 z" style="stroke: none; stroke-width: 1; stroke-dasharray: none; stroke-linecap: butt; stroke-linejoin: miter; stroke-miterlimit: 10; fill: rgb(0,0,0); fill-rule: nonzero; opacity: 1;" transform=" matrix(1 0 0 1 0 0) " stroke-linecap="round" />
	<path d="M 45 64.046 c -0.552 0 -1 -0.447 -1 -1 v -3.017 c 0 -0.553 0.448 -1 1 -1 s 1 0.447 1 1 v 3.017 C 46 63.599 45.552 64.046 45 64.046 z" style="stroke: none; stroke-width: 1; stroke-dasharray: none; stroke-linecap: butt; stroke-linejoin: miter; stroke-miterlimit: 10; fill: rgb(0,0,0); fill-rule: nonzero; opacity: 1;" transform=" matrix(1 0 0 1 0 0) " stroke-linecap="round" />
	<path d="M 45 78.934 c -0.552 0 -1 -0.447 -1 -1 v -3.018 c 0 -0.553 0.448 -1 1 -1 s 1 0.447 1 1 v 3.018 C 46 78.486 45.552 78.934 45 78.934 z" style="stroke: none; stroke-width: 1; stroke-dasharray: none; stroke-linecap: butt; stroke-linejoin: miter; stroke-miterlimit: 10; fill: rgb(0,0,0); fill-rule: nonzero; opacity: 1;" transform=" matrix(1 0 0 1 0 0) " stroke-linecap="round" />
	<path d="M 54.925 40.227 c -0.553 0 -1 -0.448 -1 -1 v -3.017 c 0 -0.552 0.447 -1 1 -1 s 1 0.448 1 1 v 3.017 C 55.925 39.779 55.478 40.227 54.925 40.227 z" style="stroke: none; stroke-width: 1; stroke-dasharray: none; stroke-linecap: butt; stroke-linejoin: miter; stroke-miterlimit: 10; fill: rgb(0,0,0); fill-rule: nonzero; opacity: 1;" transform=" matrix(1 0 0 1 0 0) " stroke-linecap="round" />
	<path d="M 54.925 55.114 c -0.553 0 -1 -0.447 -1 -1 v -3.018 c 0 -0.553 0.447 -1 1 -1 s 1 0.447 1 1 v 3.018 C 55.925 54.667 55.478 55.114 54.925 55.114 z" style="stroke: none; stroke-width: 1; stroke-dasharray: none; stroke-linecap: butt; stroke-linejoin: miter; stroke-miterlimit: 10; fill: rgb(0,0,0); fill-rule: nonzero; opacity: 1;" transform=" matrix(1 0 0 1 0 0) " stroke-linecap="round" />
	<path d="M 54.925 70.001 c -0.553 0 -1 -0.447 -1 -1 v -3.017 c 0 -0.553 0.447 -1 1 -1 s 1 0.447 1 1 v 3.017 C 55.925 69.554 55.478 70.001 54.925 70.001 z" style="stroke: none; stroke-width: 1; stroke-dasharray: none; stroke-linecap: butt; stroke-linejoin: miter; stroke-miterlimit: 10; fill: rgb(0,0,0); fill-rule: nonzero; opacity: 1;" transform=" matrix(1 0 0 1 0 0) " stroke-linecap="round" />
	<path d="M 35.075 40.227 c -0.552 0 -1 -0.448 -1 -1 v -3.017 c 0 -0.552 0.448 -1 1 -1 s 1 0.448 1 1 v 3.017 C 36.075 39.779 35.627 40.227 35.075 40.227 z" style="stroke: none; stroke-width: 1; stroke-dasharray: none; stroke-linecap: butt; stroke-linejoin: miter; stroke-miterlimit: 10; fill: rgb(0,0,0); fill-rule: nonzero; opacity: 1;" transform=" matrix(1 0 0 1 0 0) " stroke-linecap="round" />
	<path d="M 35.075 55.114 c -0.552 0 -1 -0.447 -1 -1 v -3.018 c 0 -0.553 0.448 -1 1 -1 s 1 0.447 1 1 v 3.018 C 36.075 54.667 35.627 55.114 35.075 55.114 z" style="stroke: none; stroke-width: 1; stroke-dasharray: none; stroke-linecap: butt; stroke-linejoin: miter; stroke-miterlimit: 10; fill: rgb(0,0,0); fill-rule: nonzero; opacity: 1;" transform=" matrix(1 0 0 1 0 0) " stroke-linecap="round" />
	<path d="M 35.075 70.001 c -0.552 0 -1 -0.447 -1 -1 v -3.017 c 0 -0.553 0.448 -1 1 -1 s 1 0.447 1 1 v 3.017 C 36.075 69.554 35.627 70.001 35.075 70.001 z" style="stroke: none; stroke-width: 1; stroke-dasharray: none; stroke-linecap: butt; stroke-linejoin: miter; stroke-miterlimit: 10; fill: rgb(0,0,0); fill-rule: nonzero; opacity: 1;" transform=" matrix(1 0 0 1 0 0) " stroke-linecap="round" />
	<path d="M 64.85 49.159 c -0.553 0 -1 -0.447 -1 -1 v -3.018 c 0 -0.552 0.447 -1 1 -1 s 1 0.448 1 1 v 3.018 C 65.85 48.712 65.402 49.159 64.85 49.159 z" style="stroke: none; stroke-width: 1; stroke-dasharray: none; stroke-linecap: butt; stroke-linejoin: miter; stroke-miterlimit: 10; fill: rgb(0,0,0); fill-rule: nonzero; opacity: 1;" transform=" matrix(1 0 0 1 0 0) " stroke-linecap="round" />
	<path d="M 64.85 64.046 c -0.553 0 -1 -0.447 -1 -1 v -3.017 c 0 -0.553 0.447 -1 1 -1 s 1 0.447 1 1 v 3.017 C 65.85 63.599 65.402 64.046 64.85 64.046 z" style="stroke: none; stroke-width: 1; stroke-dasharray: none; stroke-linecap: butt; stroke-linejoin: miter; stroke-miterlimit: 10; fill: rgb(0,0,0); fill-rule: nonzero; opacity: 1;" transform=" matrix(1 0 0 1 0 0) " stroke-linecap="round" />
	<path d="M 25.15 49.159 c -0.552 0 -1 -0.447 -1 -1 v -3.018 c 0 -0.552 0.448 -1 1 -1 s 1 0.448 1 1 v 3.018 C 26.15 48.712 25.703 49.159 25.15 49.159 z" style="stroke: none; stroke-width: 1; stroke-dasharray: none; stroke-linecap: butt; stroke-linejoin: miter; stroke-miterlimit: 10; fill: rgb(0,0,0); fill-rule: nonzero; opacity: 1;" transform=" matrix(1 0 0 1 0 0) " stroke-linecap="round" />
	<path d="M 25.15 64.046 c -0.552 0 -1 -0.447 -1 -1 v -3.017 c 0 -0.553 0.448 -1 1 -1 s 1 0.447 1 1 v 3.017 C 26.15 63.599 25.703 64.046 25.15 64.046 z" style="stroke: none; stroke-width: 1; stroke-dasharray: none; stroke-linecap: butt; stroke-linejoin: miter; stroke-miterlimit: 10; fill: rgb(0,0,0); fill-rule: nonzero; opacity: 1;" transform=" matrix(1 0 0 1 0 0) " stroke-linecap="round" />
	<path d="M 20.188 37.249 c -0.552 0 -1 -0.448 -1 -1 v -3.017 c 0 -0.552 0.448 -1 1 -1 s 1 0.448 1 1 v 3.017 C 21.188 36.801 20.74 37.249 20.188 37.249 z" style="stroke: none; stroke-width: 1; stroke-dasharray: none; stroke-linecap: butt; stroke-linejoin: miter; stroke-miterlimit: 10; fill: rgb(0,0,0); fill-rule: nonzero; opacity: 1;" transform=" matrix(1 0 0 1 0 0) " stroke-linecap="round" />
	<path d="M 69.813 37.249 c -0.553 0 -1 -0.448 -1 -1 v -3.017 c 0 -0.552 0.447 -1 1 -1 s 1 0.448 1 1 v 3.017 C 70.813 36.801 70.365 37.249 69.813 37.249 z" style="stroke: none; stroke-width: 1; stroke-dasharray: none; stroke-linecap: butt; stroke-linejoin: miter; stroke-miterlimit: 10; fill: rgb(0,0,0); fill-rule: nonzero; opacity: 1;" transform=" matrix(1 0 0 1 0 0) " stroke-linecap="round" />
</g>
</g>
</svg>