<svg xmlns="http://www.w3.org/2000/svg" xmlns:xlink="http://www.w3.org/1999/xlink" version="1.1" width="256" height="256" viewBox="0 0 256 256" xml:space="preserve">
<desc>Created with Fabric.js 1.7.22</desc>
<defs>
</defs>
<g transform="translate(128 128) scale(0.72 0.72)" style="">
	<g style="stroke: none; stroke-width: 0; stroke-dasharray: none; stroke-linecap: butt; stroke-linejoin: miter; stroke-miterlimit: 10; fill: none; fill-rule: nonzero; opacity: 1;" transform="translate(-175.05 -175.05000000000004) scale(3.89 3.89)" >
	<path d="M 66.91 64.992 c 11 0.983 19.095 -9.681 21.754 -22.277 c 2.589 -15.322 -10.219 -25.403 -22.988 -19.239 c -11.919 -5.754 -23.872 2.647 -23.305 16.252 C 46.108 52.603 52.05 63.268 66.91 64.992 z" style="stroke: none; stroke-width: 1; stroke-dasharray: none; stroke-linecap: butt; stroke-linejoin: miter; stroke-miterlimit: 10; fill: rgb(255,83,104); fill-rule: nonzero; opacity: 1;" transform=" matrix(1 0 0 1 0 0) " stroke-linecap="round" />
	<path d="M 20.151 50.666 l -0.085 -0.394 C 14.22 47.696 7.853 47.26 0.999 49.015 c 0.999 3.652 3.265 6.244 7.422 7.252 c -3.37 2.635 -4.364 5.931 -3.766 9.67 c 2.994 -0.529 5.74 -1.39 8.235 -2.578 L 20.151 50.666 z" style="stroke: none; stroke-width: 1; stroke-dasharray: none; stroke-linecap: butt; stroke-linejoin: miter; stroke-miterlimit: 10; fill: rgb(130,212,101); fill-rule: nonzero; opacity: 1;" transform=" matrix(1 0 0 1 0 0) " stroke-linecap="round" />
	<path d="M 58.648 21.537 c -1.42 -1.071 -2.516 -2.536 -3.288 -4.28 c -0.018 -0.041 -0.038 -0.08 -0.055 -0.121 c -0.238 -0.552 -0.442 -1.131 -0.616 -1.733 c -0.008 -0.028 -0.018 -0.056 -0.026 -0.084 c -0.01 -0.037 -0.019 -0.076 -0.029 -0.113 c -0.079 -0.287 -0.149 -0.58 -0.214 -0.877 c -0.066 -0.303 -0.126 -0.609 -0.177 -0.921 c -0.003 -0.02 -0.008 -0.04 -0.011 -0.06 c -0.055 -0.347 -0.099 -0.701 -0.136 -1.058 c -0.084 -0.811 -0.125 -1.646 -0.116 -2.502 c 7.882 -0.441 11.781 5.794 11.695 13.688 L 58.648 21.537 z" style="stroke: none; stroke-width: 1; stroke-dasharray: none; stroke-linecap: butt; stroke-linejoin: miter; stroke-miterlimit: 10; fill: rgb(130,212,101); fill-rule: nonzero; opacity: 1;" transform=" matrix(1 0 0 1 0 0) " stroke-linecap="round" />
	<path d="M 68.69 67.729 c -1.291 -2.725 -3.772 -4.497 -6.527 -5.007 c 0.452 -1.923 0.286 -4.005 -0.625 -5.928 c -1.635 -3.452 -5.177 -5.38 -8.771 -5.139 c 0.853 -2.224 0.837 -4.777 -0.263 -7.099 c -2.136 -4.508 -7.521 -6.431 -12.029 -4.296 c -1.551 0.735 -2.787 1.859 -3.666 3.195 c -0.099 -0.279 -0.213 -0.555 -0.342 -0.828 c -2.11 -4.453 -7.429 -6.353 -11.882 -4.243 c -4.453 2.11 -6.353 7.429 -4.243 11.882 c 0.06 0.128 0.132 0.245 0.198 0.369 c -1.202 0.033 -2.416 0.305 -3.573 0.852 c -4.453 2.11 -6.353 7.429 -4.243 11.882 c 1.716 3.622 5.556 5.554 9.326 5.014 c -0.715 2.115 -0.648 4.498 0.383 6.675 c 2.11 4.453 7.429 6.353 11.882 4.243 c 1.295 -0.613 2.365 -1.503 3.193 -2.559 c 2.515 3.211 6.995 4.379 10.835 2.559 c 1.788 -0.847 3.155 -2.216 4.025 -3.833 c 2.137 4.504 7.52 6.425 12.026 4.29 C 68.902 77.623 70.826 72.237 68.69 67.729 z M 44.508 62.326 c -0.005 0 -0.01 0 -0.015 0 c 0.003 -0.006 0.007 -0.011 0.01 -0.018 C 44.504 62.314 44.507 62.32 44.508 62.326 z" style="stroke: none; stroke-width: 1; stroke-dasharray: none; stroke-linecap: butt; stroke-linejoin: miter; stroke-miterlimit: 10; fill: rgb(123,93,255); fill-rule: nonzero; opacity: 1;" transform=" matrix(1 0 0 1 0 0) " stroke-linecap="round" />
	<path d="M 68.362 66.058 c -0.506 0 -1.019 -0.022 -1.54 -0.069 c -0.55 -0.049 -0.956 -0.535 -0.907 -1.085 c 0.05 -0.549 0.531 -0.961 1.085 -0.907 c 10.951 0.986 18.28 -10.086 20.687 -21.488 c 1.186 -7.022 -1.002 -13.416 -5.859 -17.065 c -4.393 -3.299 -10.267 -3.698 -15.716 -1.068 c -0.273 0.133 -0.596 0.133 -0.869 0 c -5.18 -2.5 -10.645 -2.298 -14.992 0.559 c -4.567 3.002 -7.139 8.516 -6.879 14.751 c 0.023 0.552 -0.406 1.018 -0.958 1.041 c -0.58 0.012 -1.018 -0.406 -1.041 -0.958 c -0.29 -6.944 2.619 -13.114 7.78 -16.506 c 4.825 -3.17 10.822 -3.488 16.525 -0.892 c 6.014 -2.734 12.467 -2.195 17.352 1.474 c 5.467 4.106 7.943 11.223 6.623 19.037 C 87.165 54.66 79.672 66.057 68.362 66.058 z" style="stroke: none; stroke-width: 1; stroke-dasharray: none; stroke-linecap: butt; stroke-linejoin: miter; stroke-miterlimit: 10; fill: rgb(0,0,0); fill-rule: nonzero; opacity: 1;" transform=" matrix(1 0 0 1 0 0) " stroke-linecap="round" />
	<path d="M 65.676 24.476 c -0.004 0 -0.007 0 -0.011 0 c -0.553 -0.006 -0.995 -0.459 -0.989 -1.011 c 0.048 -4.432 -1.202 -8.092 -3.52 -10.307 c -1.613 -1.542 -3.684 -2.344 -6.164 -2.39 c 0.018 0.478 0.05 0.952 0.099 1.418 c 0.036 0.339 0.076 0.674 0.129 1.003 c 0.059 0.354 0.116 0.643 0.178 0.929 c 0.061 0.277 0.127 0.554 0.201 0.826 c 0 0 0.03 0.113 0.03 0.114 c 0.187 0.641 0.379 1.184 0.595 1.685 l -0.863 0.516 l 0.914 -0.404 c 0.724 1.634 1.725 2.942 2.977 3.886 c 0.44 0.333 0.528 0.96 0.195 1.4 c -0.332 0.44 -0.958 0.53 -1.4 0.196 c -1.526 -1.152 -2.737 -2.725 -3.6 -4.674 l -0.061 -0.131 c -0.248 -0.576 -0.469 -1.199 -0.657 -1.85 c -0.001 -0.005 -0.028 -0.095 -0.029 -0.1 l 0.935 -0.375 l -0.965 0.263 c -0.082 -0.303 -0.156 -0.611 -0.226 -0.924 c -0.07 -0.323 -0.134 -0.646 -0.188 -0.976 c -0.069 -0.427 -0.115 -0.8 -0.154 -1.175 c -0.089 -0.856 -0.13 -1.736 -0.121 -2.616 c 0.006 -0.526 0.418 -0.959 0.944 -0.988 c 3.445 -0.189 6.413 0.819 8.613 2.923 c 2.722 2.602 4.191 6.783 4.138 11.775 C 66.67 24.035 66.224 24.476 65.676 24.476 z" style="stroke: none; stroke-width: 1; stroke-dasharray: none; stroke-linecap: butt; stroke-linejoin: miter; stroke-miterlimit: 10; fill: rgb(0,0,0); fill-rule: nonzero; opacity: 1;" transform=" matrix(1 0 0 1 0 0) " stroke-linecap="round" />
	<path d="M 65.676 24.476 c -0.548 0 -0.994 -0.44 -1 -0.989 c -0.064 -5.945 2.042 -10.704 5.777 -13.056 c 0.471 -0.293 1.085 -0.152 1.38 0.313 c 0.294 0.467 0.153 1.084 -0.313 1.379 c -3.135 1.974 -4.9 6.107 -4.844 11.342 c 0.006 0.552 -0.437 1.005 -0.989 1.011 C 65.683 24.476 65.679 24.476 65.676 24.476 z" style="stroke: none; stroke-width: 1; stroke-dasharray: none; stroke-linecap: butt; stroke-linejoin: miter; stroke-miterlimit: 10; fill: rgb(0,0,0); fill-rule: nonzero; opacity: 1;" transform=" matrix(1 0 0 1 0 0) " stroke-linecap="round" />
	<path d="M 76.635 56.216 c -0.248 0 -0.497 -0.092 -0.69 -0.276 c -0.399 -0.382 -0.414 -1.015 -0.033 -1.414 c 0.676 -0.708 1.32 -1.512 1.916 -2.391 c 0.311 -0.459 0.933 -0.576 1.389 -0.268 c 0.458 0.311 0.577 0.932 0.268 1.389 c -0.658 0.972 -1.373 1.863 -2.125 2.65 C 77.162 56.112 76.899 56.216 76.635 56.216 z" style="stroke: none; stroke-width: 1; stroke-dasharray: none; stroke-linecap: butt; stroke-linejoin: miter; stroke-miterlimit: 10; fill: rgb(0,0,0); fill-rule: nonzero; opacity: 1;" transform=" matrix(1 0 0 1 0 0) " stroke-linecap="round" />
	<path d="M 81.318 48.513 c -0.119 0 -0.239 -0.021 -0.356 -0.065 c -0.517 -0.197 -0.774 -0.775 -0.578 -1.291 c 0.545 -1.426 0.987 -2.935 1.314 -4.483 c 1.329 -7.873 -3.124 -13.094 -8.213 -14.161 c -0.541 -0.113 -0.887 -0.643 -0.773 -1.184 c 0.113 -0.542 0.645 -0.886 1.184 -0.773 c 6.024 1.263 11.315 7.333 9.768 16.491 c -0.356 1.691 -0.829 3.3 -1.41 4.823 C 82.1 48.268 81.72 48.513 81.318 48.513 z" style="stroke: none; stroke-width: 1; stroke-dasharray: none; stroke-linecap: butt; stroke-linejoin: miter; stroke-miterlimit: 10; fill: rgb(0,0,0); fill-rule: nonzero; opacity: 1;" transform=" matrix(1 0 0 1 0 0) " stroke-linecap="round" />
	<path d="M 20.952 69.475 c -3.797 0 -7.303 -2.18 -8.96 -5.677 c -2.342 -4.943 -0.225 -10.871 4.719 -13.214 c 4.442 -2.106 9.828 -0.602 12.527 3.498 c 0.304 0.461 0.176 1.081 -0.285 1.385 s -1.082 0.177 -1.385 -0.285 c -2.155 -3.271 -6.455 -4.469 -10.001 -2.791 c -3.947 1.871 -5.637 6.605 -3.768 10.552 c 1.457 3.075 4.7 4.869 8.083 4.478 c 0.545 -0.068 1.045 0.327 1.11 0.876 s -0.328 1.046 -0.876 1.11 C 21.726 69.452 21.337 69.475 20.952 69.475 z" style="stroke: none; stroke-width: 1; stroke-dasharray: none; stroke-linecap: butt; stroke-linejoin: miter; stroke-miterlimit: 10; fill: rgb(0,0,0); fill-rule: nonzero; opacity: 1;" transform=" matrix(1 0 0 1 0 0) " stroke-linecap="round" />
	<path d="M 52.865 52.552 c -0.118 0 -0.237 -0.021 -0.354 -0.065 c -0.517 -0.195 -0.776 -0.772 -0.58 -1.289 c 0.771 -2.034 0.683 -4.237 -0.248 -6.202 c -1.87 -3.948 -6.603 -5.637 -10.551 -3.768 c -3.117 1.477 -4.912 4.765 -4.466 8.182 c 0.071 0.548 -0.315 1.049 -0.863 1.12 c -0.539 0.072 -1.049 -0.313 -1.121 -0.862 c -0.557 -4.28 1.69 -8.398 5.593 -10.248 c 4.944 -2.341 10.871 -0.225 13.214 4.719 c 1.167 2.46 1.277 5.219 0.311 7.767 C 53.649 52.306 53.269 52.552 52.865 52.552 z" style="stroke: none; stroke-width: 1; stroke-dasharray: none; stroke-linecap: butt; stroke-linejoin: miter; stroke-miterlimit: 10; fill: rgb(0,0,0); fill-rule: nonzero; opacity: 1;" transform=" matrix(1 0 0 1 0 0) " stroke-linecap="round" />
	<path d="M 36.485 68.347 c -1.125 0 -2.253 -0.193 -3.343 -0.583 c -2.496 -0.892 -4.495 -2.701 -5.63 -5.097 c -1.135 -2.395 -1.269 -5.088 -0.377 -7.583 c 0.891 -2.496 2.701 -4.496 5.096 -5.63 c 4.944 -2.344 10.872 -0.227 13.215 4.719 c 1.135 2.395 1.269 5.088 0.377 7.584 c -0.891 2.495 -2.701 4.495 -5.096 5.629 C 39.377 68.026 37.934 68.347 36.485 68.347 z M 36.473 50.494 c -1.157 0 -2.31 0.257 -3.386 0.767 c -1.912 0.906 -3.357 2.503 -4.069 4.495 c -0.711 1.993 -0.604 4.144 0.302 6.055 c 0 0.001 0 0.001 0 0.001 c 0.906 1.912 2.502 3.356 4.495 4.068 c 1.993 0.711 4.143 0.604 6.055 -0.301 c 1.913 -0.906 3.357 -2.503 4.069 -4.495 c 0.711 -1.992 0.604 -4.143 -0.302 -6.056 c -0.906 -1.912 -2.502 -3.357 -4.495 -4.068 C 38.271 50.649 37.371 50.494 36.473 50.494 z" style="stroke: none; stroke-width: 1; stroke-dasharray: none; stroke-linecap: butt; stroke-linejoin: miter; stroke-miterlimit: 10; fill: rgb(0,0,0); fill-rule: nonzero; opacity: 1;" transform=" matrix(1 0 0 1 0 0) " stroke-linecap="round" />
	<path d="M 61.882 63.461 c -0.074 0 -0.149 -0.008 -0.225 -0.025 c -0.539 -0.124 -0.875 -0.66 -0.751 -1.198 c 0.402 -1.751 0.208 -3.535 -0.563 -5.162 c -1.869 -3.946 -6.6 -5.635 -10.551 -3.768 c -1.63 0.773 -2.913 2.034 -3.709 3.648 c -0.245 0.495 -0.845 0.699 -1.339 0.454 c -0.496 -0.244 -0.699 -0.844 -0.454 -1.339 c 0.998 -2.022 2.604 -3.602 4.646 -4.569 c 4.948 -2.346 10.873 -0.226 13.214 4.719 c 0.966 2.036 1.209 4.272 0.705 6.465 C 62.749 63.148 62.337 63.461 61.882 63.461 z" style="stroke: none; stroke-width: 1; stroke-dasharray: none; stroke-linecap: butt; stroke-linejoin: miter; stroke-miterlimit: 10; fill: rgb(0,0,0); fill-rule: nonzero; opacity: 1;" transform=" matrix(1 0 0 1 0 0) " stroke-linecap="round" />
	<path d="M 60.481 81.214 c -3.607 0 -7.051 -1.982 -8.806 -5.428 c -0.251 -0.492 -0.056 -1.095 0.437 -1.345 c 0.493 -0.253 1.095 -0.056 1.345 0.437 c 1.958 3.844 6.546 5.404 10.448 3.559 c 3.947 -1.87 5.637 -6.603 3.768 -10.551 c -0.906 -1.912 -2.503 -3.356 -4.495 -4.068 c -1.993 -0.711 -4.142 -0.605 -6.056 0.301 c -1.608 0.763 -2.882 2.004 -3.682 3.59 c -0.249 0.492 -0.849 0.692 -1.343 0.442 c -0.493 -0.248 -0.691 -0.85 -0.442 -1.343 c 1.001 -1.987 2.596 -3.542 4.611 -4.496 c 2.394 -1.137 5.089 -1.27 7.583 -0.378 c 2.496 0.892 4.496 2.701 5.63 5.097 c 2.343 4.943 0.226 10.871 -4.719 13.213 C 63.371 80.902 61.913 81.214 60.481 81.214 z" style="stroke: none; stroke-width: 1; stroke-dasharray: none; stroke-linecap: butt; stroke-linejoin: miter; stroke-miterlimit: 10; fill: rgb(0,0,0); fill-rule: nonzero; opacity: 1;" transform=" matrix(1 0 0 1 0 0) " stroke-linecap="round" />
	<path d="M 20.785 51.631 c -0.177 0 -0.356 -0.047 -0.519 -0.146 C 13.592 47.429 9.681 41.095 8.641 32.659 c -0.067 -0.548 0.322 -1.047 0.87 -1.115 c 0.554 -0.064 1.048 0.322 1.115 0.87 c 0.975 7.908 4.468 13.587 10.679 17.363 c 0.472 0.287 0.622 0.902 0.335 1.374 C 21.452 51.46 21.123 51.631 20.785 51.631 z" style="stroke: none; stroke-width: 1; stroke-dasharray: none; stroke-linecap: butt; stroke-linejoin: miter; stroke-miterlimit: 10; fill: rgb(0,0,0); fill-rule: nonzero; opacity: 1;" transform=" matrix(1 0 0 1 0 0) " stroke-linecap="round" />
	<path d="M 4.656 66.937 c -0.207 0 -0.41 -0.063 -0.58 -0.186 c -0.218 -0.155 -0.365 -0.392 -0.407 -0.656 c -0.596 -3.729 0.339 -6.883 2.781 -9.401 c -3.264 -1.286 -5.418 -3.773 -6.414 -7.415 c -0.071 -0.259 -0.035 -0.534 0.1 -0.767 c 0.135 -0.231 0.357 -0.399 0.617 -0.466 c 7.027 -1.8 13.659 -1.357 19.718 1.311 c 0.293 0.129 0.506 0.391 0.574 0.703 l 0.085 0.395 c 0.117 0.54 -0.226 1.072 -0.766 1.189 c -0.501 0.11 -0.997 -0.18 -1.158 -0.653 C 13.987 48.807 8.3 48.385 2.278 49.736 c 1.09 2.961 3.185 4.784 6.379 5.559 c 0.373 0.09 0.661 0.386 0.742 0.761 c 0.081 0.374 -0.06 0.763 -0.362 0.999 c -2.588 2.023 -3.744 4.549 -3.515 7.697 c 2.495 -0.519 4.825 -1.289 6.939 -2.297 c 0.5 -0.234 1.095 -0.026 1.333 0.474 c 0.237 0.498 0.026 1.095 -0.473 1.333 c -2.568 1.223 -5.425 2.117 -8.491 2.659 C 4.772 66.932 4.714 66.937 4.656 66.937 z" style="stroke: none; stroke-width: 1; stroke-dasharray: none; stroke-linecap: butt; stroke-linejoin: miter; stroke-miterlimit: 10; fill: rgb(0,0,0); fill-rule: nonzero; opacity: 1;" transform=" matrix(1 0 0 1 0 0) " stroke-linecap="round" />
	<path d="M 20.817 51.613 c -0.344 0 -0.678 -0.177 -0.864 -0.495 c -0.145 -0.248 -0.281 -0.505 -0.407 -0.769 c -2.342 -4.946 -0.226 -10.874 4.718 -13.216 c 4.945 -2.343 10.873 -0.225 13.215 4.719 c 0.21 0.444 0.39 0.908 0.532 1.377 c 0.16 0.529 -0.138 1.087 -0.667 1.248 c -0.533 0.16 -1.088 -0.138 -1.248 -0.667 c -0.114 -0.376 -0.257 -0.747 -0.425 -1.102 c -1.87 -3.947 -6.603 -5.64 -10.551 -3.768 c -3.947 1.87 -5.638 6.603 -3.768 10.551 c 0.1 0.211 0.209 0.417 0.326 0.616 c 0.279 0.477 0.119 1.089 -0.358 1.368 C 21.162 51.569 20.988 51.613 20.817 51.613 z" style="stroke: none; stroke-width: 1; stroke-dasharray: none; stroke-linecap: butt; stroke-linejoin: miter; stroke-miterlimit: 10; fill: rgb(0,0,0); fill-rule: nonzero; opacity: 1;" transform=" matrix(1 0 0 1 0 0) " stroke-linecap="round" />
	<path d="M 30.511 81.047 c -3.717 0 -7.288 -2.097 -8.982 -5.674 c -1.134 -2.395 -1.269 -5.088 -0.377 -7.583 c 0.892 -2.496 2.701 -4.496 5.096 -5.63 c 0.648 -0.308 1.332 -0.545 2.032 -0.707 c 0.533 -0.126 1.075 0.211 1.199 0.75 c 0.124 0.538 -0.212 1.075 -0.75 1.199 c -0.56 0.129 -1.106 0.319 -1.624 0.564 c -1.913 0.906 -3.358 2.503 -4.069 4.495 c -0.712 1.993 -0.604 4.144 0.301 6.056 c 0.906 1.912 2.502 3.356 4.495 4.068 c 1.993 0.71 4.143 0.604 6.056 -0.301 c 1.107 -0.524 2.051 -1.272 2.807 -2.224 c 0.343 -0.433 0.972 -0.504 1.405 -0.161 c 0.433 0.344 0.504 0.973 0.161 1.405 c -0.948 1.193 -2.131 2.131 -3.516 2.786 C 33.376 80.741 31.932 81.047 30.511 81.047 z" style="stroke: none; stroke-width: 1; stroke-dasharray: none; stroke-linecap: butt; stroke-linejoin: miter; stroke-miterlimit: 10; fill: rgb(0,0,0); fill-rule: nonzero; opacity: 1;" transform=" matrix(1 0 0 1 0 0) " stroke-linecap="round" />
	<path d="M 44.615 81.232 c -3.717 0 -7.288 -2.097 -8.982 -5.674 c -1.309 -2.764 -1.28 -5.921 0.081 -8.663 c 0.246 -0.495 0.845 -0.698 1.34 -0.451 c 0.495 0.245 0.697 0.846 0.452 1.34 c -1.087 2.19 -1.111 4.712 -0.065 6.919 c 1.87 3.946 6.6 5.635 10.551 3.768 c 1.911 -0.906 3.356 -2.503 4.068 -4.495 c 0.712 -1.993 0.604 -4.144 -0.301 -6.056 c -1.326 -2.797 -4.163 -4.591 -7.28 -4.531 c -0.579 -0.007 -1.007 -0.434 -1.015 -0.985 c -0.008 -0.553 0.434 -1.007 0.985 -1.015 c 3.891 -0.054 7.456 2.172 9.116 5.676 c 1.135 2.395 1.269 5.088 0.377 7.584 c -0.891 2.495 -2.7 4.495 -5.096 5.629 C 47.48 80.925 46.036 81.232 44.615 81.232 z" style="stroke: none; stroke-width: 1; stroke-dasharray: none; stroke-linecap: butt; stroke-linejoin: miter; stroke-miterlimit: 10; fill: rgb(0,0,0); fill-rule: nonzero; opacity: 1;" transform=" matrix(1 0 0 1 0 0) " stroke-linecap="round" />
</g>
</g>
</svg>