<svg xmlns="http://www.w3.org/2000/svg" xmlns:xlink="http://www.w3.org/1999/xlink" version="1.1" width="256" height="256" viewBox="0 0 256 256" xml:space="preserve">
<desc>Created with Fabric.js 1.7.22</desc>
<defs>
</defs>
<g transform="translate(128 128) scale(0.72 0.72)" style="">
	<g style="stroke: none; stroke-width: 0; stroke-dasharray: none; stroke-linecap: butt; stroke-linejoin: miter; stroke-miterlimit: 10; fill: none; fill-rule: nonzero; opacity: 1;" transform="translate(-175.05 -175.05000000000004) scale(3.89 3.89)" >
	<path d="M 51.336 19.754 c -2.189 0 -4.308 0.393 -6.336 1.093 c -2.028 -0.701 -4.147 -1.093 -6.336 -1.093 c -14.123 0 -25.572 15.501 -25.572 34.624 c 0 19.122 11.449 34.624 25.572 34.624 c 2.187 0 4.31 -0.373 6.336 -1.073 c 2.026 0.699 4.149 1.073 6.336 1.073 c 14.123 0 25.572 -15.502 25.572 -34.624 C 76.908 35.255 65.459 19.754 51.336 19.754 z" style="stroke: none; stroke-width: 1; stroke-dasharray: none; stroke-linecap: butt; stroke-linejoin: miter; stroke-miterlimit: 10; fill: rgb(255,207,93); fill-rule: nonzero; opacity: 1;" transform=" matrix(1 0 0 1 0 0) " stroke-linecap="round" />
	<path d="M 51.977 19.765 c 3.642 -1.437 6.281 -4.262 7.914 -7.952 c 0.026 -0.059 0.054 -0.115 0.08 -0.174 c 0.343 -0.796 0.638 -1.633 0.888 -2.502 c 0.012 -0.041 0.026 -0.081 0.037 -0.122 c 0.015 -0.054 0.028 -0.109 0.042 -0.163 c 0.114 -0.414 0.216 -0.837 0.309 -1.266 c 0.095 -0.437 0.182 -0.879 0.256 -1.329 c 0.005 -0.029 0.011 -0.058 0.016 -0.087 c 0.08 -0.5 0.143 -1.011 0.196 -1.527 c 0.122 -1.17 0.18 -2.376 0.167 -3.611 C 50.505 0.395 44.877 9.395 45.001 20.79 L 51.977 19.765 z" style="stroke: none; stroke-width: 1; stroke-dasharray: none; stroke-linecap: butt; stroke-linejoin: miter; stroke-miterlimit: 10; fill: rgb(130,212,101); fill-rule: nonzero; opacity: 1;" transform=" matrix(1 0 0 1 0 0) " stroke-linecap="round" />
	<path d="M 38.664 90.001 c -14.652 0 -26.572 -15.981 -26.572 -35.624 s 11.92 -35.624 26.572 -35.624 c 5.097 0 10.045 1.933 14.311 5.589 c 0.419 0.359 0.467 0.991 0.107 1.41 c -0.358 0.42 -0.988 0.468 -1.41 0.108 c -3.897 -3.342 -8.395 -5.108 -13.008 -5.108 c -13.549 0 -24.572 15.083 -24.572 33.624 s 11.023 33.624 24.572 33.624 s 24.572 -15.083 24.572 -33.624 c 0 -4.028 -0.517 -7.967 -1.534 -11.706 c -0.146 -0.533 0.169 -1.083 0.702 -1.228 c 0.532 -0.146 1.083 0.169 1.228 0.702 c 1.064 3.91 1.605 8.025 1.605 12.231 C 65.236 74.02 53.316 90.001 38.664 90.001 z" style="stroke: none; stroke-width: 1; stroke-dasharray: none; stroke-linecap: butt; stroke-linejoin: miter; stroke-miterlimit: 10; fill: rgb(0,0,0); fill-rule: nonzero; opacity: 1;" transform=" matrix(1 0 0 1 0 0) " stroke-linecap="round" />
	<path d="M 59.934 36.148 c -0.368 0 -0.723 -0.204 -0.897 -0.557 c -1.001 -2.024 -2.165 -3.903 -3.459 -5.585 c -0.336 -0.438 -0.255 -1.065 0.184 -1.402 c 0.438 -0.337 1.065 -0.255 1.402 0.183 c 1.373 1.785 2.606 3.776 3.666 5.918 c 0.245 0.495 0.042 1.095 -0.453 1.34 C 60.234 36.115 60.082 36.148 59.934 36.148 z" style="stroke: none; stroke-width: 1; stroke-dasharray: none; stroke-linecap: butt; stroke-linejoin: miter; stroke-miterlimit: 10; fill: rgb(0,0,0); fill-rule: nonzero; opacity: 1;" transform=" matrix(1 0 0 1 0 0) " stroke-linecap="round" />
	<path d="M 51.336 90.001 c -2.256 0 -4.498 -0.379 -6.663 -1.126 c -0.522 -0.181 -0.799 -0.749 -0.619 -1.272 c 0.181 -0.522 0.751 -0.799 1.272 -0.619 c 1.955 0.675 3.977 1.017 6.01 1.017 c 13.549 0 24.572 -15.083 24.572 -33.624 S 64.885 20.753 51.336 20.753 c -2.034 0 -4.057 0.342 -6.011 1.017 c -0.522 0.177 -1.091 -0.097 -1.272 -0.619 c -0.18 -0.522 0.097 -1.091 0.619 -1.272 c 2.166 -0.748 4.407 -1.126 6.664 -1.126 c 14.652 0 26.572 15.981 26.572 35.624 S 65.988 90.001 51.336 90.001 z" style="stroke: none; stroke-width: 1; stroke-dasharray: none; stroke-linecap: butt; stroke-linejoin: miter; stroke-miterlimit: 10; fill: rgb(0,0,0); fill-rule: nonzero; opacity: 1;" transform=" matrix(1 0 0 1 0 0) " stroke-linecap="round" />
	<path d="M 45 21.79 c -0.547 0 -0.994 -0.44 -1 -0.989 C 43.924 13.72 45.996 7.8 49.836 4.13 c 3.087 -2.95 7.283 -4.363 12.102 -4.097 c 0.526 0.029 0.938 0.461 0.944 0.988 c 0.013 1.252 -0.045 2.505 -0.173 3.725 c -0.055 0.534 -0.12 1.063 -0.203 1.582 c -0.093 0.559 -0.184 1.018 -0.281 1.47 c -0.098 0.447 -0.204 0.887 -0.321 1.318 l -0.048 0.179 l -0.997 -0.158 l 0.961 0.277 c -0.269 0.93 -0.582 1.812 -0.932 2.621 c -0.004 0.008 -0.048 0.107 -0.052 0.115 c -1.833 4.14 -4.759 7.072 -8.492 8.545 c -0.517 0.202 -1.095 -0.05 -1.298 -0.563 c -0.202 -0.514 0.05 -1.095 0.563 -1.297 c 3.234 -1.276 5.781 -3.844 7.367 -7.426 c 0.002 -0.005 0.043 -0.096 0.046 -0.102 c 0.346 -0.796 0.63 -1.598 0.875 -2.447 c 0 0 0.038 -0.123 0.038 -0.124 l 0.038 -0.147 c 0.109 -0.398 0.206 -0.804 0.297 -1.216 c 0.091 -0.418 0.174 -0.844 0.246 -1.278 c 0.092 -0.565 0.151 -1.058 0.204 -1.555 c 0.087 -0.834 0.139 -1.684 0.156 -2.54 c -0.043 0 -0.086 0 -0.13 0 c -3.843 0 -7.044 1.201 -9.529 3.576 C 47.783 8.859 45.93 14.258 46 20.779 c 0.007 0.552 -0.437 1.005 -0.989 1.011 C 45.008 21.79 45.004 21.79 45 21.79 z" style="stroke: none; stroke-width: 1; stroke-dasharray: none; stroke-linecap: butt; stroke-linejoin: miter; stroke-miterlimit: 10; fill: rgb(0,0,0); fill-rule: nonzero; opacity: 1;" transform=" matrix(1 0 0 1 0 0) " stroke-linecap="round" />
	<path d="M 45.069 21.821 c -0.003 0 -0.007 0 -0.011 0 c -0.552 -0.006 -0.995 -0.459 -0.989 -1.011 c 0.083 -7.713 -2.54 -13.819 -7.198 -16.752 c -0.467 -0.294 -0.608 -0.912 -0.313 -1.379 c 0.293 -0.467 0.911 -0.608 1.379 -0.313 c 5.26 3.312 8.224 10.042 8.133 18.466 C 46.063 21.381 45.617 21.821 45.069 21.821 z" style="stroke: none; stroke-width: 1; stroke-dasharray: none; stroke-linecap: butt; stroke-linejoin: miter; stroke-miterlimit: 10; fill: rgb(0,0,0); fill-rule: nonzero; opacity: 1;" transform=" matrix(1 0 0 1 0 0) " stroke-linecap="round" />
</g>
</g>
</svg>