<svg xmlns="http://www.w3.org/2000/svg" xmlns:xlink="http://www.w3.org/1999/xlink" version="1.1" width="256" height="256" viewBox="0 0 256 256" xml:space="preserve">
<desc>Created with Fabric.js 1.7.22</desc>
<defs>
</defs>
<g transform="translate(128 128) scale(0.72 0.72)" style="">
	<g style="stroke: none; stroke-width: 0; stroke-dasharray: none; stroke-linecap: butt; stroke-linejoin: miter; stroke-miterlimit: 10; fill: none; fill-rule: nonzero; opacity: 1;" transform="translate(-175.05 -175.05000000000004) scale(3.89 3.89)" >
	<path d="M 89 8.89 c -4.55 0.117 -8.093 1.748 -11.124 4.324 c 0.387 1.163 0.683 2.34 0.897 3.526 c 0.388 9.135 -4.608 17.596 -12.896 23.69 l 5.493 6.759 l 1.149 -1.469 l 5.597 17.878 c 9.484 -10.792 13.35 -25.011 8.956 -38.217 C 86.37 18.293 86.393 13.496 89 8.89 z" style="stroke: none; stroke-width: 1; stroke-dasharray: none; stroke-linecap: butt; stroke-linejoin: miter; stroke-miterlimit: 10; fill: rgb(255,207,93); fill-rule: nonzero; opacity: 1;" transform=" matrix(1 0 0 1 0 0) " stroke-linecap="round" />
	<path d="M 40.71 66.335 l -3.961 -16.428 c -12.367 0.396 -23.62 -3.125 -31.547 -9.087 c -0.92 -0.692 -2.227 -0.462 -2.846 0.508 l -1.042 1.635 c -0.345 0.541 -0.415 1.221 -0.164 1.812 c 3.283 7.728 9.482 14.167 17.411 18.383 c -3.867 -0.484 -7.533 -1.385 -10.89 -2.686 c -1.173 -0.454 -2.48 0.175 -2.842 1.379 l -0.61 2.029 c -0.202 0.672 -0.074 1.408 0.365 1.954 c 9.734 12.116 27.172 17.862 44.9 14.166 L 39.149 66.112 L 40.71 66.335 z" style="stroke: none; stroke-width: 1; stroke-dasharray: none; stroke-linecap: butt; stroke-linejoin: miter; stroke-miterlimit: 10; fill: rgb(255,207,93); fill-rule: nonzero; opacity: 1;" transform=" matrix(1 0 0 1 0 0) " stroke-linecap="round" />
	<path d="M 57.45 42.097 c 0.08 -7.407 -3.578 -13.257 -10.973 -12.844 c -0.009 0.803 0.029 1.587 0.109 2.347 c 0.035 0.335 0.076 0.667 0.128 0.993 c 0.003 0.019 0.007 0.038 0.01 0.057 c 0.048 0.293 0.104 0.58 0.166 0.864 c 0.061 0.279 0.127 0.554 0.201 0.823 c 0.01 0.035 0.018 0.071 0.028 0.106 c 0.008 0.027 0.016 0.052 0.024 0.079 c 0.163 0.565 0.355 1.109 0.578 1.626 c 0.017 0.038 0.035 0.075 0.052 0.113 c 0.724 1.636 1.753 3.011 3.085 4.016 L 57.45 42.097 z" style="stroke: none; stroke-width: 1; stroke-dasharray: none; stroke-linecap: butt; stroke-linejoin: miter; stroke-miterlimit: 10; fill: rgb(130,212,101); fill-rule: nonzero; opacity: 1;" transform=" matrix(1 0 0 1 0 0) " stroke-linecap="round" />
	<path d="M 57.45 42.097 c 11.981 -5.784 23.999 3.676 21.57 18.052 c -2.587 12.257 -10.66 22.564 -21.57 20.755 c -10.909 1.809 -18.983 -8.498 -21.57 -20.755 C 33.451 45.773 45.469 36.313 57.45 42.097 z" style="stroke: none; stroke-width: 1; stroke-dasharray: none; stroke-linecap: butt; stroke-linejoin: miter; stroke-miterlimit: 10; fill: rgb(255,83,104); fill-rule: nonzero; opacity: 1;" transform=" matrix(1 0 0 1 0 0) " stroke-linecap="round" />
	<path d="M 78.115 64.596 c -0.234 0 -0.47 -0.082 -0.66 -0.249 c -0.415 -0.364 -0.456 -0.996 -0.091 -1.411 c 9.605 -10.931 12.88 -24.852 8.758 -37.24 c -0.023 -0.071 -0.039 -0.144 -0.046 -0.217 c -0.651 -6.588 -0.639 -11.205 1.242 -15.469 c -3.062 0.364 -5.738 1.513 -8.284 3.545 c 2.817 9.287 0.333 19.854 -6.875 29.109 c -0.34 0.436 -0.968 0.514 -1.403 0.175 c -0.436 -0.339 -0.514 -0.968 -0.175 -1.403 c 6.961 -8.937 9.273 -19.108 6.346 -27.906 c -0.129 -0.387 -0.009 -0.813 0.302 -1.078 c 3.478 -2.956 7.319 -4.448 11.746 -4.562 c 0.008 0 0.017 0 0.025 0 c 0.351 0 0.676 0.184 0.857 0.485 c 0.186 0.309 0.19 0.693 0.013 1.007 c -2.417 4.271 -2.513 8.678 -1.814 15.79 c 4.294 13.043 0.863 27.647 -9.189 39.085 C 78.669 64.481 78.393 64.596 78.115 64.596 z" style="stroke: none; stroke-width: 1; stroke-dasharray: none; stroke-linecap: butt; stroke-linejoin: miter; stroke-miterlimit: 10; fill: rgb(0,0,0); fill-rule: nonzero; opacity: 1;" transform=" matrix(1 0 0 1 0 0) " stroke-linecap="round" />
	<path d="M 38.895 82.097 C 24.902 82.098 11.83 76.45 3.804 66.459 c -0.641 -0.797 -0.843 -1.869 -0.542 -2.869 l 0.61 -2.028 c 0.252 -0.837 0.846 -1.536 1.629 -1.919 c 0.789 -0.385 1.712 -0.421 2.532 -0.104 c 8.233 3.191 18.256 3.885 28.221 1.954 c 0.544 -0.11 1.067 0.249 1.172 0.791 s -0.25 1.067 -0.791 1.172 c -10.33 2.001 -20.744 1.272 -29.325 -2.052 c -0.308 -0.12 -0.638 -0.106 -0.932 0.036 c -0.289 0.142 -0.499 0.389 -0.592 0.698 l -0.61 2.028 c -0.111 0.368 -0.041 0.757 0.187 1.041 c 9.603 11.951 26.843 17.374 43.916 13.813 c 0.538 -0.118 1.07 0.233 1.183 0.774 s -0.233 1.07 -0.774 1.183 C 46.076 81.731 42.455 82.097 38.895 82.097 z" style="stroke: none; stroke-width: 1; stroke-dasharray: none; stroke-linecap: butt; stroke-linejoin: miter; stroke-miterlimit: 10; fill: rgb(0,0,0); fill-rule: nonzero; opacity: 1;" transform=" matrix(1 0 0 1 0 0) " stroke-linecap="round" />
	<path d="M 18.578 64.166 c -0.158 0 -0.318 -0.037 -0.468 -0.117 C 9.901 59.69 3.551 52.983 0.23 45.165 c -0.377 -0.887 -0.287 -1.912 0.242 -2.741 l 1.041 -1.634 c 0.442 -0.694 1.159 -1.176 1.967 -1.323 c 0.812 -0.149 1.659 0.053 2.322 0.552 c 8.006 6.021 19.274 9.248 30.914 8.887 c 0.583 -0.044 1.014 0.415 1.032 0.967 s -0.416 1.014 -0.967 1.031 c -12.09 0.395 -23.817 -2.998 -32.18 -9.287 c -0.222 -0.167 -0.49 -0.232 -0.764 -0.183 c -0.266 0.048 -0.492 0.201 -0.638 0.429 l -1.041 1.635 c -0.174 0.273 -0.207 0.603 -0.087 0.883 c 3.143 7.398 9.172 13.756 16.977 17.901 c 0.488 0.259 0.673 0.864 0.414 1.352 C 19.283 63.974 18.936 64.166 18.578 64.166 z" style="stroke: none; stroke-width: 1; stroke-dasharray: none; stroke-linecap: butt; stroke-linejoin: miter; stroke-miterlimit: 10; fill: rgb(0,0,0); fill-rule: nonzero; opacity: 1;" transform=" matrix(1 0 0 1 0 0) " stroke-linecap="round" />
	<path d="M 65.878 41.429 c -0.308 0 -0.61 -0.141 -0.807 -0.408 c -0.327 -0.445 -0.231 -1.071 0.213 -1.398 C 73.61 33.502 78.162 25.147 77.772 16.7 c -0.025 -0.552 0.401 -1.02 0.953 -1.045 c 0.548 -0.026 1.02 0.401 1.045 0.953 c 0.421 9.125 -4.427 18.101 -13.301 24.626 C 66.291 41.366 66.083 41.429 65.878 41.429 z" style="stroke: none; stroke-width: 1; stroke-dasharray: none; stroke-linecap: butt; stroke-linejoin: miter; stroke-miterlimit: 10; fill: rgb(0,0,0); fill-rule: nonzero; opacity: 1;" transform=" matrix(1 0 0 1 0 0) " stroke-linecap="round" />
	<path d="M 54.949 82.112 c -10.597 0.001 -17.75 -10.874 -20.048 -21.76 c -1.25 -7.394 1.082 -14.093 6.23 -17.96 c 4.594 -3.45 10.664 -3.962 16.318 -1.4 c 5.654 -2.562 11.722 -2.051 16.318 1.4 c 5.148 3.868 7.48 10.567 6.238 17.922 c -2.481 11.76 -10.583 23.463 -22.556 21.6 C 56.597 82.047 55.762 82.112 54.949 82.112 z M 50.24 41.385 c -2.862 0 -5.603 0.876 -7.908 2.606 c -4.539 3.409 -6.582 9.387 -5.467 15.988 c 2.288 10.833 9.658 21.712 20.42 19.936 c 0.107 -0.018 0.219 -0.018 0.326 0 c 10.782 1.778 18.135 -9.104 20.429 -19.974 c 1.108 -6.563 -0.936 -12.541 -5.475 -15.95 c -4.103 -3.081 -9.592 -3.452 -14.683 -0.995 c -0.273 0.133 -0.596 0.133 -0.869 0 C 54.782 41.918 52.475 41.385 50.24 41.385 z" style="stroke: none; stroke-width: 1; stroke-dasharray: none; stroke-linecap: butt; stroke-linejoin: miter; stroke-miterlimit: 10; fill: rgb(0,0,0); fill-rule: nonzero; opacity: 1;" transform=" matrix(1 0 0 1 0 0) " stroke-linecap="round" />
	<path d="M 48.082 34.177 c 0.175 0.601 0.401 1.212 0.603 1.679 c 0.676 1.525 1.608 2.744 2.773 3.623 c 0.44 0.333 0.528 0.96 0.195 1.401 c -0.333 0.44 -0.96 0.526 -1.4 0.196 c -1.439 -1.086 -2.582 -2.57 -3.396 -4.41 L 46.8 36.542 c -0.233 -0.542 -0.441 -1.129 -0.619 -1.744 l -0.055 -0.195 c -0.079 -0.289 -0.15 -0.582 -0.214 -0.878 c -0.065 -0.301 -0.125 -0.605 -0.176 -0.916 c -0.066 -0.401 -0.108 -0.752 -0.146 -1.105 c -0.084 -0.813 -0.123 -1.642 -0.114 -2.463 c 0.006 -0.526 0.418 -0.958 0.944 -0.988 c 3.228 -0.18 6.049 0.773 8.127 2.759 c 2.566 2.454 3.952 6.393 3.901 11.094 c -0.006 0.549 -0.452 0.989 -1 0.989 c -0.004 0 -0.007 0 -0.011 0 c -0.553 -0.006 -0.995 -0.458 -0.989 -1.011 c 0.045 -4.141 -1.121 -7.56 -3.283 -9.626 c -1.487 -1.422 -3.394 -2.168 -5.676 -2.224 c 0.016 0.423 0.046 0.845 0.09 1.262 c 0.032 0.315 0.07 0.629 0.12 0.936 c 0.055 0.332 0.107 0.602 0.166 0.869 C 47.923 33.561 48.013 33.925 48.082 34.177 z" style="stroke: none; stroke-width: 1; stroke-dasharray: none; stroke-linecap: butt; stroke-linejoin: miter; stroke-miterlimit: 10; fill: rgb(0,0,0); fill-rule: nonzero; opacity: 1;" transform=" matrix(1 0 0 1 0 0) " stroke-linecap="round" />
	<path d="M 57.449 43.095 c -0.548 0 -0.994 -0.441 -1 -0.989 c -0.06 -5.6 1.927 -10.084 5.45 -12.303 c 0.47 -0.293 1.086 -0.154 1.38 0.313 c 0.294 0.467 0.153 1.084 -0.313 1.379 c -2.923 1.84 -4.569 5.7 -4.517 10.589 c 0.006 0.552 -0.437 1.005 -0.989 1.011 C 57.456 43.095 57.452 43.095 57.449 43.095 z" style="stroke: none; stroke-width: 1; stroke-dasharray: none; stroke-linecap: butt; stroke-linejoin: miter; stroke-miterlimit: 10; fill: rgb(0,0,0); fill-rule: nonzero; opacity: 1;" transform=" matrix(1 0 0 1 0 0) " stroke-linecap="round" />
	<path d="M 67.733 72.876 c -0.248 0 -0.496 -0.092 -0.69 -0.276 c -0.399 -0.381 -0.414 -1.014 -0.033 -1.414 c 0.632 -0.663 1.234 -1.415 1.79 -2.235 c 0.311 -0.459 0.933 -0.575 1.389 -0.268 c 0.457 0.31 0.577 0.932 0.268 1.389 c -0.618 0.912 -1.29 1.752 -1.999 2.495 C 68.261 72.773 67.997 72.876 67.733 72.876 z" style="stroke: none; stroke-width: 1; stroke-dasharray: none; stroke-linecap: butt; stroke-linejoin: miter; stroke-miterlimit: 10; fill: rgb(0,0,0); fill-rule: nonzero; opacity: 1;" transform=" matrix(1 0 0 1 0 0) " stroke-linecap="round" />
	<path d="M 72.126 65.649 c -0.119 0 -0.239 -0.021 -0.357 -0.066 c -0.516 -0.197 -0.773 -0.775 -0.576 -1.291 c 0.51 -1.334 0.924 -2.746 1.229 -4.196 c 1.24 -7.347 -2.911 -12.219 -7.658 -13.214 c -0.541 -0.113 -0.887 -0.644 -0.773 -1.184 c 0.113 -0.541 0.646 -0.886 1.184 -0.773 c 6.625 1.389 10.5 7.926 9.213 15.544 c -0.336 1.593 -0.779 3.106 -1.327 4.538 C 72.907 65.405 72.528 65.649 72.126 65.649 z" style="stroke: none; stroke-width: 1; stroke-dasharray: none; stroke-linecap: butt; stroke-linejoin: miter; stroke-miterlimit: 10; fill: rgb(0,0,0); fill-rule: nonzero; opacity: 1;" transform=" matrix(1 0 0 1 0 0) " stroke-linecap="round" />
</g>
</g>
</svg>