<svg xmlns="http://www.w3.org/2000/svg" xmlns:xlink="http://www.w3.org/1999/xlink" version="1.1" width="256" height="256" viewBox="0 0 256 256" xml:space="preserve">
<desc>Created with Fabric.js 1.7.22</desc>
<defs>
</defs>
<g transform="translate(128 128) scale(0.72 0.72)" style="">
	<g style="stroke: none; stroke-width: 0; stroke-dasharray: none; stroke-linecap: butt; stroke-linejoin: miter; stroke-miterlimit: 10; fill: none; fill-rule: nonzero; opacity: 1;" transform="translate(-175.05 -175.05000000000004) scale(3.89 3.89)" >
	<path d="M 75.605 11.269 c -6.241 -0.528 -14.906 3.966 -21.898 11.985 c -1.055 1.21 -2.025 2.446 -2.908 3.695 l -0.121 0.022 c -0.105 -1.416 -0.28 -2.86 -0.528 -4.323 C 48.366 12.158 43.317 3.805 37.717 1 c -4.359 4.498 -6.361 14.051 -4.577 24.54 c 0.257 1.513 0.59 2.975 0.975 4.388 l -0.005 0.001 c -1.292 -0.929 -2.671 -1.814 -4.127 -2.641 c -9.251 -5.256 -18.914 -6.634 -24.629 -4.072 c 0.66 5.667 5.804 12.473 13.705 17.614 l 24.2 11.32 l 22.24 -16.218 c 0.409 -0.434 0.814 -0.881 1.213 -1.338 C 73.704 26.576 76.978 17.381 75.605 11.269 z" style="stroke: none; stroke-width: 1; stroke-dasharray: none; stroke-linecap: butt; stroke-linejoin: miter; stroke-miterlimit: 10; fill: rgb(130,212,101); fill-rule: nonzero; opacity: 1;" transform=" matrix(1 0 0 1 0 0) " stroke-linecap="round" />
	<path d="M 67.918 35.757 c -5.294 0 -10.005 2.466 -13.07 6.304 c -3.007 -2.894 -7.087 -4.683 -11.59 -4.683 c -4.747 0 -9.022 1.986 -12.067 5.162 c -2.431 -1.377 -5.234 -2.173 -8.226 -2.173 c -9.239 0 -16.728 7.49 -16.728 16.728 c 0 9.239 7.49 16.728 16.728 16.728 c 3.607 0 6.938 -1.153 9.67 -3.094 c -0.046 0.508 -0.078 1.021 -0.078 1.541 c 0 9.24 7.489 16.73 16.728 16.73 s 16.728 -7.49 16.728 -16.728 c 0 -1.103 -0.113 -2.179 -0.317 -3.222 c 0.729 0.097 1.467 0.164 2.222 0.164 c 9.239 0 16.728 -7.49 16.728 -16.728 S 77.157 35.757 67.918 35.757 z" style="stroke: none; stroke-width: 1; stroke-dasharray: none; stroke-linecap: butt; stroke-linejoin: miter; stroke-miterlimit: 10; fill: rgb(123,93,255); fill-rule: nonzero; opacity: 1;" transform=" matrix(1 0 0 1 0 0) " stroke-linecap="round" />
	<path d="M 49.285 90 c -9.775 0 -17.729 -7.953 -17.729 -17.729 s 7.953 -17.729 17.729 -17.729 s 17.729 7.953 17.729 17.729 S 59.061 90 49.285 90 z M 49.285 56.543 c -8.673 0 -15.729 7.056 -15.729 15.729 S 40.612 88 49.285 88 s 15.729 -7.056 15.729 -15.729 S 57.958 56.543 49.285 56.543 z" style="stroke: none; stroke-width: 1; stroke-dasharray: none; stroke-linecap: butt; stroke-linejoin: miter; stroke-miterlimit: 10; fill: rgb(0,0,0); fill-rule: nonzero; opacity: 1;" transform=" matrix(1 0 0 1 0 0) " stroke-linecap="round" />
	<path d="M 31.433 43.668 c -0.243 0 -0.487 -0.088 -0.679 -0.266 c -0.405 -0.375 -0.43 -1.008 -0.055 -1.413 c 3.347 -3.616 8.09 -5.69 13.014 -5.69 c 4.484 0 8.765 1.679 12.051 4.726 c 0.405 0.375 0.429 1.008 0.054 1.414 c -0.377 0.405 -1.009 0.428 -1.413 0.053 c -2.916 -2.704 -6.713 -4.193 -10.691 -4.193 c -4.369 0 -8.577 1.84 -11.546 5.048 C 31.97 43.56 31.701 43.668 31.433 43.668 z" style="stroke: none; stroke-width: 1; stroke-dasharray: none; stroke-linecap: butt; stroke-linejoin: miter; stroke-miterlimit: 10; fill: rgb(0,0,0); fill-rule: nonzero; opacity: 1;" transform=" matrix(1 0 0 1 0 0) " stroke-linecap="round" />
	<path d="M 72.712 60.771 c -3.675 0 -6.664 -2.989 -6.664 -6.663 c 0 -0.553 0.447 -1 1 -1 s 1 0.447 1 1 c 0 2.571 2.093 4.663 4.664 4.663 s 4.663 -2.092 4.663 -4.663 s -2.092 -4.664 -4.663 -4.664 c -0.553 0 -1 -0.447 -1 -1 s 0.447 -1 1 -1 c 3.674 0 6.663 2.989 6.663 6.664 C 79.375 57.781 76.386 60.771 72.712 60.771 z" style="stroke: none; stroke-width: 1; stroke-dasharray: none; stroke-linecap: butt; stroke-linejoin: miter; stroke-miterlimit: 10; fill: rgb(0,0,0); fill-rule: nonzero; opacity: 1;" transform=" matrix(1 0 0 1 0 0) " stroke-linecap="round" />
	<path d="M 51.567 82.973 c -0.56 0 -1.128 -0.071 -1.694 -0.221 c -3.553 -0.934 -5.684 -4.584 -4.75 -8.138 c 0.14 -0.534 0.688 -0.854 1.221 -0.713 c 0.534 0.14 0.854 0.687 0.713 1.221 c -0.653 2.487 0.839 5.042 3.325 5.696 c 2.488 0.649 5.042 -0.838 5.697 -3.325 c 0.653 -2.486 -0.839 -5.042 -3.326 -5.696 c -0.533 -0.141 -0.853 -0.688 -0.712 -1.222 c 0.142 -0.534 0.689 -0.851 1.222 -0.712 c 3.553 0.935 5.684 4.586 4.75 8.139 C 57.227 80.99 54.521 82.972 51.567 82.973 z" style="stroke: none; stroke-width: 1; stroke-dasharray: none; stroke-linecap: butt; stroke-linejoin: miter; stroke-miterlimit: 10; fill: rgb(0,0,0); fill-rule: nonzero; opacity: 1;" transform=" matrix(1 0 0 1 0 0) " stroke-linecap="round" />
	<path d="M 18.909 66.104 c -0.131 0 -0.263 -0.004 -0.396 -0.012 c -1.777 -0.104 -3.407 -0.893 -4.591 -2.222 c -1.183 -1.33 -1.778 -3.041 -1.675 -4.817 c 0.104 -1.777 0.893 -3.408 2.222 -4.591 c 1.33 -1.185 3.046 -1.777 4.818 -1.675 c 0.551 0.032 0.972 0.505 0.94 1.056 c -0.032 0.552 -0.496 0.97 -1.057 0.94 c -1.247 -0.065 -2.442 0.345 -3.372 1.172 c -0.931 0.828 -1.483 1.97 -1.555 3.213 c -0.073 1.244 0.344 2.441 1.172 3.372 s 1.969 1.483 3.213 1.556 c 1.248 0.064 2.441 -0.345 3.372 -1.172 c 0.93 -0.828 1.482 -1.97 1.555 -3.213 c 0.032 -0.553 0.496 -0.975 1.057 -0.94 c 0.551 0.032 0.972 0.505 0.94 1.056 c -0.104 1.777 -0.893 3.408 -2.222 4.591 C 22.101 65.513 20.543 66.104 18.909 66.104 z" style="stroke: none; stroke-width: 1; stroke-dasharray: none; stroke-linecap: butt; stroke-linejoin: miter; stroke-miterlimit: 10; fill: rgb(0,0,0); fill-rule: nonzero; opacity: 1;" transform=" matrix(1 0 0 1 0 0) " stroke-linecap="round" />
	<path d="M 67.918 70.214 c -0.766 0 -1.539 -0.05 -2.298 -0.147 c -0.548 -0.071 -0.935 -0.572 -0.864 -1.12 c 0.071 -0.548 0.57 -0.922 1.12 -0.864 c 0.675 0.088 1.361 0.132 2.042 0.132 c 8.673 0 15.729 -7.056 15.729 -15.729 c 0 -8.672 -7.056 -15.728 -15.729 -15.728 c -8.672 0 -15.728 7.056 -15.728 15.728 c 0 0.985 0.091 1.97 0.271 2.926 c 0.103 0.543 -0.255 1.065 -0.798 1.167 c -0.541 0.104 -1.065 -0.255 -1.167 -0.798 c -0.203 -1.077 -0.306 -2.187 -0.306 -3.295 c 0 -9.775 7.952 -17.728 17.728 -17.728 s 17.729 7.953 17.729 17.728 S 77.693 70.214 67.918 70.214 z" style="stroke: none; stroke-width: 1; stroke-dasharray: none; stroke-linecap: butt; stroke-linejoin: miter; stroke-miterlimit: 10; fill: rgb(0,0,0); fill-rule: nonzero; opacity: 1;" transform=" matrix(1 0 0 1 0 0) " stroke-linecap="round" />
	<path d="M 37.5 39.494 c -0.354 0 -0.696 -0.188 -0.878 -0.52 c -2.1 -3.836 -3.646 -8.423 -4.469 -13.266 C 30.36 15.165 32.262 5.193 36.999 0.304 c 0.304 -0.313 0.776 -0.394 1.166 -0.198 c 6.086 3.048 11.177 11.83 12.971 22.374 c 0.979 5.757 0.881 11.369 -0.282 16.23 c -0.129 0.538 -0.668 0.87 -1.205 0.74 c -0.537 -0.129 -0.869 -0.668 -0.74 -1.206 c 1.102 -4.601 1.189 -9.936 0.255 -15.429 C 47.567 13.429 43.103 5.31 37.93 2.255 c -3.873 4.593 -5.402 13.732 -3.805 23.118 c 0.787 4.626 2.257 8.997 4.251 12.641 c 0.266 0.484 0.088 1.092 -0.397 1.357 C 37.827 39.454 37.663 39.494 37.5 39.494 z" style="stroke: none; stroke-width: 1; stroke-dasharray: none; stroke-linecap: butt; stroke-linejoin: miter; stroke-miterlimit: 10; fill: rgb(0,0,0); fill-rule: nonzero; opacity: 1;" transform=" matrix(1 0 0 1 0 0) " stroke-linecap="round" />
	<path d="M 65.498 36.933 c -0.246 0 -0.492 -0.09 -0.686 -0.272 c -0.402 -0.378 -0.421 -1.011 -0.043 -1.414 c 0.401 -0.425 0.797 -0.862 1.188 -1.311 c 6.257 -7.175 9.719 -15.77 8.811 -21.708 c -5.99 -0.102 -14.051 4.506 -20.308 11.683 c -1.014 1.162 -1.971 2.378 -2.846 3.615 c -0.318 0.451 -0.94 0.558 -1.394 0.239 c -0.451 -0.318 -0.559 -0.942 -0.239 -1.394 c 0.913 -1.293 1.913 -2.563 2.971 -3.775 c 7.028 -8.061 15.953 -12.898 22.736 -12.324 c 0.436 0.037 0.796 0.352 0.892 0.777 c 1.491 6.642 -2.087 16.142 -9.116 24.202 c -0.408 0.467 -0.821 0.923 -1.238 1.367 C 66.029 36.828 65.764 36.933 65.498 36.933 z" style="stroke: none; stroke-width: 1; stroke-dasharray: none; stroke-linecap: butt; stroke-linejoin: miter; stroke-miterlimit: 10; fill: rgb(0,0,0); fill-rule: nonzero; opacity: 1;" transform=" matrix(1 0 0 1 0 0) " stroke-linecap="round" />
	<path d="M 19.058 41.831 c -0.187 0 -0.376 -0.052 -0.544 -0.162 C 10.493 36.452 5.07 29.425 4.36 23.333 c -0.051 -0.434 0.186 -0.85 0.584 -1.028 c 6.211 -2.785 16.234 -1.169 25.533 4.115 c 1.464 0.832 2.882 1.739 4.216 2.698 c 0.449 0.322 0.551 0.947 0.229 1.396 c -0.321 0.449 -0.948 0.552 -1.396 0.229 c -1.276 -0.917 -2.635 -1.787 -4.037 -2.583 C 21.21 23.455 12.1 21.772 6.46 23.846 c 0.995 5.285 6.06 11.538 13.144 16.146 c 0.463 0.301 0.594 0.921 0.293 1.384 C 19.705 41.671 19.385 41.831 19.058 41.831 z" style="stroke: none; stroke-width: 1; stroke-dasharray: none; stroke-linecap: butt; stroke-linejoin: miter; stroke-miterlimit: 10; fill: rgb(0,0,0); fill-rule: nonzero; opacity: 1;" transform=" matrix(1 0 0 1 0 0) " stroke-linecap="round" />
	<path d="M 22.965 74.824 c -9.775 0 -17.728 -7.952 -17.728 -17.728 s 7.953 -17.729 17.728 -17.729 s 17.729 7.953 17.729 17.729 c 0 0.518 -0.022 1.04 -0.067 1.554 c -0.047 0.55 -0.533 0.964 -1.083 0.909 c -0.55 -0.048 -0.958 -0.532 -0.91 -1.083 c 0.04 -0.454 0.06 -0.915 0.06 -1.38 c 0 -8.673 -7.056 -15.729 -15.729 -15.729 c -8.672 0 -15.728 7.056 -15.728 15.729 c 0 8.672 7.056 15.728 15.728 15.728 c 3.262 0 6.39 -0.989 9.047 -2.86 c 0.451 -0.318 1.076 -0.21 1.393 0.241 c 0.318 0.452 0.21 1.076 -0.242 1.394 C 30.168 73.709 26.641 74.824 22.965 74.824 z" style="stroke: none; stroke-width: 1; stroke-dasharray: none; stroke-linecap: butt; stroke-linejoin: miter; stroke-miterlimit: 10; fill: rgb(0,0,0); fill-rule: nonzero; opacity: 1;" transform=" matrix(1 0 0 1 0 0) " stroke-linecap="round" />
</g>
</g>
</svg>