<svg xmlns="http://www.w3.org/2000/svg" xmlns:xlink="http://www.w3.org/1999/xlink" version="1.1" width="256" height="256" viewBox="0 0 256 256" xml:space="preserve">
<desc>Created with Fabric.js 1.7.22</desc>
<defs>
</defs>
<g transform="translate(128 128) scale(0.72 0.72)" style="">
	<g style="stroke: none; stroke-width: 0; stroke-dasharray: none; stroke-linecap: butt; stroke-linejoin: miter; stroke-miterlimit: 10; fill: none; fill-rule: nonzero; opacity: 1;" transform="translate(-175.05 -175.05000000000004) scale(3.89 3.89)" >
	<path d="M 48.645 1 c 0 24.506 35.481 18.101 35.481 53.19 C 84.126 80.797 66.609 89 45 89 S 5.874 80.797 5.874 54.19 c 0 -35.088 35.481 -28.683 35.481 -53.19 H 48.645 z" style="stroke: none; stroke-width: 1; stroke-dasharray: none; stroke-linecap: butt; stroke-linejoin: miter; stroke-miterlimit: 10; fill: rgb(123,93,255); fill-rule: nonzero; opacity: 1;" transform=" matrix(1 0 0 1 0 0) " stroke-linecap="round" />
	<path d="M 45 90 C 18.374 90 4.874 77.951 4.874 54.189 c 0 -19.659 10.93 -26.719 20.573 -32.948 C 33.446 16.075 40.354 11.612 40.354 1 c 0 -0.552 0.448 -1 1 -1 h 7.291 c 0.553 0 1 0.448 1 1 c 0 10.612 6.908 15.075 14.907 20.242 c 9.644 6.229 20.573 13.289 20.573 32.948 C 85.126 77.951 71.626 90 45 90 z M 42.335 2 c -0.427 10.988 -7.903 15.818 -15.804 20.922 C 16.867 29.165 6.874 35.62 6.874 54.189 C 6.874 76.624 19.701 88 45 88 s 38.126 -11.376 38.126 -33.811 c 0 -18.57 -9.993 -25.025 -19.658 -31.268 C 55.567 17.818 48.092 12.988 47.665 2 H 42.335 z" style="stroke: none; stroke-width: 1; stroke-dasharray: none; stroke-linecap: butt; stroke-linejoin: miter; stroke-miterlimit: 10; fill: rgb(0,0,0); fill-rule: nonzero; opacity: 1;" transform=" matrix(1 0 0 1 0 0) " stroke-linecap="round" />
	<path d="M 21.51 68.938 c -0.348 0 -0.686 -0.182 -0.871 -0.506 c -2.065 -3.635 -3.113 -8.2 -3.113 -13.569 c 0 -13.478 7.474 -18.306 14.068 -22.565 c 0.641 -0.414 1.275 -0.824 1.896 -1.237 c 0.458 -0.307 1.081 -0.183 1.387 0.277 s 0.182 1.081 -0.277 1.387 c -0.629 0.419 -1.271 0.834 -1.92 1.253 c -6.467 4.177 -13.154 8.497 -13.154 20.885 c 0 5.019 0.959 9.251 2.852 12.581 c 0.272 0.48 0.104 1.091 -0.375 1.363 C 21.847 68.896 21.677 68.938 21.51 68.938 z" style="stroke: none; stroke-width: 1; stroke-dasharray: none; stroke-linecap: butt; stroke-linejoin: miter; stroke-miterlimit: 10; fill: rgb(0,0,0); fill-rule: nonzero; opacity: 1;" transform=" matrix(1 0 0 1 0 0) " stroke-linecap="round" />
	<path d="M 35.571 78.477 c -0.072 0 -0.146 -0.008 -0.219 -0.024 c -2.945 -0.657 -5.567 -1.665 -7.792 -2.994 c -0.474 -0.283 -0.628 -0.897 -0.345 -1.371 c 0.284 -0.474 0.896 -0.628 1.372 -0.346 c 2.042 1.22 4.464 2.148 7.201 2.76 c 0.539 0.12 0.878 0.654 0.758 1.193 C 36.442 78.16 36.029 78.477 35.571 78.477 z" style="stroke: none; stroke-width: 1; stroke-dasharray: none; stroke-linecap: butt; stroke-linejoin: miter; stroke-miterlimit: 10; fill: rgb(0,0,0); fill-rule: nonzero; opacity: 1;" transform=" matrix(1 0 0 1 0 0) " stroke-linecap="round" />
</g>
</g>
</svg>