<svg xmlns="http://www.w3.org/2000/svg" xmlns:xlink="http://www.w3.org/1999/xlink" version="1.1" width="256" height="256" viewBox="0 0 256 256" xml:space="preserve">
<desc>Created with Fabric.js 1.7.22</desc>
<defs>
</defs>
<g transform="translate(128 128) scale(0.72 0.72)" style="">
	<g style="stroke: none; stroke-width: 0; stroke-dasharray: none; stroke-linecap: butt; stroke-linejoin: miter; stroke-miterlimit: 10; fill: none; fill-rule: nonzero; opacity: 1;" transform="translate(-175.05 -175.05000000000004) scale(3.89 3.89)" >
	<path d="M 71.45 62.757 c -1.481 -10.352 -8.145 -21.552 -14.264 -20.677 c -3.314 0.474 -5.786 4.396 -7.123 9.533 c -0.689 -0.311 -1.399 -0.483 -2.127 -0.483 c -2.969 0 -5.665 2.779 -7.669 6.822 c -1.097 -6.442 -3.826 -11.737 -7.713 -12.293 c -6.119 -0.875 -12.783 10.324 -14.264 20.677 c -1.481 10.352 2.782 15.937 8.901 16.812 c 3.815 0.546 7.45 -0.87 10.005 -4.52 c 1.357 7.023 5.647 10.373 10.738 10.373 c 4.91 0 9.071 -3.12 10.579 -9.639 c 1.293 0.331 2.65 0.405 4.033 0.207 C 68.667 78.694 72.93 73.109 71.45 62.757 z" style="stroke: none; stroke-width: 1; stroke-dasharray: none; stroke-linecap: butt; stroke-linejoin: miter; stroke-miterlimit: 10; fill: rgb(255,83,104); fill-rule: nonzero; opacity: 1;" transform=" matrix(1 0 0 1 0 0) " stroke-linecap="round" />
	<path d="M 47.936 90.001 c -5.894 0 -12.192 -4.304 -12.192 -16.382 c 0 -11.088 5.214 -23.489 12.192 -23.489 c 6.979 0 12.193 12.401 12.193 23.489 C 60.128 85.697 53.83 90.001 47.936 90.001 z M 47.936 52.13 c -5.048 0 -10.192 10.845 -10.192 21.489 c 0 8.871 3.905 14.382 10.192 14.382 c 6.287 0 10.193 -5.511 10.193 -14.382 C 58.128 62.975 52.985 52.13 47.936 52.13 z" style="stroke: none; stroke-width: 1; stroke-dasharray: none; stroke-linecap: butt; stroke-linejoin: miter; stroke-miterlimit: 10; fill: rgb(0,0,0); fill-rule: nonzero; opacity: 1;" transform=" matrix(1 0 0 1 0 0) " stroke-linecap="round" />
	<path d="M 29.136 84.249 c -0.533 0 -1.075 -0.036 -1.624 -0.11 c -5.841 -0.787 -11.509 -5.893 -9.898 -17.864 c 1.48 -10.988 8.31 -22.578 15.218 -21.651 c 3.995 0.538 7.213 5.295 8.609 12.726 c 0.102 0.543 -0.255 1.065 -0.798 1.167 c -0.545 0.102 -1.065 -0.255 -1.167 -0.798 c -1.21 -6.443 -3.858 -10.701 -6.91 -11.112 c -4.998 -0.67 -11.549 9.387 -12.968 19.936 c -1.184 8.791 1.952 14.775 8.182 15.614 c 3.438 0.466 6.525 -0.863 8.693 -3.734 c 0.333 -0.441 0.958 -0.53 1.401 -0.195 c 0.441 0.332 0.528 0.96 0.196 1.4 C 35.79 82.643 32.662 84.249 29.136 84.249 z" style="stroke: none; stroke-width: 1; stroke-dasharray: none; stroke-linecap: butt; stroke-linejoin: miter; stroke-miterlimit: 10; fill: rgb(0,0,0); fill-rule: nonzero; opacity: 1;" transform=" matrix(1 0 0 1 0 0) " stroke-linecap="round" />
	<path d="M 60.875 80.695 c -0.889 0 -1.758 -0.102 -2.597 -0.306 c -0.537 -0.13 -0.866 -0.671 -0.736 -1.207 c 0.13 -0.537 0.672 -0.868 1.207 -0.736 c 1.1 0.268 2.267 0.321 3.473 0.157 c 6.23 -0.839 9.364 -6.822 8.181 -15.614 c -1.42 -10.549 -7.985 -20.6 -12.967 -19.936 c -2.628 0.354 -5.019 3.65 -6.394 8.819 c -0.142 0.536 -0.696 0.849 -1.224 0.71 c -0.534 -0.143 -0.852 -0.69 -0.71 -1.224 c 1.614 -6.066 4.552 -9.816 8.06 -10.288 c 6.923 -0.93 13.738 10.662 15.217 21.651 c 1.611 11.971 -4.056 17.076 -9.897 17.864 C 61.945 80.659 61.407 80.695 60.875 80.695 z" style="stroke: none; stroke-width: 1; stroke-dasharray: none; stroke-linecap: butt; stroke-linejoin: miter; stroke-miterlimit: 10; fill: rgb(0,0,0); fill-rule: nonzero; opacity: 1;" transform=" matrix(1 0 0 1 0 0) " stroke-linecap="round" />
	<path d="M 47.935 52.13 c -0.521 0 -0.961 -0.404 -0.997 -0.933 c -1.102 -16.21 -6.834 -29.148 -17.034 -38.453 c -0.408 -0.372 -0.437 -1.005 -0.065 -1.413 c 0.373 -0.407 1.004 -0.437 1.413 -0.065 c 10.594 9.664 16.544 23.053 17.683 39.796 c 0.037 0.551 -0.379 1.027 -0.931 1.065 C 47.981 52.129 47.957 52.13 47.935 52.13 z" style="stroke: none; stroke-width: 1; stroke-dasharray: none; stroke-linecap: butt; stroke-linejoin: miter; stroke-miterlimit: 10; fill: rgb(0,0,0); fill-rule: nonzero; opacity: 1;" transform=" matrix(1 0 0 1 0 0) " stroke-linecap="round" />
	<path d="M 32.699 46.615 c -0.088 0 -0.177 -0.012 -0.266 -0.036 c -0.532 -0.146 -0.845 -0.697 -0.698 -1.23 c 2.157 -7.834 2.842 -17.288 2.093 -28.903 c -0.023 -0.369 0.158 -0.721 0.472 -0.915 c 0.315 -0.194 0.711 -0.199 1.03 -0.013 c 11.171 6.517 18.879 15.331 22.91 26.196 c 0.192 0.518 -0.072 1.093 -0.59 1.285 c -0.517 0.191 -1.094 -0.072 -1.285 -0.59 c -3.67 -9.891 -10.539 -18.022 -20.43 -24.191 c 0.571 10.98 -0.174 20.045 -2.272 27.662 C 33.54 46.324 33.138 46.615 32.699 46.615 z" style="stroke: none; stroke-width: 1; stroke-dasharray: none; stroke-linecap: butt; stroke-linejoin: miter; stroke-miterlimit: 10; fill: rgb(0,0,0); fill-rule: nonzero; opacity: 1;" transform=" matrix(1 0 0 1 0 0) " stroke-linecap="round" />
	<path d="M 57.028 1.292 c -0.433 -0.082 -0.863 -0.145 -1.29 -0.192 c -4.965 -0.55 -9.506 1.19 -13.306 4.545 c -0.057 0.05 -0.115 0.096 -0.171 0.147 c -0.759 0.684 -1.487 1.435 -2.184 2.243 c -0.033 0.038 -0.067 0.074 -0.1 0.112 c -0.043 0.05 -0.083 0.103 -0.126 0.154 c -0.326 0.388 -0.643 0.791 -0.954 1.204 c -0.317 0.421 -0.628 0.852 -0.929 1.298 c -0.02 0.029 -0.04 0.057 -0.06 0.086 c -0.332 0.497 -0.651 1.013 -0.962 1.539 c -0.707 1.194 -1.363 2.456 -1.958 3.786 c 11.874 6.285 22.335 -0.585 27.816 -12.852 c -0.371 -0.196 -0.741 -0.38 -1.109 -0.551 c -0.938 -0.435 -1.865 -0.78 -2.782 -1.056 c -0.523 -0.157 -1.043 -0.298 -1.558 -0.405 C 57.246 1.327 57.137 1.313 57.028 1.292 z" style="stroke: none; stroke-width: 1; stroke-dasharray: none; stroke-linecap: butt; stroke-linejoin: miter; stroke-miterlimit: 10; fill: rgb(130,212,101); fill-rule: nonzero; opacity: 1;" transform=" matrix(1 0 0 1 0 0) " stroke-linecap="round" />
	<path d="M 43.88 19.576 c -3.083 0 -6.247 -0.831 -9.359 -2.478 c -0.465 -0.246 -0.66 -0.811 -0.445 -1.292 c 0.597 -1.336 1.273 -2.644 2.01 -3.888 c 0.321 -0.542 0.649 -1.074 0.992 -1.585 c 0 -0.001 0.061 -0.087 0.061 -0.088 c 0.311 -0.461 0.632 -0.906 0.959 -1.341 c 0.322 -0.428 0.651 -0.845 0.988 -1.246 l 0.127 -0.156 c 0.007 -0.008 0.068 -0.077 0.076 -0.085 c 0.764 -0.884 1.528 -1.669 2.302 -2.367 l 0.119 -0.103 c 4.241 -3.741 9.113 -5.396 14.138 -4.84 c 0.451 0.05 0.906 0.117 1.364 0.203 c 0.002 0 0.003 0 0.004 0.001 l 0.344 0.062 c 0.489 0.102 1.026 0.241 1.642 0.426 c 1 0.301 1.981 0.673 2.914 1.106 c 0.385 0.179 0.769 0.37 1.155 0.575 c 0.465 0.246 0.66 0.811 0.445 1.292 c -3.385 7.577 -8.483 12.864 -14.356 14.889 C 47.584 19.271 45.747 19.576 43.88 19.576 z M 40.741 8.792 l -0.126 0.154 c -0.313 0.372 -0.619 0.761 -0.919 1.16 c -0.306 0.407 -0.665 0.906 -0.956 1.338 c -0.322 0.482 -0.631 0.983 -0.933 1.493 c -0.538 0.909 -1.042 1.854 -1.504 2.819 c 4.266 2.04 8.436 2.38 12.407 1.011 c 5.123 -1.766 9.637 -6.347 12.782 -12.947 c -0.073 -0.035 -0.146 -0.069 -0.218 -0.103 c -0.858 -0.398 -1.726 -0.727 -2.648 -1.005 c -0.559 -0.168 -1.041 -0.293 -1.475 -0.384 l -0.308 -0.054 c -0.409 -0.077 -0.813 -0.136 -1.216 -0.181 c -4.454 -0.496 -8.788 0.994 -12.534 4.3 l -0.095 0.082 C 42.218 7.177 41.42 8.005 40.741 8.792 z" style="stroke: none; stroke-width: 1; stroke-dasharray: none; stroke-linecap: butt; stroke-linejoin: miter; stroke-miterlimit: 10; fill: rgb(0,0,0); fill-rule: nonzero; opacity: 1;" transform=" matrix(1 0 0 1 0 0) " stroke-linecap="round" />
	<path d="M 48.936 84.066 c -3.627 0 -7.502 -2.61 -7.502 -9.937 c 0 -0.553 0.448 -1 1 -1 c 0.552 0 1 0.447 1 1 c 0 4.97 2.057 7.937 5.502 7.937 c 0.553 0 1 0.447 1 1 C 49.936 83.619 49.488 84.066 48.936 84.066 z" style="stroke: none; stroke-width: 1; stroke-dasharray: none; stroke-linecap: butt; stroke-linejoin: miter; stroke-miterlimit: 10; fill: rgb(0,0,0); fill-rule: nonzero; opacity: 1;" transform=" matrix(1 0 0 1 0 0) " stroke-linecap="round" />
	<path d="M 29.284 78.474 c -0.046 0 -0.093 -0.003 -0.141 -0.01 c -2.127 -0.299 -3.893 -1.467 -4.97 -3.289 c -1.133 -1.917 -1.505 -4.543 -1.077 -7.594 c 0.077 -0.547 0.58 -0.929 1.129 -0.852 c 0.547 0.077 0.928 0.582 0.851 1.129 c -0.365 2.599 -0.082 4.776 0.818 6.299 c 0.772 1.307 1.992 2.11 3.526 2.326 c 0.547 0.077 0.928 0.582 0.851 1.129 C 30.202 78.113 29.774 78.474 29.284 78.474 z" style="stroke: none; stroke-width: 1; stroke-dasharray: none; stroke-linecap: butt; stroke-linejoin: miter; stroke-miterlimit: 10; fill: rgb(0,0,0); fill-rule: nonzero; opacity: 1;" transform=" matrix(1 0 0 1 0 0) " stroke-linecap="round" />
</g>
</g>
</svg>