<svg xmlns="http://www.w3.org/2000/svg" xmlns:xlink="http://www.w3.org/1999/xlink" version="1.1" width="256" height="256" viewBox="0 0 256 256" xml:space="preserve">
<desc>Created with Fabric.js 1.7.22</desc>
<defs>
</defs>
<g transform="translate(128 128) scale(0.72 0.72)" style="">
	<g style="stroke: none; stroke-width: 0; stroke-dasharray: none; stroke-linecap: butt; stroke-linejoin: miter; stroke-miterlimit: 10; fill: none; fill-rule: nonzero; opacity: 1;" transform="translate(-175.05 -175.05000000000004) scale(3.89 3.89)" >
	<path d="M 64.008 37.966 c 0.027 -1.378 -0.096 -2.794 -0.394 -4.236 c -1.692 -8.186 -8.688 -14.406 -17.02 -15.085 c -11.219 -0.914 -20.606 7.92 -20.606 18.946 c 0 0.108 0.001 0.216 0.003 0.324 c 0.045 2.632 -0.85 5.165 -2.465 7.243 c -4.05 5.21 -6.247 11.93 -5.595 19.177 c 1.185 13.162 11.956 23.689 25.14 24.599 c 15.885 1.096 29.111 -11.465 29.111 -27.116 c 0 -6.336 -2.171 -12.164 -5.806 -16.785 C 64.793 43.02 63.957 40.526 64.008 37.966 z" style="stroke: none; stroke-width: 1; stroke-dasharray: none; stroke-linecap: butt; stroke-linejoin: miter; stroke-miterlimit: 10; fill: rgb(255,240,130); fill-rule: nonzero; opacity: 1;" transform=" matrix(1 0 0 1 0 0) " stroke-linecap="round" />
	<path d="M 49.6 18.152 c 0.322 -0.08 0.635 -0.172 0.942 -0.274 c 3.566 -1.184 6.122 -3.8 7.666 -7.287 c 0.023 -0.052 0.048 -0.102 0.071 -0.155 c 0.304 -0.706 0.566 -1.448 0.788 -2.219 c 0.01 -0.036 0.023 -0.071 0.033 -0.108 c 0.013 -0.048 0.025 -0.097 0.038 -0.145 c 0.101 -0.367 0.191 -0.742 0.274 -1.123 c 0.084 -0.387 0.161 -0.779 0.227 -1.179 c 0.004 -0.026 0.01 -0.051 0.014 -0.077 c 0.071 -0.444 0.127 -0.897 0.174 -1.354 c 0.108 -1.038 0.16 -2.107 0.148 -3.203 c -10.09 -0.564 -15.081 7.418 -14.972 17.524 c 0.315 0.018 0.626 0.027 0.931 0.028 c 0.778 0.003 1.52 -0.053 2.233 -0.152 c 0.407 -0.057 0.807 -0.124 1.192 -0.213 C 49.44 18.196 49.519 18.172 49.6 18.152 z" style="stroke: none; stroke-width: 1; stroke-dasharray: none; stroke-linecap: butt; stroke-linejoin: miter; stroke-miterlimit: 10; fill: rgb(130,212,101); fill-rule: nonzero; opacity: 1;" transform=" matrix(1 0 0 1 0 0) " stroke-linecap="round" />
	<path d="M 45.024 90.001 c -0.671 0 -1.345 -0.023 -2.022 -0.069 C 29.366 88.99 18.159 78.024 16.935 64.425 c -0.646 -7.177 1.415 -14.236 5.801 -19.88 c 1.495 -1.923 2.295 -4.271 2.255 -6.612 l -0.003 -0.341 c 0 -5.573 2.352 -10.937 6.451 -14.717 c 4.158 -3.832 9.567 -5.689 15.236 -5.226 c 8.766 0.714 16.134 7.244 17.918 15.879 c 0.304 1.473 0.443 2.973 0.414 4.458 l 0 0 c -0.046 2.321 0.719 4.604 2.154 6.429 c 3.938 5.006 6.021 11.025 6.021 17.403 c 0 7.782 -3.265 15.294 -8.957 20.606 C 58.948 87.35 52.193 90.001 45.024 90.001 z M 44.983 19.579 c -4.542 0 -8.822 1.664 -12.188 4.766 c -3.69 3.402 -5.807 8.23 -5.807 13.246 l 0.003 0.306 c 0.048 2.796 -0.902 5.593 -2.676 7.875 c -4.075 5.243 -5.989 11.803 -5.388 18.473 c 1.137 12.632 11.546 22.816 24.213 23.69 c 7.353 0.516 14.36 -1.969 19.721 -6.974 c 5.288 -4.937 8.321 -11.914 8.321 -19.145 c 0 -5.926 -1.934 -11.516 -5.593 -16.167 c -1.72 -2.187 -2.637 -4.923 -2.582 -7.705 c 0.026 -1.336 -0.099 -2.687 -0.373 -4.014 c -1.605 -7.771 -8.235 -13.647 -16.121 -14.29 C 46.001 19.6 45.491 19.579 44.983 19.579 z" style="stroke: none; stroke-width: 1; stroke-dasharray: none; stroke-linecap: butt; stroke-linejoin: miter; stroke-miterlimit: 10; fill: rgb(0,0,0); fill-rule: nonzero; opacity: 1;" transform=" matrix(1 0 0 1 0 0) " stroke-linecap="round" />
	<path d="M 31.048 74.187 c -0.305 0 -0.605 -0.139 -0.802 -0.401 c -0.89 -1.19 -1.658 -2.484 -2.282 -3.845 c -3.085 -6.721 -2.39 -14.681 1.814 -20.774 c 0.314 -0.454 0.937 -0.566 1.391 -0.255 c 0.455 0.313 0.569 0.937 0.255 1.392 c -3.806 5.516 -4.436 12.721 -1.644 18.804 c 0.566 1.232 1.261 2.403 2.066 3.481 c 0.331 0.442 0.24 1.069 -0.202 1.399 C 31.466 74.122 31.256 74.187 31.048 74.187 z" style="stroke: none; stroke-width: 1; stroke-dasharray: none; stroke-linecap: butt; stroke-linejoin: miter; stroke-miterlimit: 10; fill: rgb(0,0,0); fill-rule: nonzero; opacity: 1;" transform=" matrix(1 0 0 1 0 0) " stroke-linecap="round" />
	<path d="M 39.405 80.681 c -0.128 0 -0.258 -0.024 -0.383 -0.076 c -1.639 -0.682 -3.188 -1.567 -4.603 -2.633 c -0.441 -0.333 -0.529 -0.96 -0.197 -1.4 c 0.333 -0.441 0.958 -0.529 1.401 -0.197 c 1.28 0.965 2.682 1.767 4.166 2.383 c 0.51 0.212 0.751 0.797 0.54 1.308 C 40.169 80.449 39.797 80.681 39.405 80.681 z" style="stroke: none; stroke-width: 1; stroke-dasharray: none; stroke-linecap: butt; stroke-linejoin: miter; stroke-miterlimit: 10; fill: rgb(0,0,0); fill-rule: nonzero; opacity: 1;" transform=" matrix(1 0 0 1 0 0) " stroke-linecap="round" />
	<path d="M 60.06 8.39 c -0.237 0.822 -0.549 1.712 -0.862 2.441 l -0.058 0.125 c -1.745 3.941 -4.603 6.649 -8.282 7.871 c -0.329 0.109 -0.667 0.208 -1.013 0.294 l -0.26 0.068 c -0.417 0.095 -0.846 0.168 -1.281 0.229 c -0.78 0.109 -1.537 0.162 -2.311 0.162 c -0.347 -0.006 -0.692 -0.01 -1.046 -0.029 c -0.526 -0.029 -0.938 -0.461 -0.944 -0.988 c -0.068 -6.311 1.782 -11.591 5.21 -14.868 C 51.974 1.057 55.71 -0.212 60.03 0.03 c 0.525 0.029 0.938 0.461 0.944 0.988 c 0.012 1.111 -0.04 2.227 -0.154 3.317 c -0.049 0.475 -0.107 0.946 -0.181 1.407 c -0.082 0.499 -0.163 0.908 -0.25 1.312 c -0.087 0.399 -0.183 0.791 -0.287 1.175 C 60.1 8.234 60.061 8.384 60.06 8.39 z M 58.148 7.792 c 0.12 -0.442 0.206 -0.801 0.286 -1.164 c 0.08 -0.369 0.153 -0.745 0.216 -1.127 c 0.081 -0.499 0.134 -0.934 0.181 -1.374 C 58.904 3.426 58.949 2.714 58.967 2 c -3.378 0 -6.191 1.054 -8.373 3.14 c -2.854 2.728 -4.466 7.12 -4.586 12.439 c 0.675 0 1.337 -0.047 2.02 -0.143 c 0.378 -0.053 0.75 -0.115 1.107 -0.197 l 0.22 -0.058 c 0.001 0 0.003 -0.001 0.004 -0.001 c 0.297 -0.074 0.586 -0.158 0.868 -0.252 c 3.131 -1.04 5.641 -3.516 7.133 -6.888 C 57.641 9.388 57.935 8.534 58.148 7.792 z" style="stroke: none; stroke-width: 1; stroke-dasharray: none; stroke-linecap: butt; stroke-linejoin: miter; stroke-miterlimit: 10; fill: rgb(0,0,0); fill-rule: nonzero; opacity: 1;" transform=" matrix(1 0 0 1 0 0) " stroke-linecap="round" />
	<path d="M 44.998 19.58 c -0.003 0 -0.007 0 -0.011 0 c -0.552 -0.006 -0.995 -0.458 -0.989 -1.011 c 0.074 -6.801 -2.234 -12.18 -6.331 -14.76 C 37.2 3.515 37.059 2.897 37.354 2.43 c 0.293 -0.468 0.911 -0.607 1.379 -0.313 c 4.699 2.958 7.347 8.963 7.266 16.474 C 45.992 19.14 45.545 19.58 44.998 19.58 z" style="stroke: none; stroke-width: 1; stroke-dasharray: none; stroke-linecap: butt; stroke-linejoin: miter; stroke-miterlimit: 10; fill: rgb(0,0,0); fill-rule: nonzero; opacity: 1;" transform=" matrix(1 0 0 1 0 0) " stroke-linecap="round" />
</g>
</g>
</svg>