<svg xmlns="http://www.w3.org/2000/svg" xmlns:xlink="http://www.w3.org/1999/xlink" version="1.1" width="256" height="256" viewBox="0 0 256 256" xml:space="preserve">
<desc>Created with Fabric.js 1.7.22</desc>
<defs>
</defs>
<g transform="translate(128 128) scale(0.72 0.72)" style="">
	<g style="stroke: none; stroke-width: 0; stroke-dasharray: none; stroke-linecap: butt; stroke-linejoin: miter; stroke-miterlimit: 10; fill: none; fill-rule: nonzero; opacity: 1;" transform="translate(-175.05 -175.05000000000004) scale(3.89 3.89)" >
	<path d="M 25.844 31.47 c 5.002 0 9.657 1.767 13.555 4.803 c 0.89 -4.14 3.552 -8.224 7.107 -12.281 c -4.536 -0.273 -8.435 0.653 -11.542 3.07 c 0.39 -3.586 1.664 -6.93 3.746 -10.051 c -2.924 0.232 -5.786 1.117 -8.588 2.627 c -0.209 -4.332 -1.992 -9.16 -4.278 -14.146 c -2.286 4.986 -4.069 9.814 -4.278 14.146 c -2.802 -1.509 -5.664 -2.395 -8.588 -2.627 c 2.082 3.121 3.356 6.465 3.746 10.051 c -3.107 -2.417 -7.006 -3.343 -11.542 -3.07 c 3.555 4.056 6.217 8.141 7.107 12.281 C 16.187 33.236 20.843 31.47 25.844 31.47 z" style="stroke: none; stroke-width: 1; stroke-dasharray: none; stroke-linecap: butt; stroke-linejoin: miter; stroke-miterlimit: 10; fill: rgb(130,212,101); fill-rule: nonzero; opacity: 1;" transform=" matrix(1 0 0 1 0 0) " stroke-linecap="round" />
	<path d="M 50.146 54.953 C 47.766 41.537 37.79 31.47 25.844 31.47 c -13.719 0 -24.841 13.279 -24.841 29.66 s 11.122 23.122 24.841 23.122 c 5.502 0 10.587 -1.084 14.703 -3.44 L 50.146 54.953 z" style="stroke: none; stroke-width: 1; stroke-dasharray: none; stroke-linecap: butt; stroke-linejoin: miter; stroke-miterlimit: 10; fill: rgb(255,240,130); fill-rule: nonzero; opacity: 1;" transform=" matrix(1 0 0 1 0 0) " stroke-linecap="round" />
	<path d="M 83.366 32.8 c 10.215 15.234 6.146 35.864 -9.088 46.079 S 38.414 85.025 28.2 69.791 L 83.366 32.8 z" style="stroke: none; stroke-width: 1; stroke-dasharray: none; stroke-linecap: butt; stroke-linejoin: miter; stroke-miterlimit: 10; fill: rgb(130,212,101); fill-rule: nonzero; opacity: 1;" transform=" matrix(1 0 0 1 0 0) " stroke-linecap="round" />
	<path d="M 78.658 35.957 c 8.471 12.634 5.097 29.742 -7.536 38.213 s -29.742 5.097 -38.213 -7.536 L 78.658 35.957 z" style="stroke: none; stroke-width: 1; stroke-dasharray: none; stroke-linecap: butt; stroke-linejoin: miter; stroke-miterlimit: 10; fill: rgb(255,83,104); fill-rule: nonzero; opacity: 1;" transform=" matrix(1 0 0 1 0 0) " stroke-linecap="round" />
	<path d="M 55.854 85.516 c -2.222 0 -4.461 -0.217 -6.69 -0.656 c -8.965 -1.768 -16.705 -6.922 -21.795 -14.512 c -0.147 -0.22 -0.202 -0.49 -0.15 -0.75 c 0.051 -0.261 0.204 -0.489 0.424 -0.637 L 82.81 31.969 c 0.458 -0.309 1.079 -0.185 1.387 0.273 c 5.089 7.589 6.918 16.706 5.15 25.671 c -1.767 8.965 -6.921 16.706 -14.512 21.794 C 69.133 83.532 62.568 85.516 55.854 85.516 z M 29.599 70.057 c 4.79 6.696 11.838 11.24 19.951 12.84 c 8.438 1.664 17.025 -0.058 24.171 -4.848 c 7.146 -4.793 11.998 -12.08 13.663 -20.521 c 1.6 -8.114 0.071 -16.359 -4.304 -23.332 L 29.599 70.057 z" style="stroke: none; stroke-width: 1; stroke-dasharray: none; stroke-linecap: butt; stroke-linejoin: miter; stroke-miterlimit: 10; fill: rgb(0,0,0); fill-rule: nonzero; opacity: 1;" transform=" matrix(1 0 0 1 0 0) " stroke-linecap="round" />
	<path d="M 64.191 64.832 c -0.322 0 -0.639 -0.155 -0.831 -0.443 l -1.611 -2.402 c -0.308 -0.458 -0.186 -1.079 0.273 -1.387 c 0.458 -0.31 1.079 -0.187 1.387 0.273 l 1.611 2.402 c 0.308 0.458 0.186 1.079 -0.273 1.387 C 64.576 64.778 64.382 64.832 64.191 64.832 z" style="stroke: none; stroke-width: 1; stroke-dasharray: none; stroke-linecap: butt; stroke-linejoin: miter; stroke-miterlimit: 10; fill: rgb(0,0,0); fill-rule: nonzero; opacity: 1;" transform=" matrix(1 0 0 1 0 0) " stroke-linecap="round" />
	<path d="M 49.755 65.802 c -0.147 0 -0.298 -0.033 -0.439 -0.103 c -0.496 -0.243 -0.7 -0.843 -0.457 -1.338 l 1.275 -2.597 c 0.243 -0.496 0.842 -0.701 1.338 -0.457 c 0.496 0.243 0.7 0.843 0.457 1.338 l -1.275 2.597 C 50.479 65.597 50.124 65.802 49.755 65.802 z" style="stroke: none; stroke-width: 1; stroke-dasharray: none; stroke-linecap: butt; stroke-linejoin: miter; stroke-miterlimit: 10; fill: rgb(0,0,0); fill-rule: nonzero; opacity: 1;" transform=" matrix(1 0 0 1 0 0) " stroke-linecap="round" />
	<path d="M 57.102 67.251 c -0.521 0 -0.961 -0.404 -0.997 -0.933 l -0.194 -2.887 c -0.037 -0.552 0.38 -1.028 0.931 -1.065 c 0.575 -0.02 1.028 0.38 1.065 0.931 l 0.194 2.887 c 0.037 0.552 -0.38 1.028 -0.931 1.065 C 57.147 67.25 57.124 67.251 57.102 67.251 z" style="stroke: none; stroke-width: 1; stroke-dasharray: none; stroke-linecap: butt; stroke-linejoin: miter; stroke-miterlimit: 10; fill: rgb(0,0,0); fill-rule: nonzero; opacity: 1;" transform=" matrix(1 0 0 1 0 0) " stroke-linecap="round" />
	<path d="M 67.679 52.041 c -0.521 0 -0.961 -0.404 -0.997 -0.933 c -0.037 -0.552 0.38 -1.028 0.931 -1.065 l 2.887 -0.194 c 0.572 -0.013 1.027 0.38 1.065 0.931 c 0.037 0.552 -0.38 1.028 -0.931 1.065 l -2.887 0.194 C 67.724 52.04 67.701 52.041 67.679 52.041 z" style="stroke: none; stroke-width: 1; stroke-dasharray: none; stroke-linecap: butt; stroke-linejoin: miter; stroke-miterlimit: 10; fill: rgb(0,0,0); fill-rule: nonzero; opacity: 1;" transform=" matrix(1 0 0 1 0 0) " stroke-linecap="round" />
	<path d="M 69.117 59.194 c -0.147 0 -0.298 -0.033 -0.439 -0.103 l -2.596 -1.275 c -0.496 -0.243 -0.7 -0.843 -0.457 -1.338 c 0.243 -0.497 0.841 -0.701 1.338 -0.457 l 2.596 1.275 c 0.496 0.243 0.7 0.843 0.457 1.338 C 69.842 58.989 69.486 59.194 69.117 59.194 z" style="stroke: none; stroke-width: 1; stroke-dasharray: none; stroke-linecap: butt; stroke-linejoin: miter; stroke-miterlimit: 10; fill: rgb(0,0,0); fill-rule: nonzero; opacity: 1;" transform=" matrix(1 0 0 1 0 0) " stroke-linecap="round" />
	<path d="M 81.533 45.068 c -0.436 0 -0.838 -0.289 -0.962 -0.73 c -0.347 -1.237 -0.792 -2.458 -1.322 -3.629 c -0.228 -0.503 -0.005 -1.096 0.499 -1.324 c 0.503 -0.227 1.096 -0.004 1.323 0.499 c 0.571 1.263 1.052 2.58 1.426 3.914 c 0.149 0.532 -0.161 1.083 -0.692 1.233 C 81.714 45.056 81.623 45.068 81.533 45.068 z" style="stroke: none; stroke-width: 1; stroke-dasharray: none; stroke-linecap: butt; stroke-linejoin: miter; stroke-miterlimit: 10; fill: rgb(0,0,0); fill-rule: nonzero; opacity: 1;" transform=" matrix(1 0 0 1 0 0) " stroke-linecap="round" />
	<path d="M 55.84 79.043 c -1.802 0 -3.616 -0.177 -5.424 -0.533 c -7.269 -1.433 -13.545 -5.612 -17.672 -11.767 c -0.308 -0.458 -0.185 -1.08 0.273 -1.387 l 44.418 -29.784 c 0.458 -0.309 1.079 -0.185 1.388 0.273 c 0.307 0.459 0.185 1.08 -0.274 1.388 L 34.977 66.45 c 3.825 5.261 9.408 8.833 15.825 10.099 c 6.747 1.332 13.605 -0.046 19.316 -3.875 c 7.856 -5.268 12.184 -14.396 11.293 -23.824 c -0.053 -0.55 0.352 -1.037 0.901 -1.089 c 0.541 -0.07 1.037 0.351 1.089 0.901 c 0.961 10.158 -3.703 19.996 -12.17 25.673 C 66.609 77.434 61.285 79.042 55.84 79.043 z" style="stroke: none; stroke-width: 1; stroke-dasharray: none; stroke-linecap: butt; stroke-linejoin: miter; stroke-miterlimit: 10; fill: rgb(0,0,0); fill-rule: nonzero; opacity: 1;" transform=" matrix(1 0 0 1 0 0) " stroke-linecap="round" />
	<path d="M 39.4 37.273 c -0.219 0 -0.436 -0.072 -0.615 -0.211 c -3.856 -3.005 -8.331 -4.592 -12.94 -4.592 c -4.61 0 -9.085 1.588 -12.941 4.592 c -0.271 0.212 -0.632 0.268 -0.956 0.151 c -0.323 -0.118 -0.563 -0.394 -0.636 -0.73 c -0.763 -3.548 -3.013 -7.418 -6.881 -11.832 c -0.251 -0.287 -0.318 -0.692 -0.171 -1.044 s 0.482 -0.59 0.863 -0.613 c 3.964 -0.243 7.4 0.428 10.246 1.986 c -0.572 -2.573 -1.651 -5.059 -3.222 -7.414 c -0.212 -0.318 -0.224 -0.73 -0.03 -1.061 c 0.193 -0.33 0.555 -0.521 0.941 -0.491 c 2.568 0.204 5.132 0.898 7.641 2.068 c 0.552 -4.51 2.521 -9.264 4.237 -13.007 c 0.163 -0.355 0.518 -0.583 0.909 -0.583 l 0 0 c 0.391 0 0.746 0.228 0.909 0.583 c 1.716 3.744 3.685 8.497 4.237 13.008 c 2.51 -1.17 5.073 -1.865 7.641 -2.069 c 0.387 -0.028 0.748 0.161 0.941 0.491 c 0.194 0.331 0.182 0.743 -0.03 1.061 c -1.571 2.356 -2.651 4.841 -3.222 7.414 c 2.846 -1.557 6.278 -2.226 10.247 -1.986 c 0.381 0.023 0.715 0.261 0.862 0.613 s 0.081 0.757 -0.171 1.044 c -3.868 4.414 -6.119 8.285 -6.881 11.832 c -0.072 0.336 -0.312 0.612 -0.636 0.73 C 39.63 37.253 39.515 37.273 39.4 37.273 z M 25.845 30.47 c 4.583 0 9.034 1.423 12.962 4.129 c 0.931 -3.005 2.771 -6.186 5.58 -9.646 c -3.536 0.095 -6.432 1.05 -8.807 2.898 c -0.318 0.247 -0.751 0.279 -1.101 0.084 c -0.351 -0.195 -0.55 -0.582 -0.507 -0.981 c 0.327 -3.006 1.266 -5.915 2.795 -8.673 c -2.074 0.395 -4.141 1.144 -6.169 2.237 c -0.302 0.163 -0.666 0.16 -0.966 -0.01 c -0.299 -0.169 -0.49 -0.479 -0.507 -0.823 c -0.185 -3.848 -1.711 -8.107 -3.279 -11.739 c -1.568 3.632 -3.094 7.891 -3.279 11.739 c -0.017 0.343 -0.208 0.654 -0.507 0.823 c -0.3 0.169 -0.664 0.172 -0.966 0.01 c -2.028 -1.092 -4.095 -1.841 -6.169 -2.237 c 1.529 2.758 2.468 5.667 2.795 8.673 c 0.043 0.399 -0.156 0.786 -0.507 0.981 c -0.35 0.195 -0.784 0.163 -1.101 -0.084 c -2.375 -1.848 -5.271 -2.804 -8.807 -2.898 c 2.809 3.46 4.65 6.641 5.58 9.646 C 16.81 31.893 21.262 30.47 25.845 30.47 z" style="stroke: none; stroke-width: 1; stroke-dasharray: none; stroke-linecap: butt; stroke-linejoin: miter; stroke-miterlimit: 10; fill: rgb(0,0,0); fill-rule: nonzero; opacity: 1;" transform=" matrix(1 0 0 1 0 0) " stroke-linecap="round" />
	<path d="M 25.845 85.252 c -16.181 0 -25.841 -9.018 -25.841 -24.123 c 0 -16.905 11.592 -30.659 25.841 -30.659 c 12.153 0 22.788 10.223 25.286 24.309 c 0.097 0.544 -0.266 1.062 -0.81 1.159 c -0.551 0.1 -1.062 -0.267 -1.159 -0.81 C 46.833 41.999 37.026 32.47 25.845 32.47 c -13.146 0 -23.841 12.856 -23.841 28.659 c 0 14.059 8.69 22.123 23.841 22.123 c 5.59 0 10.37 -1.113 14.206 -3.308 c 0.479 -0.275 1.089 -0.107 1.365 0.371 c 0.274 0.479 0.108 1.091 -0.372 1.365 C 36.901 84.05 31.788 85.252 25.845 85.252 z" style="stroke: none; stroke-width: 1; stroke-dasharray: none; stroke-linecap: butt; stroke-linejoin: miter; stroke-miterlimit: 10; fill: rgb(0,0,0); fill-rule: nonzero; opacity: 1;" transform=" matrix(1 0 0 1 0 0) " stroke-linecap="round" />
	<path d="M 34.778 62.197 c -0.198 0 -0.397 -0.059 -0.572 -0.181 c -0.885 -0.619 -1.759 -1.246 -2.62 -1.882 c -7.654 -5.646 -14.411 -11.993 -20.082 -18.864 c -0.352 -0.426 -0.291 -1.056 0.134 -1.408 c 0.427 -0.351 1.057 -0.29 1.408 0.134 c 5.568 6.746 12.205 12.979 19.728 18.528 c 0.848 0.626 1.707 1.243 2.579 1.852 c 0.453 0.316 0.563 0.939 0.246 1.392 C 35.404 62.049 35.093 62.197 34.778 62.197 z" style="stroke: none; stroke-width: 1; stroke-dasharray: none; stroke-linecap: butt; stroke-linejoin: miter; stroke-miterlimit: 10; fill: rgb(0,0,0); fill-rule: nonzero; opacity: 1;" transform=" matrix(1 0 0 1 0 0) " stroke-linecap="round" />
	<path d="M 22.198 72.069 c -0.205 0 -0.411 -0.062 -0.589 -0.193 C 15.172 67.169 9.45 61.537 4.602 55.135 c -0.333 -0.44 -0.247 -1.067 0.193 -1.4 c 0.44 -0.334 1.067 -0.247 1.401 0.193 c 4.731 6.246 10.313 11.741 16.592 16.334 c 0.446 0.326 0.543 0.952 0.217 1.398 C 22.81 71.928 22.506 72.069 22.198 72.069 z" style="stroke: none; stroke-width: 1; stroke-dasharray: none; stroke-linecap: butt; stroke-linejoin: miter; stroke-miterlimit: 10; fill: rgb(0,0,0); fill-rule: nonzero; opacity: 1;" transform=" matrix(1 0 0 1 0 0) " stroke-linecap="round" />
	<path d="M 5.4 69.415 c -0.35 0 -0.689 -0.184 -0.872 -0.51 c -0.271 -0.481 -0.1 -1.091 0.381 -1.362 c 1.717 -0.966 3.412 -1.964 5.038 -2.968 c 0.469 -0.291 1.086 -0.146 1.376 0.325 c 0.29 0.47 0.144 1.086 -0.326 1.376 c -1.649 1.018 -3.367 2.031 -5.108 3.011 C 5.735 69.374 5.566 69.415 5.4 69.415 z" style="stroke: none; stroke-width: 1; stroke-dasharray: none; stroke-linecap: butt; stroke-linejoin: miter; stroke-miterlimit: 10; fill: rgb(0,0,0); fill-rule: nonzero; opacity: 1;" transform=" matrix(1 0 0 1 0 0) " stroke-linecap="round" />
	<path d="M 16.911 62.197 c -0.315 0 -0.626 -0.148 -0.82 -0.427 c -0.317 -0.453 -0.207 -1.076 0.246 -1.392 c 8.61 -6.022 16.115 -12.879 22.306 -20.381 c 0.351 -0.424 0.982 -0.486 1.408 -0.134 c 0.426 0.352 0.486 0.981 0.134 1.408 c -6.307 7.641 -13.945 14.62 -22.702 20.746 C 17.309 62.138 17.109 62.197 16.911 62.197 z" style="stroke: none; stroke-width: 1; stroke-dasharray: none; stroke-linecap: butt; stroke-linejoin: miter; stroke-miterlimit: 10; fill: rgb(0,0,0); fill-rule: nonzero; opacity: 1;" transform=" matrix(1 0 0 1 0 0) " stroke-linecap="round" />
	<path d="M 18.249 79.007 c -0.362 0 -0.712 -0.197 -0.89 -0.541 c -0.253 -0.491 -0.061 -1.094 0.43 -1.348 c 1.671 -0.862 3.328 -1.787 4.924 -2.748 c 0.475 -0.284 1.088 -0.131 1.372 0.342 c 0.285 0.474 0.132 1.088 -0.341 1.373 c -1.634 0.982 -3.329 1.928 -5.038 2.81 C 18.56 78.971 18.403 79.007 18.249 79.007 z" style="stroke: none; stroke-width: 1; stroke-dasharray: none; stroke-linecap: butt; stroke-linejoin: miter; stroke-miterlimit: 10; fill: rgb(0,0,0); fill-rule: nonzero; opacity: 1;" transform=" matrix(1 0 0 1 0 0) " stroke-linecap="round" />
</g>
</g>
</svg>