<svg xmlns="http://www.w3.org/2000/svg" xmlns:xlink="http://www.w3.org/1999/xlink" version="1.1" width="256" height="256" viewBox="0 0 256 256" xml:space="preserve">
<desc>Created with Fabric.js 1.7.22</desc>
<defs>
</defs>
<g transform="translate(128 128) scale(0.72 0.72)" style="">
	<g style="stroke: none; stroke-width: 0; stroke-dasharray: none; stroke-linecap: butt; stroke-linejoin: miter; stroke-miterlimit: 10; fill: none; fill-rule: nonzero; opacity: 1;" transform="translate(-175.05 -175.05000000000004) scale(3.89 3.89)" >
	<path d="M 89 23 c 0 24.301 -19.699 44 -44 44 S 1 47.301 1 23 H 89 z" style="stroke: none; stroke-width: 1; stroke-dasharray: none; stroke-linecap: butt; stroke-linejoin: miter; stroke-miterlimit: 10; fill: rgb(130,212,101); fill-rule: nonzero; opacity: 1;" transform=" matrix(1 0 0 1 0 0) " stroke-linecap="round" />
	<path d="M 80.427 23 c 0 19.566 -15.861 35.427 -35.427 35.427 S 9.573 42.566 9.573 23 H 80.427 z" style="stroke: none; stroke-width: 1; stroke-dasharray: none; stroke-linecap: butt; stroke-linejoin: miter; stroke-miterlimit: 10; fill: rgb(255,83,104); fill-rule: nonzero; opacity: 1;" transform=" matrix(1 0 0 1 0 0) " stroke-linecap="round" />
	<path d="M 45 68 C 20.187 68 0 47.813 0 23 c 0 -0.552 0.448 -1 1 -1 h 88 c 0.553 0 1 0.448 1 1 C 90 47.813 69.813 68 45 68 z M 2.011 24 C 2.545 47.25 21.624 66 45 66 s 42.455 -18.75 42.988 -42 H 2.011 z" style="stroke: none; stroke-width: 1; stroke-dasharray: none; stroke-linecap: butt; stroke-linejoin: miter; stroke-miterlimit: 10; fill: rgb(0,0,0); fill-rule: nonzero; opacity: 1;" transform=" matrix(1 0 0 1 0 0) " stroke-linecap="round" />
	<path d="M 45 44 c -0.552 0 -1 -0.448 -1 -1 v -3.833 c 0 -0.552 0.448 -1 1 -1 s 1 0.448 1 1 V 43 C 46 43.552 45.552 44 45 44 z" style="stroke: none; stroke-width: 1; stroke-dasharray: none; stroke-linecap: butt; stroke-linejoin: miter; stroke-miterlimit: 10; fill: rgb(0,0,0); fill-rule: nonzero; opacity: 1;" transform=" matrix(1 0 0 1 0 0) " stroke-linecap="round" />
	<path d="M 28.401 34.416 c -0.346 0 -0.682 -0.179 -0.867 -0.5 c -0.276 -0.479 -0.112 -1.09 0.366 -1.366 l 3.321 -1.917 c 0.479 -0.277 1.089 -0.112 1.366 0.366 c 0.276 0.479 0.112 1.09 -0.366 1.366 L 28.9 34.282 C 28.743 34.373 28.571 34.416 28.401 34.416 z" style="stroke: none; stroke-width: 1; stroke-dasharray: none; stroke-linecap: butt; stroke-linejoin: miter; stroke-miterlimit: 10; fill: rgb(0,0,0); fill-rule: nonzero; opacity: 1;" transform=" matrix(1 0 0 1 0 0) " stroke-linecap="round" />
	<path d="M 35.415 41.432 c -0.169 0 -0.341 -0.043 -0.499 -0.134 c -0.479 -0.276 -0.642 -0.888 -0.366 -1.366 l 1.917 -3.321 c 0.276 -0.479 0.886 -0.643 1.366 -0.366 c 0.479 0.276 0.642 0.888 0.366 1.366 l -1.917 3.321 C 36.097 41.253 35.761 41.432 35.415 41.432 z" style="stroke: none; stroke-width: 1; stroke-dasharray: none; stroke-linecap: butt; stroke-linejoin: miter; stroke-miterlimit: 10; fill: rgb(0,0,0); fill-rule: nonzero; opacity: 1;" transform=" matrix(1 0 0 1 0 0) " stroke-linecap="round" />
	<path d="M 61.599 34.416 c -0.17 0 -0.342 -0.043 -0.499 -0.134 l -3.321 -1.917 c -0.479 -0.276 -0.643 -0.888 -0.366 -1.366 c 0.276 -0.479 0.888 -0.643 1.366 -0.366 L 62.1 32.55 c 0.479 0.276 0.643 0.888 0.366 1.366 C 62.28 34.237 61.944 34.416 61.599 34.416 z" style="stroke: none; stroke-width: 1; stroke-dasharray: none; stroke-linecap: butt; stroke-linejoin: miter; stroke-miterlimit: 10; fill: rgb(0,0,0); fill-rule: nonzero; opacity: 1;" transform=" matrix(1 0 0 1 0 0) " stroke-linecap="round" />
	<path d="M 54.585 41.432 c -0.346 0 -0.682 -0.179 -0.867 -0.5 l -1.917 -3.32 c -0.276 -0.478 -0.112 -1.09 0.366 -1.366 c 0.477 -0.276 1.089 -0.112 1.366 0.366 l 1.917 3.32 c 0.276 0.478 0.112 1.09 -0.366 1.366 C 54.927 41.389 54.755 41.432 54.585 41.432 z" style="stroke: none; stroke-width: 1; stroke-dasharray: none; stroke-linecap: butt; stroke-linejoin: miter; stroke-miterlimit: 10; fill: rgb(0,0,0); fill-rule: nonzero; opacity: 1;" transform=" matrix(1 0 0 1 0 0) " stroke-linecap="round" />
	<path d="M 78.67 35.049 c -0.104 0 -0.208 -0.016 -0.312 -0.05 c -0.525 -0.172 -0.811 -0.737 -0.639 -1.262 c 0.535 -1.631 0.95 -3.319 1.234 -5.018 c 0.091 -0.545 0.607 -0.916 1.151 -0.821 c 0.545 0.091 0.912 0.606 0.821 1.151 c -0.301 1.798 -0.74 3.585 -1.307 5.311 C 79.481 34.781 79.091 35.049 78.67 35.049 z" style="stroke: none; stroke-width: 1; stroke-dasharray: none; stroke-linecap: butt; stroke-linejoin: miter; stroke-miterlimit: 10; fill: rgb(0,0,0); fill-rule: nonzero; opacity: 1;" transform=" matrix(1 0 0 1 0 0) " stroke-linecap="round" />
	<path d="M 45 59.427 C 24.914 59.427 8.573 43.086 8.573 23 c 0 -0.552 0.448 -1 1 -1 h 70.854 c 0.553 0 1 0.448 1 1 s -0.447 1 -1 1 H 10.587 C 11.119 42.522 26.352 57.427 45 57.427 c 12.652 0 24.26 -6.917 30.292 -18.052 c 0.263 -0.485 0.87 -0.667 1.355 -0.403 s 0.666 0.87 0.402 1.355 C 70.668 52.108 58.388 59.427 45 59.427 z" style="stroke: none; stroke-width: 1; stroke-dasharray: none; stroke-linecap: butt; stroke-linejoin: miter; stroke-miterlimit: 10; fill: rgb(0,0,0); fill-rule: nonzero; opacity: 1;" transform=" matrix(1 0 0 1 0 0) " stroke-linecap="round" />
</g>
</g>
</svg>