<svg xmlns="http://www.w3.org/2000/svg" xmlns:xlink="http://www.w3.org/1999/xlink" version="1.1" width="256" height="256" viewBox="0 0 256 256" xml:space="preserve">
<desc>Created with Fabric.js 1.7.22</desc>
<defs>
</defs>
<g transform="translate(128 128) scale(0.72 0.72)" style="">
	<g style="stroke: none; stroke-width: 0; stroke-dasharray: none; stroke-linecap: butt; stroke-linejoin: miter; stroke-miterlimit: 10; fill: none; fill-rule: nonzero; opacity: 1;" transform="translate(-175.05 -175.05000000000004) scale(3.89 3.89)" >
	<path d="M 36.389 38.289 c 0 7.931 -5.885 23.787 -13.144 23.787 S 10.102 46.221 10.102 38.289 s 5.885 -14.361 13.144 -14.361 S 36.389 30.358 36.389 38.289 z" style="stroke: none; stroke-width: 1; stroke-dasharray: none; stroke-linecap: butt; stroke-linejoin: miter; stroke-miterlimit: 10; fill: rgb(84,190,250); fill-rule: nonzero; opacity: 1;" transform=" matrix(1 0 0 1 0 0) " stroke-linecap="round" />
	<path d="M 79.898 28.401 c 0 7.931 -5.885 23.787 -13.144 23.787 S 53.611 36.332 53.611 28.401 S 59.496 14.04 66.755 14.04 S 79.898 20.469 79.898 28.401 z" style="stroke: none; stroke-width: 1; stroke-dasharray: none; stroke-linecap: butt; stroke-linejoin: miter; stroke-miterlimit: 10; fill: rgb(241,98,108); fill-rule: nonzero; opacity: 1;" transform=" matrix(1 0 0 1 0 0) " stroke-linecap="round" />
	<path d="M 23.245 63.077 c -8.029 0 -14.144 -16.521 -14.144 -24.788 c 0 -8.47 6.345 -15.361 14.144 -15.361 s 14.144 6.891 14.144 15.361 C 37.389 46.557 31.274 63.077 23.245 63.077 z M 23.245 24.928 c -6.696 0 -12.144 5.994 -12.144 13.361 c 0 7.503 5.621 22.788 12.144 22.788 c 6.523 0 12.144 -15.284 12.144 -22.788 C 35.389 30.922 29.941 24.928 23.245 24.928 z" style="stroke: none; stroke-width: 1; stroke-dasharray: none; stroke-linecap: butt; stroke-linejoin: miter; stroke-miterlimit: 10; fill: rgb(40,66,104); fill-rule: nonzero; opacity: 1;" transform=" matrix(1 0 0 1 0 0) " stroke-linecap="round" />
	<path d="M 66.755 53.188 c -8.029 0 -14.144 -16.521 -14.144 -24.788 c 0 -8.47 6.345 -15.361 14.144 -15.361 s 14.144 6.891 14.144 15.361 C 80.898 36.668 74.784 53.188 66.755 53.188 z M 66.755 15.04 c -6.696 0 -12.144 5.994 -12.144 13.361 c 0 7.503 5.621 22.788 12.144 22.788 s 12.144 -15.284 12.144 -22.788 C 78.898 21.033 73.451 15.04 66.755 15.04 z" style="stroke: none; stroke-width: 1; stroke-dasharray: none; stroke-linecap: butt; stroke-linejoin: miter; stroke-miterlimit: 10; fill: rgb(40,66,104); fill-rule: nonzero; opacity: 1;" transform=" matrix(1 0 0 1 0 0) " stroke-linecap="round" />
	<path d="M 66.755 90 c -0.553 0 -1 -0.447 -1 -1 V 52.188 c 0 -0.553 0.447 -1 1 -1 s 1 0.447 1 1 V 89 C 67.755 89.553 67.308 90 66.755 90 z" style="stroke: none; stroke-width: 1; stroke-dasharray: none; stroke-linecap: butt; stroke-linejoin: miter; stroke-miterlimit: 10; fill: rgb(40,66,104); fill-rule: nonzero; opacity: 1;" transform=" matrix(1 0 0 1 0 0) " stroke-linecap="round" />
	<path d="M 23.245 90 c -0.552 0 -1 -0.447 -1 -1 V 62.077 c 0 -0.553 0.448 -1 1 -1 s 1 0.447 1 1 V 89 C 24.245 89.553 23.797 90 23.245 90 z" style="stroke: none; stroke-width: 1; stroke-dasharray: none; stroke-linecap: butt; stroke-linejoin: miter; stroke-miterlimit: 10; fill: rgb(40,66,104); fill-rule: nonzero; opacity: 1;" transform=" matrix(1 0 0 1 0 0) " stroke-linecap="round" />
	<path d="M 64.614 14.691 c -0.191 -0.221 -0.425 -0.408 -0.69 -0.558 c -0.102 -0.058 -0.208 -0.109 -0.319 -0.153 c -0.194 -0.077 -0.398 -0.14 -0.62 -0.172 L 53.6 12.444 c -0.869 -0.126 -1.621 -0.672 -2.009 -1.46 L 47.393 2.48 c -0.11 -0.222 -0.249 -0.41 -0.399 -0.582 c -0.041 -0.047 -0.083 -0.089 -0.126 -0.132 c -0.134 -0.133 -0.278 -0.251 -0.433 -0.349 c -0.031 -0.02 -0.059 -0.045 -0.09 -0.063 c -0.183 -0.106 -0.377 -0.184 -0.577 -0.243 c -0.058 -0.017 -0.116 -0.027 -0.175 -0.04 c -0.156 -0.035 -0.314 -0.055 -0.473 -0.062 C 45.06 1.006 45.002 0.999 44.942 1 c -0.201 0.004 -0.401 0.03 -0.597 0.079 c -0.058 0.014 -0.111 0.038 -0.168 0.056 c -0.088 0.028 -0.178 0.05 -0.263 0.087 c 0.003 0.006 0.006 0.013 0.009 0.019 c -0.538 0.236 -1.018 0.634 -1.316 1.239 l -4.197 8.504 c -0.389 0.788 -1.14 1.334 -2.009 1.46 l -9.385 1.364 c -2.189 0.318 -3.063 3.008 -1.479 4.552 l 6.791 6.62 c 0.629 0.613 0.916 1.496 0.767 2.362 l -1.603 9.347 c -0.374 2.18 1.914 3.842 3.872 2.813 l 8.394 -4.413 c 0.777 -0.409 1.706 -0.409 2.484 0 l 8.394 4.413 c 1.958 1.029 4.246 -0.633 3.872 -2.813 l -1.603 -9.347 c -0.111 -0.649 0.022 -1.308 0.361 -1.856 c 0.113 -0.183 0.249 -0.353 0.406 -0.506 l 6.791 -6.62 c 0.495 -0.482 0.75 -1.077 0.8 -1.676 C 65.323 15.964 65.086 15.238 64.614 14.691 z" style="stroke: none; stroke-width: 1; stroke-dasharray: none; stroke-linecap: butt; stroke-linejoin: miter; stroke-miterlimit: 10; fill: rgb(249,212,56); fill-rule: nonzero; opacity: 1;" transform=" matrix(1 0 0 1 0 0) " stroke-linecap="round" />
	<path d="M 55.881 40.813 c -0.583 0 -1.169 -0.14 -1.71 -0.425 l -8.394 -4.414 c -0.486 -0.256 -1.066 -0.256 -1.553 0 l -8.395 4.414 c -1.245 0.654 -2.726 0.547 -3.864 -0.28 c -1.138 -0.827 -1.697 -2.202 -1.459 -3.588 l 1.603 -9.347 c 0.093 -0.542 -0.086 -1.094 -0.479 -1.478 l -6.791 -6.619 c -1.007 -0.982 -1.363 -2.423 -0.928 -3.761 c 0.435 -1.338 1.569 -2.294 2.961 -2.497 l 9.385 -1.364 c 0.543 -0.079 1.013 -0.42 1.256 -0.913 l 4.198 -8.504 c 0.218 -0.443 0.52 -0.828 0.891 -1.142 l -0.071 -0.132 l 0.979 -0.457 c 0.1 -0.044 0.202 -0.077 0.306 -0.108 c 0.152 -0.051 0.216 -0.073 0.283 -0.09 C 44.366 0.042 44.641 0.006 44.92 0 c 0.072 -0.001 0.142 0.002 0.21 0.007 c 0.25 0.011 0.465 0.039 0.679 0.086 c 0.108 0.023 0.174 0.038 0.24 0.058 c 0.293 0.086 0.553 0.196 0.796 0.336 l 0.152 0.102 c 0.184 0.116 0.387 0.279 0.576 0.467 c 0.058 0.056 0.118 0.12 0.177 0.188 c 0.226 0.256 0.403 0.518 0.539 0.793 l 4.197 8.504 c 0.243 0.492 0.713 0.833 1.257 0.913 l 9.385 1.364 c 0.282 0.041 0.56 0.118 0.85 0.233 c 0.151 0.061 0.299 0.131 0.439 0.211 c 0.369 0.209 0.69 0.469 0.953 0.773 l 0.001 0.001 c 0.646 0.75 0.971 1.744 0.89 2.729 c -0.074 0.882 -0.454 1.681 -1.099 2.31 l -6.791 6.62 c -0.097 0.094 -0.183 0.201 -0.255 0.317 c -0.214 0.346 -0.294 0.758 -0.226 1.16 l 1.603 9.347 c 0.238 1.386 -0.321 2.761 -1.459 3.588 C 57.392 40.575 56.639 40.813 55.881 40.813 z M 45 33.782 c 0.586 0 1.173 0.141 1.707 0.421 l 8.395 4.414 c 0.572 0.302 1.232 0.254 1.757 -0.127 c 0.525 -0.381 0.773 -0.992 0.664 -1.632 l -1.603 -9.347 c -0.151 -0.883 0.024 -1.79 0.496 -2.551 c 0.158 -0.254 0.346 -0.488 0.559 -0.696 l 6.791 -6.62 c 0.296 -0.288 0.469 -0.648 0.502 -1.042 c 0.037 -0.453 -0.112 -0.911 -0.41 -1.257 c -0.113 -0.13 -0.257 -0.245 -0.427 -0.341 c -0.063 -0.036 -0.128 -0.067 -0.197 -0.094 c -0.142 -0.057 -0.27 -0.093 -0.393 -0.111 l -9.385 -1.364 c -1.196 -0.174 -2.229 -0.924 -2.763 -2.007 l -4.197 -8.504 c -0.059 -0.117 -0.139 -0.233 -0.254 -0.365 l -0.081 -0.083 c -0.085 -0.085 -0.173 -0.156 -0.261 -0.212 l -0.102 -0.071 c -0.058 -0.031 -0.176 -0.081 -0.315 -0.122 l -0.111 -0.024 c -0.096 -0.021 -0.195 -0.034 -0.297 -0.039 l -0.019 -0.19 l -0.103 0.047 L 44.952 2 c -0.119 0.002 -0.245 0.019 -0.364 0.049 l -0.263 0.108 c -0.375 0.165 -0.651 0.422 -0.821 0.765 l -4.198 8.504 c -0.534 1.083 -1.566 1.833 -2.762 2.007 l -9.386 1.364 c -0.642 0.093 -1.146 0.518 -1.347 1.135 c -0.201 0.618 -0.043 1.257 0.422 1.711 l 6.791 6.619 c 0.865 0.844 1.26 2.058 1.055 3.248 l -1.603 9.347 c -0.11 0.64 0.138 1.25 0.664 1.632 c 0.526 0.382 1.183 0.431 1.757 0.127 l 8.395 -4.414 C 43.827 33.923 44.414 33.782 45 33.782 z M 44.974 1.131 l 0.021 0.044 L 44.977 1 L 44.974 1.131 z" style="stroke: none; stroke-width: 1; stroke-dasharray: none; stroke-linecap: butt; stroke-linejoin: miter; stroke-miterlimit: 10; fill: rgb(40,66,104); fill-rule: nonzero; opacity: 1;" transform=" matrix(1 0 0 1 0 0) " stroke-linecap="round" />
	<path d="M 45 90 c -0.552 0 -1 -0.447 -1 -1 V 34.783 c 0 -0.552 0.448 -1 1 -1 s 1 0.448 1 1 V 89 C 46 89.553 45.552 90 45 90 z" style="stroke: none; stroke-width: 1; stroke-dasharray: none; stroke-linecap: butt; stroke-linejoin: miter; stroke-miterlimit: 10; fill: rgb(40,66,104); fill-rule: nonzero; opacity: 1;" transform=" matrix(1 0 0 1 0 0) " stroke-linecap="round" />
</g>
</g>
</svg>