<svg xmlns="http://www.w3.org/2000/svg" xmlns:xlink="http://www.w3.org/1999/xlink" version="1.1" width="256" height="256" viewBox="0 0 256 256" xml:space="preserve">
<desc>Created with Fabric.js 1.7.22</desc>
<defs>
</defs>
<g transform="translate(128 128) scale(0.72 0.72)" style="">
	<g style="stroke: none; stroke-width: 0; stroke-dasharray: none; stroke-linecap: butt; stroke-linejoin: miter; stroke-miterlimit: 10; fill: none; fill-rule: nonzero; opacity: 1;" transform="translate(-175.05 -175.05000000000004) scale(3.89 3.89)" >
	<circle cx="45" cy="78.68" r="10.32" style="stroke: none; stroke-width: 1; stroke-dasharray: none; stroke-linecap: butt; stroke-linejoin: miter; stroke-miterlimit: 10; fill: rgb(249,212,56); fill-rule: nonzero; opacity: 1;" transform="  matrix(1 0 0 1 0 0) "/>
	<path d="M 45 90 c -6.242 0 -11.32 -5.078 -11.32 -11.319 c 0 -6.242 5.078 -11.32 11.32 -11.32 c 6.241 0 11.319 5.078 11.319 11.32 C 56.319 84.922 51.241 90 45 90 z M 45 69.36 c -5.139 0 -9.32 4.181 -9.32 9.32 C 35.68 83.819 39.861 88 45 88 c 5.139 0 9.319 -4.181 9.319 -9.319 C 54.319 73.541 50.139 69.36 45 69.36 z" style="stroke: none; stroke-width: 1; stroke-dasharray: none; stroke-linecap: butt; stroke-linejoin: miter; stroke-miterlimit: 10; fill: rgb(40,66,104); fill-rule: nonzero; opacity: 1;" transform=" matrix(1 0 0 1 0 0) " stroke-linecap="round" />
	<path d="M 79.609 72.892 c -0.773 -0.512 -1.685 -0.993 -2.767 -1.462 c -1.741 -0.793 -2.95 -2.842 -3.815 -5.579 c 0 0 0 0 0 0 c 0 0 0.001 0 0.001 0 c -0.631 -1.997 -1.078 -4.361 -1.414 -6.871 c 0 0 0 0 0 0 c -0.467 -3.492 -0.719 -7.267 -0.949 -10.728 c -0.159 -2.361 -0.306 -4.591 -0.517 -6.667 c -1.651 -10.929 -6.932 -17.987 -15.698 -20.988 c -1.492 -3.86 -5.286 -6.504 -9.449 -6.504 s -7.958 2.643 -9.45 6.504 c -8.766 3.001 -14.046 10.06 -15.706 21.05 c -0.203 2.014 -0.352 4.244 -0.509 6.605 c -0.236 3.542 -0.494 7.412 -0.982 10.971 l 0 0 c 0 0 0 0 0 0 c -0.291 2.128 -0.665 4.144 -1.165 5.913 c 0 0 0 0 0.001 0 c -0.873 3.091 -2.131 5.428 -4.011 6.284 c -1.102 0.478 -2.014 0.959 -2.786 1.471 c -1.102 0.729 -1.588 2.068 -1.207 3.334 c 0.381 1.266 1.526 2.118 2.849 2.118 h 65.933 c 1.323 0 2.468 -0.852 2.849 -2.118 C 81.196 74.961 80.711 73.622 79.609 72.892 z" style="stroke: none; stroke-width: 1; stroke-dasharray: none; stroke-linecap: butt; stroke-linejoin: miter; stroke-miterlimit: 10; fill: rgb(249,212,56); fill-rule: nonzero; opacity: 1;" transform=" matrix(1 0 0 1 0 0) " stroke-linecap="round" />
	<path d="M 77.966 79.344 H 12.033 c -1.768 0 -3.298 -1.138 -3.807 -2.83 c -0.508 -1.691 0.141 -3.481 1.614 -4.455 c 0.814 -0.541 1.776 -1.05 2.939 -1.555 c 1.408 -0.642 2.573 -2.541 3.448 -5.639 c 0.451 -1.598 0.822 -3.487 1.136 -5.777 c 0.484 -3.535 0.745 -7.449 0.975 -10.902 c 0.157 -2.363 0.306 -4.596 0.511 -6.639 c 1.695 -11.234 7.057 -18.532 15.947 -21.745 c 1.76 -4.031 5.802 -6.708 10.205 -6.708 s 8.444 2.677 10.203 6.708 c 8.889 3.213 14.249 10.489 15.934 21.634 c 0.213 2.087 0.358 4.262 0.513 6.565 l 0.013 0.185 c 0.225 3.371 0.479 7.193 0.942 10.662 c 0.367 2.739 0.818 4.932 1.377 6.703 c 0.852 2.695 1.953 4.367 3.275 4.97 c 1.129 0.489 2.085 0.995 2.903 1.538 l 0 0 c 1.474 0.974 2.122 2.765 1.613 4.455 C 81.264 78.206 79.734 79.344 77.966 79.344 z M 45 15.093 c -3.738 0 -7.162 2.356 -8.518 5.864 l -0.168 0.435 l -0.441 0.151 c -8.384 2.871 -13.444 9.685 -15.041 20.253 c -0.196 1.96 -0.344 4.176 -0.5 6.522 c -0.232 3.485 -0.495 7.437 -0.988 11.041 c -0.327 2.384 -0.717 4.362 -1.193 6.049 c -1.056 3.742 -2.547 6.007 -4.559 6.923 c -1.07 0.465 -1.931 0.918 -2.647 1.395 c -0.733 0.484 -1.055 1.373 -0.803 2.212 c 0.253 0.841 1.013 1.406 1.892 1.406 h 65.933 c 0.879 0 1.639 -0.565 1.892 -1.406 c 0.253 -0.839 -0.068 -1.728 -0.801 -2.211 l -0.001 -0.001 c -0.72 -0.478 -1.573 -0.928 -2.611 -1.377 c -1.902 -0.867 -3.326 -2.891 -4.37 -6.195 c -0.595 -1.885 -1.069 -4.187 -1.451 -7.04 c -0.474 -3.535 -0.73 -7.393 -0.957 -10.795 l -0.012 -0.184 c -0.153 -2.286 -0.298 -4.444 -0.502 -6.449 c -1.584 -10.479 -6.643 -17.272 -15.027 -20.143 l -0.44 -0.151 l -0.168 -0.435 C 52.16 17.45 48.738 15.093 45 15.093 z" style="stroke: none; stroke-width: 1; stroke-dasharray: none; stroke-linecap: butt; stroke-linejoin: miter; stroke-miterlimit: 10; fill: rgb(40,66,104); fill-rule: nonzero; opacity: 1;" transform=" matrix(1 0 0 1 0 0) " stroke-linecap="round" />
	<path d="M 42.354 13.496 c -9.763 -0.419 -19.172 6.376 -26.84 18.372 c 4.729 -1.723 8.518 -2.358 10.759 -1.205 c -1.009 3.299 0.058 7.671 2.45 12.732 c 5.311 -12.432 10.511 -21.46 15.467 -23.128 L 42.354 13.496 z" style="stroke: none; stroke-width: 1; stroke-dasharray: none; stroke-linecap: butt; stroke-linejoin: miter; stroke-miterlimit: 10; fill: rgb(204,70,80); fill-rule: nonzero; opacity: 1;" transform=" matrix(1 0 0 1 0 0) " stroke-linecap="round" />
	<path d="M 48.157 19.868 c 7.141 1.352 6.385 16.129 12.144 22.691 l 4.174 -7.85 c 2.75 2.585 6.04 4.073 10.011 4.175 c -8.5 -9.126 -11.008 -26.418 -26.699 -25.967 L 48.157 19.868 z" style="stroke: none; stroke-width: 1; stroke-dasharray: none; stroke-linecap: butt; stroke-linejoin: miter; stroke-miterlimit: 10; fill: rgb(204,70,80); fill-rule: nonzero; opacity: 1;" transform=" matrix(1 0 0 1 0 0) " stroke-linecap="round" />
	<path d="M 25.984 1 c -4.166 4.744 -6.832 9.924 -6.133 16.082 c 5.31 4.016 14.666 3.768 24.339 3.185 l -1.805 -6.773 C 38.021 6.854 32.404 3.026 25.984 1 z" style="stroke: none; stroke-width: 1; stroke-dasharray: none; stroke-linecap: butt; stroke-linejoin: miter; stroke-miterlimit: 10; fill: rgb(241,98,108); fill-rule: nonzero; opacity: 1;" transform=" matrix(1 0 0 1 0 0) " stroke-linecap="round" />
	<path d="M 64.026 1 c 4.166 4.744 6.832 9.924 6.133 16.082 c -5.31 4.016 -14.666 3.768 -24.339 3.185 l 1.805 -6.773 C 51.99 6.854 57.607 3.026 64.026 1 z" style="stroke: none; stroke-width: 1; stroke-dasharray: none; stroke-linecap: butt; stroke-linejoin: miter; stroke-miterlimit: 10; fill: rgb(241,98,108); fill-rule: nonzero; opacity: 1;" transform=" matrix(1 0 0 1 0 0) " stroke-linecap="round" />
	<path d="M 49.262 21.945 h -5.208 c -1.64 0 -2.969 -1.329 -2.969 -2.969 v -5.208 c 0 -1.64 1.329 -2.969 2.969 -2.969 h 5.208 c 1.64 0 2.969 1.329 2.969 2.969 v 5.208 C 52.231 20.615 50.901 21.945 49.262 21.945 z" style="stroke: none; stroke-width: 1; stroke-dasharray: none; stroke-linecap: butt; stroke-linejoin: miter; stroke-miterlimit: 10; fill: rgb(204,70,80); fill-rule: nonzero; opacity: 1;" transform=" matrix(1 0 0 1 0 0) " stroke-linecap="round" />
	<path d="M 42.354 13.496 c -9.763 -0.419 -19.172 6.376 -26.84 18.372 c 4.729 -1.723 8.518 -2.358 10.759 -1.205 c -1.009 3.299 0.058 7.671 2.45 12.732 c 5.311 -12.432 10.511 -21.46 15.467 -23.128 L 42.354 13.496 z" style="stroke: none; stroke-width: 1; stroke-dasharray: none; stroke-linecap: butt; stroke-linejoin: miter; stroke-miterlimit: 10; fill: rgb(204,70,80); fill-rule: nonzero; opacity: 1;" transform=" matrix(1 0 0 1 0 0) " stroke-linecap="round" />
	<path d="M 28.723 44.396 c -0.386 0 -0.739 -0.223 -0.904 -0.573 c -2.465 -5.215 -3.363 -9.333 -2.729 -12.547 c -1.903 -0.521 -5.004 -0.008 -9.234 1.533 c -0.402 0.146 -0.854 0.021 -1.123 -0.314 c -0.268 -0.334 -0.293 -0.803 -0.063 -1.164 c 8.032 -12.566 17.851 -19.268 27.726 -18.833 c 0.435 0.019 0.808 0.317 0.922 0.737 l 1.836 6.771 c 0.138 0.511 -0.145 1.041 -0.646 1.209 c -4.104 1.382 -8.967 8.766 -14.866 22.574 c -0.154 0.362 -0.507 0.599 -0.9 0.607 C 28.736 44.396 28.73 44.396 28.723 44.396 z M 23.413 29.074 c 1.316 0 2.412 0.234 3.317 0.701 c 0.43 0.221 0.64 0.719 0.499 1.182 c -0.75 2.452 -0.265 5.72 1.483 9.952 c 5.438 -12.34 10.023 -19.157 14.282 -21.228 l -1.411 -5.202 c -0.022 0 -0.043 0 -0.065 0 c -8.215 0 -16.481 5.462 -23.554 15.528 C 20.101 29.383 21.902 29.074 23.413 29.074 z" style="stroke: none; stroke-width: 1; stroke-dasharray: none; stroke-linecap: butt; stroke-linejoin: miter; stroke-miterlimit: 10; fill: rgb(40,66,104); fill-rule: nonzero; opacity: 1;" transform=" matrix(1 0 0 1 0 0) " stroke-linecap="round" />
	<path d="M 48.157 19.868 c 7.141 1.352 6.385 16.129 12.144 22.691 l 4.174 -7.85 c 2.75 2.585 6.04 4.073 10.011 4.175 c -8.5 -9.126 -11.008 -26.418 -26.699 -25.967 L 48.157 19.868 z" style="stroke: none; stroke-width: 1; stroke-dasharray: none; stroke-linecap: butt; stroke-linejoin: miter; stroke-miterlimit: 10; fill: rgb(204,70,80); fill-rule: nonzero; opacity: 1;" transform=" matrix(1 0 0 1 0 0) " stroke-linecap="round" />
	<path d="M 60.301 43.559 c -0.286 0 -0.561 -0.123 -0.752 -0.34 c -2.621 -2.987 -3.916 -7.405 -5.168 -11.677 c -1.513 -5.16 -2.94 -10.035 -6.41 -10.691 c -0.453 -0.085 -0.789 -0.469 -0.813 -0.929 l -0.369 -6.951 c -0.014 -0.269 0.081 -0.533 0.264 -0.731 s 0.438 -0.314 0.707 -0.322 c 0.213 -0.006 0.425 -0.009 0.635 -0.009 c 10.916 0 15.604 8.276 20.141 16.285 c 2.015 3.556 4.098 7.233 6.684 10.009 c 0.274 0.295 0.346 0.725 0.181 1.092 c -0.166 0.367 -0.555 0.607 -0.938 0.589 c -3.626 -0.093 -6.882 -1.3 -9.695 -3.591 l -3.582 6.736 c -0.154 0.29 -0.441 0.486 -0.768 0.523 C 60.378 43.557 60.339 43.559 60.301 43.559 z M 49.116 19.082 c 4.082 1.313 5.592 6.463 7.184 11.897 c 1.027 3.503 2.084 7.109 3.848 9.738 l 3.444 -6.477 c 0.146 -0.275 0.412 -0.466 0.72 -0.518 c 0.307 -0.05 0.62 0.044 0.848 0.258 c 2.078 1.953 4.372 3.159 6.96 3.652 c -1.996 -2.579 -3.683 -5.556 -5.324 -8.454 c -4.377 -7.725 -8.519 -15.036 -17.953 -15.265 L 49.116 19.082 z" style="stroke: none; stroke-width: 1; stroke-dasharray: none; stroke-linecap: butt; stroke-linejoin: miter; stroke-miterlimit: 10; fill: rgb(40,66,104); fill-rule: nonzero; opacity: 1;" transform=" matrix(1 0 0 1 0 0) " stroke-linecap="round" />
	<path d="M 25.984 1 c -4.166 4.744 -6.832 9.924 -6.133 16.082 c 5.31 4.016 14.666 3.768 24.339 3.185 l -1.805 -6.773 C 38.021 6.854 32.404 3.026 25.984 1 z" style="stroke: none; stroke-width: 1; stroke-dasharray: none; stroke-linecap: butt; stroke-linejoin: miter; stroke-miterlimit: 10; fill: rgb(241,98,108); fill-rule: nonzero; opacity: 1;" transform=" matrix(1 0 0 1 0 0) " stroke-linecap="round" />
	<path d="M 35.469 21.591 c -6.56 0 -12.349 -0.784 -16.22 -3.711 c -0.219 -0.165 -0.36 -0.413 -0.391 -0.685 C 18.2 11.398 20.225 6.042 25.233 0.34 c 0.262 -0.299 0.676 -0.414 1.052 -0.294 c 7.182 2.266 12.721 6.486 16.936 12.899 c 0.059 0.09 0.103 0.188 0.13 0.292 l 1.805 6.772 c 0.077 0.29 0.02 0.599 -0.155 0.842 c -0.176 0.244 -0.451 0.395 -0.751 0.413 C 41.242 21.446 38.284 21.591 35.469 21.591 z M 20.802 16.536 c 4.836 3.36 13.158 3.312 22.107 2.805 l -1.448 -5.431 C 37.644 8.158 32.68 4.307 26.306 2.157 C 22.134 7.071 20.376 11.665 20.802 16.536 z" style="stroke: none; stroke-width: 1; stroke-dasharray: none; stroke-linecap: butt; stroke-linejoin: miter; stroke-miterlimit: 10; fill: rgb(40,66,104); fill-rule: nonzero; opacity: 1;" transform=" matrix(1 0 0 1 0 0) " stroke-linecap="round" />
	<path d="M 64.026 1 c 4.166 4.744 6.832 9.924 6.133 16.082 c -5.31 4.016 -14.666 3.768 -24.339 3.185 l 1.805 -6.773 C 51.99 6.854 57.607 3.026 64.026 1 z" style="stroke: none; stroke-width: 1; stroke-dasharray: none; stroke-linecap: butt; stroke-linejoin: miter; stroke-miterlimit: 10; fill: rgb(241,98,108); fill-rule: nonzero; opacity: 1;" transform=" matrix(1 0 0 1 0 0) " stroke-linecap="round" />
	<path d="M 54.543 21.591 c -2.816 0 -5.773 -0.145 -8.782 -0.326 c -0.3 -0.018 -0.575 -0.169 -0.751 -0.413 c -0.175 -0.243 -0.232 -0.553 -0.155 -0.842 l 1.806 -6.772 c 0.027 -0.104 0.071 -0.202 0.13 -0.292 c 4.215 -6.413 9.754 -10.632 16.936 -12.899 c 0.376 -0.12 0.791 -0.004 1.052 0.294 c 5.008 5.702 7.033 11.057 6.375 16.854 c -0.03 0.272 -0.172 0.52 -0.39 0.685 C 66.891 20.807 61.101 21.591 54.543 21.591 z M 47.102 19.34 c 8.951 0.506 17.271 0.554 22.106 -2.805 c 0.426 -4.871 -1.333 -9.465 -5.505 -14.379 C 57.331 4.307 52.367 8.158 48.55 13.91 L 47.102 19.34 z" style="stroke: none; stroke-width: 1; stroke-dasharray: none; stroke-linecap: butt; stroke-linejoin: miter; stroke-miterlimit: 10; fill: rgb(40,66,104); fill-rule: nonzero; opacity: 1;" transform=" matrix(1 0 0 1 0 0) " stroke-linecap="round" />
	<path d="M 49.262 21.945 h -5.208 c -1.64 0 -2.969 -1.329 -2.969 -2.969 v -5.208 c 0 -1.64 1.329 -2.969 2.969 -2.969 h 5.208 c 1.64 0 2.969 1.329 2.969 2.969 v 5.208 C 52.231 20.615 50.901 21.945 49.262 21.945 z" style="stroke: none; stroke-width: 1; stroke-dasharray: none; stroke-linecap: butt; stroke-linejoin: miter; stroke-miterlimit: 10; fill: rgb(204,70,80); fill-rule: nonzero; opacity: 1;" transform=" matrix(1 0 0 1 0 0) " stroke-linecap="round" />
	<path d="M 49.262 22.945 h -5.208 c -2.189 0 -3.97 -1.781 -3.97 -3.97 v -5.208 c 0 -2.188 1.781 -3.969 3.97 -3.969 h 5.208 c 2.188 0 3.97 1.781 3.97 3.969 v 5.208 C 53.231 21.164 51.45 22.945 49.262 22.945 z M 44.054 11.798 c -1.086 0 -1.97 0.883 -1.97 1.969 v 5.208 c 0 1.086 0.884 1.97 1.97 1.97 h 5.208 c 1.086 0 1.97 -0.884 1.97 -1.97 v -5.208 c 0 -1.086 -0.884 -1.969 -1.97 -1.969 H 44.054 z" style="stroke: none; stroke-width: 1; stroke-dasharray: none; stroke-linecap: butt; stroke-linejoin: miter; stroke-miterlimit: 10; fill: rgb(40,66,104); fill-rule: nonzero; opacity: 1;" transform=" matrix(1 0 0 1 0 0) " stroke-linecap="round" />
</g>
</g>
</svg>