<svg xmlns="http://www.w3.org/2000/svg" xmlns:xlink="http://www.w3.org/1999/xlink" version="1.1" width="256" height="256" viewBox="0 0 256 256" xml:space="preserve">
<desc>Created with Fabric.js 1.7.22</desc>
<defs>
</defs>
<g transform="translate(128 128) scale(0.72 0.72)" style="">
	<g style="stroke: none; stroke-width: 0; stroke-dasharray: none; stroke-linecap: butt; stroke-linejoin: miter; stroke-miterlimit: 10; fill: none; fill-rule: nonzero; opacity: 1;" transform="translate(-175.05 -175.05000000000004) scale(3.89 3.89)" >
	<path d="M 53.588 68.466 H 36.412 c -2.185 0 -3.956 -1.771 -3.956 -3.956 V 24.661 c 0 -0.608 0.493 -1.101 1.101 -1.101 h 22.886 c 0.608 0 1.101 0.493 1.101 1.101 V 64.51 C 57.544 66.695 55.773 68.466 53.588 68.466 z" style="stroke: none; stroke-width: 1; stroke-dasharray: none; stroke-linecap: butt; stroke-linejoin: miter; stroke-miterlimit: 10; fill: rgb(250,215,217); fill-rule: nonzero; opacity: 1;" transform=" matrix(1 0 0 1 0 0) " stroke-linecap="round" />
	<rect x="44.58" y="19.62" rx="0" ry="0" width="0.84" height="4.45" style="stroke: none; stroke-width: 1; stroke-dasharray: none; stroke-linecap: butt; stroke-linejoin: miter; stroke-miterlimit: 10; fill: rgb(242,209,161); fill-rule: nonzero; opacity: 1;" transform=" matrix(1 0 0 1 0 0) "/>
	<path d="M 43.961 1.085 c -4.515 5.978 -6.713 13.423 0.668 18.044 c 0.209 0.131 0.481 0.101 0.656 -0.072 c 9.249 -9.122 0.242 -13.047 -0.379 -17.714 C 44.843 0.873 44.247 0.707 43.961 1.085 z" style="stroke: none; stroke-width: 1; stroke-dasharray: none; stroke-linecap: butt; stroke-linejoin: miter; stroke-miterlimit: 10; fill: rgb(249,212,56); fill-rule: nonzero; opacity: 1;" transform=" matrix(1 0 0 1 0 0) " stroke-linecap="round" />
	<rect x="41.12" y="76.97" rx="0" ry="0" width="7.76" height="7.76" style="stroke: none; stroke-width: 1; stroke-dasharray: none; stroke-linecap: butt; stroke-linejoin: miter; stroke-miterlimit: 10; fill: rgb(241,98,108); fill-rule: nonzero; opacity: 1;" transform=" matrix(1 0 0 1 0 0) "/>
	<path d="M 50.575 78.625 H 39.425 c -7.073 0 -11.806 -5.734 -11.806 -12.806 l -1 0 h 36.762 l -1 0 C 62.381 72.892 57.647 78.625 50.575 78.625 z" style="stroke: none; stroke-width: 1; stroke-dasharray: none; stroke-linecap: butt; stroke-linejoin: miter; stroke-miterlimit: 10; fill: rgb(241,98,108); fill-rule: nonzero; opacity: 1;" transform=" matrix(1 0 0 1 0 0) " stroke-linecap="round" />
	<path d="M 47.787 82.721 h -5.575 c -3.536 0 -6.403 2.867 -6.403 6.403 v 0 H 54.19 v 0 C 54.19 85.588 51.324 82.721 47.787 82.721 z" style="stroke: none; stroke-width: 1; stroke-dasharray: none; stroke-linecap: butt; stroke-linejoin: miter; stroke-miterlimit: 10; fill: rgb(241,98,108); fill-rule: nonzero; opacity: 1;" transform=" matrix(1 0 0 1 0 0) " stroke-linecap="round" />
	<path d="M 42.159 44.622 L 42.159 44.622 c -1.559 0 -2.823 -1.264 -2.823 -2.823 V 23.56 h 5.646 v 18.238 C 44.982 43.358 43.718 44.622 42.159 44.622 z" style="stroke: none; stroke-width: 1; stroke-dasharray: none; stroke-linecap: butt; stroke-linejoin: miter; stroke-miterlimit: 10; fill: rgb(236,197,199); fill-rule: nonzero; opacity: 1;" transform=" matrix(1 0 0 1 0 0) " stroke-linecap="round" />
	<path d="M 47.805 39.126 L 47.805 39.126 c -1.559 0 -2.823 -1.264 -2.823 -2.823 V 23.56 h 5.646 v 12.742 C 50.628 37.862 49.364 39.126 47.805 39.126 z" style="stroke: none; stroke-width: 1; stroke-dasharray: none; stroke-linecap: butt; stroke-linejoin: miter; stroke-miterlimit: 10; fill: rgb(236,197,199); fill-rule: nonzero; opacity: 1;" transform=" matrix(1 0 0 1 0 0) " stroke-linecap="round" />
	<path d="M 56.556 67.327 H 33.445 c -0.554 0 -1.003 -0.449 -1.003 -1.003 V 24.035 c 0 -0.554 0.449 -1.003 1.003 -1.003 h 23.111 c 0.554 0 1.003 0.449 1.003 1.003 v 42.289 C 57.559 66.878 57.11 67.327 56.556 67.327 z M 34.447 65.321 h 21.106 V 25.038 H 34.447 V 65.321 z" style="stroke: none; stroke-width: 1; stroke-dasharray: none; stroke-linecap: butt; stroke-linejoin: miter; stroke-miterlimit: 10; fill: rgb(40,66,104); fill-rule: nonzero; opacity: 1;" transform=" matrix(1 0 0 1 0 0) " stroke-linecap="round" />
	<path d="M 45 25.038 c -0.554 0 -1.003 -0.449 -1.003 -1.003 V 19.21 c 0 -0.554 0.449 -1.003 1.003 -1.003 s 1.003 0.449 1.003 1.003 v 4.826 C 46.003 24.589 45.554 25.038 45 25.038 z" style="stroke: none; stroke-width: 1; stroke-dasharray: none; stroke-linecap: butt; stroke-linejoin: miter; stroke-miterlimit: 10; fill: rgb(40,66,104); fill-rule: nonzero; opacity: 1;" transform=" matrix(1 0 0 1 0 0) " stroke-linecap="round" />
	<path d="M 45 20.213 c -0.174 0 -0.351 -0.046 -0.509 -0.139 c -2.967 -1.749 -4.713 -4.06 -5.191 -6.869 C 38.431 8.096 42.06 2.882 44.3 0.23 c 0.311 -0.368 0.838 -0.461 1.256 -0.228 c 0.42 0.235 0.613 0.734 0.462 1.191 c -0.435 1.311 0.325 2.521 1.603 4.386 c 2.183 3.187 5.173 7.552 -1.928 14.356 C 45.502 20.118 45.252 20.213 45 20.213 z M 44.207 3.64 c -1.751 2.522 -3.484 5.972 -2.93 9.229 c 0.339 1.997 1.544 3.699 3.584 5.07 c 5.182 -5.275 3.2 -8.169 1.106 -11.226 C 45.288 5.721 44.597 4.712 44.207 3.64 z" style="stroke: none; stroke-width: 1; stroke-dasharray: none; stroke-linecap: butt; stroke-linejoin: miter; stroke-miterlimit: 10; fill: rgb(40,66,104); fill-rule: nonzero; opacity: 1;" transform=" matrix(1 0 0 1 0 0) " stroke-linecap="round" />
	<path d="M 50.136 79.123 H 39.864 c -7.058 0 -12.8 -5.742 -12.8 -12.8 c 0 -0.554 0.449 -1.003 1.003 -1.003 h 33.865 c 0.554 0 1.003 0.449 1.003 1.003 C 62.935 73.382 57.193 79.123 50.136 79.123 z M 29.117 67.327 c 0.508 5.483 5.135 9.791 10.748 9.791 h 10.271 c 5.613 0 10.24 -4.308 10.748 -9.791 H 29.117 z" style="stroke: none; stroke-width: 1; stroke-dasharray: none; stroke-linecap: butt; stroke-linejoin: miter; stroke-miterlimit: 10; fill: rgb(40,66,104); fill-rule: nonzero; opacity: 1;" transform=" matrix(1 0 0 1 0 0) " stroke-linecap="round" />
	<path d="M 53.466 89.874 H 36.534 c -0.554 0 -1.003 -0.449 -1.003 -1.003 c 0 -3.806 3.096 -6.901 6.901 -6.901 h 5.136 c 3.806 0 6.901 3.096 6.901 6.901 C 54.469 89.426 54.02 89.874 53.466 89.874 z M 37.64 87.869 H 52.36 c -0.464 -2.22 -2.437 -3.893 -4.793 -3.893 h -5.136 C 40.077 83.976 38.104 85.649 37.64 87.869 z" style="stroke: none; stroke-width: 1; stroke-dasharray: none; stroke-linecap: butt; stroke-linejoin: miter; stroke-miterlimit: 10; fill: rgb(40,66,104); fill-rule: nonzero; opacity: 1;" transform=" matrix(1 0 0 1 0 0) " stroke-linecap="round" />
	<path d="M 48.575 83.976 h -7.15 c -0.554 0 -1.003 -0.449 -1.003 -1.003 v -4.852 c 0 -0.554 0.449 -1.003 1.003 -1.003 h 7.15 c 0.554 0 1.003 0.449 1.003 1.003 v 4.852 C 49.578 83.527 49.13 83.976 48.575 83.976 z M 42.428 81.97 h 5.145 v -2.847 h -5.145 V 81.97 z" style="stroke: none; stroke-width: 1; stroke-dasharray: none; stroke-linecap: butt; stroke-linejoin: miter; stroke-miterlimit: 10; fill: rgb(40,66,104); fill-rule: nonzero; opacity: 1;" transform=" matrix(1 0 0 1 0 0) " stroke-linecap="round" />
	<path d="M 53.466 73.225 H 29.648 c -0.554 0 -1.003 -0.449 -1.003 -1.003 s 0.449 -1.003 1.003 -1.003 h 23.818 c 0.554 0 1.003 0.449 1.003 1.003 S 54.02 73.225 53.466 73.225 z" style="stroke: none; stroke-width: 1; stroke-dasharray: none; stroke-linecap: butt; stroke-linejoin: miter; stroke-miterlimit: 10; fill: rgb(40,66,104); fill-rule: nonzero; opacity: 1;" transform=" matrix(1 0 0 1 0 0) " stroke-linecap="round" />
	<path d="M 42.377 45.625 H 41.94 c -1.989 0 -3.607 -1.618 -3.607 -3.608 V 23.032 h 7.652 v 18.985 C 45.985 44.007 44.366 45.625 42.377 45.625 z M 40.338 25.038 v 16.979 c 0 0.883 0.718 1.602 1.602 1.602 h 0.437 c 0.883 0 1.602 -0.719 1.602 -1.602 V 25.038 H 40.338 z" style="stroke: none; stroke-width: 1; stroke-dasharray: none; stroke-linecap: butt; stroke-linejoin: miter; stroke-miterlimit: 10; fill: rgb(40,66,104); fill-rule: nonzero; opacity: 1;" transform=" matrix(1 0 0 1 0 0) " stroke-linecap="round" />
	<path d="M 48.138 40.211 H 47.7 c -1.989 0 -3.607 -1.618 -3.607 -3.607 V 23.032 h 7.652 v 13.571 C 51.745 38.593 50.127 40.211 48.138 40.211 z M 46.099 25.038 v 11.566 c 0 0.883 0.718 1.602 1.601 1.602 h 0.438 c 0.883 0 1.601 -0.718 1.601 -1.602 V 25.038 H 46.099 z" style="stroke: none; stroke-width: 1; stroke-dasharray: none; stroke-linecap: butt; stroke-linejoin: miter; stroke-miterlimit: 10; fill: rgb(40,66,104); fill-rule: nonzero; opacity: 1;" transform=" matrix(1 0 0 1 0 0) " stroke-linecap="round" />
</g>
</g>
</svg>