<svg xmlns="http://www.w3.org/2000/svg" xmlns:xlink="http://www.w3.org/1999/xlink" version="1.1" width="256" height="256" viewBox="0 0 256 256" xml:space="preserve">
<desc>Created with Fabric.js 1.7.22</desc>
<defs>
</defs>
<g transform="translate(128 128) scale(0.72 0.72)" style="">
	<g style="stroke: none; stroke-width: 0; stroke-dasharray: none; stroke-linecap: butt; stroke-linejoin: miter; stroke-miterlimit: 10; fill: none; fill-rule: nonzero; opacity: 1;" transform="translate(-175.05 -175.05000000000004) scale(3.89 3.89)" >
	<polyline points="45.01,12.75 23.03,55.28 31.67,55.28 20.14,78.21 40.04,78.21 69.86,78.21 58.33,55.28 66.97,55.28 45.01,12.75 " style="stroke: none; stroke-width: 1; stroke-dasharray: none; stroke-linecap: butt; stroke-linejoin: miter; stroke-miterlimit: 10; fill: rgb(147,190,96); fill-rule: nonzero; opacity: 1;" transform="  matrix(1 0 0 1 0 0) "/>
	<path d="M 69.858 79.206 H 20.142 c -0.347 0 -0.669 -0.18 -0.851 -0.476 c -0.182 -0.295 -0.198 -0.664 -0.042 -0.974 l 10.799 -21.478 H 23.03 c -0.349 0 -0.673 -0.182 -0.854 -0.479 c -0.182 -0.299 -0.195 -0.67 -0.034 -0.979 l 21.977 -42.529 c 0.171 -0.333 0.514 -0.541 0.888 -0.541 l 0 0 c 0.374 0 0.717 0.209 0.889 0.541 L 67.858 54.82 c 0.16 0.311 0.146 0.682 -0.034 0.979 c -0.182 0.298 -0.506 0.479 -0.854 0.479 h -7.018 l 10.8 21.478 c 0.155 0.31 0.14 0.679 -0.042 0.974 C 70.527 79.026 70.205 79.206 69.858 79.206 z M 21.764 77.206 h 46.472 l -10.8 -21.478 c -0.155 -0.31 -0.14 -0.679 0.042 -0.974 c 0.183 -0.296 0.505 -0.476 0.852 -0.476 h 6.998 l -20.322 -39.35 l -20.333 39.35 h 6.998 c 0.347 0 0.669 0.18 0.851 0.476 c 0.182 0.295 0.198 0.664 0.042 0.974 L 21.764 77.206 z" style="stroke: none; stroke-width: 1; stroke-dasharray: none; stroke-linecap: butt; stroke-linejoin: miter; stroke-miterlimit: 10; fill: rgb(40,66,104); fill-rule: nonzero; opacity: 1;" transform=" matrix(1 0 0 1 0 0) " stroke-linecap="round" />
	<circle cx="37.612" cy="61.422" r="3.302" style="stroke: none; stroke-width: 1; stroke-dasharray: none; stroke-linecap: butt; stroke-linejoin: miter; stroke-miterlimit: 10; fill: rgb(84,190,250); fill-rule: nonzero; opacity: 1;" transform="  matrix(1 0 0 1 0 0) "/>
	<circle cx="51.382" cy="50.142" r="3.302" style="stroke: none; stroke-width: 1; stroke-dasharray: none; stroke-linecap: butt; stroke-linejoin: miter; stroke-miterlimit: 10; fill: rgb(84,190,250); fill-rule: nonzero; opacity: 1;" transform="  matrix(1 0 0 1 0 0) "/>
	<circle cx="43.252" cy="33.052" r="3.302" style="stroke: none; stroke-width: 1; stroke-dasharray: none; stroke-linecap: butt; stroke-linejoin: miter; stroke-miterlimit: 10; fill: rgb(241,98,108); fill-rule: nonzero; opacity: 1;" transform="  matrix(1 0 0 1 0 0) "/>
	<circle cx="56.522" cy="70.382" r="3.302" style="stroke: none; stroke-width: 1; stroke-dasharray: none; stroke-linecap: butt; stroke-linejoin: miter; stroke-miterlimit: 10; fill: rgb(241,98,108); fill-rule: nonzero; opacity: 1;" transform="  matrix(1 0 0 1 0 0) "/>
	<path d="M 37.609 65.722 c -2.372 0 -4.302 -1.931 -4.302 -4.303 s 1.93 -4.302 4.302 -4.302 s 4.302 1.93 4.302 4.302 S 39.981 65.722 37.609 65.722 z M 37.609 59.117 c -1.27 0 -2.302 1.032 -2.302 2.302 s 1.033 2.303 2.302 2.303 s 2.302 -1.033 2.302 -2.303 S 38.878 59.117 37.609 59.117 z" style="stroke: none; stroke-width: 1; stroke-dasharray: none; stroke-linecap: butt; stroke-linejoin: miter; stroke-miterlimit: 10; fill: rgb(40,66,104); fill-rule: nonzero; opacity: 1;" transform=" matrix(1 0 0 1 0 0) " stroke-linecap="round" />
	<path d="M 51.377 54.443 c -2.372 0 -4.302 -1.931 -4.302 -4.303 s 1.93 -4.302 4.302 -4.302 s 4.303 1.93 4.303 4.302 S 53.749 54.443 51.377 54.443 z M 51.377 47.839 c -1.27 0 -2.302 1.032 -2.302 2.302 s 1.032 2.303 2.302 2.303 s 2.303 -1.033 2.303 -2.303 S 52.646 47.839 51.377 47.839 z" style="stroke: none; stroke-width: 1; stroke-dasharray: none; stroke-linecap: butt; stroke-linejoin: miter; stroke-miterlimit: 10; fill: rgb(40,66,104); fill-rule: nonzero; opacity: 1;" transform=" matrix(1 0 0 1 0 0) " stroke-linecap="round" />
	<path d="M 43.249 37.357 c -2.372 0 -4.302 -1.93 -4.302 -4.302 s 1.93 -4.302 4.302 -4.302 c 2.373 0 4.303 1.93 4.303 4.302 S 45.622 37.357 43.249 37.357 z M 43.249 30.752 c -1.27 0 -2.302 1.033 -2.302 2.302 s 1.033 2.302 2.302 2.302 s 2.303 -1.033 2.303 -2.302 S 44.519 30.752 43.249 30.752 z" style="stroke: none; stroke-width: 1; stroke-dasharray: none; stroke-linecap: butt; stroke-linejoin: miter; stroke-miterlimit: 10; fill: rgb(40,66,104); fill-rule: nonzero; opacity: 1;" transform=" matrix(1 0 0 1 0 0) " stroke-linecap="round" />
	<path d="M 56.523 74.681 c -2.372 0 -4.303 -1.93 -4.303 -4.302 s 1.931 -4.303 4.303 -4.303 s 4.302 1.931 4.302 4.303 S 58.896 74.681 56.523 74.681 z M 56.523 68.076 c -1.27 0 -2.303 1.033 -2.303 2.303 s 1.033 2.302 2.303 2.302 s 2.302 -1.032 2.302 -2.302 S 57.793 68.076 56.523 68.076 z" style="stroke: none; stroke-width: 1; stroke-dasharray: none; stroke-linecap: butt; stroke-linejoin: miter; stroke-miterlimit: 10; fill: rgb(40,66,104); fill-rule: nonzero; opacity: 1;" transform=" matrix(1 0 0 1 0 0) " stroke-linecap="round" />
	<rect x="40.94" y="78.21" rx="0" ry="0" width="8.13" height="10.79" style="stroke: none; stroke-width: 1; stroke-dasharray: none; stroke-linecap: butt; stroke-linejoin: miter; stroke-miterlimit: 10; fill: rgb(188,111,97); fill-rule: nonzero; opacity: 1;" transform=" matrix(1 0 0 1 0 0) "/>
	<path d="M 49.064 90 h -8.128 c -0.552 0 -1 -0.447 -1 -1 V 78.206 c 0 -0.553 0.448 -1 1 -1 h 8.128 c 0.553 0 1 0.447 1 1 V 89 C 50.064 89.553 49.617 90 49.064 90 z M 41.936 88 h 6.128 v -8.794 h -6.128 V 88 z" style="stroke: none; stroke-width: 1; stroke-dasharray: none; stroke-linecap: butt; stroke-linejoin: miter; stroke-miterlimit: 10; fill: rgb(40,66,104); fill-rule: nonzero; opacity: 1;" transform=" matrix(1 0 0 1 0 0) " stroke-linecap="round" />
	<polygon points="45.01,1 47.86,6.79 54.26,7.72 49.63,12.23 50.72,18.59 45.01,15.59 39.29,18.59 40.38,12.23 35.76,7.72 42.15,6.79 " style="stroke: none; stroke-width: 1; stroke-dasharray: none; stroke-linecap: butt; stroke-linejoin: miter; stroke-miterlimit: 10; fill: rgb(249,212,56); fill-rule: nonzero; opacity: 1;" transform="  matrix(1 0 0 1 0 0) "/>
	<path d="M 50.723 19.592 c -0.159 0 -0.319 -0.038 -0.466 -0.115 l -5.25 -2.761 l -5.251 2.761 c -0.336 0.177 -0.745 0.147 -1.053 -0.076 c -0.308 -0.224 -0.462 -0.603 -0.398 -0.978 l 1.003 -5.847 l -4.248 -4.14 c -0.273 -0.266 -0.371 -0.663 -0.253 -1.025 c 0.118 -0.362 0.431 -0.626 0.807 -0.681 l 5.871 -0.853 l 2.626 -5.319 C 44.278 0.216 44.626 0 45.006 0 l 0 0 c 0.381 0 0.729 0.216 0.897 0.558 l 2.625 5.319 l 5.87 0.853 c 0.377 0.055 0.689 0.319 0.808 0.681 c 0.117 0.362 0.02 0.759 -0.253 1.025 l -4.248 4.14 l 1.003 5.847 c 0.064 0.375 -0.09 0.754 -0.397 0.978 C 51.137 19.528 50.93 19.592 50.723 19.592 z M 45.006 14.587 c 0.16 0 0.32 0.038 0.465 0.115 l 3.923 2.063 l -0.749 -4.368 c -0.056 -0.324 0.052 -0.655 0.287 -0.885 l 3.173 -3.093 l -4.385 -0.637 c -0.326 -0.047 -0.607 -0.252 -0.753 -0.547 l -1.961 -3.974 l -1.962 3.974 c -0.146 0.295 -0.427 0.5 -0.752 0.547 l -4.386 0.637 l 3.173 3.093 c 0.236 0.23 0.343 0.561 0.288 0.885 l -0.75 4.368 l 3.923 -2.063 C 44.687 14.625 44.847 14.587 45.006 14.587 z" style="stroke: none; stroke-width: 1; stroke-dasharray: none; stroke-linecap: butt; stroke-linejoin: miter; stroke-miterlimit: 10; fill: rgb(40,66,104); fill-rule: nonzero; opacity: 1;" transform=" matrix(1 0 0 1 0 0) " stroke-linecap="round" />
</g>
</g>
</svg>