<svg xmlns="http://www.w3.org/2000/svg" xmlns:xlink="http://www.w3.org/1999/xlink" version="1.1" width="256" height="256" viewBox="0 0 256 256" xml:space="preserve">
<desc>Created with Fabric.js 1.7.22</desc>
<defs>
</defs>
<g transform="translate(128 128) scale(0.72 0.72)" style="">
	<g style="stroke: none; stroke-width: 0; stroke-dasharray: none; stroke-linecap: butt; stroke-linejoin: miter; stroke-miterlimit: 10; fill: none; fill-rule: nonzero; opacity: 1;" transform="translate(-175.05 -175.05000000000004) scale(3.89 3.89)" >
	<path d="M 61.026 50.826 v -7.029 l -0.88 -5.65 l 0.88 -5.65 V 21.794 V 6.991 C 61.026 3.696 58.33 1 55.034 1 h 0 c -3.295 0 -5.991 2.696 -5.991 5.991 V 21.72 v 10.776 l 0.88 5.65 l -0.88 5.65 v 7.029 v 4.272 l 0.88 5.79 l -0.88 5.493 c 0 0.006 0 0.011 0 0.017 c -0.005 3.271 -1.44 6.223 -3.711 8.26 c -1.001 0.898 -2.163 2.498 -3.438 2.99 c -1.237 0.477 -2.579 -0.141 -3.979 -0.141 h 0 c -3.06 0 -5.842 -1.252 -7.858 -3.269 c -1.029 -1.029 -2.739 -2.257 -3.305 -3.619 c -0.544 -1.308 0.036 -2.74 0.036 -4.239 V 55.098 l -0.88 -5.727 c 0 -3.295 -1.816 -5.111 -5.111 -5.111 h 0 c -3.295 0 -5.111 1.816 -5.111 5.111 l -0.88 5.727 V 65.89 c 0 0.17 0.002 0.34 0.006 0.51 c 0.082 3.721 1.934 7.233 3.592 10.329 c 1.157 2.161 1.767 4.12 3.521 5.806 C 26.084 86.534 31.726 89 37.916 89 h 0 c 3.045 0 5.958 -1.477 8.627 -2.56 c 2.756 -1.118 5.251 -1.874 7.365 -3.905 c 4.268 -4.102 6.975 -9.818 7.113 -16.137 c 0.004 -0.169 0.006 -0.339 0.006 -0.508 l -0.88 -4.745 l 0.88 -6.047 V 50.826" style="stroke: none; stroke-width: 1; stroke-dasharray: none; stroke-linecap: butt; stroke-linejoin: miter; stroke-miterlimit: 10; fill: rgb(204,70,80); fill-rule: nonzero; opacity: 1;" transform=" matrix(1 0 0 1 0 0) " stroke-linecap="round" />
	<path d="M 37.916 90 c -6.234 0 -12.16 -2.395 -16.685 -6.744 c -4.645 -4.481 -7.27 -10.439 -7.417 -16.805 c -0.007 -0.205 -0.008 -0.383 -0.008 -0.562 V 49.371 c 0 -3.855 3.136 -6.992 6.991 -6.992 c 3.855 0 6.992 3.136 6.992 6.992 v 17.011 c 0.004 2.698 1.058 5.229 2.966 7.142 l 0.05 0.05 c 1.93 1.9 4.446 2.936 7.111 2.936 c 2.487 0 4.884 -0.922 6.748 -2.595 c 2.143 -1.923 3.375 -4.662 3.379 -7.518 V 6.991 C 48.043 3.136 51.18 0 55.034 0 s 6.991 3.136 6.991 6.991 l -0.046 60.407 c -0.375 6.021 -2.973 11.621 -7.379 15.857 C 50.051 87.613 44.135 90 37.916 90 z M 20.797 44.379 c -2.752 0 -4.991 2.24 -4.991 4.992 V 65.89 c 0 0.163 0.001 0.325 0.005 0.487 c 0.138 5.862 2.545 11.326 6.783 15.412 C 26.768 85.803 32.201 88 37.916 88 c 5.701 0 11.125 -2.188 15.273 -6.163 c 4.285 -4.118 6.703 -9.602 6.831 -15.46 l 0.005 -0.212 V 6.991 C 60.025 4.239 57.786 2 55.034 2 s -4.991 2.239 -4.991 4.991 v 59.391 c -0.005 3.438 -1.479 6.72 -4.043 9.021 c -2.232 2.003 -5.104 3.105 -8.084 3.105 c -3.227 0 -6.269 -1.265 -8.565 -3.562 c -2.279 -2.285 -3.538 -5.288 -3.561 -8.474 l -0.004 -0.029 l 0.005 -0.111 l -0.001 -16.962 C 25.789 46.619 23.55 44.379 20.797 44.379 z" style="stroke: none; stroke-width: 1; stroke-dasharray: none; stroke-linecap: butt; stroke-linejoin: miter; stroke-miterlimit: 10; fill: rgb(40,66,104); fill-rule: nonzero; opacity: 1;" transform=" matrix(1 0 0 1 0 0) " stroke-linecap="round" />
	<rect x="49.04" y="32.5" rx="0" ry="0" width="11.98" height="11.3" style="stroke: none; stroke-width: 1; stroke-dasharray: none; stroke-linecap: butt; stroke-linejoin: miter; stroke-miterlimit: 10; fill: rgb(250,215,217); fill-rule: nonzero; opacity: 1;" transform=" matrix(1 0 0 1 0 0) "/>
	<rect x="49.04" y="55.1" rx="0" ry="0" width="11.98" height="11.3" style="stroke: none; stroke-width: 1; stroke-dasharray: none; stroke-linecap: butt; stroke-linejoin: miter; stroke-miterlimit: 10; fill: rgb(250,215,217); fill-rule: nonzero; opacity: 1;" transform=" matrix(1 0 0 1 0 0) "/>
	<path d="M 37.916 89 c 6.19 0 11.831 -2.467 15.991 -6.466 l -8.575 -7.876 c -1.972 1.77 -4.574 2.85 -7.416 2.85 h 0 L 37.916 89 L 37.916 89 z" style="stroke: none; stroke-width: 1; stroke-dasharray: none; stroke-linecap: butt; stroke-linejoin: miter; stroke-miterlimit: 10; fill: rgb(250,215,217); fill-rule: nonzero; opacity: 1;" transform=" matrix(1 0 0 1 0 0) " stroke-linecap="round" />
	<path d="M 26.789 66.4 H 14.812 c 0.139 6.318 2.846 12.032 7.113 16.134 l 8.122 -8.305 C 28.041 72.218 26.794 69.447 26.789 66.4 z" style="stroke: none; stroke-width: 1; stroke-dasharray: none; stroke-linecap: butt; stroke-linejoin: miter; stroke-miterlimit: 10; fill: rgb(250,215,217); fill-rule: nonzero; opacity: 1;" transform=" matrix(1 0 0 1 0 0) " stroke-linecap="round" />
	<path d="M 26.789 55.098 v -5.727 c 0 -3.295 -2.696 -5.991 -5.991 -5.991 h 0 c -3.295 0 -5.991 2.696 -5.991 5.991 v 5.727 H 26.789 z" style="stroke: none; stroke-width: 1; stroke-dasharray: none; stroke-linecap: butt; stroke-linejoin: miter; stroke-miterlimit: 10; fill: rgb(250,215,217); fill-rule: nonzero; opacity: 1;" transform=" matrix(1 0 0 1 0 0) " stroke-linecap="round" />
	<path d="M 52.414 12.906 c -8.105 -0.347 -15.916 5.293 -22.281 15.252 c 3.926 -1.43 7.072 -1.958 8.932 -1 c -0.837 2.739 0.048 6.369 2.034 10.569 c 4.409 -10.321 8.725 -17.815 12.84 -19.2 L 52.414 12.906 z" style="stroke: none; stroke-width: 1; stroke-dasharray: none; stroke-linecap: butt; stroke-linejoin: miter; stroke-miterlimit: 10; fill: rgb(147,190,96); fill-rule: nonzero; opacity: 1;" transform=" matrix(1 0 0 1 0 0) " stroke-linecap="round" />
	<path d="M 41.145 40.164 l -0.95 -2.01 c -2.023 -4.278 -2.783 -7.683 -2.308 -10.364 c -1.555 -0.361 -4.04 0.079 -7.412 1.307 l -2.776 1.011 l 1.591 -2.489 c 6.703 -10.485 14.933 -16.06 23.167 -15.712 l 0.73 0.031 l 1.963 7.235 l -0.893 0.301 c -3.359 1.131 -7.362 7.23 -12.24 18.646 L 41.145 40.164 z M 36.692 25.668 c 1.12 0 2.055 0.201 2.83 0.6 l 0.743 0.382 l -0.245 0.799 c -0.579 1.895 -0.216 4.503 1.077 7.773 c 4.406 -9.926 8.152 -15.482 11.648 -17.273 l -1.101 -4.059 c -6.631 0.033 -13.306 4.397 -19.062 12.426 C 34.172 25.884 35.532 25.668 36.692 25.668 z" style="stroke: none; stroke-width: 1; stroke-dasharray: none; stroke-linecap: butt; stroke-linejoin: miter; stroke-miterlimit: 10; fill: rgb(40,66,104); fill-rule: nonzero; opacity: 1;" transform=" matrix(1 0 0 1 0 0) " stroke-linecap="round" />
	<path d="M 57.231 18.195 c 5.928 1.122 5.3 13.39 10.082 18.837 l 3.465 -6.516 c 2.283 2.146 5.014 3.381 8.311 3.466 c -7.056 -7.576 -9.139 -21.931 -22.164 -21.557 L 57.231 18.195 z" style="stroke: none; stroke-width: 1; stroke-dasharray: none; stroke-linecap: butt; stroke-linejoin: miter; stroke-miterlimit: 10; fill: rgb(147,190,96); fill-rule: nonzero; opacity: 1;" transform=" matrix(1 0 0 1 0 0) " stroke-linecap="round" />
	<path d="M 67.516 38.78 l -0.955 -1.088 c -2.201 -2.508 -3.281 -6.194 -4.326 -9.759 c -1.24 -4.232 -2.411 -8.229 -5.188 -8.755 l -0.771 -0.146 l -0.403 -7.577 l 1.024 -0.029 c 9.536 -0.277 13.537 6.778 17.4 13.598 c 1.667 2.943 3.392 5.987 5.524 8.277 l 1.623 1.743 l -2.38 -0.062 c -2.98 -0.077 -5.662 -1.048 -7.991 -2.89 L 67.516 38.78 z M 58.191 17.417 c 3.389 1.169 4.642 5.445 5.963 9.953 c 0.817 2.791 1.658 5.66 3.017 7.799 l 3.338 -6.277 l 0.953 0.896 c 1.581 1.485 3.313 2.442 5.25 2.895 c -1.544 -2.063 -2.867 -4.397 -4.156 -6.673 c -3.579 -6.317 -6.968 -12.299 -14.577 -12.581 L 58.191 17.417 z" style="stroke: none; stroke-width: 1; stroke-dasharray: none; stroke-linecap: butt; stroke-linejoin: miter; stroke-miterlimit: 10; fill: rgb(40,66,104); fill-rule: nonzero; opacity: 1;" transform=" matrix(1 0 0 1 0 0) " stroke-linecap="round" />
	<path d="M 38.825 2.532 c -3.459 3.938 -5.672 8.238 -5.091 13.351 c 4.408 3.334 12.175 3.128 20.205 2.644 l -1.498 -5.622 C 48.817 7.391 44.154 4.214 38.825 2.532 z" style="stroke: none; stroke-width: 1; stroke-dasharray: none; stroke-linecap: butt; stroke-linejoin: miter; stroke-miterlimit: 10; fill: rgb(147,190,96); fill-rule: nonzero; opacity: 1;" transform=" matrix(1 0 0 1 0 0) " stroke-linecap="round" />
	<path d="M 46.699 19.795 c -5.479 0 -10.318 -0.657 -13.569 -3.116 l -0.342 -0.258 l -0.048 -0.426 c -0.552 -4.863 1.143 -9.351 5.333 -14.123 l 0.431 -0.49 l 0.622 0.196 c 6.001 1.894 10.629 5.419 14.151 10.777 l 0.089 0.135 l 1.854 6.961 l -1.221 0.073 C 51.499 19.675 49.041 19.795 46.699 19.795 z M 34.685 15.334 c 3.942 2.688 10.691 2.671 17.972 2.265 l -1.14 -4.28 c -3.123 -4.696 -7.176 -7.852 -12.37 -9.629 C 35.791 7.672 34.364 11.397 34.685 15.334 z" style="stroke: none; stroke-width: 1; stroke-dasharray: none; stroke-linecap: butt; stroke-linejoin: miter; stroke-miterlimit: 10; fill: rgb(40,66,104); fill-rule: nonzero; opacity: 1;" transform=" matrix(1 0 0 1 0 0) " stroke-linecap="round" />
	<path d="M 70.406 2.532 c 3.459 3.938 5.672 8.238 5.091 13.351 c -4.408 3.334 -12.175 3.128 -20.205 2.644 l 1.498 -5.622 C 60.413 7.391 65.076 4.214 70.406 2.532 z" style="stroke: none; stroke-width: 1; stroke-dasharray: none; stroke-linecap: butt; stroke-linejoin: miter; stroke-miterlimit: 10; fill: rgb(147,190,96); fill-rule: nonzero; opacity: 1;" transform=" matrix(1 0 0 1 0 0) " stroke-linecap="round" />
	<path d="M 62.531 19.795 c -2.342 0 -4.799 -0.12 -7.3 -0.271 l -1.221 -0.073 l 1.854 -6.961 l 0.089 -0.135 c 3.521 -5.357 8.149 -8.883 14.15 -10.777 l 0.622 -0.196 l 0.43 0.49 c 4.191 4.771 5.887 9.259 5.334 14.124 l -0.048 0.426 l -0.342 0.258 C 72.851 19.138 68.009 19.795 62.531 19.795 z M 56.574 17.599 c 7.281 0.407 14.03 0.423 17.972 -2.265 c 0.32 -3.938 -1.106 -7.663 -4.463 -11.644 c -5.193 1.777 -9.246 4.933 -12.369 9.629 L 56.574 17.599 z" style="stroke: none; stroke-width: 1; stroke-dasharray: none; stroke-linecap: butt; stroke-linejoin: miter; stroke-miterlimit: 10; fill: rgb(40,66,104); fill-rule: nonzero; opacity: 1;" transform=" matrix(1 0 0 1 0 0) " stroke-linecap="round" />
	<path d="M 58.148 19.919 h -4.324 c -1.361 0 -2.465 -1.104 -2.465 -2.465 v -4.324 c 0 -1.361 1.104 -2.465 2.465 -2.465 h 4.324 c 1.361 0 2.465 1.104 2.465 2.465 v 4.324 C 60.613 18.816 59.51 19.919 58.148 19.919 z" style="stroke: none; stroke-width: 1; stroke-dasharray: none; stroke-linecap: butt; stroke-linejoin: miter; stroke-miterlimit: 10; fill: rgb(147,190,96); fill-rule: nonzero; opacity: 1;" transform=" matrix(1 0 0 1 0 0) " stroke-linecap="round" />
	<path d="M 58.148 20.919 h -4.323 c -1.911 0 -3.466 -1.555 -3.466 -3.465 V 13.13 c 0 -1.911 1.555 -3.465 3.466 -3.465 h 4.323 c 1.91 0 3.465 1.554 3.465 3.465 v 4.324 C 61.613 19.365 60.059 20.919 58.148 20.919 z M 53.825 11.666 c -0.809 0 -1.466 0.657 -1.466 1.465 v 4.324 c 0 0.808 0.657 1.465 1.466 1.465 h 4.323 c 0.808 0 1.465 -0.657 1.465 -1.465 V 13.13 c 0 -0.808 -0.657 -1.465 -1.465 -1.465 H 53.825 z" style="stroke: none; stroke-width: 1; stroke-dasharray: none; stroke-linecap: butt; stroke-linejoin: miter; stroke-miterlimit: 10; fill: rgb(40,66,104); fill-rule: nonzero; opacity: 1;" transform=" matrix(1 0 0 1 0 0) " stroke-linecap="round" />
	<path d="M 62.025 44.797 H 48.043 V 31.497 h 13.982 V 44.797 z M 50.043 42.797 h 9.982 v -9.301 h -9.982 V 42.797 z" style="stroke: none; stroke-width: 1; stroke-dasharray: none; stroke-linecap: butt; stroke-linejoin: miter; stroke-miterlimit: 10; fill: rgb(40,66,104); fill-rule: nonzero; opacity: 1;" transform=" matrix(1 0 0 1 0 0) " stroke-linecap="round" />
	<path d="M 62.025 67.398 H 48.043 V 54.098 h 13.982 V 67.398 z M 50.043 65.398 h 9.982 v -9.301 h -9.982 V 65.398 z" style="stroke: none; stroke-width: 1; stroke-dasharray: none; stroke-linecap: butt; stroke-linejoin: miter; stroke-miterlimit: 10; fill: rgb(40,66,104); fill-rule: nonzero; opacity: 1;" transform=" matrix(1 0 0 1 0 0) " stroke-linecap="round" />
	<path d="M 37.916 90 h -1 V 76.509 h 1 c 2.487 0 4.884 -0.922 6.748 -2.595 l 0.676 -0.606 l 10.027 9.21 L 54.6 83.255 C 50.075 87.604 44.151 90 37.916 90 z M 38.916 78.468 v 9.51 c 4.995 -0.225 9.726 -2.132 13.512 -5.443 l -7.129 -6.548 C 43.447 77.414 41.234 78.274 38.916 78.468 z" style="stroke: none; stroke-width: 1; stroke-dasharray: none; stroke-linecap: butt; stroke-linejoin: miter; stroke-miterlimit: 10; fill: rgb(40,66,104); fill-rule: nonzero; opacity: 1;" transform=" matrix(1 0 0 1 0 0) " stroke-linecap="round" />
	<path d="M 21.947 83.942 l -0.715 -0.688 c -4.645 -4.464 -7.279 -10.442 -7.42 -16.833 L 13.791 65.4 h 13.997 l 0.001 0.998 c 0.004 2.682 1.058 5.212 2.966 7.125 l 0.698 0.699 L 21.947 83.942 z M 15.858 67.4 c 0.349 5.146 2.472 9.949 6.061 13.711 l 6.75 -6.903 c -1.644 -1.932 -2.628 -4.294 -2.837 -6.808 H 15.858 z" style="stroke: none; stroke-width: 1; stroke-dasharray: none; stroke-linecap: butt; stroke-linejoin: miter; stroke-miterlimit: 10; fill: rgb(40,66,104); fill-rule: nonzero; opacity: 1;" transform=" matrix(1 0 0 1 0 0) " stroke-linecap="round" />
	<path d="M 27.789 56.098 H 13.806 v -6.727 c 0 -3.855 3.136 -6.992 6.991 -6.992 c 3.855 0 6.992 3.136 6.992 6.992 V 56.098 z M 15.806 54.098 h 9.983 v -4.727 c 0 -2.752 -2.239 -4.992 -4.992 -4.992 c -2.752 0 -4.991 2.24 -4.991 4.992 V 54.098 z" style="stroke: none; stroke-width: 1; stroke-dasharray: none; stroke-linecap: butt; stroke-linejoin: miter; stroke-miterlimit: 10; fill: rgb(40,66,104); fill-rule: nonzero; opacity: 1;" transform=" matrix(1 0 0 1 0 0) " stroke-linecap="round" />
</g>
</g>
</svg>