<svg xmlns="http://www.w3.org/2000/svg" xmlns:xlink="http://www.w3.org/1999/xlink" version="1.1" width="256" height="256" viewBox="0 0 256 256" xml:space="preserve">
<desc>Created with Fabric.js 1.7.22</desc>
<defs>
</defs>
<g transform="translate(128 128) scale(0.72 0.72)" style="">
	<g style="stroke: none; stroke-width: 0; stroke-dasharray: none; stroke-linecap: butt; stroke-linejoin: miter; stroke-miterlimit: 10; fill: none; fill-rule: nonzero; opacity: 1;" transform="translate(-175.05 -175.05000000000004) scale(3.89 3.89)" >
	<path d="M 52.558 44.719 v -31.6 H 21.942 v 43.806 c 0 3.166 1.258 6.202 3.496 8.441 l 20.151 20.151 c 5.978 5.978 15.671 5.978 21.649 0 l 0 0 c 5.978 -5.978 5.978 -15.671 0 -21.649 l -11.52 -11.52 C 53.695 50.324 52.558 47.58 52.558 44.719 z" style="stroke: none; stroke-width: 1; stroke-dasharray: none; stroke-linecap: butt; stroke-linejoin: miter; stroke-miterlimit: 10; fill: rgb(241,98,108); fill-rule: nonzero; opacity: 1;" transform=" matrix(1 0 0 1 0 0) " stroke-linecap="round" />
	<path d="M 21.942 44.799 v 12.126 c 0 3.166 1.258 6.202 3.496 8.441 l 5.734 5.734 c 1.957 -2.786 3.107 -6.18 3.107 -9.843 C 34.279 53.457 29.07 46.876 21.942 44.799 z" style="stroke: none; stroke-width: 1; stroke-dasharray: none; stroke-linecap: butt; stroke-linejoin: miter; stroke-miterlimit: 10; fill: rgb(147,190,96); fill-rule: nonzero; opacity: 1;" transform=" matrix(1 0 0 1 0 0) " stroke-linecap="round" />
	<path d="M 45.432 85.359 l 0.157 0.157 c 5.978 5.978 15.671 5.978 21.649 0 l 0 0 c 3.123 -3.123 4.614 -7.26 4.474 -11.352 c -2.647 -1.578 -5.741 -2.486 -9.046 -2.486 C 54.274 71.678 47.248 77.52 45.432 85.359 z" style="stroke: none; stroke-width: 1; stroke-dasharray: none; stroke-linecap: butt; stroke-linejoin: miter; stroke-miterlimit: 10; fill: rgb(147,190,96); fill-rule: nonzero; opacity: 1;" transform=" matrix(1 0 0 1 0 0) " stroke-linecap="round" />
	<path d="M 46.913 36.416 l -0.198 -0.69 c -0.038 -0.132 -0.175 -0.208 -0.307 -0.17 l -2.362 0.678 c -0.065 0.019 -0.134 0.01 -0.192 -0.024 l -4.506 -2.601 c -0.165 -0.095 -0.165 -0.334 0 -0.429 l 4.506 -2.601 c 0.058 -0.034 0.128 -0.042 0.192 -0.024 l 2.362 0.678 c 0.132 0.038 0.269 -0.038 0.307 -0.17 l 0.198 -0.69 c 0.038 -0.132 -0.038 -0.269 -0.17 -0.307 l -0.776 -0.223 c -0.21 -0.06 -0.245 -0.343 -0.056 -0.453 l 0.951 -0.549 c 0.119 -0.068 0.159 -0.22 0.091 -0.338 l -0.359 -0.622 c -0.068 -0.119 -0.22 -0.159 -0.338 -0.091 l -0.951 0.549 c -0.189 0.109 -0.417 -0.062 -0.364 -0.274 l 0.195 -0.784 c 0.033 -0.133 -0.048 -0.267 -0.181 -0.3 l -0.697 -0.173 c -0.133 -0.033 -0.267 0.048 -0.3 0.181 l -0.594 2.384 c -0.016 0.065 -0.058 0.121 -0.117 0.155 l -4.506 2.601 c -0.165 0.095 -0.372 -0.024 -0.372 -0.215 v -5.202 c 0 -0.067 0.027 -0.132 0.076 -0.178 l 1.768 -1.707 c 0.098 -0.095 0.101 -0.252 0.006 -0.35 l -0.499 -0.517 c -0.095 -0.098 -0.252 -0.101 -0.35 -0.006 l -0.581 0.561 c -0.157 0.152 -0.42 0.04 -0.42 -0.178 v -1.098 c 0 -0.137 -0.111 -0.248 -0.248 -0.248 h -0.718 c -0.137 0 -0.248 0.111 -0.248 0.248 v 1.098 c 0 0.219 -0.263 0.33 -0.42 0.178 l -0.581 -0.561 c -0.098 -0.095 -0.255 -0.092 -0.35 0.006 l -0.499 0.517 c -0.095 0.098 -0.092 0.255 0.006 0.35 l 1.768 1.707 c 0.048 0.047 0.076 0.111 0.076 0.178 v 5.202 c 0 0.191 -0.206 0.31 -0.372 0.215 l -4.506 -2.601 c -0.058 -0.034 -0.1 -0.089 -0.117 -0.155 l -0.594 -2.384 c -0.033 -0.133 -0.168 -0.214 -0.3 -0.181 l -0.697 0.173 c -0.133 0.033 -0.214 0.168 -0.181 0.3 l 0.195 0.784 c 0.053 0.212 -0.175 0.384 -0.364 0.274 l -0.951 -0.549 c -0.119 -0.068 -0.27 -0.028 -0.338 0.091 l -0.359 0.622 c -0.068 0.119 -0.028 0.27 0.091 0.338 l 0.951 0.549 c 0.189 0.109 0.155 0.392 -0.056 0.453 l -0.776 0.223 c -0.132 0.038 -0.208 0.175 -0.17 0.307 l 0.198 0.69 c 0.038 0.132 0.175 0.208 0.307 0.17 l 2.362 -0.678 c 0.065 -0.019 0.134 -0.01 0.192 0.024 l 4.506 2.601 c 0.165 0.095 0.165 0.334 0 0.429 l -4.506 2.601 c -0.058 0.034 -0.128 0.042 -0.192 0.024 l -2.362 -0.678 c -0.132 -0.038 -0.269 0.038 -0.307 0.17 l -0.198 0.69 c -0.038 0.132 0.038 0.269 0.17 0.307 l 0.776 0.223 c 0.21 0.06 0.245 0.343 0.056 0.453 l -0.951 0.549 c -0.119 0.068 -0.159 0.22 -0.091 0.338 l 0.359 0.622 c 0.068 0.119 0.22 0.159 0.338 0.091 l 0.951 -0.549 c 0.189 -0.109 0.417 0.062 0.364 0.274 l -0.195 0.784 c -0.033 0.133 0.048 0.267 0.181 0.3 l 0.697 0.173 c 0.133 0.033 0.267 -0.048 0.3 -0.181 l 0.594 -2.384 c 0.016 -0.065 0.058 -0.121 0.117 -0.155 l 4.506 -2.601 c 0.165 -0.095 0.372 0.024 0.372 0.215 v 5.202 c 0 0.067 -0.027 0.132 -0.076 0.178 l -1.768 1.707 c -0.098 0.095 -0.101 0.252 -0.006 0.35 l 0.499 0.516 c 0.095 0.098 0.252 0.101 0.35 0.006 l 0.581 -0.561 c 0.157 -0.152 0.42 -0.04 0.42 0.178 v 1.098 c 0 0.137 0.111 0.248 0.248 0.248 h 0.718 c 0.137 0 0.248 -0.111 0.248 -0.248 v -1.098 c 0 -0.219 0.263 -0.33 0.42 -0.178 l 0.581 0.561 c 0.098 0.095 0.255 0.092 0.35 -0.006 l 0.499 -0.516 c 0.095 -0.098 0.092 -0.255 -0.006 -0.35 l -1.768 -1.707 c -0.048 -0.047 -0.076 -0.111 -0.076 -0.178 v -5.202 c 0 -0.191 0.206 -0.31 0.372 -0.215 l 4.506 2.601 c 0.058 0.034 0.1 0.089 0.117 0.155 l 0.594 2.384 c 0.033 0.133 0.168 0.214 0.3 0.181 l 0.697 -0.173 c 0.133 -0.033 0.214 -0.168 0.181 -0.3 l -0.195 -0.784 c -0.053 -0.212 0.175 -0.384 0.364 -0.274 l 0.951 0.549 c 0.119 0.068 0.27 0.028 0.338 -0.091 l 0.359 -0.622 c 0.068 -0.119 0.028 -0.27 -0.091 -0.338 l -0.951 -0.549 c -0.189 -0.109 -0.155 -0.392 0.056 -0.453 l 0.776 -0.223 C 46.875 36.685 46.951 36.548 46.913 36.416 z" style="stroke: none; stroke-width: 1; stroke-dasharray: none; stroke-linecap: butt; stroke-linejoin: miter; stroke-miterlimit: 10; fill: rgb(40,66,104); fill-rule: nonzero; opacity: 1;" transform=" matrix(1 0 0 1 0 0) " stroke-linecap="round" />
	<path d="M 56.413 90.992 c -4.176 0 -8.352 -1.59 -11.531 -4.769 L 24.731 66.072 c -2.443 -2.442 -3.789 -5.691 -3.789 -9.147 V 12.119 h 32.616 v 32.6 c 0 2.614 1.019 5.073 2.867 6.922 l 11.521 11.52 c 6.357 6.358 6.357 16.705 0 23.063 C 64.766 89.402 60.59 90.992 56.413 90.992 z M 22.942 14.119 v 42.806 c 0 2.922 1.138 5.668 3.203 7.733 L 46.296 84.81 c 5.579 5.577 14.656 5.576 20.235 0 c 5.578 -5.579 5.578 -14.656 0 -20.235 l -11.521 -11.52 c -2.227 -2.227 -3.453 -5.188 -3.453 -8.336 v -30.6 H 22.942 z" style="stroke: none; stroke-width: 1; stroke-dasharray: none; stroke-linecap: butt; stroke-linejoin: miter; stroke-miterlimit: 10; fill: rgb(40,66,104); fill-rule: nonzero; opacity: 1;" transform=" matrix(1 0 0 1 0 0) " stroke-linecap="round" />
	<path d="M 18.822 0.741 c 2.293 -1.048 4.586 -0.985 6.879 0.188 c 2.496 1.276 5.442 1.234 7.946 -0.028 c 2.386 -1.202 4.772 -1.202 7.158 0 c 2.504 1.261 5.45 1.304 7.946 0.028 c 2.293 -1.173 4.586 -1.235 6.879 -0.188 c 0.332 0.152 0.544 0.486 0.544 0.851 v 14.151 c 0 0.644 -0.637 1.101 -1.244 0.884 c -2.06 -0.738 -4.12 -0.58 -6.179 0.473 c -2.496 1.276 -5.442 1.234 -7.946 -0.028 c -2.386 -1.202 -4.772 -1.202 -7.158 0 c -2.504 1.261 -5.45 1.304 -7.946 0.028 c -2.06 -1.053 -4.12 -1.211 -6.179 -0.473 c -0.606 0.217 -1.244 -0.24 -1.244 -0.884 V 1.592 C 18.278 1.227 18.49 0.893 18.822 0.741 z" style="stroke: none; stroke-width: 1; stroke-dasharray: none; stroke-linecap: butt; stroke-linejoin: miter; stroke-miterlimit: 10; fill: rgb(255,255,255); fill-rule: nonzero; opacity: 1;" transform=" matrix(1 0 0 1 0 0) " stroke-linecap="round" />
	<path d="M 44.836 19.033 c -1.529 0 -3.068 -0.355 -4.48 -1.067 c -2.106 -1.061 -4.152 -1.061 -6.259 0 c -2.805 1.415 -6.115 1.424 -8.851 0.025 c -1.819 -0.931 -3.582 -1.069 -5.387 -0.422 c -0.589 0.21 -1.246 0.122 -1.757 -0.239 c -0.516 -0.363 -0.824 -0.956 -0.824 -1.586 V 1.592 c 0 -0.756 0.443 -1.447 1.128 -1.76 l 0 0 c 2.575 -1.176 5.183 -1.107 7.75 0.207 c 2.17 1.109 4.801 1.098 7.042 -0.03 c 2.673 -1.347 5.385 -1.347 8.058 0 c 2.241 1.129 4.873 1.139 7.042 0.03 c 2.569 -1.314 5.175 -1.383 7.749 -0.207 c 0.687 0.313 1.129 1.004 1.129 1.76 v 14.151 c 0 0.63 -0.308 1.223 -0.823 1.586 c -0.513 0.361 -1.168 0.452 -1.758 0.24 c -1.806 -0.647 -3.567 -0.509 -5.387 0.421 C 47.848 18.686 46.347 19.033 44.836 19.033 z M 37.227 15.169 c 1.346 0 2.692 0.337 4.029 1.01 c 2.241 1.129 4.873 1.139 7.042 0.03 c 2.275 -1.165 4.588 -1.351 6.878 -0.557 V 1.592 c -1.977 -0.863 -3.943 -0.809 -5.968 0.227 c -2.735 1.399 -6.044 1.39 -8.851 -0.024 c -2.105 -1.061 -4.152 -1.061 -6.259 0 c -2.807 1.415 -6.116 1.423 -8.852 0.024 c -2.011 -1.028 -3.963 -1.09 -5.967 -0.187 v 14.021 c 2.291 -0.794 4.604 -0.606 6.878 0.557 c 2.17 1.108 4.801 1.099 7.042 -0.03 C 34.534 15.506 35.88 15.169 37.227 15.169 z M 19.238 1.65 L 19.238 1.65 L 19.238 1.65 L 19.238 1.65 z" style="stroke: none; stroke-width: 1; stroke-dasharray: none; stroke-linecap: butt; stroke-linejoin: miter; stroke-miterlimit: 10; fill: rgb(40,66,104); fill-rule: nonzero; opacity: 1;" transform=" matrix(1 0 0 1 0 0) " stroke-linecap="round" />
	<path d="M 31.306 72.648 l -6.575 -6.576 c -2.443 -2.442 -3.789 -5.691 -3.789 -9.147 V 43.465 l 1.28 0.373 c 7.688 2.241 13.057 9.404 13.057 17.418 c 0 3.753 -1.137 7.355 -3.289 10.418 L 31.306 72.648 z M 22.942 46.191 v 10.733 c 0 2.922 1.138 5.668 3.203 7.733 l 4.861 4.861 c 1.491 -2.493 2.273 -5.326 2.273 -8.263 C 33.279 54.579 29.091 48.566 22.942 46.191 z" style="stroke: none; stroke-width: 1; stroke-dasharray: none; stroke-linecap: butt; stroke-linejoin: miter; stroke-miterlimit: 10; fill: rgb(40,66,104); fill-rule: nonzero; opacity: 1;" transform=" matrix(1 0 0 1 0 0) " stroke-linecap="round" />
	<path d="M 56.413 90.992 c -4.176 0 -8.352 -1.59 -11.531 -4.769 l -0.55 -0.55 l 0.125 -0.54 c 1.972 -8.511 9.459 -14.455 18.208 -14.455 c 3.372 0 6.678 0.908 9.56 2.628 l 0.468 0.279 l 0.019 0.545 c 0.154 4.503 -1.583 8.91 -4.766 12.093 C 64.766 89.402 60.59 90.992 56.413 90.992 z M 46.54 85.048 c 5.597 5.339 14.493 5.258 19.991 -0.238 c 2.662 -2.662 4.172 -6.303 4.189 -10.061 c -2.457 -1.356 -5.229 -2.07 -8.056 -2.07 C 55.038 72.679 48.485 77.736 46.54 85.048 z" style="stroke: none; stroke-width: 1; stroke-dasharray: none; stroke-linecap: butt; stroke-linejoin: miter; stroke-miterlimit: 10; fill: rgb(40,66,104); fill-rule: nonzero; opacity: 1;" transform=" matrix(1 0 0 1 0 0) " stroke-linecap="round" />
</g>
</g>
</svg>