<svg xmlns="http://www.w3.org/2000/svg" xmlns:xlink="http://www.w3.org/1999/xlink" version="1.1" width="256" height="256" viewBox="0 0 256 256" xml:space="preserve">
<desc>Created with Fabric.js 1.7.22</desc>
<defs>
</defs>
<g transform="translate(128 128) scale(0.72 0.72)" style="">
	<g style="stroke: none; stroke-width: 0; stroke-dasharray: none; stroke-linecap: butt; stroke-linejoin: miter; stroke-miterlimit: 10; fill: none; fill-rule: nonzero; opacity: 1;" transform="translate(-175.05 -175.05000000000004) scale(3.89 3.89)" >
	<path d="M 48.091 17.569 c 2.966 -1.218 5.056 -4.131 5.056 -7.536 c 0 -4.499 -3.647 -8.147 -8.147 -8.147 s -8.147 3.647 -8.147 8.147 c 0 3.405 2.09 6.318 5.056 7.536 L 12.693 80.044 H 45 h 32.307 L 48.091 17.569 z" style="stroke: none; stroke-width: 1; stroke-dasharray: none; stroke-linecap: butt; stroke-linejoin: miter; stroke-miterlimit: 10; fill: rgb(241,98,108); fill-rule: nonzero; opacity: 1;" transform=" matrix(1 0 0 1 0 0) " stroke-linecap="round" />
	<polygon points="20.15,2.21 22.83,7.64 28.82,8.51 24.49,12.73 25.51,18.7 20.15,15.88 14.79,18.7 15.82,12.73 11.48,8.51 17.47,7.64 " style="stroke: none; stroke-width: 1; stroke-dasharray: none; stroke-linecap: butt; stroke-linejoin: miter; stroke-miterlimit: 10; fill: rgb(249,212,56); fill-rule: nonzero; opacity: 1;" transform="  matrix(1 0 0 1 0 0) "/>
	<polygon points="69.85,15.54 72.53,20.97 78.52,21.84 74.18,26.07 75.21,32.03 69.85,29.22 64.49,32.03 65.51,26.07 61.18,21.84 67.17,20.97 " style="stroke: none; stroke-width: 1; stroke-dasharray: none; stroke-linecap: butt; stroke-linejoin: miter; stroke-miterlimit: 10; fill: rgb(249,212,56); fill-rule: nonzero; opacity: 1;" transform="  matrix(1 0 0 1 0 0) "/>
	<circle cx="45.148" cy="9.238" r="8.368" style="stroke: none; stroke-width: 1; stroke-dasharray: none; stroke-linecap: butt; stroke-linejoin: miter; stroke-miterlimit: 10; fill: rgb(232,243,255); fill-rule: nonzero; opacity: 1;" transform="  matrix(1 0 0 1 0 0) "/>
	<path d="M 79.745 89 h -69.49 c -2.011 0 -3.657 -1.646 -3.657 -3.657 v -1.641 c 0 -2.011 1.646 -3.657 3.657 -3.657 h 69.49 c 2.011 0 3.657 1.646 3.657 3.657 v 1.641 C 83.402 87.354 81.757 89 79.745 89 z" style="stroke: none; stroke-width: 1; stroke-dasharray: none; stroke-linecap: butt; stroke-linejoin: miter; stroke-miterlimit: 10; fill: rgb(232,243,255); fill-rule: nonzero; opacity: 1;" transform=" matrix(1 0 0 1 0 0) " stroke-linecap="round" />
	<polyline points="38.57,80.04 17.85,69.01 12.69,80.04 38.57,80.04 " style="stroke: none; stroke-width: 1; stroke-dasharray: none; stroke-linecap: butt; stroke-linejoin: miter; stroke-miterlimit: 10; fill: rgb(84,190,250); fill-rule: nonzero; opacity: 1;" transform="  matrix(1 0 0 1 0 0) "/>
	<polygon points="75.06,75.24 26.93,49.6 22.39,59.3 60.65,79.69 77.31,80.04 " style="stroke: none; stroke-width: 1; stroke-dasharray: none; stroke-linecap: butt; stroke-linejoin: miter; stroke-miterlimit: 10; fill: rgb(84,190,250); fill-rule: nonzero; opacity: 1;" transform="  matrix(1 0 0 1 0 0) "/>
	<polygon points="59.97,42.96 36.01,30.19 31.47,39.9 67.51,59.1 " style="stroke: none; stroke-width: 1; stroke-dasharray: none; stroke-linecap: butt; stroke-linejoin: miter; stroke-miterlimit: 10; fill: rgb(84,190,250); fill-rule: nonzero; opacity: 1;" transform="  matrix(1 0 0 1 0 0) "/>
	<path d="M 25.511 19.702 c -0.159 0 -0.319 -0.038 -0.465 -0.115 l -4.894 -2.573 l -4.894 2.573 c -0.336 0.177 -0.745 0.148 -1.053 -0.076 c -0.308 -0.224 -0.462 -0.603 -0.398 -0.978 l 0.935 -5.45 l -3.959 -3.859 c -0.272 -0.266 -0.371 -0.663 -0.253 -1.025 c 0.118 -0.362 0.431 -0.626 0.808 -0.681 l 5.471 -0.795 l 2.447 -4.958 c 0.168 -0.341 0.516 -0.558 0.896 -0.558 l 0 0 c 0.381 0 0.729 0.216 0.897 0.558 l 2.446 4.958 l 5.471 0.795 c 0.377 0.055 0.69 0.319 0.808 0.681 c 0.118 0.362 0.02 0.759 -0.253 1.025 l -3.959 3.859 l 0.935 5.45 c 0.064 0.375 -0.09 0.754 -0.398 0.978 C 25.925 19.637 25.718 19.702 25.511 19.702 z M 13.63 9.206 l 2.885 2.812 c 0.235 0.23 0.343 0.561 0.288 0.885 l -0.681 3.971 l 3.566 -1.875 c 0.291 -0.153 0.64 -0.153 0.931 0 l 3.565 1.875 l -0.681 -3.971 c -0.055 -0.324 0.052 -0.655 0.288 -0.885 l 2.885 -2.812 l -3.986 -0.579 c -0.326 -0.047 -0.607 -0.252 -0.753 -0.547 l -1.782 -3.612 L 18.369 8.08 c -0.146 0.295 -0.427 0.5 -0.753 0.547 L 13.63 9.206 z" style="stroke: none; stroke-width: 1; stroke-dasharray: none; stroke-linecap: butt; stroke-linejoin: miter; stroke-miterlimit: 10; fill: rgb(40,66,104); fill-rule: nonzero; opacity: 1;" transform=" matrix(1 0 0 1 0 0) " stroke-linecap="round" />
	<path d="M 64.488 33.035 c -0.207 0 -0.414 -0.064 -0.588 -0.191 c -0.308 -0.224 -0.462 -0.603 -0.397 -0.978 l 0.936 -5.45 l -3.96 -3.859 c -0.272 -0.266 -0.37 -0.663 -0.253 -1.025 c 0.118 -0.362 0.431 -0.626 0.808 -0.681 l 5.471 -0.795 l 2.447 -4.958 c 0.336 -0.683 1.457 -0.683 1.793 0 l 2.447 4.958 l 5.472 0.795 c 0.377 0.055 0.689 0.319 0.808 0.681 c 0.117 0.362 0.02 0.759 -0.253 1.025 l -3.96 3.859 l 0.935 5.45 c 0.064 0.375 -0.09 0.754 -0.397 0.978 c -0.308 0.224 -0.718 0.253 -1.053 0.076 l -4.895 -2.573 l -4.895 2.573 C 64.808 32.997 64.647 33.035 64.488 33.035 z M 69.848 28.217 c 0.16 0 0.319 0.038 0.465 0.115 l 3.566 1.875 l -0.681 -3.971 c -0.056 -0.324 0.052 -0.655 0.287 -0.885 l 2.885 -2.812 l -3.986 -0.579 c -0.326 -0.047 -0.607 -0.252 -0.753 -0.547 L 69.848 17.8 l -1.783 3.612 c -0.146 0.295 -0.427 0.5 -0.753 0.547 l -3.985 0.579 l 2.885 2.812 c 0.235 0.23 0.343 0.561 0.287 0.885 l -0.682 3.971 l 3.566 -1.875 C 69.528 28.255 69.688 28.217 69.848 28.217 z" style="stroke: none; stroke-width: 1; stroke-dasharray: none; stroke-linecap: butt; stroke-linejoin: miter; stroke-miterlimit: 10; fill: rgb(40,66,104); fill-rule: nonzero; opacity: 1;" transform=" matrix(1 0 0 1 0 0) " stroke-linecap="round" />
	<path d="M 77.307 81.044 H 12.693 c -0.342 0 -0.66 -0.175 -0.844 -0.463 c -0.184 -0.289 -0.207 -0.651 -0.062 -0.961 l 29.216 -62.476 c 0.234 -0.501 0.828 -0.716 1.33 -0.482 c 0.5 0.234 0.716 0.829 0.482 1.33 l -28.55 61.052 h 61.471 L 47.185 17.992 c -0.233 -0.5 -0.018 -1.096 0.482 -1.33 c 0.5 -0.234 1.097 -0.018 1.33 0.482 L 78.213 79.62 c 0.145 0.31 0.121 0.672 -0.063 0.961 C 77.967 80.869 77.648 81.044 77.307 81.044 z" style="stroke: none; stroke-width: 1; stroke-dasharray: none; stroke-linecap: butt; stroke-linejoin: miter; stroke-miterlimit: 10; fill: rgb(40,66,104); fill-rule: nonzero; opacity: 1;" transform=" matrix(1 0 0 1 0 0) " stroke-linecap="round" />
	<path d="M 67.514 60.102 c -0.16 0 -0.322 -0.038 -0.47 -0.117 L 30.997 40.779 c -0.47 -0.25 -0.661 -0.824 -0.436 -1.306 l 4.538 -9.703 c 0.116 -0.248 0.329 -0.438 0.589 -0.525 c 0.261 -0.085 0.545 -0.063 0.787 0.066 l 23.959 12.765 c 0.191 0.102 0.345 0.263 0.437 0.458 l 7.549 16.143 c 0.182 0.39 0.095 0.853 -0.218 1.149 C 68.012 60.008 67.764 60.102 67.514 60.102 z M 32.775 39.461 L 65.338 56.81 L 59.2 43.684 L 36.464 31.572 L 32.775 39.461 z" style="stroke: none; stroke-width: 1; stroke-dasharray: none; stroke-linecap: butt; stroke-linejoin: miter; stroke-miterlimit: 10; fill: rgb(40,66,104); fill-rule: nonzero; opacity: 1;" transform=" matrix(1 0 0 1 0 0) " stroke-linecap="round" />
	<path d="M 38.57 81.044 H 12.693 c -0.342 0 -0.66 -0.175 -0.844 -0.463 c -0.184 -0.289 -0.207 -0.651 -0.062 -0.961 l 5.161 -11.036 c 0.116 -0.248 0.329 -0.438 0.589 -0.524 c 0.26 -0.089 0.545 -0.063 0.787 0.065 L 39.04 79.161 c 0.405 0.216 0.611 0.68 0.5 1.125 S 39.029 81.044 38.57 81.044 z M 14.265 79.044 h 20.301 l -16.252 -8.658 L 14.265 79.044 z" style="stroke: none; stroke-width: 1; stroke-dasharray: none; stroke-linecap: butt; stroke-linejoin: miter; stroke-miterlimit: 10; fill: rgb(40,66,104); fill-rule: nonzero; opacity: 1;" transform=" matrix(1 0 0 1 0 0) " stroke-linecap="round" />
	<path d="M 79.745 90 h -69.49 c -2.568 0 -4.657 -2.089 -4.657 -4.657 v -1.642 c 0 -2.568 2.089 -4.657 4.657 -4.657 h 69.49 c 2.568 0 4.657 2.089 4.657 4.657 v 1.642 C 84.402 87.911 82.313 90 79.745 90 z M 10.255 81.044 c -1.465 0 -2.657 1.192 -2.657 2.657 v 1.642 C 7.598 86.808 8.79 88 10.255 88 h 69.49 c 1.465 0 2.657 -1.192 2.657 -2.657 v -1.642 c 0 -1.465 -1.192 -2.657 -2.657 -2.657 H 10.255 z" style="stroke: none; stroke-width: 1; stroke-dasharray: none; stroke-linecap: butt; stroke-linejoin: miter; stroke-miterlimit: 10; fill: rgb(40,66,104); fill-rule: nonzero; opacity: 1;" transform=" matrix(1 0 0 1 0 0) " stroke-linecap="round" />
	<path d="M 78.895 81.078 l -18.506 -0.397 l -0.21 -0.112 L 21.083 59.74 l 5.387 -11.518 l 49.357 26.296 L 78.895 81.078 z M 60.908 78.69 l 14.811 0.319 l -1.421 -3.04 L 27.389 50.979 L 23.7 58.867 L 60.908 78.69 z" style="stroke: none; stroke-width: 1; stroke-dasharray: none; stroke-linecap: butt; stroke-linejoin: miter; stroke-miterlimit: 10; fill: rgb(40,66,104); fill-rule: nonzero; opacity: 1;" transform=" matrix(1 0 0 1 0 0) " stroke-linecap="round" />
	<path d="M 45 18.568 c -5.119 0 -9.284 -4.165 -9.284 -9.284 S 39.881 0 45 0 s 9.284 4.165 9.284 9.284 S 50.119 18.568 45 18.568 z M 45 2 c -4.017 0 -7.284 3.268 -7.284 7.284 s 3.268 7.284 7.284 7.284 s 7.284 -3.268 7.284 -7.284 S 49.017 2 45 2 z" style="stroke: none; stroke-width: 1; stroke-dasharray: none; stroke-linecap: butt; stroke-linejoin: miter; stroke-miterlimit: 10; fill: rgb(40,66,104); fill-rule: nonzero; opacity: 1;" transform=" matrix(1 0 0 1 0 0) " stroke-linecap="round" />
</g>
</g>
</svg>