<svg xmlns="http://www.w3.org/2000/svg" xmlns:xlink="http://www.w3.org/1999/xlink" version="1.1" width="256" height="256" viewBox="0 0 256 256" xml:space="preserve">
<desc>Created with Fabric.js 1.7.22</desc>
<defs>
</defs>
<g transform="translate(128 128) scale(0.72 0.72)" style="">
	<g style="stroke: none; stroke-width: 0; stroke-dasharray: none; stroke-linecap: butt; stroke-linejoin: miter; stroke-miterlimit: 10; fill: none; fill-rule: nonzero; opacity: 1;" transform="translate(-175.05 -175.05000000000004) scale(3.89 3.89)" >
	<circle cx="45" cy="49.69" r="35.91" style="stroke: none; stroke-width: 1; stroke-dasharray: none; stroke-linecap: butt; stroke-linejoin: miter; stroke-miterlimit: 10; fill: rgb(230,239,250); fill-rule: nonzero; opacity: 1;" transform="  matrix(1 0 0 1 0 0) "/>
	<path d="M 73.582 22.744 l 2.608 -3.158 c 0.812 -0.982 1.193 -2.221 1.072 -3.489 c -0.121 -1.268 -0.727 -2.413 -1.709 -3.224 l -2.567 -2.121 c -0.983 -0.812 -2.222 -1.193 -3.49 -1.072 c -1.267 0.121 -2.412 0.728 -3.225 1.71 l -2.93 3.547 c -2.687 -1.424 -5.555 -2.552 -8.565 -3.325 V 7.276 c 0 -3.46 -2.815 -6.276 -6.276 -6.276 h -7.004 c -3.46 0 -6.276 2.816 -6.276 6.276 v 4.335 C 18.262 15.969 5.69 31.389 5.69 49.69 C 5.69 71.365 23.324 89 45 89 s 39.31 -17.635 39.31 -39.31 C 84.31 39.267 80.225 29.787 73.582 22.744 z M 45 82.2 c -17.926 0 -32.51 -14.584 -32.51 -32.51 c 0 -17.926 14.584 -32.51 32.51 -32.51 s 32.51 14.584 32.51 32.51 C 77.51 67.616 62.926 82.2 45 82.2 z" style="stroke: none; stroke-width: 1; stroke-dasharray: none; stroke-linecap: butt; stroke-linejoin: miter; stroke-miterlimit: 10; fill: rgb(241,98,108); fill-rule: nonzero; opacity: 1;" transform=" matrix(1 0 0 1 0 0) " stroke-linecap="round" />
	<circle cx="19.796999999999997" cy="49.567" r="1.467" style="stroke: none; stroke-width: 1; stroke-dasharray: none; stroke-linecap: butt; stroke-linejoin: miter; stroke-miterlimit: 10; fill: rgb(40,66,104); fill-rule: nonzero; opacity: 1;" transform="  matrix(1 0 0 1 0 0) "/>
	<circle cx="45.037" cy="24.317" r="1.467" style="stroke: none; stroke-width: 1; stroke-dasharray: none; stroke-linecap: butt; stroke-linejoin: miter; stroke-miterlimit: 10; fill: rgb(40,66,104); fill-rule: nonzero; opacity: 1;" transform="  matrix(1 0 0 1 0 0) "/>
	<circle cx="45.037" cy="74.807" r="1.467" style="stroke: none; stroke-width: 1; stroke-dasharray: none; stroke-linecap: butt; stroke-linejoin: miter; stroke-miterlimit: 10; fill: rgb(40,66,104); fill-rule: nonzero; opacity: 1;" transform="  matrix(1 0 0 1 0 0) "/>
	<circle cx="70.28699999999999" cy="49.567" r="1.467" style="stroke: none; stroke-width: 1; stroke-dasharray: none; stroke-linecap: butt; stroke-linejoin: miter; stroke-miterlimit: 10; fill: rgb(40,66,104); fill-rule: nonzero; opacity: 1;" transform="  matrix(1 0 0 1 0 0) "/>
	<circle cx="45.04" cy="49.57" r="2.68" style="stroke: none; stroke-width: 1; stroke-dasharray: none; stroke-linecap: butt; stroke-linejoin: miter; stroke-miterlimit: 10; fill: rgb(40,66,104); fill-rule: nonzero; opacity: 1;" transform="  matrix(1 0 0 1 0 0) "/>
	<path d="M 45.042 52.184 c -0.829 0 -1.5 -0.672 -1.5 -1.5 V 31.135 c 0 -0.829 0.671 -1.5 1.5 -1.5 s 1.5 0.671 1.5 1.5 v 19.548 C 46.541 51.512 45.87 52.184 45.042 52.184 z" style="stroke: none; stroke-width: 1; stroke-dasharray: none; stroke-linecap: butt; stroke-linejoin: miter; stroke-miterlimit: 10; fill: rgb(40,66,104); fill-rule: nonzero; opacity: 1;" transform=" matrix(1 0 0 1 0 0) " stroke-linecap="round" />
	<path d="M 45 90 C 22.773 90 4.69 71.917 4.69 49.689 c 0 -18.15 12.104 -34.013 29.533 -38.846 V 7.276 C 34.223 3.264 37.486 0 41.498 0 h 7.005 c 4.012 0 7.275 3.264 7.275 7.276 v 3.568 c 2.505 0.697 4.957 1.648 7.308 2.834 l 2.417 -2.925 c 0.981 -1.188 2.367 -1.922 3.9 -2.068 c 1.532 -0.146 3.033 0.314 4.222 1.297 l 2.566 2.121 c 1.187 0.981 1.921 2.366 2.067 3.9 c 0.146 1.536 -0.315 3.035 -1.298 4.222 l -2.052 2.484 c 6.714 7.431 10.401 16.978 10.401 26.982 C 85.311 71.917 67.228 90 45 90 z M 41.498 2 c -2.909 0 -5.275 2.367 -5.275 5.276 v 5.111 l -0.751 0.193 C 18.525 16.934 6.69 32.193 6.69 49.689 C 6.69 70.813 23.876 88 45 88 s 38.311 -17.187 38.311 -38.311 c 0 -9.786 -3.713 -19.112 -10.456 -26.259 l -0.605 -0.642 l 3.17 -3.839 c 0.643 -0.776 0.944 -1.756 0.85 -2.758 c -0.096 -1.002 -0.576 -1.907 -1.351 -2.547 l -2.567 -2.121 c -0.775 -0.642 -1.749 -0.945 -2.758 -0.847 c -1.002 0.096 -1.907 0.576 -2.549 1.352 l -3.449 4.175 l -0.721 -0.381 c -2.663 -1.412 -5.471 -2.502 -8.345 -3.24 l -0.751 -0.193 V 7.276 C 53.778 4.367 51.412 2 48.503 2 H 41.498 z M 45 83.2 c -18.478 0 -33.51 -15.033 -33.51 -33.511 S 26.522 16.18 45 16.18 s 33.51 15.032 33.51 33.51 S 63.478 83.2 45 83.2 z M 45 18.18 c -17.375 0 -31.51 14.135 -31.51 31.51 C 13.49 67.064 27.625 81.2 45 81.2 s 31.51 -14.136 31.51 -31.511 C 76.51 32.315 62.375 18.18 45 18.18 z" style="stroke: none; stroke-width: 1; stroke-dasharray: none; stroke-linecap: butt; stroke-linejoin: miter; stroke-miterlimit: 10; fill: rgb(40,66,104); fill-rule: nonzero; opacity: 1;" transform=" matrix(1 0 0 1 0 0) " stroke-linecap="round" />
</g>
</g>
</svg>