<svg xmlns="http://www.w3.org/2000/svg" xmlns:xlink="http://www.w3.org/1999/xlink" version="1.1" width="256" height="256" viewBox="0 0 256 256" xml:space="preserve">
<desc>Created with Fabric.js 1.7.22</desc>
<defs>
</defs>
<g transform="translate(128 128) scale(0.72 0.72)" style="">
	<g style="stroke: none; stroke-width: 0; stroke-dasharray: none; stroke-linecap: butt; stroke-linejoin: miter; stroke-miterlimit: 10; fill: none; fill-rule: nonzero; opacity: 1;" transform="translate(-175.05 -175.05000000000004) scale(3.89 3.89)" >
	<path d="M 50.392 15.31 h 33.033 c 2.295 0 4.173 1.878 4.173 4.173 v 0 c 0 2.295 -1.878 4.173 -4.173 4.173 H 6.574 c -2.295 0 -4.173 -1.878 -4.173 -4.173 v 0 c 0 -2.295 1.878 -4.173 4.173 -4.173 h 33.033" style="stroke: none; stroke-width: 1; stroke-dasharray: none; stroke-linecap: butt; stroke-linejoin: miter; stroke-miterlimit: 10; fill: rgb(232,243,255); fill-rule: nonzero; opacity: 1;" transform=" matrix(1 0 0 1 0 0) " stroke-linecap="round" />
	<path d="M 31.007 70.521 c -4.818 -9.336 -2.02 -18.366 4.007 -26.049 c -0.088 5.224 2.377 10.132 5.061 11.476 c -1.1 -7.25 1.563 -14.829 4.925 -19.585 c -0.289 6.268 0.895 11.433 4.729 15.08 c 2.85 -2.299 3.722 -4.676 4.073 -9.955 c 4.733 4.825 8.703 14.131 5.906 23.782" style="stroke: none; stroke-width: 1; stroke-dasharray: none; stroke-linecap: butt; stroke-linejoin: miter; stroke-miterlimit: 10; fill: rgb(249,212,56); fill-rule: nonzero; opacity: 1;" transform=" matrix(1 0 0 1 0 0) " stroke-linecap="round" />
	<path d="M 83.426 88.999 H 6.574 c -2.295 0 -4.173 -1.878 -4.173 -4.173 v 0 c 0 -2.295 1.878 -4.173 4.173 -4.173 h 76.851 c 2.295 0 4.173 1.878 4.173 4.173 v 0 C 87.599 87.122 85.721 88.999 83.426 88.999 z" style="stroke: none; stroke-width: 1; stroke-dasharray: none; stroke-linecap: butt; stroke-linejoin: miter; stroke-miterlimit: 10; fill: rgb(232,243,255); fill-rule: nonzero; opacity: 1;" transform=" matrix(1 0 0 1 0 0) " stroke-linecap="round" />
	<rect x="6.55" y="23.66" rx="0" ry="0" width="9.26" height="57" style="stroke: none; stroke-width: 1; stroke-dasharray: none; stroke-linecap: butt; stroke-linejoin: miter; stroke-miterlimit: 10; fill: rgb(232,243,255); fill-rule: nonzero; opacity: 1;" transform=" matrix(1 0 0 1 0 0) "/>
	<rect x="74.19" y="23.66" rx="0" ry="0" width="9.26" height="57" style="stroke: none; stroke-width: 1; stroke-dasharray: none; stroke-linecap: butt; stroke-linejoin: miter; stroke-miterlimit: 10; fill: rgb(232,243,255); fill-rule: nonzero; opacity: 1;" transform=" matrix(1 0 0 1 0 0) "/>
	<path d="M 83.426 90 H 6.574 c -2.853 0 -5.174 -2.321 -5.174 -5.174 s 2.321 -5.174 5.174 -5.174 h 76.851 c 2.853 0 5.174 2.321 5.174 5.174 S 86.279 90 83.426 90 z M 6.574 81.654 c -1.749 0 -3.173 1.424 -3.173 3.173 s 1.423 3.173 3.173 3.173 h 76.851 c 1.749 0 3.173 -1.424 3.173 -3.173 s -1.424 -3.173 -3.173 -3.173 H 6.574 z" style="stroke: none; stroke-width: 1; stroke-dasharray: none; stroke-linecap: butt; stroke-linejoin: miter; stroke-miterlimit: 10; fill: rgb(40,66,104); fill-rule: nonzero; opacity: 1;" transform=" matrix(1 0 0 1 0 0) " stroke-linecap="round" />
	<path d="M 83.426 24.657 H 6.574 c -2.853 0 -5.174 -2.321 -5.174 -5.174 s 2.321 -5.174 5.174 -5.174 h 33.033 c 0.553 0 1.001 0.448 1.001 1.001 s -0.448 1.001 -1.001 1.001 H 6.574 c -1.749 0 -3.173 1.423 -3.173 3.173 c 0 1.749 1.423 3.173 3.173 3.173 h 76.851 c 1.749 0 3.173 -1.423 3.173 -3.173 c 0 -1.749 -1.424 -3.173 -3.173 -3.173 H 50.392 c -0.553 0 -1.001 -0.448 -1.001 -1.001 s 0.447 -1.001 1.001 -1.001 h 33.033 c 2.853 0 5.174 2.321 5.174 5.174 S 86.279 24.657 83.426 24.657 z" style="stroke: none; stroke-width: 1; stroke-dasharray: none; stroke-linecap: butt; stroke-linejoin: miter; stroke-miterlimit: 10; fill: rgb(40,66,104); fill-rule: nonzero; opacity: 1;" transform=" matrix(1 0 0 1 0 0) " stroke-linecap="round" />
	<path d="M 15.814 81.654 H 6.55 c -0.553 0 -1.001 -0.447 -1.001 -1.001 V 23.656 c 0 -0.553 0.448 -1.001 1.001 -1.001 h 9.263 c 0.553 0 1.001 0.448 1.001 1.001 v 56.997 C 16.814 81.206 16.366 81.654 15.814 81.654 z M 7.551 79.653 h 7.262 V 24.657 H 7.551 V 79.653 z" style="stroke: none; stroke-width: 1; stroke-dasharray: none; stroke-linecap: butt; stroke-linejoin: miter; stroke-miterlimit: 10; fill: rgb(40,66,104); fill-rule: nonzero; opacity: 1;" transform=" matrix(1 0 0 1 0 0) " stroke-linecap="round" />
	<path d="M 83.449 81.654 h -9.263 c -0.553 0 -1.001 -0.447 -1.001 -1.001 V 23.656 c 0 -0.553 0.447 -1.001 1.001 -1.001 h 9.263 c 0.553 0 1.001 0.448 1.001 1.001 v 56.997 C 84.45 81.206 84.002 81.654 83.449 81.654 z M 75.187 79.653 h 7.261 V 24.657 h -7.261 V 79.653 z" style="stroke: none; stroke-width: 1; stroke-dasharray: none; stroke-linecap: butt; stroke-linejoin: miter; stroke-miterlimit: 10; fill: rgb(40,66,104); fill-rule: nonzero; opacity: 1;" transform=" matrix(1 0 0 1 0 0) " stroke-linecap="round" />
	<path d="M 31.008 71.521 c -0.362 0 -0.712 -0.197 -0.89 -0.541 c -4.457 -8.636 -3.037 -18.016 4.109 -27.125 c 0.265 -0.338 0.717 -0.468 1.122 -0.325 c 0.405 0.144 0.673 0.53 0.666 0.959 c -0.062 3.685 1.235 7.139 2.832 9.116 c -0.3 -7.093 2.555 -13.884 5.337 -17.819 c 0.256 -0.362 0.723 -0.512 1.142 -0.369 c 0.42 0.144 0.695 0.549 0.675 0.992 c -0.284 6.167 0.921 10.54 3.785 13.664 c 2.003 -1.877 2.711 -4.016 3.019 -8.651 c 0.026 -0.393 0.281 -0.735 0.651 -0.872 c 0.371 -0.135 0.787 -0.043 1.062 0.238 c 5.121 5.221 9.009 14.903 6.153 24.761 c -0.154 0.531 -0.707 0.833 -1.24 0.683 c -0.531 -0.154 -0.836 -0.709 -0.683 -1.24 c 2.346 -8.092 -0.238 -16.051 -4.163 -21.089 c -0.515 4.125 -1.65 6.242 -4.226 8.32 c -0.39 0.316 -0.954 0.291 -1.318 -0.054 c -3.103 -2.953 -4.737 -6.886 -5.032 -12.215 c -2.16 4.209 -3.824 10.033 -2.942 15.844 c 0.056 0.37 -0.099 0.74 -0.401 0.959 c -0.302 0.22 -0.703 0.251 -1.036 0.086 c -2.662 -1.334 -4.803 -5.251 -5.43 -9.562 c -5.302 7.809 -6.079 15.462 -2.301 22.78 c 0.254 0.491 0.061 1.095 -0.43 1.348 C 31.319 71.485 31.162 71.521 31.008 71.521 z" style="stroke: none; stroke-width: 1; stroke-dasharray: none; stroke-linecap: butt; stroke-linejoin: miter; stroke-miterlimit: 10; fill: rgb(40,66,104); fill-rule: nonzero; opacity: 1;" transform=" matrix(1 0 0 1 0 0) " stroke-linecap="round" />
	<path d="M 15.814 36.229 H 6.55 c -0.553 0 -1.001 -0.448 -1.001 -1.001 c 0 -0.553 0.448 -1.001 1.001 -1.001 h 9.263 c 0.553 0 1.001 0.448 1.001 1.001 C 16.814 35.781 16.366 36.229 15.814 36.229 z" style="stroke: none; stroke-width: 1; stroke-dasharray: none; stroke-linecap: butt; stroke-linejoin: miter; stroke-miterlimit: 10; fill: rgb(40,66,104); fill-rule: nonzero; opacity: 1;" transform=" matrix(1 0 0 1 0 0) " stroke-linecap="round" />
	<path d="M 15.814 47.693 H 6.55 c -0.553 0 -1.001 -0.447 -1.001 -1.001 c 0 -0.553 0.448 -1.001 1.001 -1.001 h 9.263 c 0.553 0 1.001 0.447 1.001 1.001 C 16.814 47.246 16.366 47.693 15.814 47.693 z" style="stroke: none; stroke-width: 1; stroke-dasharray: none; stroke-linecap: butt; stroke-linejoin: miter; stroke-miterlimit: 10; fill: rgb(40,66,104); fill-rule: nonzero; opacity: 1;" transform=" matrix(1 0 0 1 0 0) " stroke-linecap="round" />
	<path d="M 15.814 59.156 H 6.55 c -0.553 0 -1.001 -0.447 -1.001 -1.001 c 0 -0.553 0.448 -1.001 1.001 -1.001 h 9.263 c 0.553 0 1.001 0.447 1.001 1.001 C 16.814 58.709 16.366 59.156 15.814 59.156 z" style="stroke: none; stroke-width: 1; stroke-dasharray: none; stroke-linecap: butt; stroke-linejoin: miter; stroke-miterlimit: 10; fill: rgb(40,66,104); fill-rule: nonzero; opacity: 1;" transform=" matrix(1 0 0 1 0 0) " stroke-linecap="round" />
	<path d="M 15.814 70.62 H 6.55 c -0.553 0 -1.001 -0.447 -1.001 -1.001 s 0.448 -1.001 1.001 -1.001 h 9.263 c 0.553 0 1.001 0.447 1.001 1.001 S 16.366 70.62 15.814 70.62 z" style="stroke: none; stroke-width: 1; stroke-dasharray: none; stroke-linecap: butt; stroke-linejoin: miter; stroke-miterlimit: 10; fill: rgb(40,66,104); fill-rule: nonzero; opacity: 1;" transform=" matrix(1 0 0 1 0 0) " stroke-linecap="round" />
	<path d="M 83.449 35.96 h -9.263 c -0.553 0 -1.001 -0.448 -1.001 -1.001 c 0 -0.553 0.447 -1.001 1.001 -1.001 h 9.263 c 0.553 0 1.001 0.448 1.001 1.001 C 84.45 35.512 84.002 35.96 83.449 35.96 z" style="stroke: none; stroke-width: 1; stroke-dasharray: none; stroke-linecap: butt; stroke-linejoin: miter; stroke-miterlimit: 10; fill: rgb(40,66,104); fill-rule: nonzero; opacity: 1;" transform=" matrix(1 0 0 1 0 0) " stroke-linecap="round" />
	<path d="M 83.449 47.424 h -9.263 c -0.553 0 -1.001 -0.447 -1.001 -1.001 c 0 -0.553 0.447 -1.001 1.001 -1.001 h 9.263 c 0.553 0 1.001 0.448 1.001 1.001 C 84.45 46.976 84.002 47.424 83.449 47.424 z" style="stroke: none; stroke-width: 1; stroke-dasharray: none; stroke-linecap: butt; stroke-linejoin: miter; stroke-miterlimit: 10; fill: rgb(40,66,104); fill-rule: nonzero; opacity: 1;" transform=" matrix(1 0 0 1 0 0) " stroke-linecap="round" />
	<path d="M 83.449 58.888 h -9.263 c -0.553 0 -1.001 -0.447 -1.001 -1.001 c 0 -0.553 0.447 -1.001 1.001 -1.001 h 9.263 c 0.553 0 1.001 0.447 1.001 1.001 C 84.45 58.44 84.002 58.888 83.449 58.888 z" style="stroke: none; stroke-width: 1; stroke-dasharray: none; stroke-linecap: butt; stroke-linejoin: miter; stroke-miterlimit: 10; fill: rgb(40,66,104); fill-rule: nonzero; opacity: 1;" transform=" matrix(1 0 0 1 0 0) " stroke-linecap="round" />
	<path d="M 83.449 70.351 h -9.263 c -0.553 0 -1.001 -0.447 -1.001 -1.001 s 0.447 -1.001 1.001 -1.001 h 9.263 c 0.553 0 1.001 0.447 1.001 1.001 S 84.002 70.351 83.449 70.351 z" style="stroke: none; stroke-width: 1; stroke-dasharray: none; stroke-linecap: butt; stroke-linejoin: miter; stroke-miterlimit: 10; fill: rgb(40,66,104); fill-rule: nonzero; opacity: 1;" transform=" matrix(1 0 0 1 0 0) " stroke-linecap="round" />
	<polygon points="45,0.95 48.1,7.24 55.04,8.25 50.02,13.14 51.21,20.05 45,16.79 38.79,20.05 39.98,13.14 34.96,8.25 41.9,7.24 " style="stroke: none; stroke-width: 1; stroke-dasharray: none; stroke-linecap: butt; stroke-linejoin: miter; stroke-miterlimit: 10; fill: rgb(84,190,250); fill-rule: nonzero; opacity: 1;" transform="  matrix(1 0 0 1 0 0) "/>
	<path d="M 38.794 21.055 c -0.207 0 -0.414 -0.064 -0.588 -0.191 c -0.308 -0.224 -0.462 -0.603 -0.398 -0.979 l 1.096 -6.392 L 34.26 8.967 c -0.273 -0.266 -0.371 -0.663 -0.254 -1.026 c 0.118 -0.362 0.431 -0.626 0.808 -0.681 l 6.418 -0.933 l 2.87 -5.815 c 0.338 -0.683 1.457 -0.683 1.795 0 l 2.87 5.815 l 6.417 0.933 c 0.377 0.055 0.69 0.319 0.808 0.681 c 0.117 0.362 0.02 0.76 -0.253 1.025 l -4.644 4.527 l 1.096 6.392 c 0.064 0.375 -0.09 0.755 -0.398 0.979 c -0.308 0.224 -0.718 0.253 -1.053 0.076 L 45 17.923 l -5.74 3.018 C 39.113 21.017 38.953 21.055 38.794 21.055 z M 45 15.792 c 0.16 0 0.32 0.038 0.466 0.115 l 4.412 2.32 l -0.842 -4.913 c -0.056 -0.324 0.052 -0.656 0.287 -0.885 l 3.569 -3.479 L 47.96 8.232 c -0.326 -0.047 -0.608 -0.252 -0.753 -0.548 L 45 3.215 l -2.206 4.47 c -0.146 0.296 -0.427 0.5 -0.753 0.548 l -4.933 0.717 l 3.569 3.479 c 0.236 0.23 0.343 0.561 0.288 0.886 l -0.843 4.912 l 4.411 -2.319 C 44.68 15.83 44.84 15.792 45 15.792 z" style="stroke: none; stroke-width: 1; stroke-dasharray: none; stroke-linecap: butt; stroke-linejoin: miter; stroke-miterlimit: 10; fill: rgb(40,66,104); fill-rule: nonzero; opacity: 1;" transform=" matrix(1 0 0 1 0 0) " stroke-linecap="round" />
	<ellipse cx="55.629000000000005" cy="65.266" rx="4.039" ry="5.066" style="stroke: none; stroke-width: 1; stroke-dasharray: none; stroke-linecap: butt; stroke-linejoin: miter; stroke-miterlimit: 10; fill: rgb(188,111,97); fill-rule: nonzero; opacity: 1;" transform=" matrix(0.9712 -0.2382 0.2382 0.9712 -13.9477 15.1313) "/>
	<polyline points="54.42,60.35 31.01,70.52 36.44,79.92 56.83,70.19 " style="stroke: none; stroke-width: 1; stroke-dasharray: none; stroke-linecap: butt; stroke-linejoin: miter; stroke-miterlimit: 10; fill: rgb(188,111,97); fill-rule: nonzero; opacity: 1;" transform="  matrix(1 0 0 1 0 0) "/>
	<path d="M 56.045 71.286 c -1.021 0 -2.04 -0.363 -2.949 -1.065 c -1.148 -0.885 -1.987 -2.218 -2.364 -3.751 c -0.376 -1.534 -0.249 -3.103 0.359 -4.419 c 0.644 -1.393 1.741 -2.343 3.09 -2.673 c 2.7 -0.67 5.542 1.442 6.34 4.691 h 0.001 c 0.796 3.249 -0.751 6.431 -3.45 7.092 C 56.733 71.245 56.389 71.286 56.045 71.286 z M 55.207 61.255 c -0.184 0 -0.367 0.021 -0.549 0.066 c -0.745 0.183 -1.368 0.74 -1.75 1.568 c -0.418 0.907 -0.501 2.009 -0.233 3.104 c 0.269 1.095 0.852 2.034 1.642 2.644 c 0.722 0.557 1.527 0.762 2.278 0.581 c 1.627 -0.4 2.517 -2.495 1.983 -4.673 l 0 0 C 58.104 62.612 56.663 61.255 55.207 61.255 z" style="stroke: none; stroke-width: 1; stroke-dasharray: none; stroke-linecap: butt; stroke-linejoin: miter; stroke-miterlimit: 10; fill: rgb(40,66,104); fill-rule: nonzero; opacity: 1;" transform=" matrix(1 0 0 1 0 0) " stroke-linecap="round" />
	<path d="M 36.436 80.915 c -0.347 0 -0.682 -0.181 -0.867 -0.5 l -5.429 -9.394 c -0.143 -0.246 -0.173 -0.542 -0.084 -0.814 c 0.089 -0.271 0.29 -0.49 0.552 -0.604 l 23.413 -10.171 c 0.508 -0.222 1.096 0.012 1.316 0.519 c 0.221 0.507 -0.012 1.096 -0.519 1.316 l -22.384 9.725 l 4.405 7.623 l 19.564 -9.327 c 0.503 -0.239 1.097 -0.025 1.334 0.472 c 0.238 0.499 0.026 1.096 -0.472 1.334 l -20.399 9.725 C 36.728 80.884 36.581 80.915 36.436 80.915 z" style="stroke: none; stroke-width: 1; stroke-dasharray: none; stroke-linecap: butt; stroke-linejoin: miter; stroke-miterlimit: 10; fill: rgb(40,66,104); fill-rule: nonzero; opacity: 1;" transform=" matrix(1 0 0 1 0 0) " stroke-linecap="round" />
	<ellipse cx="26.969" cy="75.586" rx="4.039" ry="5.066" style="stroke: none; stroke-width: 1; stroke-dasharray: none; stroke-linecap: butt; stroke-linejoin: miter; stroke-miterlimit: 10; fill: rgb(188,111,97); fill-rule: nonzero; opacity: 1;" transform=" matrix(1 0 0 1 0 0) "/>
	<path d="M 26.968 70.521 h 35.537 c 2.231 0 4.039 2.268 4.039 5.066 c 0 2.798 -1.808 5.066 -4.039 5.066 H 26.968" style="stroke: none; stroke-width: 1; stroke-dasharray: none; stroke-linecap: butt; stroke-linejoin: miter; stroke-miterlimit: 10; fill: rgb(188,111,97); fill-rule: nonzero; opacity: 1;" transform=" matrix(1 0 0 1 0 0) " stroke-linecap="round" />
	<path d="M 26.968 81.654 c -2.779 0 -5.04 -2.721 -5.04 -6.067 c 0 -3.345 2.261 -6.068 5.04 -6.068 s 5.04 2.722 5.04 6.068 C 32.008 78.933 29.747 81.654 26.968 81.654 z M 26.968 71.521 c -1.676 0 -3.039 1.824 -3.039 4.067 c 0 2.241 1.363 4.066 3.039 4.066 c 1.676 0 3.039 -1.824 3.039 -4.066 C 30.007 73.345 28.644 71.521 26.968 71.521 z" style="stroke: none; stroke-width: 1; stroke-dasharray: none; stroke-linecap: butt; stroke-linejoin: miter; stroke-miterlimit: 10; fill: rgb(40,66,104); fill-rule: nonzero; opacity: 1;" transform=" matrix(1 0 0 1 0 0) " stroke-linecap="round" />
	<path d="M 62.505 81.654 H 26.968 c -0.553 0 -1.001 -0.447 -1.001 -1.001 c 0 -0.553 0.448 -1.001 1.001 -1.001 h 35.537 c 1.676 0 3.039 -1.824 3.039 -4.066 c 0 -2.242 -1.363 -4.067 -3.039 -4.067 H 26.968 c -0.553 0 -1.001 -0.447 -1.001 -1.001 s 0.448 -1.001 1.001 -1.001 h 35.537 c 2.779 0 5.04 2.722 5.04 6.068 C 67.545 78.933 65.284 81.654 62.505 81.654 z" style="stroke: none; stroke-width: 1; stroke-dasharray: none; stroke-linecap: butt; stroke-linejoin: miter; stroke-miterlimit: 10; fill: rgb(40,66,104); fill-rule: nonzero; opacity: 1;" transform=" matrix(1 0 0 1 0 0) " stroke-linecap="round" />
</g>
</g>
</svg>