<svg xmlns="http://www.w3.org/2000/svg" xmlns:xlink="http://www.w3.org/1999/xlink" version="1.1" width="256" height="256" viewBox="0 0 256 256" xml:space="preserve">
<desc>Created with Fabric.js 1.7.22</desc>
<defs>
</defs>
<g transform="translate(128 128) scale(0.72 0.72)" style="">
	<g style="stroke: none; stroke-width: 0; stroke-dasharray: none; stroke-linecap: butt; stroke-linejoin: miter; stroke-miterlimit: 10; fill: none; fill-rule: nonzero; opacity: 1;" transform="translate(-175.05 -175.05000000000004) scale(3.89 3.89)" >
	<rect x="20.9" y="22.16" rx="0" ry="0" width="61.21" height="31.63" style="stroke: none; stroke-width: 1; stroke-dasharray: none; stroke-linecap: butt; stroke-linejoin: miter; stroke-miterlimit: 10; fill: rgb(241,98,108); fill-rule: nonzero; opacity: 1;" transform=" matrix(0.7071 -0.7071 0.7071 0.7071 -11.7653 47.546) "/>
	<polyline points="88.48,31.66 57.82,1 88.48,1 88.48,31.66 " style="stroke: none; stroke-width: 1; stroke-dasharray: none; stroke-linecap: butt; stroke-linejoin: miter; stroke-miterlimit: 10; fill: rgb(241,98,108); fill-rule: nonzero; opacity: 1;" transform="  matrix(1 0 0 1 0 0) "/>
	<polygon points="18.68,48.44 32.31,34.81 43.19,68.66 41.05,70.8 " style="stroke: none; stroke-width: 1; stroke-dasharray: none; stroke-linecap: butt; stroke-linejoin: miter; stroke-miterlimit: 10; fill: rgb(84,190,250); fill-rule: nonzero; opacity: 1;" transform="  matrix(1 0 0 1 0 0) "/>
	<polygon points="62.96,48.89 52.09,15.04 42.2,24.92 53.08,58.77 " style="stroke: none; stroke-width: 1; stroke-dasharray: none; stroke-linecap: butt; stroke-linejoin: miter; stroke-miterlimit: 10; fill: rgb(84,190,250); fill-rule: nonzero; opacity: 1;" transform="  matrix(1 0 0 1 0 0) "/>
	<polygon points="62.27,5.45 73,38.85 84.33,27.52 " style="stroke: none; stroke-width: 1; stroke-dasharray: none; stroke-linecap: butt; stroke-linejoin: miter; stroke-miterlimit: 10; fill: rgb(84,190,250); fill-rule: nonzero; opacity: 1;" transform="  matrix(1 0 0 1 0 0) "/>
	<path d="M 1.651 88.834 c -0.256 0 -0.512 -0.098 -0.707 -0.293 c -0.391 -0.391 -0.391 -1.023 0 -1.414 L 29.161 58.91 c 0.391 -0.391 1.023 -0.391 1.414 0 s 0.391 1.023 0 1.414 L 2.358 88.541 C 2.163 88.736 1.907 88.834 1.651 88.834 z" style="stroke: none; stroke-width: 1; stroke-dasharray: none; stroke-linecap: butt; stroke-linejoin: miter; stroke-miterlimit: 10; fill: rgb(40,66,104); fill-rule: nonzero; opacity: 1;" transform=" matrix(1 0 0 1 0 0) " stroke-linecap="round" />
	<path d="M 1.515 77.108 c -0.256 0 -0.512 -0.098 -0.707 -0.293 c -0.391 -0.391 -0.391 -1.023 0 -1.414 l 16.627 -16.628 c 0.391 -0.391 1.023 -0.391 1.414 0 s 0.391 1.023 0 1.414 L 2.222 76.815 C 2.026 77.011 1.771 77.108 1.515 77.108 z" style="stroke: none; stroke-width: 1; stroke-dasharray: none; stroke-linecap: butt; stroke-linejoin: miter; stroke-miterlimit: 10; fill: rgb(40,66,104); fill-rule: nonzero; opacity: 1;" transform=" matrix(1 0 0 1 0 0) " stroke-linecap="round" />
	<path d="M 12.348 90 c -0.256 0 -0.512 -0.098 -0.707 -0.293 c -0.391 -0.391 -0.391 -1.023 0 -1.414 l 16.627 -16.628 c 0.391 -0.391 1.023 -0.391 1.414 0 s 0.391 1.023 0 1.414 L 13.055 89.707 C 12.86 89.902 12.604 90 12.348 90 z" style="stroke: none; stroke-width: 1; stroke-dasharray: none; stroke-linecap: butt; stroke-linejoin: miter; stroke-miterlimit: 10; fill: rgb(40,66,104); fill-rule: nonzero; opacity: 1;" transform=" matrix(1 0 0 1 0 0) " stroke-linecap="round" />
	<path d="M 88.485 32.665 c -0.26 0 -0.516 -0.102 -0.707 -0.293 L 57.113 1.707 c -0.286 -0.286 -0.372 -0.716 -0.217 -1.09 C 57.051 0.244 57.416 0 57.82 0 h 30.665 c 0.553 0 1 0.448 1 1 v 30.665 c 0 0.404 -0.243 0.769 -0.617 0.924 C 88.744 32.64 88.614 32.665 88.485 32.665 z M 60.234 2 l 27.251 27.251 V 2 H 60.234 z" style="stroke: none; stroke-width: 1; stroke-dasharray: none; stroke-linecap: butt; stroke-linejoin: miter; stroke-miterlimit: 10; fill: rgb(40,66,104); fill-rule: nonzero; opacity: 1;" transform=" matrix(1 0 0 1 0 0) " stroke-linecap="round" />
	<path d="M 41.05 71.8 c -0.256 0 -0.512 -0.098 -0.707 -0.293 l -6.162 -6.161 c -0.391 -0.391 -0.391 -1.023 0 -1.414 s 1.023 -0.391 1.414 0 l 5.455 5.454 l 41.872 -41.871 L 61.971 6.564 L 20.1 48.435 l 5.455 5.455 c 0.391 0.391 0.391 1.023 0 1.414 s -1.023 0.391 -1.414 0 l -6.162 -6.162 c -0.391 -0.391 -0.391 -1.023 0 -1.414 L 61.264 4.443 c 0.391 -0.391 1.023 -0.391 1.414 0 l 22.365 22.365 c 0.188 0.188 0.293 0.442 0.293 0.707 s -0.105 0.52 -0.293 0.707 L 41.757 71.507 C 41.562 71.702 41.306 71.8 41.05 71.8 z" style="stroke: none; stroke-width: 1; stroke-dasharray: none; stroke-linecap: butt; stroke-linejoin: miter; stroke-miterlimit: 10; fill: rgb(40,66,104); fill-rule: nonzero; opacity: 1;" transform=" matrix(1 0 0 1 0 0) " stroke-linecap="round" />
	<path d="M 53.076 59.773 c -0.078 0 -0.157 -0.009 -0.235 -0.028 c -0.339 -0.082 -0.61 -0.334 -0.717 -0.666 L 41.248 25.227 c -0.115 -0.356 -0.02 -0.748 0.245 -1.013 l 9.885 -9.886 c 0.245 -0.247 0.603 -0.347 0.942 -0.265 c 0.339 0.082 0.61 0.334 0.717 0.667 l 10.877 33.854 c 0.114 0.356 0.02 0.748 -0.245 1.013 l -9.886 9.885 C 53.594 59.67 53.338 59.773 53.076 59.773 z M 43.338 25.196 l 10.189 31.712 l 8.296 -8.295 L 51.634 16.9 L 43.338 25.196 z" style="stroke: none; stroke-width: 1; stroke-dasharray: none; stroke-linecap: butt; stroke-linejoin: miter; stroke-miterlimit: 10; fill: rgb(40,66,104); fill-rule: nonzero; opacity: 1;" transform=" matrix(1 0 0 1 0 0) " stroke-linecap="round" />
	<path d="M 73.001 39.85 c -0.423 0 -0.815 -0.271 -0.952 -0.695 L 61.317 5.754 c -0.169 -0.525 0.12 -1.089 0.646 -1.258 c 0.525 -0.169 1.088 0.12 1.258 0.646 l 10.731 33.401 c 0.169 0.525 -0.12 1.089 -0.646 1.258 C 73.205 39.834 73.103 39.85 73.001 39.85 z" style="stroke: none; stroke-width: 1; stroke-dasharray: none; stroke-linecap: butt; stroke-linejoin: miter; stroke-miterlimit: 10; fill: rgb(40,66,104); fill-rule: nonzero; opacity: 1;" transform=" matrix(1 0 0 1 0 0) " stroke-linecap="round" />
	<path d="M 43.191 69.659 c -0.423 0 -0.816 -0.27 -0.952 -0.694 L 31.362 35.112 c -0.169 -0.525 0.121 -1.089 0.646 -1.258 c 0.525 -0.171 1.089 0.121 1.258 0.646 l 10.877 33.853 c 0.169 0.525 -0.121 1.089 -0.646 1.258 C 43.396 69.644 43.292 69.659 43.191 69.659 z" style="stroke: none; stroke-width: 1; stroke-dasharray: none; stroke-linecap: butt; stroke-linejoin: miter; stroke-miterlimit: 10; fill: rgb(40,66,104); fill-rule: nonzero; opacity: 1;" transform=" matrix(1 0 0 1 0 0) " stroke-linecap="round" />
</g>
</g>
</svg>