<svg xmlns="http://www.w3.org/2000/svg" xmlns:xlink="http://www.w3.org/1999/xlink" version="1.1" width="256" height="256" viewBox="0 0 256 256" xml:space="preserve">
<desc>Created with Fabric.js 1.7.22</desc>
<defs>
</defs>
<g transform="translate(128 128) scale(0.72 0.72)" style="">
	<g style="stroke: none; stroke-width: 0; stroke-dasharray: none; stroke-linecap: butt; stroke-linejoin: miter; stroke-miterlimit: 10; fill: none; fill-rule: nonzero; opacity: 1;" transform="translate(-175.05 -175.05000000000004) scale(3.89 3.89)" >
	<circle cx="45.003" cy="61.373000000000005" r="27.623" style="stroke: none; stroke-width: 1; stroke-dasharray: none; stroke-linecap: butt; stroke-linejoin: miter; stroke-miterlimit: 10; fill: rgb(232,243,255); fill-rule: nonzero; opacity: 1;" transform="  matrix(1 0 0 1 0 0) "/>
	<path d="M 27.666 39.869 c 1.394 1.448 2.251 3.416 2.251 5.585 c 0 4.447 -3.605 8.052 -8.052 8.052 c -1.112 0 -2.171 -0.225 -3.134 -0.633 C 20.831 47.785 23.813 43.454 27.666 39.869 z" style="stroke: none; stroke-width: 1; stroke-dasharray: none; stroke-linecap: butt; stroke-linejoin: miter; stroke-miterlimit: 10; fill: rgb(249,212,56); fill-rule: nonzero; opacity: 1;" transform=" matrix(1 0 0 1 0 0) " stroke-linecap="round" />
	<polygon points="45,52.18 47.85,57.95 54.21,58.87 49.61,63.36 50.69,69.7 45,66.71 39.31,69.7 40.39,63.36 35.79,58.87 42.15,57.95 " style="stroke: none; stroke-width: 1; stroke-dasharray: none; stroke-linecap: butt; stroke-linejoin: miter; stroke-miterlimit: 10; fill: rgb(255,255,255); fill-rule: nonzero; opacity: 1;" transform="  matrix(1 0 0 1 0 0) "/>
	<path d="M 38.545 34.517 v -2.646 c 0 -3.55 2.905 -6.455 6.455 -6.455 h 0 c 3.55 0 6.455 2.905 6.455 6.455 v 2.648" style="stroke: none; stroke-width: 1; stroke-dasharray: none; stroke-linecap: butt; stroke-linejoin: miter; stroke-miterlimit: 10; fill: rgb(232,243,255); fill-rule: nonzero; opacity: 1;" transform=" matrix(1 0 0 1 0 0) " stroke-linecap="round" />
	<path d="M 62.342 39.869 c -1.394 1.448 -2.251 3.416 -2.251 5.585 c 0 4.447 3.605 8.052 8.052 8.052 c 1.112 0 2.171 -0.225 3.134 -0.633 C 69.177 47.785 66.195 43.454 62.342 39.869 z" style="stroke: none; stroke-width: 1; stroke-dasharray: none; stroke-linecap: butt; stroke-linejoin: miter; stroke-miterlimit: 10; fill: rgb(241,98,108); fill-rule: nonzero; opacity: 1;" transform=" matrix(1 0 0 1 0 0) " stroke-linecap="round" />
	<path d="M 53.017 87.81 c -0.382 -4.091 -3.826 -7.294 -8.017 -7.294 c -4.191 0 -7.635 3.202 -8.017 7.294 C 42.328 88.803 47.672 88.803 53.017 87.81 z" style="stroke: none; stroke-width: 1; stroke-dasharray: none; stroke-linecap: butt; stroke-linejoin: miter; stroke-miterlimit: 10; fill: rgb(84,190,250); fill-rule: nonzero; opacity: 1;" transform=" matrix(1 0 0 1 0 0) " stroke-linecap="round" />
	<path d="M 45 90 c -15.783 0 -28.623 -12.84 -28.623 -28.623 c 0 -15.783 12.84 -28.623 28.623 -28.623 c 15.783 0 28.623 12.84 28.623 28.623 C 73.623 77.16 60.783 90 45 90 z M 45 34.754 c -14.68 0 -26.623 11.943 -26.623 26.623 S 30.32 88 45 88 c 14.68 0 26.623 -11.943 26.623 -26.623 S 59.68 34.754 45 34.754 z" style="stroke: none; stroke-width: 1; stroke-dasharray: none; stroke-linecap: butt; stroke-linejoin: miter; stroke-miterlimit: 10; fill: rgb(40,66,104); fill-rule: nonzero; opacity: 1;" transform=" matrix(1 0 0 1 0 0) " stroke-linecap="round" />
	<path d="M 51.455 35.52 c -0.553 0 -1 -0.448 -1 -1 v -2.648 c 0 -3.008 -2.447 -5.455 -5.455 -5.455 s -5.455 2.447 -5.455 5.455 v 2.646 c 0 0.552 -0.448 1 -1 1 s -1 -0.448 -1 -1 v -2.646 c 0 -4.111 3.344 -7.455 7.455 -7.455 c 4.11 0 7.455 3.344 7.455 7.455 v 2.648 C 52.455 35.072 52.008 35.52 51.455 35.52 z" style="stroke: none; stroke-width: 1; stroke-dasharray: none; stroke-linecap: butt; stroke-linejoin: miter; stroke-miterlimit: 10; fill: rgb(40,66,104); fill-rule: nonzero; opacity: 1;" transform=" matrix(1 0 0 1 0 0) " stroke-linecap="round" />
	<path d="M 45 26.417 c -0.552 0 -1 -0.448 -1 -1 V 1 c 0 -0.552 0.448 -1 1 -1 s 1 0.448 1 1 v 24.417 C 46 25.969 45.552 26.417 45 26.417 z" style="stroke: none; stroke-width: 1; stroke-dasharray: none; stroke-linecap: butt; stroke-linejoin: miter; stroke-miterlimit: 10; fill: rgb(40,66,104); fill-rule: nonzero; opacity: 1;" transform=" matrix(1 0 0 1 0 0) " stroke-linecap="round" />
	<path d="M 50.693 70.701 c -0.159 0 -0.319 -0.038 -0.466 -0.115 L 45 67.838 l -5.228 2.748 c -0.337 0.178 -0.744 0.148 -1.053 -0.076 c -0.308 -0.224 -0.462 -0.603 -0.398 -0.978 l 0.999 -5.821 l -4.229 -4.123 c -0.273 -0.266 -0.371 -0.663 -0.253 -1.024 c 0.118 -0.362 0.431 -0.626 0.808 -0.681 l 5.844 -0.85 l 2.614 -5.296 c 0.337 -0.684 1.456 -0.684 1.793 0 l 2.614 5.296 l 5.844 0.85 c 0.377 0.055 0.689 0.318 0.808 0.681 c 0.117 0.361 0.02 0.759 -0.253 1.024 L 50.68 63.71 l 0.999 5.822 c 0.064 0.375 -0.09 0.754 -0.397 0.978 C 51.107 70.637 50.9 70.701 50.693 70.701 z M 37.938 59.57 l 3.155 3.075 c 0.236 0.229 0.343 0.561 0.288 0.885 l -0.745 4.343 l 3.899 -2.05 c 0.291 -0.154 0.64 -0.154 0.931 0 l 3.9 2.05 L 48.62 63.53 c -0.056 -0.324 0.052 -0.655 0.287 -0.885 l 3.154 -3.075 l -4.358 -0.634 c -0.326 -0.047 -0.607 -0.252 -0.753 -0.547 L 45 54.439 l -1.95 3.95 c -0.146 0.295 -0.427 0.5 -0.753 0.547 L 37.938 59.57 z" style="stroke: none; stroke-width: 1; stroke-dasharray: none; stroke-linecap: butt; stroke-linejoin: miter; stroke-miterlimit: 10; fill: rgb(40,66,104); fill-rule: nonzero; opacity: 1;" transform=" matrix(1 0 0 1 0 0) " stroke-linecap="round" />
	<path d="M 68.135 54.506 c -4.991 0 -9.052 -4.062 -9.052 -9.053 c 0 -2.353 0.898 -4.583 2.529 -6.277 c 0.384 -0.398 1.017 -0.409 1.414 -0.027 c 0.398 0.383 0.41 1.016 0.027 1.414 c -1.271 1.32 -1.971 3.057 -1.971 4.89 c 0 3.889 3.163 7.053 7.052 7.053 c 0.959 0 1.887 -0.188 2.757 -0.56 c 0.507 -0.218 1.096 0.02 1.313 0.527 c 0.217 0.509 -0.02 1.096 -0.527 1.313 C 70.556 54.264 69.364 54.506 68.135 54.506 z" style="stroke: none; stroke-width: 1; stroke-dasharray: none; stroke-linecap: butt; stroke-linejoin: miter; stroke-miterlimit: 10; fill: rgb(40,66,104); fill-rule: nonzero; opacity: 1;" transform=" matrix(1 0 0 1 0 0) " stroke-linecap="round" />
	<path d="M 21.865 54.506 c -1.221 0 -2.406 -0.239 -3.523 -0.712 c -0.509 -0.215 -0.747 -0.802 -0.532 -1.311 c 0.215 -0.508 0.803 -0.745 1.31 -0.531 c 0.87 0.367 1.793 0.554 2.745 0.554 c 3.889 0 7.052 -3.164 7.052 -7.053 c 0 -1.833 -0.7 -3.57 -1.972 -4.891 c -0.383 -0.398 -0.371 -1.031 0.026 -1.414 c 0.399 -0.383 1.031 -0.371 1.414 0.026 c 1.632 1.695 2.531 3.925 2.531 6.278 C 30.917 50.444 26.856 54.506 21.865 54.506 z" style="stroke: none; stroke-width: 1; stroke-dasharray: none; stroke-linecap: butt; stroke-linejoin: miter; stroke-miterlimit: 10; fill: rgb(40,66,104); fill-rule: nonzero; opacity: 1;" transform=" matrix(1 0 0 1 0 0) " stroke-linecap="round" />
	<path d="M 36.984 88.81 c -0.031 0 -0.063 -0.001 -0.094 -0.004 c -0.55 -0.052 -0.954 -0.539 -0.902 -1.089 c 0.437 -4.676 4.312 -8.201 9.013 -8.201 s 8.576 3.525 9.013 8.201 c 0.051 0.55 -0.354 1.037 -0.903 1.089 c -0.546 0.054 -1.037 -0.354 -1.089 -0.903 c -0.34 -3.641 -3.357 -6.387 -7.021 -6.387 c -3.663 0 -6.681 2.746 -7.021 6.387 C 37.93 88.421 37.494 88.81 36.984 88.81 z" style="stroke: none; stroke-width: 1; stroke-dasharray: none; stroke-linecap: butt; stroke-linejoin: miter; stroke-miterlimit: 10; fill: rgb(40,66,104); fill-rule: nonzero; opacity: 1;" transform=" matrix(1 0 0 1 0 0) " stroke-linecap="round" />
</g>
</g>
</svg>