<svg xmlns="http://www.w3.org/2000/svg" xmlns:xlink="http://www.w3.org/1999/xlink" version="1.1" width="256" height="256" viewBox="0 0 256 256" xml:space="preserve">
<desc>Created with Fabric.js 1.7.22</desc>
<defs>
</defs>
<g transform="translate(128 128) scale(0.72 0.72)" style="">
	<g style="stroke: none; stroke-width: 0; stroke-dasharray: none; stroke-linecap: butt; stroke-linejoin: miter; stroke-miterlimit: 10; fill: none; fill-rule: nonzero; opacity: 1;" transform="translate(-175.05 -175.05000000000004) scale(3.89 3.89)" >
	<path d="M 27.269 76.57 C 14.152 70.044 5.14 56.505 5.14 40.86 C 5.14 18.846 22.986 1 45 1 s 39.86 17.846 39.86 39.86 c 0 15.643 -9.011 29.181 -22.125 35.707" style="stroke: none; stroke-width: 1; stroke-dasharray: none; stroke-linecap: butt; stroke-linejoin: miter; stroke-miterlimit: 10; fill: rgb(232,243,255); fill-rule: nonzero; opacity: 1;" transform=" matrix(1 0 0 1 0 0) " stroke-linecap="round" />
	<path d="M 27.268 77.569 c -0.149 0 -0.301 -0.033 -0.444 -0.104 C 12.832 70.504 4.14 56.478 4.14 40.86 C 4.14 18.33 22.47 0 45 0 s 40.86 18.33 40.86 40.86 c 0 15.615 -8.69 29.641 -22.68 36.603 c -0.495 0.246 -1.096 0.044 -1.341 -0.45 c -0.246 -0.494 -0.045 -1.095 0.45 -1.341 c 13.305 -6.621 21.57 -19.96 21.57 -34.812 C 83.86 19.433 66.428 2 45 2 S 6.14 19.433 6.14 40.86 c 0 14.854 8.267 28.193 21.574 34.813 c 0.495 0.246 0.696 0.847 0.45 1.341 C 27.989 77.366 27.635 77.569 27.268 77.569 z" style="stroke: none; stroke-width: 1; stroke-dasharray: none; stroke-linecap: butt; stroke-linejoin: miter; stroke-miterlimit: 10; fill: rgb(40,66,104); fill-rule: nonzero; opacity: 1;" transform=" matrix(1 0 0 1 0 0) " stroke-linecap="round" />
	<circle cx="53.735" cy="18.005000000000003" r="2.705" style="stroke: none; stroke-width: 1; stroke-dasharray: none; stroke-linecap: butt; stroke-linejoin: miter; stroke-miterlimit: 10; fill: rgb(255,255,255); fill-rule: nonzero; opacity: 1;" transform="  matrix(1 0 0 1 0 0) "/>
	<circle cx="19.115000000000002" cy="37.475" r="2.705" style="stroke: none; stroke-width: 1; stroke-dasharray: none; stroke-linecap: butt; stroke-linejoin: miter; stroke-miterlimit: 10; fill: rgb(255,255,255); fill-rule: nonzero; opacity: 1;" transform="  matrix(1 0 0 1 0 0) "/>
	<circle cx="72.125" cy="39.644999999999996" r="2.705" style="stroke: none; stroke-width: 1; stroke-dasharray: none; stroke-linecap: butt; stroke-linejoin: miter; stroke-miterlimit: 10; fill: rgb(255,255,255); fill-rule: nonzero; opacity: 1;" transform="  matrix(1 0 0 1 0 0) "/>
	<path d="M 77.181 89 H 12.819 v 0 c 0 -6.867 5.567 -12.433 12.433 -12.433 h 39.495 C 71.614 76.566 77.181 82.133 77.181 89 L 77.181 89 z" style="stroke: none; stroke-width: 1; stroke-dasharray: none; stroke-linecap: butt; stroke-linejoin: miter; stroke-miterlimit: 10; fill: rgb(232,243,255); fill-rule: nonzero; opacity: 1;" transform=" matrix(1 0 0 1 0 0) " stroke-linecap="round" />
	<path d="M 77.181 90 H 12.819 c -0.552 0 -1 -0.447 -1 -1 c 0 -7.407 6.026 -13.434 13.433 -13.434 h 39.495 c 7.407 0 13.434 6.026 13.434 13.434 C 78.181 89.553 77.733 90 77.181 90 z M 13.863 88 h 62.275 c -0.509 -5.838 -5.423 -10.434 -11.391 -10.434 H 25.252 C 19.285 77.566 14.371 82.162 13.863 88 z" style="stroke: none; stroke-width: 1; stroke-dasharray: none; stroke-linecap: butt; stroke-linejoin: miter; stroke-miterlimit: 10; fill: rgb(40,66,104); fill-rule: nonzero; opacity: 1;" transform=" matrix(1 0 0 1 0 0) " stroke-linecap="round" />
	<path d="M 31.295 56.723 c -0.278 0 -0.555 -0.115 -0.753 -0.342 l -5.659 -6.468 c -0.364 -0.415 -0.322 -1.047 0.094 -1.411 s 1.047 -0.322 1.411 0.095 l 5.659 6.468 c 0.364 0.415 0.322 1.047 -0.094 1.411 C 31.764 56.642 31.529 56.723 31.295 56.723 z" style="stroke: none; stroke-width: 1; stroke-dasharray: none; stroke-linecap: butt; stroke-linejoin: miter; stroke-miterlimit: 10; fill: rgb(40,66,104); fill-rule: nonzero; opacity: 1;" transform=" matrix(1 0 0 1 0 0) " stroke-linecap="round" />
	<path d="M 25.636 50.255 h -4.079 c -0.552 0 -1 -0.447 -1 -1 s 0.448 -1 1 -1 h 3.079 v -3.089 c 0 -0.552 0.448 -1 1 -1 s 1 0.448 1 1 v 4.089 C 26.636 49.808 26.188 50.255 25.636 50.255 z" style="stroke: none; stroke-width: 1; stroke-dasharray: none; stroke-linecap: butt; stroke-linejoin: miter; stroke-miterlimit: 10; fill: rgb(40,66,104); fill-rule: nonzero; opacity: 1;" transform=" matrix(1 0 0 1 0 0) " stroke-linecap="round" />
	<path d="M 58.705 56.723 c -0.234 0 -0.469 -0.081 -0.658 -0.247 c -0.416 -0.364 -0.458 -0.996 -0.095 -1.411 l 5.659 -6.468 c 0.365 -0.418 0.996 -0.459 1.411 -0.095 c 0.416 0.364 0.458 0.996 0.095 1.411 l -5.659 6.468 C 59.26 56.607 58.983 56.723 58.705 56.723 z" style="stroke: none; stroke-width: 1; stroke-dasharray: none; stroke-linecap: butt; stroke-linejoin: miter; stroke-miterlimit: 10; fill: rgb(40,66,104); fill-rule: nonzero; opacity: 1;" transform=" matrix(1 0 0 1 0 0) " stroke-linecap="round" />
	<path d="M 68.443 50.255 h -4.079 c -0.553 0 -1 -0.447 -1 -1 v -4.089 c 0 -0.552 0.447 -1 1 -1 s 1 0.448 1 1 v 3.089 h 3.079 c 0.553 0 1 0.447 1 1 S 68.996 50.255 68.443 50.255 z" style="stroke: none; stroke-width: 1; stroke-dasharray: none; stroke-linecap: butt; stroke-linejoin: miter; stroke-miterlimit: 10; fill: rgb(40,66,104); fill-rule: nonzero; opacity: 1;" transform=" matrix(1 0 0 1 0 0) " stroke-linecap="round" />
	<path d="M 53.736 21.708 c -2.043 0 -3.705 -1.662 -3.705 -3.705 c 0 -2.042 1.662 -3.705 3.705 -3.705 s 3.705 1.662 3.705 3.705 C 57.441 20.046 55.779 21.708 53.736 21.708 z M 53.736 16.299 c -0.94 0 -1.705 0.765 -1.705 1.705 s 0.765 1.705 1.705 1.705 s 1.705 -0.765 1.705 -1.705 S 54.677 16.299 53.736 16.299 z" style="stroke: none; stroke-width: 1; stroke-dasharray: none; stroke-linecap: butt; stroke-linejoin: miter; stroke-miterlimit: 10; fill: rgb(40,66,104); fill-rule: nonzero; opacity: 1;" transform=" matrix(1 0 0 1 0 0) " stroke-linecap="round" />
	<path d="M 19.113 41.184 c -2.042 0 -3.705 -1.662 -3.705 -3.705 s 1.662 -3.705 3.705 -3.705 c 2.043 0 3.705 1.662 3.705 3.705 S 21.156 41.184 19.113 41.184 z M 19.113 35.774 c -0.94 0 -1.705 0.765 -1.705 1.705 s 0.765 1.705 1.705 1.705 s 1.705 -0.765 1.705 -1.705 S 20.053 35.774 19.113 35.774 z" style="stroke: none; stroke-width: 1; stroke-dasharray: none; stroke-linecap: butt; stroke-linejoin: miter; stroke-miterlimit: 10; fill: rgb(40,66,104); fill-rule: nonzero; opacity: 1;" transform=" matrix(1 0 0 1 0 0) " stroke-linecap="round" />
	<path d="M 72.13 43.348 c -2.043 0 -3.705 -1.662 -3.705 -3.705 s 1.662 -3.705 3.705 -3.705 s 3.705 1.662 3.705 3.705 S 74.173 43.348 72.13 43.348 z M 72.13 37.938 c -0.94 0 -1.705 0.765 -1.705 1.705 s 0.765 1.705 1.705 1.705 s 1.705 -0.765 1.705 -1.705 S 73.07 37.938 72.13 37.938 z" style="stroke: none; stroke-width: 1; stroke-dasharray: none; stroke-linecap: butt; stroke-linejoin: miter; stroke-miterlimit: 10; fill: rgb(40,66,104); fill-rule: nonzero; opacity: 1;" transform=" matrix(1 0 0 1 0 0) " stroke-linecap="round" />
	<path d="M 37.964 24.33 c -0.85 0 -1.541 -0.691 -1.541 -1.541 s 0.691 -1.541 1.541 -1.541 s 1.541 0.691 1.541 1.541 S 38.813 24.33 37.964 24.33 z" style="stroke: none; stroke-width: 1; stroke-dasharray: none; stroke-linecap: butt; stroke-linejoin: miter; stroke-miterlimit: 10; fill: rgb(40,66,104); fill-rule: nonzero; opacity: 1;" transform=" matrix(1 0 0 1 0 0) " stroke-linecap="round" />
	<path d="M 68.259 25.412 c -0.85 0 -1.541 -0.691 -1.541 -1.541 s 0.691 -1.541 1.541 -1.541 s 1.541 0.691 1.541 1.541 S 69.108 25.412 68.259 25.412 z" style="stroke: none; stroke-width: 1; stroke-dasharray: none; stroke-linecap: butt; stroke-linejoin: miter; stroke-miterlimit: 10; fill: rgb(40,66,104); fill-rule: nonzero; opacity: 1;" transform=" matrix(1 0 0 1 0 0) " stroke-linecap="round" />
	<path d="M 67.178 64.363 c -0.85 0 -1.541 -0.691 -1.541 -1.541 s 0.691 -1.541 1.541 -1.541 s 1.54 0.691 1.54 1.541 S 68.027 64.363 67.178 64.363 z" style="stroke: none; stroke-width: 1; stroke-dasharray: none; stroke-linecap: butt; stroke-linejoin: miter; stroke-miterlimit: 10; fill: rgb(40,66,104); fill-rule: nonzero; opacity: 1;" transform=" matrix(1 0 0 1 0 0) " stroke-linecap="round" />
	<path d="M 20.652 62.199 c -0.85 0 -1.541 -0.691 -1.541 -1.541 s 0.691 -1.541 1.541 -1.541 s 1.541 0.691 1.541 1.541 S 21.502 62.199 20.652 62.199 z" style="stroke: none; stroke-width: 1; stroke-dasharray: none; stroke-linecap: butt; stroke-linejoin: miter; stroke-miterlimit: 10; fill: rgb(40,66,104); fill-rule: nonzero; opacity: 1;" transform=" matrix(1 0 0 1 0 0) " stroke-linecap="round" />
	<path d="M 15.895 27.088 c -0.149 0 -0.3 -0.033 -0.443 -0.104 c -0.495 -0.245 -0.697 -0.845 -0.452 -1.34 c 5.69 -11.49 17.186 -18.628 30 -18.628 c 0.552 0 1 0.448 1 1 s -0.448 1 -1 1 c -12.049 0 -22.857 6.712 -28.208 17.516 C 16.617 26.884 16.263 27.088 15.895 27.088 z" style="stroke: none; stroke-width: 1; stroke-dasharray: none; stroke-linecap: butt; stroke-linejoin: miter; stroke-miterlimit: 10; fill: rgb(40,66,104); fill-rule: nonzero; opacity: 1;" transform=" matrix(1 0 0 1 0 0) " stroke-linecap="round" />
	<path d="M 64.364 83.783 H 14.496 c -0.552 0 -1 -0.447 -1 -1 s 0.448 -1 1 -1 h 49.868 c 0.553 0 1 0.447 1 1 S 64.917 83.783 64.364 83.783 z" style="stroke: none; stroke-width: 1; stroke-dasharray: none; stroke-linecap: butt; stroke-linejoin: miter; stroke-miterlimit: 10; fill: rgb(40,66,104); fill-rule: nonzero; opacity: 1;" transform=" matrix(1 0 0 1 0 0) " stroke-linecap="round" />
	<path d="M 40.874 48.934 c -7.428 1.845 -12.932 8.558 -12.932 16.556 c 0 4.229 1.543 8.096 4.091 11.077 h 25.934 c 2.549 -2.981 4.091 -6.848 4.091 -11.077 c 0 -7.998 -5.504 -14.711 -12.932 -16.556" style="stroke: none; stroke-width: 1; stroke-dasharray: none; stroke-linecap: butt; stroke-linejoin: miter; stroke-miterlimit: 10; fill: rgb(255,255,255); fill-rule: nonzero; opacity: 1;" transform=" matrix(1 0 0 1 0 0) " stroke-linecap="round" />
	<path d="M 36.174 50.889 c 1.441 -0.873 3.021 -1.539 4.7 -1.956 l 8.252 0 c 1.678 0.417 3.259 1.083 4.699 1.955 l -0.001 0.002 c -2.308 2.163 -5.412 3.487 -8.824 3.487 c -3.413 0 -6.517 -1.325 -8.825 -3.488" style="stroke: none; stroke-width: 1; stroke-dasharray: none; stroke-linecap: butt; stroke-linejoin: miter; stroke-miterlimit: 10; fill: rgb(241,98,108); fill-rule: nonzero; opacity: 1;" transform=" matrix(1 0 0 1 0 0) " stroke-linecap="round" />
	<path d="M 51 52.902 v 8.122 c 0 1.553 -1.271 2.824 -2.824 2.824 h 0 c -1.553 0 -2.824 -1.271 -2.824 -2.824 v -6.645" style="stroke: none; stroke-width: 1; stroke-dasharray: none; stroke-linecap: butt; stroke-linejoin: miter; stroke-miterlimit: 10; fill: rgb(241,98,108); fill-rule: nonzero; opacity: 1;" transform=" matrix(1 0 0 1 0 0) " stroke-linecap="round" />
	<path d="M 48.177 64.848 c -2.108 0 -3.824 -1.716 -3.824 -3.824 v -6.645 c 0 -0.553 0.448 -1 1 -1 s 1 0.447 1 1 v 6.645 c 0 1.006 0.818 1.824 1.824 1.824 c 1.005 0 1.823 -0.818 1.823 -1.824 v -8.122 c 0 -0.553 0.447 -1 1 -1 s 1 0.447 1 1 v 8.122 C 52 63.132 50.285 64.848 48.177 64.848 z" style="stroke: none; stroke-width: 1; stroke-dasharray: none; stroke-linecap: butt; stroke-linejoin: miter; stroke-miterlimit: 10; fill: rgb(40,66,104); fill-rule: nonzero; opacity: 1;" transform=" matrix(1 0 0 1 0 0) " stroke-linecap="round" />
	<path d="M 45 55.379 c -3.545 0 -6.922 -1.335 -9.509 -3.759 c -0.403 -0.377 -0.424 -1.01 -0.046 -1.413 c 0.376 -0.404 1.01 -0.424 1.413 -0.046 c 2.215 2.075 5.106 3.218 8.142 3.218 c 3.036 0 5.928 -1.143 8.141 -3.217 c 0.402 -0.377 1.036 -0.356 1.413 0.046 c 0.378 0.402 0.357 1.035 -0.046 1.413 C 51.923 54.044 48.546 55.379 45 55.379 z" style="stroke: none; stroke-width: 1; stroke-dasharray: none; stroke-linecap: butt; stroke-linejoin: miter; stroke-miterlimit: 10; fill: rgb(40,66,104); fill-rule: nonzero; opacity: 1;" transform=" matrix(1 0 0 1 0 0) " stroke-linecap="round" />
	<path d="M 53.392 39.936 c 0.018 0.102 0.035 0.204 0.05 0.307 c 0.058 0.401 0.088 0.811 0.088 1.228 C 53.529 46.181 49.711 50 45 50 s -8.529 -3.819 -8.529 -8.529 c 0 -0.527 0.048 -1.043 0.139 -1.544 l 9.4 -6.837 L 53.392 39.936 z" style="stroke: none; stroke-width: 1; stroke-dasharray: none; stroke-linecap: butt; stroke-linejoin: miter; stroke-miterlimit: 10; fill: rgb(255,255,255); fill-rule: nonzero; opacity: 1;" transform=" matrix(1 0 0 1 0 0) " stroke-linecap="round" />
	<path d="M 57.967 77.566 H 32.033 c -0.292 0 -0.57 -0.128 -0.76 -0.35 c -2.793 -3.267 -4.332 -7.432 -4.332 -11.728 c 0 -8.317 5.63 -15.524 13.691 -17.526 c 0.533 -0.129 1.078 0.193 1.212 0.729 c 0.133 0.536 -0.194 1.078 -0.729 1.212 c -7.167 1.78 -12.173 8.188 -12.173 15.585 c 0 3.668 1.261 7.229 3.561 10.077 h 24.996 c 2.299 -2.849 3.561 -6.409 3.561 -10.077 c 0 -7.396 -5.006 -13.804 -12.174 -15.585 c -0.536 -0.134 -0.862 -0.676 -0.729 -1.212 s 0.675 -0.861 1.212 -0.729 c 8.062 2.003 13.691 9.21 13.691 17.526 c 0 4.296 -1.538 8.461 -4.332 11.728 C 58.537 77.438 58.259 77.566 57.967 77.566 z" style="stroke: none; stroke-width: 1; stroke-dasharray: none; stroke-linecap: butt; stroke-linejoin: miter; stroke-miterlimit: 10; fill: rgb(40,66,104); fill-rule: nonzero; opacity: 1;" transform=" matrix(1 0 0 1 0 0) " stroke-linecap="round" />
	<path d="M 57.709 24.984 c -1.302 0 -2.366 0.972 -2.533 2.229 c -10.581 -0.333 -18.138 2.48 -18.562 12.714 c 5.597 -3.542 11.207 -3.526 16.828 0 c -1.139 -5.165 -0.174 -8.587 2.255 -10.799 c 0.47 0.599 1.192 0.991 2.012 0.991 c 1.418 0 2.567 -1.149 2.567 -2.567 S 59.127 24.984 57.709 24.984 z" style="stroke: none; stroke-width: 1; stroke-dasharray: none; stroke-linecap: butt; stroke-linejoin: miter; stroke-miterlimit: 10; fill: rgb(241,98,108); fill-rule: nonzero; opacity: 1;" transform=" matrix(1 0 0 1 0 0) " stroke-linecap="round" />
	<path d="M 53.441 40.927 c -0.185 0 -0.368 -0.051 -0.531 -0.153 c -5.327 -3.342 -10.483 -3.342 -15.762 -0.002 c -0.314 0.198 -0.713 0.207 -1.035 0.021 c -0.322 -0.186 -0.514 -0.536 -0.499 -0.907 c 0.39 -9.403 6.521 -13.898 18.808 -13.691 c 0.538 -1.306 1.824 -2.21 3.287 -2.21 c 1.967 0 3.567 1.6 3.567 3.567 s -1.601 3.567 -3.567 3.567 c -0.712 0 -1.393 -0.212 -1.971 -0.601 c -1.788 2.096 -2.22 5.115 -1.32 9.193 c 0.087 0.394 -0.071 0.801 -0.4 1.033 C 53.845 40.866 53.644 40.927 53.441 40.927 z M 53.556 28.187 c -9.82 0 -14.782 3.11 -15.774 9.923 c 4.743 -2.418 9.544 -2.445 14.319 -0.08 c -0.504 -4.175 0.475 -7.412 2.923 -9.64 c 0.087 -0.08 0.187 -0.143 0.294 -0.186 c -0.055 0.008 -0.109 0.014 -0.173 0.009 C 54.602 28.195 54.071 28.187 53.556 28.187 z M 55.696 28.128 c 0.027 0 0.056 0.001 0.083 0.003 c 0.277 0.023 0.532 0.161 0.704 0.379 c 0.303 0.386 0.75 0.608 1.226 0.608 c 0.864 0 1.567 -0.703 1.567 -1.567 s -0.703 -1.567 -1.567 -1.567 c -0.776 0 -1.438 0.585 -1.542 1.36 c -0.049 0.365 -0.29 0.662 -0.612 0.794 C 55.602 28.132 55.648 28.128 55.696 28.128 z" style="stroke: none; stroke-width: 1; stroke-dasharray: none; stroke-linecap: butt; stroke-linejoin: miter; stroke-miterlimit: 10; fill: rgb(40,66,104); fill-rule: nonzero; opacity: 1;" transform=" matrix(1 0 0 1 0 0) " stroke-linecap="round" />
	<path d="M 45 51 c -5.254 0 -9.529 -4.275 -9.529 -9.53 c 0 -0.579 0.053 -1.159 0.156 -1.724 c 0.1 -0.543 0.624 -0.904 1.164 -0.803 c 0.543 0.1 0.903 0.621 0.803 1.164 c -0.082 0.446 -0.123 0.905 -0.123 1.363 c 0 4.152 3.377 7.53 7.529 7.53 c 4.151 0 7.529 -3.378 7.529 -7.53 c 0 -0.361 -0.026 -0.727 -0.078 -1.085 c -0.013 -0.09 -0.027 -0.18 -0.043 -0.268 c -0.1 -0.543 0.26 -1.064 0.803 -1.164 c 0.553 -0.097 1.065 0.26 1.164 0.803 c 0.021 0.114 0.04 0.23 0.057 0.345 c 0.064 0.452 0.098 0.913 0.098 1.369 C 54.529 46.725 50.255 51 45 51 z" style="stroke: none; stroke-width: 1; stroke-dasharray: none; stroke-linecap: butt; stroke-linejoin: miter; stroke-miterlimit: 10; fill: rgb(40,66,104); fill-rule: nonzero; opacity: 1;" transform=" matrix(1 0 0 1 0 0) " stroke-linecap="round" />
	<path d="M 45 47.506 c -1.21 0 -2.419 -0.496 -3.596 -1.488 c -0.422 -0.356 -0.476 -0.987 -0.119 -1.41 c 0.356 -0.423 0.987 -0.476 1.409 -0.119 c 1.593 1.345 3.016 1.346 4.61 0 c 0.425 -0.357 1.054 -0.303 1.41 0.119 c 0.355 0.422 0.303 1.053 -0.119 1.409 C 47.419 47.01 46.21 47.506 45 47.506 z" style="stroke: none; stroke-width: 1; stroke-dasharray: none; stroke-linecap: butt; stroke-linejoin: miter; stroke-miterlimit: 10; fill: rgb(40,66,104); fill-rule: nonzero; opacity: 1;" transform=" matrix(1 0 0 1 0 0) " stroke-linecap="round" />
	<path d="M 42.692 41.429 h -0.548 c -0.552 0 -1 -0.448 -1 -1 s 0.448 -1 1 -1 h 0.548 c 0.552 0 1 0.448 1 1 S 43.245 41.429 42.692 41.429 z" style="stroke: none; stroke-width: 1; stroke-dasharray: none; stroke-linecap: butt; stroke-linejoin: miter; stroke-miterlimit: 10; fill: rgb(40,66,104); fill-rule: nonzero; opacity: 1;" transform=" matrix(1 0 0 1 0 0) " stroke-linecap="round" />
	<path d="M 47.855 41.429 h -0.548 c -0.553 0 -1 -0.448 -1 -1 s 0.447 -1 1 -1 h 0.548 c 0.553 0 1 0.448 1 1 S 48.408 41.429 47.855 41.429 z" style="stroke: none; stroke-width: 1; stroke-dasharray: none; stroke-linecap: butt; stroke-linejoin: miter; stroke-miterlimit: 10; fill: rgb(40,66,104); fill-rule: nonzero; opacity: 1;" transform=" matrix(1 0 0 1 0 0) " stroke-linecap="round" />
	<path d="M 45.274 44.38 h -0.548 c -0.552 0 -1 -0.448 -1 -1 s 0.448 -1 1 -1 h 0.548 c 0.552 0 1 0.448 1 1 S 45.826 44.38 45.274 44.38 z" style="stroke: none; stroke-width: 1; stroke-dasharray: none; stroke-linecap: butt; stroke-linejoin: miter; stroke-miterlimit: 10; fill: rgb(40,66,104); fill-rule: nonzero; opacity: 1;" transform=" matrix(1 0 0 1 0 0) " stroke-linecap="round" />
</g>
</g>
</svg>