<svg xmlns="http://www.w3.org/2000/svg" xmlns:xlink="http://www.w3.org/1999/xlink" version="1.1" width="256" height="256" viewBox="0 0 256 256" xml:space="preserve">
<desc>Created with Fabric.js 1.7.22</desc>
<defs>
</defs>
<g transform="translate(128 128) scale(0.72 0.72)" style="">
	<g style="stroke: none; stroke-width: 0; stroke-dasharray: none; stroke-linecap: butt; stroke-linejoin: miter; stroke-miterlimit: 10; fill: none; fill-rule: nonzero; opacity: 1;" transform="translate(-175.05 -175.05000000000004) scale(3.89 3.89)" >
	<path d="M 83.605 66.134 l -7.191 -4.152 l 6.045 -3.49 c 0.479 -0.276 0.643 -0.888 0.366 -1.366 c -0.277 -0.479 -0.89 -0.643 -1.366 -0.366 l -7.045 4.068 l -13.718 -7.92 V 37.093 l 13.718 -7.92 l 7.045 4.067 c 0.157 0.091 0.329 0.134 0.499 0.134 c 0.346 0 0.682 -0.179 0.867 -0.5 c 0.276 -0.479 0.112 -1.09 -0.366 -1.366 l -6.045 -3.49 l 7.191 -4.152 c 0.479 -0.276 0.643 -0.888 0.366 -1.366 c -0.277 -0.479 -0.891 -0.643 -1.366 -0.366 l -7.191 4.152 v -6.981 c 0 -0.552 -0.447 -1 -1 -1 s -1 0.448 -1 1 v 8.135 l -13.717 7.92 L 46 27.452 V 11.613 l 7.046 -4.068 c 0.479 -0.276 0.643 -0.888 0.366 -1.366 c -0.277 -0.479 -0.891 -0.643 -1.366 -0.366 L 46 9.304 V 1 c 0 -0.552 -0.448 -1 -1 -1 s -1 0.448 -1 1 v 8.303 l -6.045 -3.49 c -0.479 -0.276 -1.09 -0.112 -1.366 0.366 s -0.112 1.09 0.366 1.366 L 44 11.613 v 15.839 L 30.303 35.36 l -13.717 -7.92 v -8.135 c 0 -0.552 -0.448 -1 -1 -1 s -1 0.448 -1 1 v 6.98 l -7.191 -4.152 c -0.481 -0.276 -1.09 -0.112 -1.366 0.366 c -0.276 0.479 -0.112 1.09 0.366 1.366 l 7.191 4.152 l -6.046 3.49 c -0.478 0.276 -0.642 0.888 -0.366 1.366 c 0.186 0.321 0.521 0.5 0.867 0.5 c 0.169 0 0.341 -0.043 0.499 -0.134 l 7.046 -4.067 l 13.717 7.92 v 15.815 l -13.717 7.92 L 8.541 56.76 c -0.48 -0.276 -1.09 -0.113 -1.366 0.366 c -0.276 0.479 -0.112 1.09 0.366 1.366 l 6.045 3.49 l -7.191 4.152 C 5.917 66.41 5.753 67.021 6.029 67.5 C 6.214 67.821 6.55 68 6.896 68 c 0.169 0 0.342 -0.043 0.499 -0.134 l 7.191 -4.152 v 6.98 c 0 0.553 0.448 1 1 1 s 1 -0.447 1 -1 V 62.56 l 13.717 -7.92 L 44 62.548 v 15.838 l -7.045 4.068 c -0.479 0.276 -0.642 0.888 -0.366 1.366 s 0.888 0.642 1.366 0.366 L 44 80.696 V 89 c 0 0.553 0.448 1 1 1 s 1 -0.447 1 -1 v -8.304 l 6.046 3.491 c 0.157 0.091 0.329 0.134 0.499 0.134 c 0.346 0 0.682 -0.18 0.867 -0.5 c 0.276 -0.479 0.112 -1.09 -0.366 -1.366 L 46 78.386 V 62.548 l 13.697 -7.908 l 13.717 7.92 v 8.135 c 0 0.553 0.447 1 1 1 s 1 -0.447 1 -1 v -6.98 l 7.191 4.152 C 82.763 67.957 82.935 68 83.104 68 c 0.346 0 0.682 -0.18 0.867 -0.5 C 84.248 67.021 84.084 66.41 83.605 66.134 z M 58.696 51.753 L 47 45 l 11.696 -6.753 V 51.753 z M 57.697 36.515 L 46 43.268 V 29.762 L 57.697 36.515 z M 44 29.762 v 13.506 l -11.697 -6.753 L 44 29.762 z M 31.303 38.247 L 43 45 l -11.696 6.753 V 38.247 z M 32.303 53.485 L 44 46.732 v 13.507 L 32.303 53.485 z M 46 60.239 V 46.732 l 11.697 6.753 L 46 60.239 z" style="stroke: none; stroke-width: 1; stroke-dasharray: none; stroke-linecap: butt; stroke-linejoin: miter; stroke-miterlimit: 10; fill: rgb(40,66,104); fill-rule: nonzero; opacity: 1;" transform=" matrix(1 0 0 1 0 0) " stroke-linecap="round" />
	<circle cx="31.584" cy="20.664" r="1.954" style="stroke: none; stroke-width: 1; stroke-dasharray: none; stroke-linecap: butt; stroke-linejoin: miter; stroke-miterlimit: 10; fill: rgb(84,190,250); fill-rule: nonzero; opacity: 1;" transform="  matrix(1 0 0 1 0 0) "/>
	<circle cx="58.634" cy="21.904" r="1.954" style="stroke: none; stroke-width: 1; stroke-dasharray: none; stroke-linecap: butt; stroke-linejoin: miter; stroke-miterlimit: 10; fill: rgb(84,190,250); fill-rule: nonzero; opacity: 1;" transform="  matrix(1 0 0 1 0 0) "/>
	<circle cx="71.78399999999999" cy="44.694" r="1.954" style="stroke: none; stroke-width: 1; stroke-dasharray: none; stroke-linecap: butt; stroke-linejoin: miter; stroke-miterlimit: 10; fill: rgb(84,190,250); fill-rule: nonzero; opacity: 1;" transform="  matrix(1 0 0 1 0 0) "/>
	<circle cx="58.624" cy="67.50399999999999" r="1.954" style="stroke: none; stroke-width: 1; stroke-dasharray: none; stroke-linecap: butt; stroke-linejoin: miter; stroke-miterlimit: 10; fill: rgb(84,190,250); fill-rule: nonzero; opacity: 1;" transform="  matrix(1 0 0 1 0 0) "/>
	<circle cx="32.284" cy="67.494" r="1.954" style="stroke: none; stroke-width: 1; stroke-dasharray: none; stroke-linecap: butt; stroke-linejoin: miter; stroke-miterlimit: 10; fill: rgb(84,190,250); fill-rule: nonzero; opacity: 1;" transform="  matrix(1 0 0 1 0 0) "/>
	<circle cx="19.134" cy="44.704" r="1.954" style="stroke: none; stroke-width: 1; stroke-dasharray: none; stroke-linecap: butt; stroke-linejoin: miter; stroke-miterlimit: 10; fill: rgb(84,190,250); fill-rule: nonzero; opacity: 1;" transform="  matrix(1 0 0 1 0 0) "/>
</g>
</g>
</svg>