<svg xmlns="http://www.w3.org/2000/svg" xmlns:xlink="http://www.w3.org/1999/xlink" version="1.1" width="256" height="256" viewBox="0 0 256 256" xml:space="preserve">
<desc>Created with Fabric.js 1.7.22</desc>
<defs>
</defs>
<g transform="translate(128 128) scale(0.72 0.72)" style="">
	<g style="stroke: none; stroke-width: 0; stroke-dasharray: none; stroke-linecap: butt; stroke-linejoin: miter; stroke-miterlimit: 10; fill: none; fill-rule: nonzero; opacity: 1;" transform="translate(-175.05 -175.05000000000004) scale(3.89 3.89)" >
	<path d="M 67.112 69.95 c 3.984 -4.236 6.472 -9.543 6.939 -15.29 c 0.386 -4.751 -0.741 -9.163 -3.066 -12.922 l -4.444 -5.194 c -5.58 -4.853 -13.853 -7.601 -23.508 -6.937 c -17.09 1.176 -31.018 11.217 -31.018 25.053 c 0 2.313 0.388 4.553 1.115 6.68 l 3.276 8.609 H 67.112 z" style="stroke: none; stroke-width: 1; stroke-dasharray: none; stroke-linecap: butt; stroke-linejoin: miter; stroke-miterlimit: 10; fill: rgb(188,111,97); fill-rule: nonzero; opacity: 1;" transform=" matrix(1 0 0 1 0 0) " stroke-linecap="round" />
	<path d="M 57.096 31.257 l 2.487 -5.846 c 0.189 0.11 0.366 0.233 0.573 0.321 c 2.759 1.174 5.946 -0.111 7.12 -2.87 c 1.174 -2.759 -0.111 -5.946 -2.87 -7.12 c -1.46 -0.621 -3.032 -0.538 -4.37 0.072 c -0.488 -1.387 -1.519 -2.578 -2.978 -3.199 c -2.759 -1.174 -5.946 0.111 -7.12 2.87 c -1.174 2.759 0.111 5.946 2.87 7.12 c 0.206 0.088 0.418 0.13 0.628 0.19 l -2.973 6.987" style="stroke: none; stroke-width: 1; stroke-dasharray: none; stroke-linecap: butt; stroke-linejoin: miter; stroke-miterlimit: 10; fill: rgb(255,255,255); fill-rule: nonzero; opacity: 1;" transform=" matrix(1 0 0 1 0 0) " stroke-linecap="round" />
	<path d="M 57.097 32.258 c -0.131 0 -0.264 -0.026 -0.392 -0.081 c -0.508 -0.216 -0.745 -0.803 -0.528 -1.312 l 2.487 -5.846 c 0.112 -0.264 0.332 -0.467 0.604 -0.557 c 0.271 -0.091 0.569 -0.061 0.817 0.084 l 0.176 0.105 c 0.092 0.056 0.183 0.116 0.285 0.159 c 2.25 0.957 4.854 -0.095 5.81 -2.34 c 0.463 -1.088 0.475 -2.292 0.032 -3.389 s -1.285 -1.956 -2.373 -2.419 c -1.144 -0.487 -2.411 -0.465 -3.563 0.062 c -0.255 0.116 -0.548 0.121 -0.807 0.01 c -0.258 -0.11 -0.458 -0.324 -0.552 -0.588 c -0.422 -1.197 -1.283 -2.124 -2.427 -2.61 c -2.246 -0.957 -4.852 0.094 -5.809 2.341 c -0.956 2.247 0.095 4.852 2.341 5.809 c 0.103 0.043 0.209 0.068 0.314 0.095 l 0.198 0.054 c 0.275 0.079 0.504 0.272 0.627 0.531 c 0.124 0.259 0.13 0.558 0.018 0.822 l -2.974 6.987 c -0.216 0.509 -0.803 0.747 -1.312 0.528 c -0.508 -0.216 -0.745 -0.803 -0.528 -1.312 l 2.558 -6.01 c -3.043 -1.492 -4.424 -5.134 -3.082 -8.288 c 1.387 -3.261 5.171 -4.786 8.432 -3.398 c 1.334 0.568 2.434 1.585 3.121 2.863 c 1.4 -0.39 2.893 -0.303 4.228 0.264 c 1.579 0.672 2.803 1.919 3.445 3.512 c 0.642 1.593 0.625 3.34 -0.048 4.92 c -1.342 3.153 -4.923 4.685 -8.107 3.525 l -2.072 4.869 C 57.854 32.029 57.485 32.258 57.097 32.258 z" style="stroke: none; stroke-width: 1; stroke-dasharray: none; stroke-linecap: butt; stroke-linejoin: miter; stroke-miterlimit: 10; fill: rgb(40,66,104); fill-rule: nonzero; opacity: 1;" transform=" matrix(1 0 0 1 0 0) " stroke-linecap="round" />
	<path d="M 81.126 77.819 H 8.874 C 4.525 77.819 1 74.294 1 69.945 v 0 h 88 v 0 C 89 74.294 85.475 77.819 81.126 77.819 z" style="stroke: none; stroke-width: 1; stroke-dasharray: none; stroke-linecap: butt; stroke-linejoin: miter; stroke-miterlimit: 10; fill: rgb(232,243,255); fill-rule: nonzero; opacity: 1;" transform=" matrix(1 0 0 1 0 0) " stroke-linecap="round" />
	<path d="M 81.126 78.819 H 8.874 C 3.981 78.819 0 74.839 0 69.945 c 0 -0.553 0.448 -1 1 -1 h 88 c 0.553 0 1 0.447 1 1 C 90 74.839 86.02 78.819 81.126 78.819 z M 2.073 70.945 c 0.485 3.318 3.351 5.874 6.801 5.874 h 72.252 c 3.451 0 6.315 -2.556 6.802 -5.874 H 2.073 z" style="stroke: none; stroke-width: 1; stroke-dasharray: none; stroke-linecap: butt; stroke-linejoin: miter; stroke-miterlimit: 10; fill: rgb(40,66,104); fill-rule: nonzero; opacity: 1;" transform=" matrix(1 0 0 1 0 0) " stroke-linecap="round" />
	<path d="M 67.111 70.95 c -0.246 0 -0.492 -0.09 -0.686 -0.271 c -0.402 -0.379 -0.421 -1.012 -0.043 -1.414 c 3.923 -4.17 6.229 -9.249 6.671 -14.686 c 0.357 -4.393 -0.652 -8.651 -2.92 -12.314 c -0.29 -0.47 -0.146 -1.086 0.324 -1.377 c 0.471 -0.29 1.085 -0.145 1.377 0.324 c 2.493 4.029 3.604 8.708 3.213 13.529 c -0.479 5.894 -2.972 11.39 -7.208 15.895 C 67.643 70.845 67.377 70.95 67.111 70.95 z" style="stroke: none; stroke-width: 1; stroke-dasharray: none; stroke-linecap: butt; stroke-linejoin: miter; stroke-miterlimit: 10; fill: rgb(40,66,104); fill-rule: nonzero; opacity: 1;" transform=" matrix(1 0 0 1 0 0) " stroke-linecap="round" />
	<path d="M 13.129 62.341 c -0.416 0 -0.804 -0.261 -0.946 -0.677 c -0.775 -2.27 -1.168 -4.626 -1.168 -7.004 c 0 -13.821 13.437 -24.777 31.949 -26.051 c 9.547 -0.657 18.155 1.893 24.233 7.18 c 0.417 0.362 0.461 0.994 0.099 1.411 c -0.364 0.417 -0.995 0.46 -1.411 0.098 c -5.676 -4.937 -13.771 -7.313 -22.783 -6.694 c -17.434 1.2 -30.087 11.317 -30.087 24.056 c 0 2.157 0.357 4.296 1.061 6.357 c 0.179 0.522 -0.101 1.091 -0.623 1.27 C 13.346 62.323 13.236 62.341 13.129 62.341 z" style="stroke: none; stroke-width: 1; stroke-dasharray: none; stroke-linecap: butt; stroke-linejoin: miter; stroke-miterlimit: 10; fill: rgb(40,66,104); fill-rule: nonzero; opacity: 1;" transform=" matrix(1 0 0 1 0 0) " stroke-linecap="round" />
	<path d="M 42.431 69.299 c 0 -4.424 -3.587 -8.011 -8.011 -8.011 c -0.364 0 -0.72 0.033 -1.072 0.08 c -1.25 -3.906 -4.907 -6.735 -9.228 -6.735 c -4.365 0 -8.053 2.887 -9.266 6.854 c -0.507 -0.12 -1.029 -0.199 -1.572 -0.199 c -3.776 0 -7.885 4.706 -6.838 8.657" style="stroke: none; stroke-width: 1; stroke-dasharray: none; stroke-linecap: butt; stroke-linejoin: miter; stroke-miterlimit: 10; fill: rgb(249,212,56); fill-rule: nonzero; opacity: 1;" transform=" matrix(1 0 0 1 0 0) " stroke-linecap="round" />
	<path d="M 6.444 70.945 c -0.443 0 -0.847 -0.296 -0.966 -0.744 c -0.547 -2.063 0.042 -4.418 1.615 -6.463 c 1.638 -2.128 4.01 -3.45 6.19 -3.45 c 0.297 0 0.6 0.021 0.913 0.061 c 1.611 -4.052 5.495 -6.716 9.925 -6.716 c 4.394 0 8.277 2.646 9.903 6.666 c 0.136 -0.007 0.267 -0.011 0.396 -0.011 c 4.969 0 9.011 4.042 9.011 9.011 c 0 0.553 -0.448 1 -1 1 s -1 -0.447 -1 -1 c 0 -3.866 -3.145 -7.011 -7.011 -7.011 c -0.276 0 -0.575 0.022 -0.939 0.071 c -0.484 0.065 -0.937 -0.225 -1.085 -0.687 c -1.156 -3.612 -4.481 -6.04 -8.275 -6.04 c -3.847 0 -7.186 2.471 -8.31 6.146 c -0.154 0.504 -0.674 0.803 -1.187 0.681 c -0.489 -0.115 -0.928 -0.172 -1.342 -0.172 c -1.549 0 -3.356 1.048 -4.605 2.67 c -1.191 1.549 -1.653 3.272 -1.266 4.731 c 0.141 0.533 -0.177 1.081 -0.71 1.223 C 6.615 70.935 6.528 70.945 6.444 70.945 z" style="stroke: none; stroke-width: 1; stroke-dasharray: none; stroke-linecap: butt; stroke-linejoin: miter; stroke-miterlimit: 10; fill: rgb(40,66,104); fill-rule: nonzero; opacity: 1;" transform=" matrix(1 0 0 1 0 0) " stroke-linecap="round" />
	<path d="M 70.914 41.637 l -4.252 2.992 c -1.334 4.628 -6.593 10.913 -9.942 13.269 c -4.486 3.157 -10.306 2.615 -12.998 -1.21 c -2.692 -3.826 -1.238 -9.486 3.248 -12.644 c 3.349 -2.357 11.04 -5.185 15.846 -4.879 l 3.725 -2.621 l 0 -0.001 c 1.718 1.544 3.199 3.275 4.444 5.194 L 70.914 41.637 z" style="stroke: none; stroke-width: 1; stroke-dasharray: none; stroke-linecap: butt; stroke-linejoin: miter; stroke-miterlimit: 10; fill: rgb(210,138,125); fill-rule: nonzero; opacity: 1;" transform=" matrix(1 0 0 1 0 0) " stroke-linecap="round" />
	<path d="M 70.914 41.637 l 5.119 -3.602 c 0.103 0.193 0.189 0.391 0.318 0.574 c 1.725 2.452 5.111 3.04 7.563 1.315 s 3.04 -5.111 1.315 -7.563 c -0.913 -1.297 -2.293 -2.055 -3.752 -2.242 c 0.316 -1.436 0.069 -2.991 -0.844 -4.288 c -1.725 -2.452 -5.111 -3.04 -7.563 -1.315 c -2.452 1.725 -3.04 5.111 -1.315 7.563 c 0.129 0.183 0.287 0.331 0.433 0.493 l -5.646 3.973" style="stroke: none; stroke-width: 1; stroke-dasharray: none; stroke-linecap: butt; stroke-linejoin: miter; stroke-miterlimit: 10; fill: rgb(255,255,255); fill-rule: nonzero; opacity: 1;" transform=" matrix(1 0 0 1 0 0) " stroke-linecap="round" />
	<path d="M 50.447 60.945 c -3.02 0.001 -5.837 -1.257 -7.543 -3.682 c -1.473 -2.093 -1.906 -4.72 -1.218 -7.396 c 0.672 -2.618 2.345 -4.977 4.709 -6.64 c 3.249 -2.287 10.839 -5.259 16.127 -5.077 l 3.444 -2.424 c 0.38 -0.268 0.896 -0.238 1.243 0.074 c 1.816 1.632 3.26 3.313 4.543 5.292 c 0.293 0.451 0.176 1.052 -0.264 1.362 l -3.971 2.794 c -1.607 5.025 -6.973 11.179 -10.223 13.466 C 55.165 60.216 52.747 60.945 50.447 60.945 z M 62.095 40.144 c -4.402 0 -11.367 2.48 -14.549 4.719 c -1.975 1.39 -3.369 3.344 -3.923 5.502 c -0.54 2.1 -0.214 4.141 0.917 5.748 c 2.369 3.366 7.575 3.803 11.605 0.968 c 3.345 -2.355 8.354 -8.558 9.556 -12.729 c 0.063 -0.219 0.199 -0.41 0.386 -0.541 l 3.449 -2.428 c -0.904 -1.284 -1.905 -2.439 -3.08 -3.557 l -3.063 2.157 c -0.187 0.131 -0.411 0.193 -0.64 0.18 C 62.541 40.15 62.321 40.144 62.095 40.144 z" style="stroke: none; stroke-width: 1; stroke-dasharray: none; stroke-linecap: butt; stroke-linejoin: miter; stroke-miterlimit: 10; fill: rgb(40,66,104); fill-rule: nonzero; opacity: 1;" transform=" matrix(1 0 0 1 0 0) " stroke-linecap="round" />
	<path d="M 70.915 42.637 c -0.314 0 -0.624 -0.148 -0.818 -0.424 c -0.318 -0.452 -0.21 -1.076 0.242 -1.394 l 5.118 -3.602 c 0.234 -0.165 0.527 -0.222 0.808 -0.155 c 0.279 0.067 0.516 0.25 0.65 0.503 l 0.092 0.179 c 0.05 0.098 0.097 0.197 0.161 0.29 c 1.404 1.997 4.173 2.478 6.17 1.072 c 1.996 -1.405 2.478 -4.173 1.072 -6.17 c -0.715 -1.016 -1.802 -1.664 -3.061 -1.826 c -0.278 -0.036 -0.529 -0.187 -0.69 -0.416 c -0.162 -0.229 -0.22 -0.517 -0.159 -0.791 c 0.272 -1.239 0.029 -2.481 -0.686 -3.498 c -0.681 -0.968 -1.697 -1.612 -2.862 -1.814 c -1.168 -0.203 -2.34 0.061 -3.308 0.742 c -0.967 0.681 -1.611 1.697 -1.814 2.862 c -0.202 1.166 0.061 2.34 0.741 3.307 c 0.064 0.091 0.141 0.167 0.215 0.244 l 0.143 0.153 c 0.192 0.212 0.284 0.497 0.253 0.782 c -0.032 0.285 -0.185 0.542 -0.419 0.708 l -5.646 3.973 c -0.451 0.317 -1.075 0.209 -1.393 -0.242 c -0.318 -0.452 -0.21 -1.076 0.242 -1.394 l 4.776 -3.362 c -0.844 -1.345 -1.158 -2.934 -0.884 -4.511 c 0.295 -1.692 1.23 -3.168 2.635 -4.156 c 1.403 -0.988 3.109 -1.372 4.8 -1.076 c 1.692 0.294 3.168 1.229 4.156 2.634 c 0.834 1.186 1.231 2.629 1.143 4.078 c 1.394 0.405 2.619 1.267 3.453 2.453 c 2.04 2.899 1.341 6.917 -1.558 8.957 c -2.802 1.972 -6.652 1.385 -8.749 -1.278 l -4.25 2.991 C 71.314 42.578 71.114 42.637 70.915 42.637 z" style="stroke: none; stroke-width: 1; stroke-dasharray: none; stroke-linecap: butt; stroke-linejoin: miter; stroke-miterlimit: 10; fill: rgb(40,66,104); fill-rule: nonzero; opacity: 1;" transform=" matrix(1 0 0 1 0 0) " stroke-linecap="round" />
</g>
</g>
</svg>