<svg xmlns="http://www.w3.org/2000/svg" xmlns:xlink="http://www.w3.org/1999/xlink" version="1.1" width="256" height="256" viewBox="0 0 256 256" xml:space="preserve">
<desc>Created with Fabric.js 1.7.22</desc>
<defs>
</defs>
<g transform="translate(128 128) scale(0.72 0.72)" style="">
	<g style="stroke: none; stroke-width: 0; stroke-dasharray: none; stroke-linecap: butt; stroke-linejoin: miter; stroke-miterlimit: 10; fill: none; fill-rule: nonzero; opacity: 1;" transform="translate(-175.05 -175.05000000000004) scale(3.89 3.89)" >
	<path d="M 78.09 46.5 c -1.64 -2.848 0.816 -5.177 0.69 -7.508 c -0.136 -2.537 -1.432 -3.759 -3.343 -5.412 c -0.781 -0.673 -1.661 -1.218 -2.43 -1.906 c -0.915 -0.813 -1.245 -1.835 -1.527 -2.993 c -0.493 -2.016 -0.569 -4.066 -1.988 -5.711 c -1.713 -1.986 -4.569 -1.649 -6.891 -1.501 c -1.328 0.084 -2.537 -0.01 -3.703 -0.699 c -0.972 -0.575 -1.715 -1.523 -2.486 -2.327 c -1.557 -1.619 -3.428 -2.683 -5.739 -2.431 c -1.174 0.128 -2.296 0.541 -3.433 0.84 c -0.697 0.185 -1.394 0.138 -2.094 0.102 c -0.403 -0.144 -0.804 -0.297 -1.203 -0.439 c -1.855 -0.661 -3.945 -1.1 -5.827 -0.278 c -1.765 0.769 -2.927 2.454 -4.484 3.542 c -0.818 0.571 -1.876 0.449 -2.817 0.437 c -1.048 -0.014 -2.126 0.07 -3.148 0.313 c -3.503 0.834 -4.4 4.466 -6.548 6.851 c -1.086 1.205 -2.847 1.521 -4.194 2.32 c -0.453 0.269 -0.866 0.565 -1.226 0.898 c -1.837 0.97 -2.16 4.01 -2.202 6.048 c -0.026 1.352 0.143 2.857 -0.292 4.162 c -0.22 0.663 -1.162 1.519 -1.677 2.102 c -0.723 0.822 -1.447 1.649 -2.012 2.589 c -1.208 2.016 -0.851 4.294 0.247 6.264 c 0.575 1.03 1.293 1.956 1.647 3.096 c 0.423 1.362 -0.405 2.727 -0.918 3.953 c -0.519 1.242 -0.699 2.565 -0.569 3.867 c -0.1 1.4 0.272 2.735 1.228 3.941 c 1.521 1.922 3.705 3.048 4.909 5.258 c 1.082 1.982 1.361 4.244 3.004 5.909 c 1.675 1.699 4.198 1.946 6.18 3.11 c 1.918 1.128 2.852 3.683 4.316 5.296 c 1.773 1.951 4.272 2.641 6.807 2.066 c 1.401 -0.316 2.679 -0.908 4.12 -1.064 c 1.611 -0.176 3.17 0.034 4.699 0.559 c 2.084 0.715 4.27 1.346 6.496 1.234 c 2.477 -0.124 4.951 -1.537 5.977 -3.815 c 0.469 -0.185 0.958 -0.329 1.437 -0.467 c 1.332 -0.387 2.657 -0.765 4.011 -1.068 c 1.218 -0.272 2.18 -0.659 3.076 -1.627 c 1.485 -1.605 1.647 -3.954 3.286 -5.47 c 0.679 -0.631 1.655 -0.892 2.523 -1.134 c 1.09 -0.305 2.176 -0.978 3.058 -1.671 c 1.575 -1.24 2.585 -2.971 2.921 -4.943 c 0.18 -1.052 0.172 -2.11 0.06 -3.168 c -0.08 -0.759 -0.458 -4.022 0.578 -5.057 c 1.98 -1.98 2.589 -4.229 2.634 -5.915 C 81.318 51.797 79.417 48.806 78.09 46.5 z M 58.83 40.641 c 0.274 0.742 0.233 1.607 0.059 2.356 c -0.184 0.793 -0.489 1.516 -0.415 2.343 c 0.084 0.925 0.647 1.636 1.27 2.312 c 1.009 1.093 2.431 2.082 2.139 3.726 c -0.217 1.22 -1.355 2.182 -1.944 3.249 c -0.765 1.386 -0.75 2.048 -0.322 3.501 c 0.113 0.383 2.552 3.686 -1.113 5.529 c -0.774 0.39 -1.794 0.258 -2.651 0.367 c -0.773 0.099 -1.521 0.418 -2.153 0.844 c -0.968 0.655 -1.603 1.611 -2.255 2.53 c -0.592 0.834 -1.27 1.586 -2.399 1.674 c -1.748 0.135 -3.069 -1.086 -4.726 -1.344 c -1.899 -0.296 -3.543 0.805 -5.347 1.101 c -0.866 0.143 -1.541 -0.281 -2.548 -1.864 c -1.125 -1.77 -2.723 -2.488 -4.499 -3.514 c -0.769 -0.444 -1.605 -1.017 -1.451 -1.958 c 0.156 -0.963 0.568 -1.873 0.696 -2.845 c 0.278 -2.116 -0.898 -3.756 -2.182 -5.377 c -0.602 -0.76 -1.188 -1.547 -1.131 -2.533 c 0.051 -0.851 0.966 -1.524 1.544 -2.079 c 0.64 -0.612 1.135 -1.292 1.415 -2.115 c 0.324 -0.953 -0.044 -2.001 -0.294 -2.926 c -0.222 -0.821 -0.207 -1.685 0.593 -2.207 c 0.721 -0.471 1.639 -0.63 2.429 -0.966 c 1.723 -0.732 1.961 -2.266 2.936 -3.616 c 1.307 -1.807 3.164 -0.653 3.908 -0.553 c 1.055 0.142 2.067 0.045 3.058 -0.327 c 1.152 -0.431 2.157 -1.147 3.299 -1.587 c 0.025 -0.01 0.05 -0.017 0.075 -0.026 c 0.781 -0.441 1.585 -0.443 2.455 0.417 c 0.866 0.582 2.194 2.434 2.194 2.434 C 53.742 40.404 56.044 38.269 58.83 40.641 z" style="stroke: none; stroke-width: 1; stroke-dasharray: none; stroke-linecap: butt; stroke-linejoin: miter; stroke-miterlimit: 10; fill: rgb(147,190,96); fill-rule: nonzero; opacity: 1;" transform=" matrix(1 0 0 1 0 0) " stroke-linecap="round" />
	<path d="M 51.164 90 c -2.189 0 -4.318 -0.62 -6.304 -1.301 c -1.451 -0.5 -2.848 -0.668 -4.267 -0.512 c -0.779 0.085 -1.529 0.32 -2.322 0.568 c -0.54 0.17 -1.097 0.344 -1.686 0.478 c -2.958 0.668 -5.789 -0.194 -7.766 -2.368 c -0.603 -0.665 -1.11 -1.452 -1.6 -2.213 c -0.765 -1.187 -1.487 -2.309 -2.483 -2.894 c -0.692 -0.407 -1.477 -0.697 -2.309 -1.004 c -1.422 -0.525 -2.894 -1.068 -4.075 -2.266 c -1.193 -1.209 -1.735 -2.64 -2.26 -4.024 c -0.282 -0.744 -0.548 -1.448 -0.909 -2.108 c -0.622 -1.142 -1.573 -1.984 -2.579 -2.876 c -0.763 -0.676 -1.552 -1.375 -2.237 -2.24 C 9.306 65.9 8.819 64.372 8.92 62.694 c -0.132 -1.459 0.092 -2.933 0.649 -4.267 c 0.09 -0.214 0.189 -0.434 0.29 -0.655 c 0.43 -0.949 0.836 -1.846 0.596 -2.617 c -0.213 -0.683 -0.6 -1.311 -1.011 -1.976 c -0.189 -0.306 -0.378 -0.613 -0.554 -0.929 c -1.425 -2.555 -1.507 -5.135 -0.232 -7.264 c 0.622 -1.035 1.418 -1.938 2.119 -2.735 c 0.131 -0.148 0.285 -0.311 0.449 -0.484 c 0.349 -0.366 0.932 -0.979 1.029 -1.273 c 0.277 -0.829 0.261 -1.845 0.246 -2.827 c -0.005 -0.352 -0.011 -0.7 -0.004 -1.039 c 0.076 -3.637 0.932 -5.878 2.617 -6.847 c 0.376 -0.335 0.803 -0.642 1.3 -0.938 c 0.545 -0.323 1.125 -0.566 1.686 -0.8 c 0.89 -0.372 1.731 -0.724 2.277 -1.33 c 0.625 -0.695 1.143 -1.517 1.691 -2.387 c 1.211 -1.923 2.583 -4.104 5.368 -4.766 c 1.018 -0.242 2.164 -0.356 3.392 -0.34 l 0.401 0.009 c 0.717 0.019 1.394 0.039 1.831 -0.266 c 0.555 -0.388 1.067 -0.871 1.608 -1.383 c 0.895 -0.846 1.822 -1.721 3.05 -2.256 c 2.355 -1.029 4.872 -0.35 6.56 0.253 l 1.069 0.39 c 0.632 0.032 1.158 0.048 1.637 -0.078 c 0.315 -0.082 0.626 -0.174 0.939 -0.265 c 0.841 -0.246 1.712 -0.5 2.641 -0.602 c 2.367 -0.256 4.575 0.662 6.566 2.731 c 0.175 0.182 0.347 0.37 0.522 0.56 c 0.577 0.63 1.122 1.226 1.754 1.6 c 0.826 0.487 1.731 0.649 3.132 0.562 l 0.445 -0.03 c 2.38 -0.162 5.336 -0.362 7.265 1.875 c 1.265 1.468 1.597 3.152 1.917 4.782 c 0.088 0.446 0.175 0.896 0.286 1.344 c 0.282 1.159 0.56 1.897 1.22 2.484 c 0.373 0.334 0.78 0.635 1.21 0.953 c 0.41 0.304 0.821 0.608 1.209 0.942 c 1.813 1.568 3.523 3.048 3.689 6.115 c 0.059 1.079 -0.305 2.082 -0.657 3.052 c -0.514 1.415 -0.956 2.638 -0.166 4.012 l 0.342 0.589 c 1.345 2.312 3.02 5.188 2.943 8.088 c -0.038 1.408 -0.468 4.136 -2.927 6.594 c -0.112 0.112 -0.653 0.84 -0.298 4.182 c 0.141 1.331 0.119 2.457 -0.061 3.507 c -0.384 2.245 -1.521 4.168 -3.288 5.559 c -0.806 0.635 -2.052 1.47 -3.406 1.848 c -0.837 0.234 -1.628 0.455 -2.112 0.905 c -0.715 0.661 -1.114 1.572 -1.538 2.535 c -0.432 0.984 -0.879 2.001 -1.693 2.881 c -1.15 1.243 -2.406 1.659 -3.592 1.924 c -1.299 0.291 -2.558 0.648 -3.951 1.053 c -0.33 0.096 -0.667 0.194 -0.995 0.307 c -1.226 2.31 -3.787 3.87 -6.646 4.014 C 51.541 89.995 51.352 90 51.164 90 z M 41.589 86.137 c 1.302 0 2.615 0.225 3.919 0.674 c 2.274 0.779 4.199 1.285 6.121 1.181 c 2.242 -0.113 4.299 -1.41 5.117 -3.227 l 0.167 -0.37 l 0.377 -0.148 c 0.52 -0.206 1.053 -0.361 1.525 -0.498 c 1.427 -0.413 2.718 -0.78 4.072 -1.083 c 1.035 -0.231 1.824 -0.534 2.561 -1.332 c 0.587 -0.634 0.949 -1.457 1.332 -2.328 c 0.487 -1.109 0.992 -2.254 2.009 -3.196 c 0.837 -0.778 1.959 -1.091 2.861 -1.343 c 1.108 -0.309 2.116 -0.992 2.78 -1.514 c 1.372 -1.079 2.255 -2.576 2.555 -4.327 c 0.148 -0.867 0.165 -1.814 0.051 -2.895 c -0.331 -3.105 -0.054 -4.95 0.865 -5.868 c 1.969 -1.969 2.313 -4.126 2.342 -5.235 c 0.062 -2.333 -1.454 -4.938 -2.672 -7.031 l -0.346 -0.597 c -1.255 -2.178 -0.549 -4.125 0.019 -5.689 c 0.296 -0.817 0.576 -1.589 0.54 -2.263 c -0.114 -2.117 -1.16 -3.12 -3 -4.711 c -0.349 -0.3 -0.72 -0.574 -1.092 -0.849 c -0.447 -0.331 -0.911 -0.674 -1.35 -1.067 c -1.153 -1.025 -1.537 -2.292 -1.832 -3.501 c -0.117 -0.477 -0.212 -0.956 -0.305 -1.433 c -0.294 -1.5 -0.549 -2.795 -1.469 -3.863 c -1.278 -1.482 -3.486 -1.333 -5.618 -1.187 l -0.453 0.03 c -1.273 0.082 -2.783 0.046 -4.275 -0.836 c -0.887 -0.525 -1.59 -1.292 -2.209 -1.969 c -0.164 -0.178 -0.326 -0.355 -0.489 -0.525 c -1.56 -1.623 -3.171 -2.322 -4.91 -2.129 c -0.755 0.082 -1.504 0.301 -2.298 0.533 c -0.33 0.097 -0.659 0.193 -0.99 0.279 c -0.815 0.215 -1.608 0.175 -2.305 0.139 l -0.38 -0.062 l -1.201 -0.438 c -2.174 -0.775 -3.792 -0.872 -5.091 -0.304 c -0.909 0.396 -1.671 1.115 -2.477 1.877 c -0.57 0.539 -1.16 1.097 -1.836 1.569 c -0.978 0.683 -2.117 0.647 -3.031 0.625 l -0.37 -0.009 c -1.07 -0.017 -2.046 0.082 -2.905 0.286 c -1.991 0.474 -2.987 2.056 -4.14 3.887 c -0.569 0.904 -1.157 1.838 -1.898 2.66 c -0.846 0.938 -1.985 1.415 -2.99 1.835 c -0.521 0.218 -1.013 0.424 -1.437 0.675 c -0.41 0.244 -0.767 0.505 -1.059 0.774 l -0.211 0.149 c -1.019 0.538 -1.612 2.379 -1.67 5.186 c -0.006 0.314 -0.001 0.64 0.004 0.969 c 0.017 1.096 0.036 2.338 -0.348 3.488 c -0.238 0.717 -0.896 1.408 -1.477 2.019 c -0.146 0.153 -0.284 0.297 -0.399 0.428 c -0.676 0.768 -1.376 1.563 -1.905 2.442 c -1.144 1.908 -0.488 3.916 0.263 5.263 c 0.162 0.291 0.336 0.572 0.509 0.853 c 0.458 0.741 0.931 1.508 1.219 2.432 c 0.465 1.497 -0.173 2.903 -0.684 4.033 c -0.093 0.204 -0.184 0.405 -0.266 0.602 c -0.447 1.07 -0.614 2.208 -0.496 3.383 l 0.008 0.086 l -0.006 0.085 c -0.087 1.215 0.245 2.278 1.015 3.25 c 0.576 0.728 1.266 1.34 1.997 1.987 c 1.09 0.966 2.218 1.965 3.007 3.413 c 0.427 0.781 0.73 1.581 1.024 2.356 c 0.472 1.245 0.917 2.42 1.814 3.329 c 0.869 0.881 2.072 1.325 3.345 1.795 c 0.877 0.324 1.784 0.658 2.629 1.155 c 1.405 0.827 2.292 2.203 3.15 3.534 c 0.467 0.724 0.908 1.409 1.4 1.952 c 1.479 1.627 3.611 2.272 5.847 1.763 c 0.509 -0.115 1.005 -0.27 1.529 -0.435 c 0.85 -0.267 1.73 -0.543 2.704 -0.648 C 40.78 86.159 41.184 86.137 41.589 86.137 z M 48.779 70.08 c -1.112 0 -2.056 -0.411 -2.898 -0.778 c -0.59 -0.257 -1.148 -0.501 -1.714 -0.589 c -0.965 -0.153 -1.919 0.175 -2.933 0.518 c -0.667 0.226 -1.356 0.459 -2.098 0.581 c -1.651 0.279 -2.685 -0.95 -3.552 -2.314 c -0.838 -1.318 -1.984 -1.962 -3.434 -2.776 l -0.722 -0.409 c -0.663 -0.384 -2.215 -1.282 -1.937 -2.983 c 0.084 -0.519 0.226 -1.001 0.364 -1.468 c 0.139 -0.47 0.27 -0.914 0.328 -1.348 c 0.223 -1.694 -0.72 -3.041 -1.975 -4.625 c -0.603 -0.76 -1.427 -1.803 -1.345 -3.211 c 0.068 -1.119 0.933 -1.904 1.565 -2.477 c 0.1 -0.091 0.196 -0.178 0.284 -0.263 c 0.585 -0.559 0.953 -1.104 1.162 -1.716 c 0.188 -0.553 -0.021 -1.299 -0.223 -2.02 l -0.09 -0.325 c -0.529 -1.956 0.406 -2.909 1.011 -3.304 c 0.567 -0.37 1.201 -0.575 1.76 -0.757 c 0.28 -0.091 0.56 -0.18 0.824 -0.292 c 0.875 -0.372 1.22 -1.018 1.698 -1.912 c 0.237 -0.445 0.483 -0.904 0.819 -1.369 c 1.472 -2.033 3.563 -1.361 4.457 -1.072 c 0.156 0.05 0.289 0.1 0.394 0.116 c 0.914 0.12 1.757 0.033 2.574 -0.273 c 0.524 -0.196 1.028 -0.466 1.561 -0.751 c 0.546 -0.292 1.111 -0.594 1.73 -0.833 l 0.028 -0.01 c 1.225 -0.65 2.429 -0.457 3.497 0.561 c 0.977 0.704 2.226 2.426 2.368 2.625 c 0.992 1.405 1.894 1.52 3.141 1.679 c 1.143 0.146 2.565 0.328 4.055 1.595 l 0.199 0.17 l 0.091 0.245 c 0.393 1.066 0.268 2.181 0.094 2.929 c -0.05 0.215 -0.108 0.427 -0.166 0.636 c -0.142 0.513 -0.265 0.955 -0.226 1.391 c 0.053 0.582 0.425 1.091 1.01 1.725 c 0.171 0.184 0.354 0.367 0.538 0.549 c 0.971 0.964 2.18 2.163 1.849 4.027 c -0.181 1.02 -0.803 1.834 -1.352 2.552 c -0.269 0.352 -0.524 0.685 -0.7 1.004 c -0.622 1.128 -0.603 1.499 -0.239 2.737 c -0.01 -0.041 0.017 0.006 0.055 0.075 c 0.377 0.7 1.261 2.339 0.715 4.073 c -0.335 1.066 -1.14 1.926 -2.391 2.554 c -0.723 0.364 -1.514 0.393 -2.212 0.417 c -0.26 0.01 -0.519 0.018 -0.762 0.049 c -0.571 0.072 -1.166 0.308 -1.719 0.681 c -0.745 0.504 -1.283 1.265 -1.853 2.073 l -0.146 0.207 c -0.687 0.967 -1.597 1.971 -3.136 2.091 C 49.008 70.075 48.892 70.08 48.779 70.08 z M 43.671 66.678 c 0.263 0 0.53 0.019 0.804 0.061 c 0.82 0.128 1.524 0.435 2.204 0.731 c 0.817 0.356 1.518 0.663 2.291 0.604 c 0.602 -0.047 1.036 -0.375 1.662 -1.257 l 0.143 -0.203 c 0.649 -0.917 1.319 -1.866 2.366 -2.575 c 0.812 -0.548 1.705 -0.896 2.586 -1.008 c 0.301 -0.038 0.62 -0.051 0.943 -0.062 c 0.541 -0.02 1.052 -0.038 1.386 -0.207 c 0.751 -0.377 1.216 -0.838 1.383 -1.371 c 0.292 -0.928 -0.311 -2.047 -0.568 -2.525 c -0.101 -0.186 -0.168 -0.31 -0.211 -0.456 c -0.48 -1.625 -0.528 -2.577 0.406 -4.268 c 0.248 -0.448 0.559 -0.857 0.861 -1.252 c 0.45 -0.59 0.876 -1.148 0.973 -1.69 c 0.14 -0.794 -0.399 -1.376 -1.29 -2.26 c -0.206 -0.204 -0.409 -0.407 -0.6 -0.612 c -0.731 -0.793 -1.422 -1.692 -1.532 -2.9 c -0.071 -0.798 0.121 -1.492 0.291 -2.104 c 0.051 -0.183 0.102 -0.367 0.146 -0.555 c 0.133 -0.573 0.148 -1.111 0.048 -1.547 c -0.949 -0.723 -1.809 -0.833 -2.794 -0.959 c -1.416 -0.181 -3.02 -0.386 -4.515 -2.502 c -0.47 -0.654 -1.416 -1.832 -1.936 -2.182 l -0.145 -0.118 c -0.577 -0.57 -0.899 -0.462 -1.262 -0.257 l -0.164 0.074 c -0.546 0.208 -1.032 0.468 -1.548 0.744 c -0.567 0.304 -1.154 0.618 -1.802 0.86 c -1.117 0.419 -2.308 0.545 -3.541 0.382 c -0.237 -0.032 -0.481 -0.111 -0.739 -0.194 c -1.132 -0.365 -1.693 -0.398 -2.228 0.342 c -0.257 0.355 -0.46 0.737 -0.676 1.14 c -0.541 1.013 -1.155 2.162 -2.678 2.809 c -0.317 0.135 -0.652 0.245 -0.989 0.354 c -0.484 0.156 -0.94 0.305 -1.285 0.529 c -0.131 0.086 -0.403 0.263 -0.174 1.11 l 0.085 0.307 c 0.258 0.919 0.579 2.062 0.191 3.202 c -0.311 0.914 -0.857 1.736 -1.67 2.514 c -0.099 0.096 -0.21 0.196 -0.325 0.3 c -0.356 0.323 -0.895 0.811 -0.913 1.116 c -0.035 0.601 0.376 1.171 0.917 1.853 c 1.444 1.823 2.713 3.663 2.389 6.127 c -0.078 0.59 -0.237 1.13 -0.392 1.653 c -0.126 0.426 -0.245 0.829 -0.308 1.223 c -0.028 0.17 0.065 0.413 0.966 0.935 l 0.7 0.396 c 1.56 0.876 3.034 1.703 4.142 3.446 c 0.961 1.512 1.312 1.451 1.542 1.415 c 0.581 -0.096 1.165 -0.293 1.782 -0.502 C 41.519 67.027 42.545 66.678 43.671 66.678 z" style="stroke: none; stroke-width: 1; stroke-dasharray: none; stroke-linecap: butt; stroke-linejoin: miter; stroke-miterlimit: 10; fill: rgb(40,66,104); fill-rule: nonzero; opacity: 1;" transform=" matrix(1 0 0 1 0 0) " stroke-linecap="round" />
	<path d="M 42.849 11.313 c -7.942 -0.34 -15.596 5.187 -21.833 14.945 c 3.847 -1.401 6.929 -1.919 8.752 -0.98 c -0.82 2.684 0.047 6.24 1.993 10.357 c 4.321 -10.113 8.55 -17.456 12.582 -18.814 L 42.849 11.313 z" style="stroke: none; stroke-width: 1; stroke-dasharray: none; stroke-linecap: butt; stroke-linejoin: miter; stroke-miterlimit: 10; fill: rgb(204,70,80); fill-rule: nonzero; opacity: 1;" transform=" matrix(1 0 0 1 0 0) " stroke-linecap="round" />
	<path d="M 31.807 38.068 l -0.949 -2.007 c -1.979 -4.187 -2.725 -7.521 -2.266 -10.15 c -1.521 -0.343 -3.947 0.086 -7.235 1.284 l -2.771 1.01 l 1.588 -2.485 c 6.571 -10.28 14.633 -15.737 22.717 -15.405 l 0.729 0.031 l 1.932 7.12 l -0.892 0.3 c -3.285 1.106 -7.204 7.079 -11.982 18.26 L 31.807 38.068 z M 27.443 23.801 c 1.101 0 2.019 0.197 2.781 0.589 l 0.742 0.382 l -0.244 0.798 c -0.564 1.844 -0.214 4.382 1.038 7.563 c 4.356 -9.823 7.938 -15.138 11.39 -16.889 l -1.07 -3.946 c -6.475 0.038 -12.993 4.297 -18.618 12.127 C 24.999 24.008 26.316 23.801 27.443 23.801 z" style="stroke: none; stroke-width: 1; stroke-dasharray: none; stroke-linecap: butt; stroke-linejoin: miter; stroke-miterlimit: 10; fill: rgb(40,66,104); fill-rule: nonzero; opacity: 1;" transform=" matrix(1 0 0 1 0 0) " stroke-linecap="round" />
	<path d="M 47.569 16.496 c 5.809 1.099 5.194 13.121 9.879 18.458 l 3.395 -6.385 c 2.237 2.102 4.913 3.313 8.144 3.396 c -6.914 -7.423 -8.955 -21.49 -21.719 -21.123 L 47.569 16.496 z" style="stroke: none; stroke-width: 1; stroke-dasharray: none; stroke-linecap: butt; stroke-linejoin: miter; stroke-miterlimit: 10; fill: rgb(204,70,80); fill-rule: nonzero; opacity: 1;" transform=" matrix(1 0 0 1 0 0) " stroke-linecap="round" />
	<path d="M 57.651 36.699 l -0.953 -1.086 c -2.159 -2.461 -3.219 -6.075 -4.243 -9.57 c -1.214 -4.142 -2.36 -8.053 -5.071 -8.566 l -0.77 -0.146 l -0.397 -7.457 l 1.023 -0.029 c 0.176 -0.005 0.352 -0.008 0.525 -0.008 c 8.985 0 12.824 6.78 16.541 13.341 c 1.634 2.883 3.323 5.865 5.411 8.107 l 1.62 1.74 l -2.376 -0.061 c -2.917 -0.075 -5.543 -1.024 -7.823 -2.822 L 57.651 36.699 z M 48.527 15.72 c 3.321 1.154 4.548 5.344 5.843 9.761 c 0.798 2.722 1.617 5.52 2.937 7.611 l 3.267 -6.145 l 0.952 0.895 c 1.533 1.44 3.211 2.373 5.085 2.82 c -1.5 -2.012 -2.787 -4.284 -4.043 -6.5 c -3.5 -6.18 -6.817 -12.032 -14.248 -12.317 L 48.527 15.72 z" style="stroke: none; stroke-width: 1; stroke-dasharray: none; stroke-linecap: butt; stroke-linejoin: miter; stroke-miterlimit: 10; fill: rgb(40,66,104); fill-rule: nonzero; opacity: 1;" transform=" matrix(1 0 0 1 0 0) " stroke-linecap="round" />
	<path d="M 29.533 1.148 c -3.389 3.859 -5.558 8.072 -4.989 13.082 c 4.32 3.267 11.93 3.065 19.798 2.591 l -1.468 -5.509 C 39.324 5.91 34.755 2.796 29.533 1.148 z" style="stroke: none; stroke-width: 1; stroke-dasharray: none; stroke-linecap: butt; stroke-linejoin: miter; stroke-miterlimit: 10; fill: rgb(241,98,108); fill-rule: nonzero; opacity: 1;" transform=" matrix(1 0 0 1 0 0) " stroke-linecap="round" />
	<path d="M 37.252 18.083 c -5.373 0 -10.121 -0.644 -13.31 -3.056 L 23.6 14.768 l -0.048 -0.426 c -0.542 -4.771 1.12 -9.173 5.231 -13.853 L 29.212 0 l 0.621 0.196 c 5.884 1.857 10.423 5.313 13.875 10.567 l 0.089 0.135 l 1.824 6.846 l -1.219 0.073 C 41.953 17.965 39.545 18.083 37.252 18.083 z M 25.493 13.683 c 3.857 2.624 10.454 2.607 17.569 2.212 l -1.111 -4.169 c -3.055 -4.593 -7.019 -7.682 -12.097 -9.422 C 26.578 6.196 25.183 9.837 25.493 13.683 z" style="stroke: none; stroke-width: 1; stroke-dasharray: none; stroke-linecap: butt; stroke-linejoin: miter; stroke-miterlimit: 10; fill: rgb(40,66,104); fill-rule: nonzero; opacity: 1;" transform=" matrix(1 0 0 1 0 0) " stroke-linecap="round" />
	<path d="M 60.478 1.148 c 3.389 3.859 5.558 8.072 4.989 13.082 c -4.32 3.267 -11.93 3.065 -19.798 2.591 l 1.468 -5.509 C 50.687 5.91 55.256 2.796 60.478 1.148 z" style="stroke: none; stroke-width: 1; stroke-dasharray: none; stroke-linecap: butt; stroke-linejoin: miter; stroke-miterlimit: 10; fill: rgb(241,98,108); fill-rule: nonzero; opacity: 1;" transform=" matrix(1 0 0 1 0 0) " stroke-linecap="round" />
	<path d="M 52.76 18.083 c -2.294 0 -4.701 -0.117 -7.151 -0.265 l -1.219 -0.073 l 1.825 -6.846 l 0.089 -0.135 c 3.452 -5.253 7.991 -8.71 13.875 -10.567 L 60.799 0 l 0.429 0.489 c 4.111 4.681 5.774 9.083 5.231 13.853 l -0.048 0.426 l -0.341 0.258 C 62.88 17.438 58.131 18.083 52.76 18.083 z M 46.948 15.895 c 7.116 0.395 13.713 0.411 17.569 -2.212 c 0.311 -3.846 -1.084 -7.487 -4.361 -11.379 c -5.078 1.74 -9.042 4.828 -12.097 9.422 L 46.948 15.895 z" style="stroke: none; stroke-width: 1; stroke-dasharray: none; stroke-linecap: butt; stroke-linejoin: miter; stroke-miterlimit: 10; fill: rgb(40,66,104); fill-rule: nonzero; opacity: 1;" transform=" matrix(1 0 0 1 0 0) " stroke-linecap="round" />
	<path d="M 48.468 18.186 h -4.237 c -1.334 0 -2.415 -1.081 -2.415 -2.415 v -4.237 c 0 -1.334 1.081 -2.415 2.415 -2.415 h 4.237 c 1.334 0 2.415 1.081 2.415 2.415 v 4.237 C 50.883 17.104 49.802 18.186 48.468 18.186 z" style="stroke: none; stroke-width: 1; stroke-dasharray: none; stroke-linecap: butt; stroke-linejoin: miter; stroke-miterlimit: 10; fill: rgb(204,70,80); fill-rule: nonzero; opacity: 1;" transform=" matrix(1 0 0 1 0 0) " stroke-linecap="round" />
	<path d="M 48.468 19.184 h -4.237 c -1.883 0 -3.414 -1.532 -3.414 -3.414 v -4.237 c 0 -1.882 1.532 -3.414 3.414 -3.414 h 4.237 c 1.882 0 3.413 1.532 3.413 3.414 v 4.237 C 51.881 17.652 50.35 19.184 48.468 19.184 z M 44.231 10.116 c -0.781 0 -1.418 0.636 -1.418 1.417 v 4.237 c 0 0.781 0.636 1.417 1.418 1.417 h 4.237 c 0.781 0 1.417 -0.636 1.417 -1.417 v -4.237 c 0 -0.781 -0.636 -1.417 -1.417 -1.417 H 44.231 z" style="stroke: none; stroke-width: 1; stroke-dasharray: none; stroke-linecap: butt; stroke-linejoin: miter; stroke-miterlimit: 10; fill: rgb(40,66,104); fill-rule: nonzero; opacity: 1;" transform=" matrix(1 0 0 1 0 0) " stroke-linecap="round" />
	<circle cx="19.674" cy="34.204" r="1.014" style="stroke: none; stroke-width: 1; stroke-dasharray: none; stroke-linecap: butt; stroke-linejoin: miter; stroke-miterlimit: 10; fill: rgb(40,66,104); fill-rule: nonzero; opacity: 1;" transform="  matrix(1 0 0 1 0 0) "/>
	<circle cx="25.364" cy="43.974000000000004" r="1.014" style="stroke: none; stroke-width: 1; stroke-dasharray: none; stroke-linecap: butt; stroke-linejoin: miter; stroke-miterlimit: 10; fill: rgb(40,66,104); fill-rule: nonzero; opacity: 1;" transform="  matrix(1 0 0 1 0 0) "/>
	<circle cx="18.044" cy="65.124" r="1.014" style="stroke: none; stroke-width: 1; stroke-dasharray: none; stroke-linecap: butt; stroke-linejoin: miter; stroke-miterlimit: 10; fill: rgb(40,66,104); fill-rule: nonzero; opacity: 1;" transform="  matrix(1 0 0 1 0 0) "/>
	<circle cx="31.064" cy="69.184" r="1.014" style="stroke: none; stroke-width: 1; stroke-dasharray: none; stroke-linecap: butt; stroke-linejoin: miter; stroke-miterlimit: 10; fill: rgb(40,66,104); fill-rule: nonzero; opacity: 1;" transform="  matrix(1 0 0 1 0 0) "/>
	<circle cx="35.124" cy="82.204" r="1.014" style="stroke: none; stroke-width: 1; stroke-dasharray: none; stroke-linecap: butt; stroke-linejoin: miter; stroke-miterlimit: 10; fill: rgb(40,66,104); fill-rule: nonzero; opacity: 1;" transform="  matrix(1 0 0 1 0 0) "/>
	<circle cx="44.894000000000005" cy="74.884" r="1.014" style="stroke: none; stroke-width: 1; stroke-dasharray: none; stroke-linecap: butt; stroke-linejoin: miter; stroke-miterlimit: 10; fill: rgb(40,66,104); fill-rule: nonzero; opacity: 1;" transform="  matrix(1 0 0 1 0 0) "/>
	<circle cx="71.734" cy="70.00399999999999" r="1.014" style="stroke: none; stroke-width: 1; stroke-dasharray: none; stroke-linecap: butt; stroke-linejoin: miter; stroke-miterlimit: 10; fill: rgb(40,66,104); fill-rule: nonzero; opacity: 1;" transform="  matrix(1 0 0 1 0 0) "/>
	<circle cx="65.22399999999999" cy="56.984" r="1.014" style="stroke: none; stroke-width: 1; stroke-dasharray: none; stroke-linecap: butt; stroke-linejoin: miter; stroke-miterlimit: 10; fill: rgb(40,66,104); fill-rule: nonzero; opacity: 1;" transform="  matrix(1 0 0 1 0 0) "/>
	<circle cx="73.36399999999999" cy="40.714000000000006" r="1.014" style="stroke: none; stroke-width: 1; stroke-dasharray: none; stroke-linecap: butt; stroke-linejoin: miter; stroke-miterlimit: 10; fill: rgb(40,66,104); fill-rule: nonzero; opacity: 1;" transform="  matrix(1 0 0 1 0 0) "/>
	<circle cx="46.514" cy="26.073999999999998" r="1.014" style="stroke: none; stroke-width: 1; stroke-dasharray: none; stroke-linecap: butt; stroke-linejoin: miter; stroke-miterlimit: 10; fill: rgb(40,66,104); fill-rule: nonzero; opacity: 1;" transform="  matrix(1 0 0 1 0 0) "/>
	<circle cx="61.154" cy="78.954" r="1.014" style="stroke: none; stroke-width: 1; stroke-dasharray: none; stroke-linecap: butt; stroke-linejoin: miter; stroke-miterlimit: 10; fill: rgb(40,66,104); fill-rule: nonzero; opacity: 1;" transform="  matrix(1 0 0 1 0 0) "/>
	<circle cx="20.483999999999998" cy="53.734" r="1.014" style="stroke: none; stroke-width: 1; stroke-dasharray: none; stroke-linecap: butt; stroke-linejoin: miter; stroke-miterlimit: 10; fill: rgb(40,66,104); fill-rule: nonzero; opacity: 1;" transform="  matrix(1 0 0 1 0 0) "/>
</g>
</g>
</svg>