<svg xmlns="http://www.w3.org/2000/svg" xmlns:xlink="http://www.w3.org/1999/xlink" version="1.1" width="256" height="256" viewBox="0 0 256 256" xml:space="preserve">
<desc>Created with Fabric.js 1.7.22</desc>
<defs>
</defs>
<g transform="translate(128 128) scale(0.72 0.72)" style="">
	<g style="stroke: none; stroke-width: 0; stroke-dasharray: none; stroke-linecap: butt; stroke-linejoin: miter; stroke-miterlimit: 10; fill: none; fill-rule: nonzero; opacity: 1;" transform="translate(-175.05 -175.05000000000004) scale(3.89 3.89)" >
	<polygon points="42.76,45.77 56.38,56.8 7.76,89 29.14,34.74 " style="stroke: none; stroke-width: 1; stroke-dasharray: none; stroke-linecap: butt; stroke-linejoin: miter; stroke-miterlimit: 10; fill: rgb(84,190,250); fill-rule: nonzero; opacity: 1;" transform="  matrix(1 0 0 1 0 0) "/>
	<polygon points="79.6,1.53 78.33,7.15 82.24,11.39 76.51,11.92 73.69,16.94 71.41,11.65 65.76,10.52 70.09,6.72 69.42,1 74.37,3.94 " style="stroke: none; stroke-width: 1; stroke-dasharray: none; stroke-linecap: butt; stroke-linejoin: miter; stroke-miterlimit: 10; fill: rgb(249,212,56); fill-rule: nonzero; opacity: 1;" transform="  matrix(1 0 0 1 0 0) "/>
	<circle cx="70.15100000000001" cy="30.701" r="6.141" style="stroke: none; stroke-width: 1; stroke-dasharray: none; stroke-linecap: butt; stroke-linejoin: miter; stroke-miterlimit: 10; fill: rgb(241,98,108); fill-rule: nonzero; opacity: 1;" transform="  matrix(1 0 0 1 0 0) "/>
	<rect x="44.18" y="8.81" rx="0" ry="0" width="9.07" height="9.07" style="stroke: none; stroke-width: 1; stroke-dasharray: none; stroke-linecap: butt; stroke-linejoin: miter; stroke-miterlimit: 10; fill: rgb(84,190,250); fill-rule: nonzero; opacity: 1;" transform=" matrix(0.9692 0.2463 -0.2463 0.9692 4.7864 -11.5877) "/>
	<polyline points="7.76,89 25.71,77.11 17.85,63.4 " style="stroke: none; stroke-width: 1; stroke-dasharray: none; stroke-linecap: butt; stroke-linejoin: miter; stroke-miterlimit: 10; fill: rgb(241,98,108); fill-rule: nonzero; opacity: 1;" transform="  matrix(1 0 0 1 0 0) "/>
	<polygon points="23.49,49.07 35.76,70.46 45.8,63.8 29.14,34.74 " style="stroke: none; stroke-width: 1; stroke-dasharray: none; stroke-linecap: butt; stroke-linejoin: miter; stroke-miterlimit: 10; fill: rgb(241,98,108); fill-rule: nonzero; opacity: 1;" transform="  matrix(1 0 0 1 0 0) "/>
	<path d="M 73.689 17.943 c -0.018 0 -0.035 0 -0.052 -0.001 c -0.381 -0.02 -0.717 -0.254 -0.867 -0.604 l -2.069 -4.811 l -5.136 -1.023 c -0.373 -0.075 -0.672 -0.354 -0.771 -0.722 s 0.021 -0.759 0.307 -1.01 l 3.937 -3.454 l -0.614 -5.201 c -0.045 -0.378 0.129 -0.749 0.448 -0.956 c 0.321 -0.208 0.73 -0.215 1.056 -0.021 l 4.502 2.676 l 4.756 -2.191 c 0.343 -0.159 0.753 -0.109 1.047 0.131 c 0.296 0.24 0.431 0.626 0.347 0.998 l -1.154 5.108 l 3.554 3.847 c 0.259 0.28 0.336 0.682 0.199 1.037 s -0.463 0.603 -0.842 0.637 l -5.215 0.481 l -2.56 4.568 C 74.385 17.749 74.05 17.943 73.689 17.943 z M 67.943 9.938 l 3.664 0.73 c 0.323 0.064 0.593 0.284 0.724 0.586 l 1.477 3.433 l 1.826 -3.259 c 0.16 -0.287 0.452 -0.477 0.78 -0.507 l 3.721 -0.343 L 77.6 7.833 c -0.224 -0.242 -0.313 -0.578 -0.241 -0.899 l 0.823 -3.645 l -3.394 1.563 c -0.299 0.138 -0.647 0.12 -0.929 -0.049 l -3.212 -1.909 l 0.438 3.71 C 71.124 6.932 71 7.257 70.752 7.474 L 67.943 9.938 z" style="stroke: none; stroke-width: 1; stroke-dasharray: none; stroke-linecap: butt; stroke-linejoin: miter; stroke-miterlimit: 10; fill: rgb(40,66,104); fill-rule: nonzero; opacity: 1;" transform=" matrix(1 0 0 1 0 0) " stroke-linecap="round" />
	<path d="M 7.756 90 c -0.224 0 -0.447 -0.075 -0.629 -0.223 c -0.339 -0.274 -0.461 -0.738 -0.301 -1.144 l 21.383 -54.258 c 0.117 -0.296 0.368 -0.52 0.676 -0.601 c 0.307 -0.082 0.635 -0.011 0.884 0.19 l 27.24 22.058 c 0.248 0.2 0.385 0.507 0.37 0.825 c -0.016 0.318 -0.182 0.61 -0.447 0.786 L 8.308 89.834 C 8.14 89.945 7.948 90 7.756 90 z M 29.569 36.378 L 9.85 86.414 L 54.69 56.72 L 42.13 46.549 l 0 0 L 29.569 36.378 z" style="stroke: none; stroke-width: 1; stroke-dasharray: none; stroke-linecap: butt; stroke-linejoin: miter; stroke-miterlimit: 10; fill: rgb(40,66,104); fill-rule: nonzero; opacity: 1;" transform=" matrix(1 0 0 1 0 0) " stroke-linecap="round" />
	<path d="M 35.756 71.458 c -0.077 0 -0.154 -0.009 -0.23 -0.027 c -0.269 -0.063 -0.5 -0.235 -0.637 -0.476 L 22.625 49.566 c -0.151 -0.264 -0.174 -0.581 -0.063 -0.863 l 5.646 -14.327 c 0.141 -0.357 0.474 -0.603 0.857 -0.631 c 0.389 -0.028 0.749 0.167 0.94 0.5 L 46.67 63.308 c 0.263 0.457 0.125 1.04 -0.315 1.331 l -10.046 6.653 C 36.144 71.401 35.951 71.458 35.756 71.458 z M 24.599 48.989 l 11.494 20.046 l 8.375 -5.547 L 29.307 37.045 L 24.599 48.989 z" style="stroke: none; stroke-width: 1; stroke-dasharray: none; stroke-linecap: butt; stroke-linejoin: miter; stroke-miterlimit: 10; fill: rgb(40,66,104); fill-rule: nonzero; opacity: 1;" transform=" matrix(1 0 0 1 0 0) " stroke-linecap="round" />
	<path d="M 7.756 90 c -0.224 0 -0.447 -0.075 -0.629 -0.223 c -0.339 -0.274 -0.461 -0.738 -0.301 -1.144 l 10.09 -25.604 c 0.141 -0.358 0.474 -0.604 0.857 -0.631 c 0.388 -0.03 0.749 0.167 0.94 0.5 l 7.864 13.714 c 0.262 0.457 0.124 1.04 -0.315 1.331 L 8.308 89.834 C 8.14 89.945 7.948 90 7.756 90 z M 18.014 65.699 L 9.85 86.414 l 14.526 -9.62 L 18.014 65.699 z" style="stroke: none; stroke-width: 1; stroke-dasharray: none; stroke-linecap: butt; stroke-linejoin: miter; stroke-miterlimit: 10; fill: rgb(40,66,104); fill-rule: nonzero; opacity: 1;" transform=" matrix(1 0 0 1 0 0) " stroke-linecap="round" />
	<path d="M 46.531 40.967 c -0.397 0 -0.773 -0.239 -0.929 -0.63 c -0.204 -0.513 0.046 -1.095 0.559 -1.299 c 5.259 -2.094 8.847 -6.396 10.107 -12.116 c 0.604 -5.633 2.345 -9.609 8.83 -10.717 c 0.546 -0.093 1.061 0.274 1.153 0.817 c 0.094 0.544 -0.272 1.061 -0.817 1.154 c -4.685 0.8 -6.564 3.158 -7.184 9.01 c -0.004 0.036 -0.01 0.072 -0.017 0.107 c -1.376 6.324 -5.507 11.281 -11.333 13.602 C 46.78 40.944 46.654 40.967 46.531 40.967 z" style="stroke: none; stroke-width: 1; stroke-dasharray: none; stroke-linecap: butt; stroke-linejoin: miter; stroke-miterlimit: 10; fill: rgb(40,66,104); fill-rule: nonzero; opacity: 1;" transform=" matrix(1 0 0 1 0 0) " stroke-linecap="round" />
	<path d="M 70.136 37.847 c -1.629 0 -3.196 -0.553 -4.479 -1.592 c -1.483 -1.2 -2.409 -2.906 -2.609 -4.803 c -0.199 -1.897 0.353 -3.758 1.553 -5.241 s 2.906 -2.409 4.803 -2.608 c 1.904 -0.196 3.759 0.353 5.24 1.552 c 1.482 1.201 2.409 2.906 2.608 4.803 c 0.2 1.897 -0.352 3.758 -1.552 5.241 l 0 0 c -1.2 1.482 -2.906 2.409 -4.803 2.608 C 70.642 37.834 70.389 37.847 70.136 37.847 z M 70.159 25.563 c -0.182 0 -0.364 0.01 -0.548 0.029 c -1.365 0.144 -2.593 0.811 -3.457 1.877 c -0.864 1.068 -1.262 2.408 -1.118 3.773 s 0.811 2.593 1.878 3.458 c 1.068 0.865 2.405 1.263 3.773 1.118 c 1.365 -0.144 2.593 -0.811 3.457 -1.878 l 0 0 c 0.864 -1.067 1.262 -2.407 1.117 -3.772 c -0.144 -1.366 -0.811 -2.594 -1.877 -3.458 C 72.46 25.961 71.331 25.563 70.159 25.563 z" style="stroke: none; stroke-width: 1; stroke-dasharray: none; stroke-linecap: butt; stroke-linejoin: miter; stroke-miterlimit: 10; fill: rgb(40,66,104); fill-rule: nonzero; opacity: 1;" transform=" matrix(1 0 0 1 0 0) " stroke-linecap="round" />
	<path d="M 51.997 19.854 c -0.082 0 -0.165 -0.01 -0.246 -0.031 l -8.792 -2.234 c -0.257 -0.065 -0.478 -0.23 -0.613 -0.458 c -0.136 -0.228 -0.175 -0.5 -0.11 -0.757 l 2.234 -8.792 c 0.065 -0.257 0.23 -0.478 0.458 -0.613 c 0.228 -0.137 0.5 -0.175 0.757 -0.11 l 8.791 2.234 c 0.535 0.136 0.859 0.68 0.723 1.215 L 52.966 19.1 c -0.064 0.257 -0.229 0.478 -0.458 0.613 C 52.353 19.806 52.176 19.854 51.997 19.854 z M 44.42 15.897 l 6.854 1.742 l 1.74 -6.854 l -6.853 -1.742 L 44.42 15.897 z" style="stroke: none; stroke-width: 1; stroke-dasharray: none; stroke-linecap: butt; stroke-linejoin: miter; stroke-miterlimit: 10; fill: rgb(40,66,104); fill-rule: nonzero; opacity: 1;" transform=" matrix(1 0 0 1 0 0) " stroke-linecap="round" />
	<path d="M 38.337 34.332 c -0.421 0 -0.813 -0.269 -0.951 -0.691 c -0.171 -0.525 0.116 -1.089 0.641 -1.26 c 5.595 -1.821 7.511 -4.15 7.32 -8.9 c -0.022 -0.552 0.407 -1.017 0.959 -1.039 c 0.545 -0.023 1.017 0.407 1.039 0.959 c 0.265 6.595 -3.286 9.12 -8.699 10.882 C 38.543 34.315 38.439 34.332 38.337 34.332 z" style="stroke: none; stroke-width: 1; stroke-dasharray: none; stroke-linecap: butt; stroke-linejoin: miter; stroke-miterlimit: 10; fill: rgb(40,66,104); fill-rule: nonzero; opacity: 1;" transform=" matrix(1 0 0 1 0 0) " stroke-linecap="round" />
	<path d="M 54.371 47.314 c -0.422 0 -0.813 -0.269 -0.951 -0.69 c -0.171 -0.525 0.116 -1.089 0.642 -1.26 c 4.4 -1.432 6.457 -3.166 7.099 -5.983 c 0.123 -0.538 0.658 -0.876 1.196 -0.753 c 0.539 0.123 0.876 0.659 0.753 1.197 c -0.809 3.556 -3.33 5.781 -8.429 7.441 C 54.578 47.299 54.474 47.314 54.371 47.314 z" style="stroke: none; stroke-width: 1; stroke-dasharray: none; stroke-linecap: butt; stroke-linejoin: miter; stroke-miterlimit: 10; fill: rgb(40,66,104); fill-rule: nonzero; opacity: 1;" transform=" matrix(1 0 0 1 0 0) " stroke-linecap="round" />
</g>
</g>
</svg>