<svg xmlns="http://www.w3.org/2000/svg" xmlns:xlink="http://www.w3.org/1999/xlink" version="1.1" width="256" height="256" viewBox="0 0 256 256" xml:space="preserve">
<desc>Created with Fabric.js 1.7.22</desc>
<defs>
</defs>
<g transform="translate(128 128) scale(0.72 0.72)" style="">
	<g style="stroke: none; stroke-width: 0; stroke-dasharray: none; stroke-linecap: butt; stroke-linejoin: miter; stroke-miterlimit: 10; fill: none; fill-rule: nonzero; opacity: 1;" transform="translate(-175.05 -175.05000000000004) scale(3.89 3.89)" >
	<path d="M 84.129 19.753 H 70.754 V 10.58 c 0 -3.151 -2.563 -5.714 -5.714 -5.714 s -5.714 2.563 -5.714 5.714 v 9.174 H 30.674 V 10.58 c 0 -3.151 -2.563 -5.714 -5.714 -5.714 s -5.714 2.563 -5.714 5.714 v 9.174 H 5.872 C 2.634 19.753 0 22.387 0 25.625 v 53.638 c 0 3.238 2.634 5.872 5.872 5.872 h 78.257 c 3.237 0 5.871 -2.634 5.871 -5.872 V 25.625 C 90 22.387 87.366 19.753 84.129 19.753 z M 61.326 10.58 c 0 -2.048 1.666 -3.714 3.714 -3.714 s 3.714 1.666 3.714 3.714 v 10.214 c 0 2.048 -1.666 3.714 -3.714 3.714 s -3.714 -1.666 -3.714 -3.714 V 10.58 z M 21.246 10.58 c 0 -2.048 1.666 -3.714 3.714 -3.714 s 3.714 1.666 3.714 3.714 v 10.214 c 0 2.048 -1.666 3.714 -3.714 3.714 s -3.714 -1.666 -3.714 -3.714 V 10.58 z M 5.872 21.753 h 13.461 c 0.458 2.695 2.804 4.755 5.627 4.755 s 5.169 -2.06 5.627 -4.755 h 28.826 c 0.458 2.695 2.804 4.755 5.627 4.755 s 5.168 -2.06 5.627 -4.755 h 13.462 c 2.135 0 3.871 1.737 3.871 3.872 v 5.513 H 2 v -5.513 C 2 23.49 3.737 21.753 5.872 21.753 z" style="stroke: none; stroke-width: 1; stroke-dasharray: none; stroke-linecap: butt; stroke-linejoin: miter; stroke-miterlimit: 10; fill: rgb(40,66,104); fill-rule: nonzero; opacity: 1;" transform=" matrix(1 0 0 1 0 0) " stroke-linecap="round" />
	<path d="M 5.872 21.753 h 13.461 c 0.458 2.695 2.804 4.755 5.627 4.755 s 5.169 -2.06 5.627 -4.755 h 28.826 c 0.458 2.695 2.804 4.755 5.627 4.755 s 5.168 -2.06 5.627 -4.755 h 13.462 c 2.135 0 3.871 1.737 3.871 3.872 v 5.513 H 2 v -5.513 C 2 23.49 3.737 21.753 5.872 21.753 z" style="stroke: none; stroke-width: 1; stroke-dasharray: none; stroke-linecap: butt; stroke-linejoin: miter; stroke-miterlimit: 10; fill: rgb(241,98,108); fill-rule: nonzero; opacity: 1;" transform=" matrix(1 0 0 1 0 0) " stroke-linecap="round" />
	<path d="M 84.129 83.135 H 5.872 C 3.737 83.135 2 81.397 2 79.263 V 33.138 h 86 v 46.125 C 88 81.397 86.264 83.135 84.129 83.135 z" style="stroke: none; stroke-width: 1; stroke-dasharray: none; stroke-linecap: butt; stroke-linejoin: miter; stroke-miterlimit: 10; fill: rgb(232,243,255); fill-rule: nonzero; opacity: 1;" transform=" matrix(1 0 0 1 0 0) " stroke-linecap="round" />
	<path d="M 27.223 65.581 h -1.264 V 49.932 c 0 -0.387 -0.223 -0.738 -0.572 -0.903 c -0.35 -0.169 -0.762 -0.116 -1.062 0.13 l -2.773 2.271 c -0.427 0.35 -0.49 0.979 -0.14 1.407 s 0.981 0.49 1.407 0.14 l 1.14 -0.934 v 13.538 h -1.773 c -0.552 0 -1 0.447 -1 1 s 0.448 1 1 1 h 5.038 c 0.552 0 1 -0.447 1 -1 S 27.775 65.581 27.223 65.581 z" style="stroke: none; stroke-width: 1; stroke-dasharray: none; stroke-linecap: butt; stroke-linejoin: miter; stroke-miterlimit: 10; fill: rgb(40,66,104); fill-rule: nonzero; opacity: 1;" transform=" matrix(1 0 0 1 0 0) " stroke-linecap="round" />
	<path d="M 18.03 54.475 c 0 -2.983 -2.427 -5.411 -5.411 -5.411 c -2.382 0 -4.516 1.597 -5.189 3.883 c -0.156 0.529 0.147 1.086 0.677 1.241 c 0.53 0.159 1.086 -0.146 1.242 -0.677 c 0.424 -1.44 1.769 -2.447 3.271 -2.447 c 1.881 0 3.411 1.53 3.411 3.411 c 0 1.123 -0.543 2.142 -1.455 2.781 h -2.762 c -0.552 0 -1 0.447 -1 1 s 0.448 1 1 1 h 2.761 c 0.913 0.641 1.456 1.659 1.456 2.781 c 0 1.882 -1.53 3.412 -3.411 3.412 c -1.501 0 -2.846 -1.007 -3.271 -2.447 c -0.157 -0.53 -0.714 -0.837 -1.242 -0.677 c -0.53 0.156 -0.833 0.712 -0.677 1.241 c 0.674 2.286 2.808 3.883 5.189 3.883 c 2.984 0 5.411 -2.428 5.411 -5.412 c 0 -1.445 -0.561 -2.788 -1.545 -3.785 C 17.459 57.252 18.03 55.895 18.03 54.475 z" style="stroke: none; stroke-width: 1; stroke-dasharray: none; stroke-linecap: butt; stroke-linejoin: miter; stroke-miterlimit: 10; fill: rgb(40,66,104); fill-rule: nonzero; opacity: 1;" transform=" matrix(1 0 0 1 0 0) " stroke-linecap="round" />
	<path d="M 65.91 59.256 c 0.553 0 1 -0.447 1 -1 s -0.447 -1 -1 -1 h -7.914 v -6.324 h 7.914 c 0.553 0 1 -0.447 1 -1 s -0.447 -1 -1 -1 h -8.914 c -0.553 0 -1 0.447 -1 1 v 16.649 c 0 0.553 0.447 1 1 1 h 8.914 c 0.553 0 1 -0.447 1 -1 s -0.447 -1 -1 -1 h -7.914 v -6.325 H 65.91 z" style="stroke: none; stroke-width: 1; stroke-dasharray: none; stroke-linecap: butt; stroke-linejoin: miter; stroke-miterlimit: 10; fill: rgb(40,66,104); fill-rule: nonzero; opacity: 1;" transform=" matrix(1 0 0 1 0 0) " stroke-linecap="round" />
	<path d="M 47.931 67.581 h -6.745 c -0.552 0 -1 -0.447 -1 -1 V 49.932 c 0 -0.553 0.448 -1 1 -1 h 6.745 c 2.531 0 4.59 2.059 4.59 4.59 v 9.47 C 52.521 65.522 50.462 67.581 47.931 67.581 z M 42.186 65.581 h 5.745 c 1.428 0 2.59 -1.162 2.59 -2.59 v -9.47 c 0 -1.428 -1.162 -2.59 -2.59 -2.59 h -5.745 V 65.581 z" style="stroke: none; stroke-width: 1; stroke-dasharray: none; stroke-linecap: butt; stroke-linejoin: miter; stroke-miterlimit: 10; fill: rgb(40,66,104); fill-rule: nonzero; opacity: 1;" transform=" matrix(1 0 0 1 0 0) " stroke-linecap="round" />
	<path d="M 81.61 67.581 h -6.744 c -2.531 0 -4.59 -2.059 -4.59 -4.59 v -9.47 c 0 -2.531 2.059 -4.59 4.59 -4.59 h 6.744 c 0.553 0 1 0.447 1 1 s -0.447 1 -1 1 h -6.744 c -1.428 0 -2.59 1.162 -2.59 2.59 v 9.47 c 0 1.428 1.162 2.59 2.59 2.59 h 6.744 c 0.553 0 1 0.447 1 1 S 82.163 67.581 81.61 67.581 z" style="stroke: none; stroke-width: 1; stroke-dasharray: none; stroke-linecap: butt; stroke-linejoin: miter; stroke-miterlimit: 10; fill: rgb(40,66,104); fill-rule: nonzero; opacity: 1;" transform=" matrix(1 0 0 1 0 0) " stroke-linecap="round" />
	<path d="M 61.326 10.58 c 0 -2.048 1.666 -3.714 3.714 -3.714 s 3.714 1.666 3.714 3.714 v 10.214 c 0 2.048 -1.666 3.714 -3.714 3.714 s -3.714 -1.666 -3.714 -3.714 V 10.58 z" style="stroke: none; stroke-width: 1; stroke-dasharray: none; stroke-linecap: butt; stroke-linejoin: miter; stroke-miterlimit: 10; fill: rgb(241,98,108); fill-rule: nonzero; opacity: 1;" transform=" matrix(1 0 0 1 0 0) " stroke-linecap="round" />
	<path d="M 21.246 10.58 c 0 -2.048 1.666 -3.714 3.714 -3.714 s 3.714 1.666 3.714 3.714 v 10.214 c 0 2.048 -1.666 3.714 -3.714 3.714 s -3.714 -1.666 -3.714 -3.714 V 10.58 z" style="stroke: none; stroke-width: 1; stroke-dasharray: none; stroke-linecap: butt; stroke-linejoin: miter; stroke-miterlimit: 10; fill: rgb(241,98,108); fill-rule: nonzero; opacity: 1;" transform=" matrix(1 0 0 1 0 0) " stroke-linecap="round" />
</g>
</g>
</svg>