<svg xmlns="http://www.w3.org/2000/svg" xmlns:xlink="http://www.w3.org/1999/xlink" version="1.1" width="256" height="256" viewBox="0 0 256 256" xml:space="preserve">
<desc>Created with Fabric.js 1.7.22</desc>
<defs>
</defs>
<g transform="translate(128 128) scale(0.72 0.72)" style="">
	<g style="stroke: none; stroke-width: 0; stroke-dasharray: none; stroke-linecap: butt; stroke-linejoin: miter; stroke-miterlimit: 10; fill: none; fill-rule: nonzero; opacity: 1;" transform="translate(-175.05 -175.05000000000004) scale(3.89 3.89)" >
	<path d="M 52.345 30.465 c 0.738 -5.856 3.743 -12.732 8.063 -20.201 c -6.305 1.059 -9.798 4.422 -11.465 8.189 L 45 1 l -3.943 17.454 c -1.667 -3.767 -5.16 -7.131 -11.465 -8.189 c 4.32 7.468 7.325 14.345 8.063 20.201 L 45 37.685 L 52.345 30.465 z" style="stroke: none; stroke-width: 1; stroke-dasharray: none; stroke-linecap: butt; stroke-linejoin: miter; stroke-miterlimit: 10; fill: rgb(249,212,56); fill-rule: nonzero; opacity: 1;" transform=" matrix(1 0 0 1 0 0) " stroke-linecap="round" />
	<path d="M 82.461 29.206 C 68.773 33.168 60.309 26.324 45 34.069 c -15.309 -7.744 -23.773 -0.901 -37.461 -4.863 C 1.595 60.904 37.436 64.506 45 41.813 C 52.564 64.506 88.405 60.904 82.461 29.206 z M 14.549 36.152 c 7.444 2.155 14.83 0.041 23.156 4.253 C 33.591 52.747 11.317 53.392 14.549 36.152 z M 52.295 40.405 c 8.326 -4.212 15.712 -2.098 23.156 -4.253 C 78.683 53.392 56.409 52.747 52.295 40.405 z" style="stroke: none; stroke-width: 1; stroke-dasharray: none; stroke-linecap: butt; stroke-linejoin: miter; stroke-miterlimit: 10; fill: rgb(241,98,108); fill-rule: nonzero; opacity: 1;" transform=" matrix(1 0 0 1 0 0) " stroke-linecap="round" />
	<path d="M 25.388 57.354 c -1.747 0 -3.462 -0.216 -5.09 -0.638 C 11.967 54.559 3.371 46.01 6.556 29.022 c 0.052 -0.277 0.219 -0.52 0.458 -0.667 c 0.24 -0.149 0.532 -0.188 0.802 -0.109 c 5.664 1.64 10.315 1.381 15.24 1.106 c 6.571 -0.366 13.365 -0.744 22.396 3.825 c 0.493 0.249 0.69 0.851 0.44 1.344 c -0.249 0.492 -0.85 0.69 -1.344 0.44 c -8.551 -4.326 -14.782 -3.979 -21.381 -3.612 c -4.581 0.256 -9.308 0.519 -14.832 -0.89 c -2.402 14.902 4.79 22.333 12.464 24.322 c 8.399 2.174 19.404 -1.739 23.252 -13.285 c 0.175 -0.523 0.74 -0.809 1.265 -0.632 c 0.524 0.175 0.807 0.741 0.632 1.265 C 42.459 52.597 33.592 57.354 25.388 57.354 z" style="stroke: none; stroke-width: 1; stroke-dasharray: none; stroke-linecap: butt; stroke-linejoin: miter; stroke-miterlimit: 10; fill: rgb(40,66,104); fill-rule: nonzero; opacity: 1;" transform=" matrix(1 0 0 1 0 0) " stroke-linecap="round" />
	<path d="M 24.466 50.418 c -1.178 0 -2.332 -0.14 -3.425 -0.424 c -6.034 -1.563 -8.828 -6.807 -7.475 -14.026 c 0.052 -0.277 0.219 -0.52 0.458 -0.667 c 0.24 -0.148 0.531 -0.188 0.803 -0.109 c 2.905 0.841 5.796 1.007 8.857 1.184 c 4.587 0.264 9.33 0.537 14.471 3.138 c 0.443 0.224 0.654 0.738 0.498 1.208 C 36.544 47.05 30.24 50.418 24.466 50.418 z M 15.363 37.4 c -0.72 5.587 1.497 9.444 6.18 10.658 c 5.231 1.354 12.406 -1.262 14.904 -7.15 c -4.475 -2.053 -8.742 -2.298 -12.876 -2.536 C 20.887 38.218 18.124 38.059 15.363 37.4 z" style="stroke: none; stroke-width: 1; stroke-dasharray: none; stroke-linecap: butt; stroke-linejoin: miter; stroke-miterlimit: 10; fill: rgb(40,66,104); fill-rule: nonzero; opacity: 1;" transform=" matrix(1 0 0 1 0 0) " stroke-linecap="round" />
	<path d="M 64.612 57.354 c -8.205 0 -17.071 -4.758 -20.561 -15.225 c -0.175 -0.524 0.108 -1.09 0.632 -1.265 c 0.526 -0.177 1.091 0.109 1.265 0.632 c 3.847 11.544 14.849 15.458 23.252 13.285 c 7.674 -1.989 14.865 -9.42 12.463 -24.322 c -5.523 1.409 -10.25 1.147 -14.831 0.89 c -6.597 -0.365 -12.828 -0.714 -21.381 3.612 c -0.494 0.25 -1.095 0.052 -1.344 -0.44 c -0.25 -0.493 -0.052 -1.095 0.44 -1.344 c 9.03 -4.569 15.821 -4.193 22.396 -3.825 c 4.924 0.273 9.575 0.533 15.238 -1.106 c 0.273 -0.078 0.563 -0.039 0.803 0.109 c 0.24 0.148 0.406 0.39 0.458 0.667 c 3.186 16.988 -5.411 25.537 -13.741 27.695 C 68.074 57.139 66.358 57.354 64.612 57.354 z" style="stroke: none; stroke-width: 1; stroke-dasharray: none; stroke-linecap: butt; stroke-linejoin: miter; stroke-miterlimit: 10; fill: rgb(40,66,104); fill-rule: nonzero; opacity: 1;" transform=" matrix(1 0 0 1 0 0) " stroke-linecap="round" />
	<path d="M 65.534 50.418 c -5.774 0 -12.078 -3.367 -14.188 -9.696 c -0.157 -0.471 0.055 -0.985 0.497 -1.208 c 5.142 -2.601 9.885 -2.874 14.472 -3.138 c 3.061 -0.176 5.952 -0.342 8.857 -1.184 c 0.274 -0.077 0.563 -0.039 0.803 0.109 c 0.24 0.148 0.406 0.39 0.458 0.667 c 1.354 7.219 -1.44 12.462 -7.475 14.026 C 67.866 50.277 66.711 50.418 65.534 50.418 z M 53.554 40.908 c 2.497 5.888 9.671 8.502 14.903 7.15 c 4.684 -1.214 6.899 -5.071 6.18 -10.658 c -2.76 0.658 -5.523 0.817 -8.207 0.972 C 62.296 38.61 58.028 38.855 53.554 40.908 z" style="stroke: none; stroke-width: 1; stroke-dasharray: none; stroke-linecap: butt; stroke-linejoin: miter; stroke-miterlimit: 10; fill: rgb(40,66,104); fill-rule: nonzero; opacity: 1;" transform=" matrix(1 0 0 1 0 0) " stroke-linecap="round" />
	<path d="M 37.653 31.465 c -0.497 0 -0.927 -0.37 -0.991 -0.875 c -0.662 -5.25 -3.257 -11.735 -7.937 -19.825 c -0.194 -0.335 -0.177 -0.752 0.044 -1.07 s 0.604 -0.483 0.987 -0.417 c 5.745 0.965 9.027 3.695 10.898 6.414 L 44.024 0.78 C 44.127 0.324 44.533 0 45 0 s 0.873 0.324 0.976 0.78 l 3.369 14.912 c 1.871 -2.719 5.153 -5.449 10.897 -6.414 c 0.387 -0.065 0.767 0.099 0.987 0.417 c 0.221 0.318 0.238 0.735 0.044 1.07 c -4.679 8.09 -7.274 14.575 -7.936 19.825 c -0.069 0.547 -0.567 0.939 -1.117 0.867 c -0.548 -0.069 -0.937 -0.569 -0.867 -1.117 c 0.64 -5.078 2.957 -11.18 7.073 -18.606 c -5.065 1.457 -7.45 4.595 -8.569 7.125 c -0.175 0.394 -0.59 0.634 -1.011 0.59 c -0.43 -0.042 -0.783 -0.354 -0.879 -0.775 L 45 5.538 l -2.967 13.136 c -0.095 0.421 -0.449 0.733 -0.878 0.775 c -0.434 0.044 -0.837 -0.196 -1.012 -0.59 c -1.119 -2.529 -3.503 -5.668 -8.569 -7.125 c 4.116 7.426 6.434 13.528 7.073 18.606 c 0.069 0.548 -0.319 1.048 -0.867 1.117 C 37.737 31.462 37.695 31.465 37.653 31.465 z" style="stroke: none; stroke-width: 1; stroke-dasharray: none; stroke-linecap: butt; stroke-linejoin: miter; stroke-miterlimit: 10; fill: rgb(40,66,104); fill-rule: nonzero; opacity: 1;" transform=" matrix(1 0 0 1 0 0) " stroke-linecap="round" />
	<path d="M 6.877 90 c -0.552 0 -1 -0.447 -1 -1 V 36.152 c 0 -0.552 0.448 -1 1 -1 s 1 0.448 1 1 V 89 C 7.877 89.553 7.429 90 6.877 90 z" style="stroke: none; stroke-width: 1; stroke-dasharray: none; stroke-linecap: butt; stroke-linejoin: miter; stroke-miterlimit: 10; fill: rgb(40,66,104); fill-rule: nonzero; opacity: 1;" transform=" matrix(1 0 0 1 0 0) " stroke-linecap="round" />
</g>
</g>
</svg>