<svg xmlns="http://www.w3.org/2000/svg" xmlns:xlink="http://www.w3.org/1999/xlink" version="1.1" width="256" height="256" viewBox="0 0 256 256" xml:space="preserve">
<desc>Created with Fabric.js 1.7.22</desc>
<defs>
</defs>
<g transform="translate(128 128) scale(0.72 0.72)" style="">
	<g style="stroke: none; stroke-width: 0; stroke-dasharray: none; stroke-linecap: butt; stroke-linejoin: miter; stroke-miterlimit: 10; fill: none; fill-rule: nonzero; opacity: 1;" transform="translate(-175.05 -175.05000000000004) scale(3.89 3.89)" >
	<line x1="0" y1="-29.7205" x2="0" y2="29.7205" style="stroke: none; stroke-width: 1; stroke-dasharray: none; stroke-linecap: butt; stroke-linejoin: miter; stroke-miterlimit: 10; fill: rgb(0,0,0); fill-rule: nonzero; opacity: 1;" transform=" matrix(1 0 0 1 0 0) "/>
	<path d="M 45 90 c -0.552 0 -1 -0.447 -1 -1 V 29.559 c 0 -0.552 0.448 -1 1 -1 s 1 0.448 1 1 V 89 C 46 89.553 45.553 90 45 90 z" style="stroke: none; stroke-width: 1; stroke-dasharray: none; stroke-linecap: butt; stroke-linejoin: miter; stroke-miterlimit: 10; fill: rgb(40,66,104); fill-rule: nonzero; opacity: 1;" transform=" matrix(1 0 0 1 0 0) " stroke-linecap="round" />
	<line x1="0" y1="-15.77" x2="0" y2="15.77" style="stroke: none; stroke-width: 1; stroke-dasharray: none; stroke-linecap: butt; stroke-linejoin: miter; stroke-miterlimit: 10; fill: rgb(0,0,0); fill-rule: nonzero; opacity: 1;" transform=" matrix(1 0 0 1 0 0) "/>
	<path d="M 23.33 90 c -0.552 0 -1 -0.447 -1 -1 V 57.46 c 0 -0.553 0.448 -1 1 -1 s 1 0.447 1 1 V 89 C 24.33 89.553 23.882 90 23.33 90 z" style="stroke: none; stroke-width: 1; stroke-dasharray: none; stroke-linecap: butt; stroke-linejoin: miter; stroke-miterlimit: 10; fill: rgb(40,66,104); fill-rule: nonzero; opacity: 1;" transform=" matrix(1 0 0 1 0 0) " stroke-linecap="round" />
	<line x1="0" y1="-9.411499999999997" x2="0" y2="9.411499999999997" style="stroke: none; stroke-width: 1; stroke-dasharray: none; stroke-linecap: butt; stroke-linejoin: miter; stroke-miterlimit: 10; fill: rgb(0,0,0); fill-rule: nonzero; opacity: 1;" transform=" matrix(1 0 0 1 0 0) "/>
	<path d="M 66.67 90 c -0.553 0 -1 -0.447 -1 -1 V 70.177 c 0 -0.553 0.447 -1 1 -1 s 1 0.447 1 1 V 89 C 67.67 89.553 67.223 90 66.67 90 z" style="stroke: none; stroke-width: 1; stroke-dasharray: none; stroke-linecap: butt; stroke-linejoin: miter; stroke-miterlimit: 10; fill: rgb(40,66,104); fill-rule: nonzero; opacity: 1;" transform=" matrix(1 0 0 1 0 0) " stroke-linecap="round" />
	<polygon points="23.33,28.21 27,35.64 35.19,36.83 29.26,42.62 30.66,50.78 23.33,46.93 16,50.78 17.4,42.62 11.47,36.83 19.66,35.64 " style="stroke: none; stroke-width: 1; stroke-dasharray: none; stroke-linecap: butt; stroke-linejoin: miter; stroke-miterlimit: 10; fill: rgb(249,212,56); fill-rule: nonzero; opacity: 1;" transform="  matrix(1 0 0 1 0 0) "/>
	<polygon points="66.67,41.3 70.34,48.73 78.53,49.92 72.6,55.7 74,63.87 66.67,60.01 59.34,63.87 60.74,55.7 54.81,49.92 63,48.73 " style="stroke: none; stroke-width: 1; stroke-dasharray: none; stroke-linecap: butt; stroke-linejoin: miter; stroke-miterlimit: 10; fill: rgb(241,98,108); fill-rule: nonzero; opacity: 1;" transform="  matrix(1 0 0 1 0 0) "/>
	<polygon points="45,1 48.67,8.43 56.86,9.62 50.93,15.4 52.33,23.57 45,19.71 37.67,23.57 39.07,15.4 33.14,9.62 41.33,8.43 " style="stroke: none; stroke-width: 1; stroke-dasharray: none; stroke-linecap: butt; stroke-linejoin: miter; stroke-miterlimit: 10; fill: rgb(84,190,250); fill-rule: nonzero; opacity: 1;" transform="  matrix(1 0 0 1 0 0) "/>
	<path d="M 15.998 51.78 c -0.207 0 -0.414 -0.064 -0.588 -0.191 c -0.308 -0.224 -0.462 -0.603 -0.398 -0.978 l 1.312 -7.646 l -5.555 -5.416 c -0.272 -0.266 -0.371 -0.663 -0.253 -1.025 s 0.431 -0.626 0.808 -0.681 L 19 34.729 l 3.433 -6.957 c 0.337 -0.683 1.457 -0.683 1.794 0 l 3.433 6.957 l 7.677 1.115 c 0.377 0.055 0.69 0.319 0.808 0.681 c 0.118 0.362 0.02 0.759 -0.253 1.025 l -5.556 5.415 l 1.312 7.646 c 0.064 0.375 -0.09 0.754 -0.398 0.978 c -0.308 0.225 -0.716 0.254 -1.053 0.076 l -6.867 -3.609 l -6.867 3.609 C 16.316 51.742 16.157 51.78 15.998 51.78 z M 13.615 37.532 l 4.481 4.368 c 0.235 0.23 0.343 0.561 0.288 0.885 l -1.058 6.167 l 5.539 -2.911 c 0.291 -0.154 0.64 -0.154 0.931 0 l 5.539 2.911 l -1.058 -6.167 c -0.055 -0.324 0.052 -0.655 0.288 -0.885 l 4.481 -4.368 l -6.192 -0.899 c -0.326 -0.047 -0.607 -0.252 -0.753 -0.547 l -2.769 -5.611 l -2.769 5.611 c -0.146 0.295 -0.427 0.5 -0.753 0.547 L 13.615 37.532 z" style="stroke: none; stroke-width: 1; stroke-dasharray: none; stroke-linecap: butt; stroke-linejoin: miter; stroke-miterlimit: 10; fill: rgb(40,66,104); fill-rule: nonzero; opacity: 1;" transform=" matrix(1 0 0 1 0 0) " stroke-linecap="round" />
	<path d="M 74.002 64.866 c -0.159 0 -0.319 -0.038 -0.466 -0.115 l -6.866 -3.61 l -6.866 3.61 c -0.337 0.178 -0.743 0.148 -1.054 -0.076 c -0.308 -0.224 -0.462 -0.603 -0.397 -0.978 l 1.312 -7.647 l -5.556 -5.415 c -0.272 -0.266 -0.37 -0.663 -0.253 -1.024 c 0.118 -0.362 0.431 -0.626 0.808 -0.681 l 7.677 -1.115 l 3.434 -6.957 c 0.336 -0.683 1.457 -0.683 1.793 0 L 71 47.814 l 7.678 1.115 c 0.377 0.055 0.689 0.318 0.808 0.681 c 0.117 0.361 0.02 0.759 -0.253 1.024 l -5.557 5.416 l 1.312 7.646 c 0.064 0.375 -0.09 0.754 -0.397 0.978 C 74.415 64.802 74.209 64.866 74.002 64.866 z M 66.67 59.011 c 0.16 0 0.319 0.038 0.466 0.115 l 5.538 2.912 l -1.058 -6.168 c -0.056 -0.324 0.052 -0.655 0.287 -0.885 l 4.481 -4.368 l -6.192 -0.899 c -0.326 -0.047 -0.607 -0.252 -0.753 -0.547 l -2.77 -5.611 l -2.77 5.611 c -0.146 0.295 -0.427 0.5 -0.753 0.547 l -6.191 0.899 l 4.48 4.368 c 0.235 0.229 0.343 0.561 0.287 0.885 l -1.058 6.168 l 5.538 -2.912 C 66.351 59.049 66.51 59.011 66.67 59.011 z" style="stroke: none; stroke-width: 1; stroke-dasharray: none; stroke-linecap: butt; stroke-linejoin: miter; stroke-miterlimit: 10; fill: rgb(40,66,104); fill-rule: nonzero; opacity: 1;" transform=" matrix(1 0 0 1 0 0) " stroke-linecap="round" />
	<path d="M 37.668 24.566 c -0.207 0 -0.414 -0.064 -0.588 -0.191 c -0.308 -0.224 -0.462 -0.603 -0.398 -0.978 l 1.312 -7.646 l -5.555 -5.415 c -0.272 -0.266 -0.371 -0.663 -0.253 -1.025 c 0.118 -0.362 0.431 -0.626 0.807 -0.681 l 7.677 -1.116 l 3.434 -6.957 C 44.272 0.216 44.62 0 45 0 l 0 0 c 0.381 0 0.729 0.216 0.897 0.558 l 3.433 6.957 l 7.678 1.116 c 0.377 0.055 0.689 0.319 0.808 0.681 c 0.117 0.362 0.02 0.76 -0.253 1.025 l -5.557 5.415 l 1.312 7.646 c 0.064 0.375 -0.09 0.754 -0.397 0.978 c -0.307 0.224 -0.716 0.253 -1.054 0.076 L 45 20.841 l -6.867 3.61 C 37.987 24.528 37.827 24.566 37.668 24.566 z M 35.286 10.318 l 4.481 4.367 c 0.235 0.23 0.343 0.561 0.288 0.885 l -1.058 6.167 l 5.539 -2.912 c 0.291 -0.153 0.64 -0.153 0.931 0 l 5.538 2.912 l -1.058 -6.167 c -0.056 -0.324 0.052 -0.655 0.287 -0.885 l 4.481 -4.367 l -6.192 -0.9 c -0.326 -0.047 -0.607 -0.252 -0.753 -0.547 L 45 3.26 l -2.77 5.611 c -0.146 0.295 -0.427 0.5 -0.752 0.547 L 35.286 10.318 z" style="stroke: none; stroke-width: 1; stroke-dasharray: none; stroke-linecap: butt; stroke-linejoin: miter; stroke-miterlimit: 10; fill: rgb(40,66,104); fill-rule: nonzero; opacity: 1;" transform=" matrix(1 0 0 1 0 0) " stroke-linecap="round" />
</g>
</g>
</svg>